<?xml version="1.0" encoding="UTF-8" standalone="no"?>
<!-- Generator: Adobe Illustrator 16.0.0, SVG Export Plug-In . SVG Version: 6.00 Build 0)  -->

<svg
   xmlns:dc="http://purl.org/dc/elements/1.1/"
   xmlns:cc="http://creativecommons.org/ns#"
   xmlns:rdf="http://www.w3.org/1999/02/22-rdf-syntax-ns#"
   xmlns:svg="http://www.w3.org/2000/svg"
   xmlns="http://www.w3.org/2000/svg"
   xmlns:sodipodi="http://sodipodi.sourceforge.net/DTD/sodipodi-0.dtd"
   xmlns:inkscape="http://www.inkscape.org/namespaces/inkscape"
   version="1.1"
   id="Layer_1"
   x="0px"
   y="0px"
   width="150"
   height="150"
   viewBox="0 0 150 150.00001"
   xml:space="preserve"
   inkscape:version="0.91 r13725"
   sodipodi:docname="i_facebook.svg"><metadata
   id="metadata4299"><rdf:RDF><cc:Work
       rdf:about=""><dc:format>image/svg+xml</dc:format><dc:type
         rdf:resource="http://purl.org/dc/dcmitype/StillImage" /><dc:title></dc:title></cc:Work></rdf:RDF></metadata><defs
   id="defs4297" /><sodipodi:namedview
   pagecolor="#ffffff"
   bordercolor="#666666"
   borderopacity="1"
   objecttolerance="10"
   gridtolerance="10"
   guidetolerance="10"
   inkscape:pageopacity="0"
   inkscape:pageshadow="2"
   inkscape:window-width="1920"
   inkscape:window-height="1017"
   id="namedview4295"
   showgrid="false"
   inkscape:zoom="0.78869971"
   inkscape:cx="294.25742"
   inkscape:cy="-63.039904"
   inkscape:window-x="-4"
   inkscape:window-y="-4"
   inkscape:window-maximized="1"
   inkscape:current-layer="Layer_1" />
<path
   id="Blue_1_"
   style="fill:#485a96"
   d="m 141.72198,150.00001 c 4.57149,0 8.27804,-3.7071 8.27804,-8.2786 l 0,-133.4439399 c 0,-4.5731815 -3.70711,-8.2785994 -8.27804,-8.2785994 l -133.4433806,0 C 3.7054179,-0.0011293 0,3.7048506 0,8.2774701 L 0,141.72085 c 0,4.57206 3.7054179,8.2786 8.2785994,8.2786 l 133.4433806,0 z"
   inkscape:connector-curvature="0" />
<path
   id="f"
   style="fill:#ffffff"
   d="m 103.49767,150.00001 0,-58.088453 19.4977,0 2.91915,-22.638288 -22.41742,0 0,-14.453545 c 0,-6.554313 1.81984,-11.02071 11.21911,-11.02071 l 11.98739,-0.0056 0,-20.247442 c -2.0733,-0.275392 -9.18964,-0.891931 -17.46768,-0.891931 -17.283892,0 -29.116726,10.549735 -29.116726,29.924355 l 0,16.694893 -19.547723,0 0,22.638288 19.547723,0 0,58.087893 23.378476,0 z"
   inkscape:connector-curvature="0" />
<g
   id="g4283"
   transform="translate(0,-116.89499)">
</g>
<g
   id="g4285"
   transform="translate(0,-116.89499)">
</g>
<g
   id="g4287"
   transform="translate(0,-116.89499)">
</g>
<g
   id="g4289"
   transform="translate(0,-116.89499)">
</g>
<g
   id="g4291"
   transform="translate(0,-116.89499)">
</g>
<g
   id="g4293"
   transform="translate(0,-116.89499)">
</g>
</svg>