<?xml version="1.0" encoding="UTF-8" standalone="no"?>
<!-- Generator: Adobe Illustrator 16.0.0, SVG Export Plug-In . SVG Version: 6.00 Build 0)  -->

<svg
   xmlns:dc="http://purl.org/dc/elements/1.1/"
   xmlns:cc="http://creativecommons.org/ns#"
   xmlns:rdf="http://www.w3.org/1999/02/22-rdf-syntax-ns#"
   xmlns:svg="http://www.w3.org/2000/svg"
   xmlns="http://www.w3.org/2000/svg"
   xmlns:xlink="http://www.w3.org/1999/xlink"
   xmlns:sodipodi="http://sodipodi.sourceforge.net/DTD/sodipodi-0.dtd"
   xmlns:inkscape="http://www.inkscape.org/namespaces/inkscape"
   version="1.1"
   id="Layer_1"
   x="0px"
   y="0px"
   width="150"
   height="150"
   viewBox="0 0 150 150.00001"
   xml:space="preserve"
   inkscape:version="0.91 r13725"
   sodipodi:docname="i_instagram.svg"><metadata
   id="metadata3363"><rdf:RDF><cc:Work
       rdf:about=""><dc:format>image/svg+xml</dc:format><dc:type
         rdf:resource="http://purl.org/dc/dcmitype/StillImage" /><dc:title></dc:title></cc:Work></rdf:RDF></metadata><defs
   id="defs3361"><linearGradient
     id="linearGradient4246"
     inkscape:collect="always"><stop
       id="stop4234"
       offset="0"
       style="stop-color:#b732a3;stop-opacity:1" /><stop
       id="stop4236"
       offset="1"
       style="stop-color:#fca846;stop-opacity:1" /></linearGradient><linearGradient
     inkscape:collect="always"
     xlink:href="#linearGradient4246"
     id="linearGradient4222"
     x1="1004.9029"
     y1="575.47192"
     x2="657.37"
     y2="914.60071"
     gradientUnits="userSpaceOnUse"
     gradientTransform="matrix(0.33036433,0,0,0.33036433,-200.85095,-174.95284)" /></defs><sodipodi:namedview
   pagecolor="#ffffff"
   bordercolor="#666666"
   borderopacity="1"
   objecttolerance="10"
   gridtolerance="10"
   guidetolerance="10"
   inkscape:pageopacity="0"
   inkscape:pageshadow="2"
   inkscape:window-width="1920"
   inkscape:window-height="1017"
   id="namedview3359"
   showgrid="false"
   inkscape:zoom="1.3241773"
   inkscape:cx="211.95551"
   inkscape:cy="86.709072"
   inkscape:window-x="-4"
   inkscape:window-y="-4"
   inkscape:window-maximized="1"
   inkscape:current-layer="Layer_1" />
<path
   style="fill:url(#linearGradient4222);fill-opacity:1"
   d="M 74.705156,0.01056048 C 58.186158,0.01508204 41.706847,0.21027218 38.705768,0.59257016 27.260696,2.0505362 19.257796,5.671617 12.460515,12.468913 5.6632219,19.266206 2.0421419,27.2691 0.58418002,38.714165 c -0.77441759,6.079085 -0.78079657,65.973495 -0.00775,72.211705 1.68756668,13.61809 7.04442408,23.58283 16.37626398,30.46127 7.121859,5.2495 15.744066,7.74119 28.913977,8.35654 10.678761,0.49895 61.645669,0.17695 65.876709,-0.41618 11.42645,-1.60186 19.56995,-5.40698 26.27364,-12.27768 7.20164,-7.38105 10.64955,-16.17755 11.69698,-29.84054 0.54499,-7.10935 0.24741,-64.413528 -0.35812,-68.963563 C 148.58983,32.489524 147.00616,27.20616 144.59011,22.346938 138.40542,9.9082083 126.96027,2.5014037 110.94328,0.57257355 107.78282,0.19196551 91.224147,0.00598805 74.705156,0.01056048 Z M 74.990353,13.478716 c 14.480401,0 28.960877,0.137428 32.346027,0.412315 9.58911,0.778662 15.35125,3.094056 20.54646,8.254589 5.08026,5.046296 7.41984,10.915158 8.22942,20.642607 0.21736,2.611943 0.39555,17.106679 0.39555,32.210524 0,15.103845 -0.17819,29.598579 -0.39555,32.210529 -0.80893,9.7197 -3.14314,15.57698 -8.23846,20.67228 -5.0953,5.09531 -10.95321,7.43018 -20.67292,8.23911 -5.542,0.46123 -56.521506,0.43646 -63.801617,-0.031 -8.19799,-0.52638 -13.36249,-2.10248 -18.199722,-5.55425 -6.887103,-4.91453 -10.400829,-12.14824 -11.331107,-23.32617 -0.53043,-6.37349 -0.518598,-57.987709 0.01486,-64.556551 0.779329,-9.597313 3.099144,-15.371649 8.244267,-20.516784 5.145161,-5.14513 10.919472,-7.465587 20.516785,-8.24491 3.385165,-0.274887 17.865628,-0.412316 32.346023,-0.412316 z m 40.046357,12.423509 c -0.19788,0.0031 -0.4011,0.01014 -0.60912,0.02066 -2.38727,0.120546 -3.29999,0.370811 -4.67994,1.284029 -2.5334,1.676523 -3.90818,3.998686 -4.12246,6.960881 -0.31193,4.312413 1.47552,7.605716 5.0529,9.309567 2.92626,1.393738 6.8118,1.22859 9.2631,-0.3936 2.74143,-1.814202 3.94767,-4.014725 4.12505,-7.527406 0.16406,-3.249122 -0.36161,-4.800048 -2.35579,-6.949904 -1.84251,-1.986326 -3.70566,-2.754434 -6.67374,-2.704216 z M 74.601278,36.337091 c -3.568817,0.03394 -7.145507,0.376673 -9.521853,1.0169 -12.746979,3.434245 -23.148634,13.366689 -27.205372,25.977477 -2.579917,8.019853 -2.126865,18.304341 1.169176,26.533678 3.081274,7.693057 9.566848,14.977434 17.059575,19.160494 2.880048,1.60786 8.944314,3.74903 12.326719,4.35215 3.472886,0.61928 12.883911,0.20659 16.265281,-0.71299 14.021129,-3.81314 24.346396,-14.233856 28.113876,-28.374558 0.59413,-2.229943 0.76977,-4.353743 0.76977,-9.291491 0,-4.937737 -0.17564,-7.061548 -0.76977,-9.291491 C 108.98606,51.359547 98.352173,40.799709 84.075373,37.173969 81.731028,36.578597 78.17009,36.303181 74.601278,36.337091 Z m 0.389075,13.471378 c 7.193719,0 12.626493,2.26646 17.775144,7.415133 5.148667,5.148673 7.415133,10.581447 7.415133,17.775149 0,2.129649 -0.288408,4.920238 -0.654918,6.340805 -2.186447,8.474903 -9.719656,16.008101 -18.194554,18.194558 -3.388977,0.874326 -9.91151,0.816106 -13.154566,-0.117436 C 61.720515,97.558254 55.382973,92.348472 52.539129,86.561501 50.458957,82.328473 49.810374,79.601056 49.804587,75.058119 49.79533,67.807983 52.045928,62.392882 57.215204,57.223602 62.363866,52.074929 67.79664,49.808469 74.990353,49.808469 Z"
   id="path3406"
   inkscape:connector-curvature="0" />

<g
   id="g3347"
   transform="translate(0,-116.89499)">
</g>
<g
   id="g3349"
   transform="translate(0,-116.89499)">
</g>
<g
   id="g3351"
   transform="translate(0,-116.89499)">
</g>
<g
   id="g3353"
   transform="translate(0,-116.89499)">
</g>
<g
   id="g3355"
   transform="translate(0,-116.89499)">
</g>
<g
   id="g3357"
   transform="translate(0,-116.89499)">
</g>
<path
   style="fill:#000000"
   d=""
   id="path3376"
   inkscape:connector-curvature="0" /></svg>