<?xml version="1.0" encoding="UTF-8" standalone="no"?>
<!-- Generator: Adobe Illustrator 16.0.0, SVG Export Plug-In . SVG Version: 6.00 Build 0)  -->

<svg
   xmlns:dc="http://purl.org/dc/elements/1.1/"
   xmlns:cc="http://creativecommons.org/ns#"
   xmlns:rdf="http://www.w3.org/1999/02/22-rdf-syntax-ns#"
   xmlns:svg="http://www.w3.org/2000/svg"
   xmlns="http://www.w3.org/2000/svg"
   xmlns:sodipodi="http://sodipodi.sourceforge.net/DTD/sodipodi-0.dtd"
   xmlns:inkscape="http://www.inkscape.org/namespaces/inkscape"
   version="1.1"
   id="Layer_1"
   x="0px"
   y="0px"
   width="150"
   height="150"
   viewBox="-0.25 -0.25 150 150"
   xml:space="preserve"
   inkscape:version="0.91 r13725"
   sodipodi:docname="i_twitter.svg"><metadata
   id="metadata4324"><rdf:RDF><cc:Work
       rdf:about=""><dc:format>image/svg+xml</dc:format><dc:type
         rdf:resource="http://purl.org/dc/dcmitype/StillImage" /><dc:title></dc:title></cc:Work></rdf:RDF></metadata><defs
   id="defs4322" /><sodipodi:namedview
   pagecolor="#ffffff"
   bordercolor="#666666"
   borderopacity="1"
   objecttolerance="10"
   gridtolerance="10"
   guidetolerance="10"
   inkscape:pageopacity="0"
   inkscape:pageshadow="2"
   inkscape:window-width="1920"
   inkscape:window-height="1017"
   id="namedview4320"
   showgrid="false"
   inkscape:zoom="1.3284241"
   inkscape:cx="205.5677"
   inkscape:cy="-4.2826603"
   inkscape:window-x="-4"
   inkscape:window-y="-4"
   inkscape:window-maximized="1"
   inkscape:current-layer="Layer_1" />
<path
   style="fill:#5da8dc;stroke:#5da8dc;stroke-width:0.06759802"
   d="m 99.96411,13.871227 0,-0.02704 3.5151,0 3.51509,0 2.56873,0.513745 c 1.71253,0.333529 3.26728,0.770617 4.66426,1.311402 1.39712,0.540784 2.74908,1.171744 4.05588,1.892744 1.30694,0.721001 2.49221,1.455656 3.55579,2.203695 1.05453,0.739117 2.00091,1.523254 2.83912,2.352411 0.82902,0.838216 2.12244,1.054529 3.87999,0.648941 1.75755,-0.405588 3.65029,-0.96895 5.67824,-1.68995 2.02794,-0.721 4.03343,-1.532177 6.01622,-2.433529 1.98292,-0.901352 3.19076,-1.473636 3.62339,-1.716989 0.42357,-0.252276 0.64894,-0.387472 0.67598,-0.405588 l 0.0269,-0.04056 0.1352,-0.0676 0.13519,-0.0676 0.1352,-0.0676 0.1352,-0.0676 0.027,-0.04056 0.0405,-0.02704 0.0407,-0.02704 0.0269,-0.04056 0.1352,-0.04056 0.13519,-0.02704 -0.0269,0.202794 -0.0407,0.202794 -0.0676,0.202794 -0.0676,0.202794 -0.0676,0.135196 -0.0676,0.135196 -0.0676,0.202794 c -0.045,0.135196 -0.09,0.315412 -0.1352,0.540784 -0.045,0.225372 -0.47319,1.126589 -1.28436,2.703921 -0.81118,1.577332 -1.82515,3.177107 -3.04191,4.799459 -1.21677,1.622352 -2.30726,2.84804 -3.27161,3.677332 -0.97341,0.838216 -1.61789,1.42402 -1.93344,1.757549 -0.31541,0.342451 -0.69842,0.657864 -1.14917,0.946372 l -0.67598,0.446147 -0.13519,0.0676 -0.1352,0.0676 -0.0269,0.04056 -0.0407,0.02704 -0.0406,0.02704 -0.027,0.04056 -0.13519,0.0676 -0.1352,0.0676 -0.0269,0.04056 -0.0407,0.02704 -0.0405,0.02704 -0.027,0.04056 -0.0269,0.04056 -0.0407,0.02704 -0.0406,0.02704 -0.027,0.04056 0.33799,0 0.33799,0 3.78549,-0.811177 c 2.5237,-0.540784 4.93466,-1.194187 7.23299,-1.960343 2.29833,-0.766156 3.51509,-1.171743 3.65029,-1.216764 0.1352,-0.04502 0.27039,-0.09018 0.40559,-0.135196 l 0.20279,-0.0676 0.1352,-0.0676 0.13519,-0.0676 0.1352,-0.0676 0.1352,-0.0676 0.27039,-0.04056 0.27039,-0.02704 0,0.135196 0,0.135196 -0.0676,0.02704 -0.0676,0.04056 -0.0269,0.04056 -0.0407,0.02704 -0.0406,0.02704 -0.027,0.04056 -0.0269,0.04056 -0.0407,0.02704 -0.0406,0.02704 -0.027,0.04056 -0.0269,0.04056 -0.0407,0.02704 -0.0676,0.135196 -0.0676,0.135196 -0.0406,0.02704 c -0.018,0.02704 -0.59027,0.793059 -1.71699,2.298333 -1.12659,1.514195 -1.73497,2.280216 -1.82515,2.298332 -0.09,0.02704 -0.21631,0.162236 -0.37854,0.405589 -0.15318,0.252274 -1.10861,1.257323 -2.86616,3.014871 -1.75755,1.757548 -3.47887,3.321226 -5.16435,4.691302 -1.69442,1.378999 -2.55075,3.073411 -2.56873,5.083371 -0.027,2.000901 -0.13073,4.263272 -0.31108,6.78684 -0.18022,2.523706 -0.51821,5.250068 -1.01398,8.17936 -0.49562,2.929293 -1.26178,6.241596 -2.29833,9.936909 -1.03641,3.695313 -2.29833,7.300586 -3.78549,10.815684 -1.48715,3.515092 -3.04191,6.669633 -4.66426,9.463723 -1.62235,2.7941 -3.10951,5.16003 -4.46147,7.0978 -1.35196,1.937756 -2.72636,3.762906 -4.12348,5.475436 -1.39698,1.71252 -3.16345,3.64137 -5.29955,5.78639 -2.14515,2.13609 -3.31676,3.30784 -3.51509,3.51508 -0.20726,0.19833 -1.0905,0.93745 -2.64998,2.21722 -1.55016,1.28882 -3.217667,2.57764 -5.002255,3.8666 -1.77553,1.2799 -3.40694,2.34795 -4.894096,3.20415 -1.487157,0.8562 -3.280667,1.83407 -5.380803,2.93375 -2.090942,1.10861 -4.353312,2.1361 -6.786841,3.08247 -2.433528,0.94638 -5.002253,1.82515 -7.706174,2.63633 -2.70392,0.81117 -5.317665,1.44213 -7.84137,1.89274 -2.523569,0.45061 -5.385263,0.83375 -8.584948,1.14917 l -4.799459,0.47318 0,0.0406 0,0.027 -4.393871,0 -4.393871,0 0,-0.027 0,-0.0406 -1.149166,-0.0676 c -0.766021,-0.045 -1.396981,-0.0902 -1.892745,-0.13519 -0.495629,-0.045 -2.365931,-0.29296 -5.610635,-0.74358 -3.244705,-0.45061 -5.790852,-0.90135 -7.638576,-1.35196 -1.847589,-0.45061 -4.596665,-1.30693 -8.246958,-2.56872 -3.650293,-1.26179 -6.773322,-2.53723 -9.369085,-3.82605 -2.5867057,-1.2799 -4.2090582,-2.09108 -4.8670573,-2.43353 -0.6489409,-0.33353 -1.3789995,-0.74804 -2.1901757,-1.2438 l -1.21676435,-0.74358 -0.026904,-0.0406 -0.040694,-0.027 -0.0405588,-0.027 -0.0270392,-0.0406 -0.13519604,-0.0676 -0.13519603,-0.0676 -0.02690401,-0.0406 -0.04069401,-0.027 -0.04055881,-0.027 -0.02703921,-0.0406 -0.02690401,-0.0406 -0.040694,-0.027 -0.0405588,0 -0.0270392,0 0,-0.13519 0,-0.1352 0.13519603,0.027 0.13519604,0.0406 0.60838215,0.0676 c 0.40558805,0.045 1.50973405,0.11261 3.31230285,0.20279 1.8027039,0.0902 3.7178909,0.0902 5.7458314,0 2.02794,-0.0902 4.101036,-0.29297 6.219017,-0.60838 2.118116,-0.31541 4.619243,-0.8562 7.50338,-1.62236 2.884272,-0.76615 5.534114,-1.67643 7.949662,-2.73095 2.406489,-1.06346 4.118882,-1.85665 5.137449,-2.37946 1.009374,-0.51374 2.550609,-1.46916 4.623569,-2.86614 l 3.109509,-2.09554 0.02704,-0.0406 0.04056,-0.027 0.04069,-0.027 0.0269,-0.0406 0.02704,-0.0406 0.04056,-0.027 0.04069,-0.027 0.0269,-0.0406 0.135196,-0.0406 0.135196,-0.027 0.02704,-0.1352 0.04056,-0.13519 0.04069,-0.027 0.0269,-0.0406 -1.081568,-0.0676 c -0.721,-0.045 -1.419558,-0.0902 -2.095538,-0.13519 -0.675981,-0.045 -1.734971,-0.24782 -3.177107,-0.60839 -1.442001,-0.36056 -2.996755,-0.90135 -4.664263,-1.62235 -1.667373,-0.721 -3.289725,-1.57733 -4.867058,-2.56872 -1.577197,-0.9914 -2.71744,-1.81623 -3.420459,-2.47409 -0.693961,-0.64908 -1.595313,-1.56827 -2.703921,-2.757996 -1.099549,-1.19865 -2.05498,-2.42907 -2.866156,-3.69085 -0.811176,-1.26179 -1.586255,-2.71758 -2.325236,-4.36683 l -1.122263,-2.46057 -0.0676,-0.2028 -0.0676,-0.20279 -0.04056,-0.1352 -0.02704,-0.13519 0.202794,0.027 0.202794,0.0406 1.487157,0.20279 c 0.991527,0.1352 2.546282,0.18022 4.664263,0.1352 2.118116,-0.045 3.582695,-0.1352 4.393871,-0.2704 0.811176,-0.13519 1.30694,-0.22537 1.487156,-0.27039 l 0.270392,-0.0676 0.337991,-0.0676 0.33799,-0.0676 0.02704,-0.0406 0.04056,-0.027 0.04069,-0.027 0.0269,-0.0406 -0.270392,-0.0676 -0.270392,-0.0676 -0.270393,-0.0676 -0.270392,-0.0676 -0.270392,-0.0676 c -0.180216,-0.045 -0.495628,-0.13519 -0.946372,-0.27039 -0.450608,-0.1352 -1.667373,-0.63096 -3.650293,-1.487161 -1.982785,-0.856196 -3.560117,-1.68995 -4.731861,-2.501126 C 18.080359,81.78016 16.962693,80.892463 15.899106,79.927975 14.844577,78.954563 13.686488,77.701702 12.424568,76.169525 11.162894,74.637382 10.036305,72.857257 9.0447779,70.829317 8.0533853,68.801376 7.3098071,66.863611 6.8140433,65.015887 6.3184146,63.168163 5.9939441,61.297996 5.840767,59.405252 l -0.243488,-2.839117 0.135196,0.02704 0.135196,0.04056 0.1351961,0.0676 0.135196,0.0676 0.1351961,0.0676 0.135196,0.0676 2.0955385,0.946372 c 1.3971158,0.63096 3.1320863,1.171744 5.2050473,1.622353 2.073096,0.450608 3.312302,0.698559 3.71789,0.743578 l 0.608383,0.0676 0.608382,0 0.608382,0 -0.0269,-0.04056 -0.04069,-0.02704 -0.04056,-0.02704 -0.02704,-0.04056 -0.0269,-0.04056 -0.04069,-0.02704 -0.04056,-0.02704 -0.02704,-0.04056 -0.135196,-0.0676 -0.135196,-0.0676 -0.0269,-0.04056 -0.04069,-0.02704 -0.04056,-0.02704 -0.02704,-0.04056 -0.135196,-0.0676 -0.135196,-0.0676 -0.0269,-0.04056 c -0.02706,-0.01811 -0.414669,-0.30648 -1.162843,-0.865246 C 16.376864,58.134409 15.601785,57.399889 14.790609,56.498536 13.979433,55.597185 13.168256,54.650812 12.35708,53.65942 11.545904,52.668028 10.824904,51.608902 10.193944,50.482313 9.5631194,49.355725 8.8960622,47.922512 8.1930428,46.18308 7.4990816,44.45257 6.9718171,42.708541 6.6112492,40.950993 6.2508166,39.193445 6.0480226,37.458474 6.0028671,35.745946 c -0.04502,-1.712528 0,-3.177107 0.135196,-4.393871 0.1351961,-1.216765 0.4055881,-2.591303 0.8111762,-4.123479 0.4055881,-1.532177 0.9915277,-3.15453 1.7575485,-4.867058 l 1.1491663,-2.568724 0.067598,-0.202794 0.067598,-0.202794 0.040694,-0.02704 0.0269,-0.04056 0.02704,-0.04056 0.04056,-0.02704 0.04069,0.02704 0.0269,0.04056 0.02704,0.04056 0.04056,0.02704 0.04069,0.02704 0.0269,0.04056 0.02704,0.04056 0.04056,0.02704 0.0676,0.135196 0.0676,0.135196 0.04069,0.02704 0.0269,0.04056 1.825146,2.02794 c 1.216765,1.351961 2.658901,2.861695 4.326273,4.529067 1.667508,1.667373 2.591303,2.532628 2.771519,2.595764 0.180352,0.07206 0.405588,0.279315 0.67598,0.621902 0.270392,0.333529 1.171744,1.131185 2.703921,2.39297 1.532312,1.261784 3.537674,2.726498 6.016223,4.393871 2.478684,1.667373 5.227625,3.312303 8.246958,4.934655 3.019469,1.622353 6.264174,3.086931 9.734115,4.393871 3.470077,1.306939 5.903605,2.163137 7.300586,2.568725 1.397116,0.405588 3.785489,0.923794 7.16539,1.554754 3.3799,0.630959 5.926183,1.036548 7.638576,1.216765 1.712528,0.180216 2.884272,0.283911 3.515096,0.31095 l 0.946373,0.02704 -0.0269,-0.202794 -0.04069,-0.202794 -0.270392,-1.689951 c -0.180217,-1.126588 -0.270392,-2.703921 -0.270392,-4.731861 0,-2.027941 0.157773,-3.898107 0.473186,-5.610635 0.315547,-1.712529 0.788733,-3.447499 1.419558,-5.205048 0.63096,-1.757548 1.2484,-3.168184 1.852186,-4.231636 0.612978,-1.054529 1.415097,-2.257773 2.406489,-3.609734 0.991528,-1.35196 2.27589,-2.748941 3.853087,-4.191077 1.577332,-1.442136 3.379901,-2.726498 5.407841,-3.853087 2.027941,-1.126588 3.898243,-1.98292 5.610636,-2.568724 1.712528,-0.585805 3.154664,-0.96895 4.326273,-1.149167 1.171744,-0.180216 1.757548,-0.283911 1.757548,-0.310951 z"
   id="path4310"
   inkscape:connector-curvature="0" />




</svg>