<?xml version="1.0" encoding="UTF-8" standalone="no"?>
<!-- Created with Inkscape (http://www.inkscape.org/) -->

<svg
   xmlns:dc="http://purl.org/dc/elements/1.1/"
   xmlns:cc="http://creativecommons.org/ns#"
   xmlns:rdf="http://www.w3.org/1999/02/22-rdf-syntax-ns#"
   xmlns:svg="http://www.w3.org/2000/svg"
   xmlns="http://www.w3.org/2000/svg"
   xmlns:sodipodi="http://sodipodi.sourceforge.net/DTD/sodipodi-0.dtd"
   xmlns:inkscape="http://www.inkscape.org/namespaces/inkscape"
   width="410"
   height="410"
   id="svg2"
   version="1.1"
   inkscape:version="0.48.4 r9939"
   sodipodi:docname="bandera7.svg">
  <defs
     id="defs4" />
  <sodipodi:namedview
     id="base"
     pagecolor="#ffffff"
     bordercolor="#666666"
     borderopacity="1.0"
     inkscape:pageopacity="0.0"
     inkscape:pageshadow="2"
     inkscape:zoom="0.47131824"
     inkscape:cx="140.71451"
     inkscape:cy="185.59944"
     inkscape:document-units="px"
     inkscape:current-layer="layer1"
     showgrid="false"
     inkscape:window-width="1366"
     inkscape:window-height="702"
     inkscape:window-x="0"
     inkscape:window-y="27"
     inkscape:window-maximized="1" />
  <metadata
     id="metadata7">
    <rdf:RDF>
      <cc:Work
         rdf:about="">
        <dc:format>image/svg+xml</dc:format>
        <dc:type
           rdf:resource="http://purl.org/dc/dcmitype/StillImage" />
        <dc:title></dc:title>
      </cc:Work>
    </rdf:RDF>
  </metadata>
  <g
     inkscape:label="Capa 1"
     inkscape:groupmode="layer"
     id="layer1"
     transform="translate(0,-642.36218)">
    <g
       id="g3839"
       transform="matrix(1.0860709,0,0,1.0860709,-120.31679,345.80879)">
      <path
         inkscape:connector-curvature="0"
         id="path2985"
         d="m 164.48415,473.35864 c -5.77588,0 -10.45712,4.68123 -10.45712,10.45711 0,5.77587 4.68124,10.45711 10.45712,10.45711 5.77587,0 10.45711,-4.68124 10.45711,-10.45711 0,-5.77588 -4.68124,-10.45711 -10.45711,-10.45711 z m -2.5003,24.98822 c -4.27369,0 -7.72149,3.72174 -7.72149,8.33922 l 0,28.50335 c 0,1.09931 0.20405,2.14405 0.55889,3.1033 -0.35494,1.10311 -0.55889,2.33378 -0.55889,3.64749 l 0,32.91563 c 0,4.61748 2.46294,8.33921 5.51535,8.33921 3.05241,0 5.50065,-3.72173 5.50065,-8.33921 l 0,-24.7382 3.25038,25.3118 c 0.58861,4.57981 3.50267,7.94881 6.53018,7.55971 3.0275,-0.38911 4.98619,-4.39184 4.39757,-8.97164 l -4.19167,-32.6509 c -0.20639,-1.60588 -0.70011,-3.05141 -1.38251,-4.2505 0.13547,-0.6204 0.22061,-1.26033 0.22061,-1.92669 l 0,-19.56112 6.19191,7.80974 c 2.86784,3.61507 6.55779,5.50835 8.26567,4.2505 1.70788,-1.25786 0.77936,-5.18009 -2.08848,-8.79516 l -10.85421,-13.67807 c -0.77096,-0.97183 -1.60683,-1.81934 -2.44147,-2.515 -1.3033,-2.59859 -3.85675,-4.35346 -6.79491,-4.35346 l -4.39758,0 z"
         style="fill:#008000;fill-opacity:1;fill-rule:nonzero;stroke:none" />
      <path
         style="fill:#008000;fill-opacity:1;fill-rule:nonzero;stroke:none"
         d="m 360.41496,473.35864 c 5.77588,0 10.45712,4.68123 10.45712,10.45711 0,5.77587 -4.68124,10.45711 -10.45712,10.45711 -5.77587,0 -10.45711,-4.68124 -10.45711,-10.45711 0,-5.77588 4.68124,-10.45711 10.45711,-10.45711 z m 2.5003,24.98822 c 4.27369,0 7.72149,3.72174 7.72149,8.33922 l 0,28.50335 c 0,1.09931 -0.20405,2.14405 -0.55889,3.1033 0.35494,1.10311 0.55889,2.33378 0.55889,3.64749 l 0,32.91563 c 0,4.61748 -2.46294,8.33921 -5.51535,8.33921 -3.05241,0 -5.50065,-3.72173 -5.50065,-8.33921 l 0,-24.7382 -3.25038,25.3118 c -0.58861,4.57981 -3.50267,7.94881 -6.53018,7.55971 -3.0275,-0.38911 -4.98619,-4.39184 -4.39757,-8.97164 l 4.19167,-32.6509 c 0.20639,-1.60588 0.70011,-3.05141 1.38251,-4.2505 -0.13547,-0.6204 -0.22061,-1.26033 -0.22061,-1.92669 l 0,-19.56112 -6.19191,7.80974 c -2.86784,3.61507 -6.55779,5.50835 -8.26567,4.2505 -1.70788,-1.25786 -0.77936,-5.18009 2.08848,-8.79516 l 10.85421,-13.67807 c 0.77096,-0.97183 1.60683,-1.81934 2.44147,-2.515 1.3033,-2.59859 3.85675,-4.35346 6.79491,-4.35346 l 4.39758,0 z"
         id="path2996"
         inkscape:connector-curvature="0" />
      <g
         id="g3004">
        <rect
           style="fill:#803300;fill-opacity:1;fill-rule:nonzero;stroke:none"
           id="rect2998"
           width="7.0241203"
           height="298.52512"
           x="257.55109"
           y="286.73303"
           rx="15.082368"
           ry="16.295238" />
        <rect
           style="fill:#666666;fill-opacity:1;fill-rule:nonzero;stroke:none"
           id="rect3000"
           width="23.413734"
           height="22.243048"
           x="249.35628"
           y="570.03925"
           rx="0"
           ry="16.295238" />
      </g>
      <path
         inkscape:connector-curvature="0"
         id="path3776"
         d="m 276.19751,489.074 c -5.77588,0 -10.46875,4.69287 -10.46875,10.46875 0,5.77587 4.69287,10.46875 10.46875,10.46875 5.77587,0 10.46875,-4.69288 10.46875,-10.46875 0,-5.77588 -4.69288,-10.46875 -10.46875,-10.46875 z m -2.5,25 c -3.47237,0 -6.39939,2.44569 -7.375,5.84375 -0.003,0.01 0.003,0.0217 0,0.0312 l -17.5625,19.5625 c -1.60448,1.78913 -1.69943,4.32296 -0.21875,5.6875 1.48069,1.36454 3.95802,1.03913 5.5625,-0.75 l 11.875,-13.25 0,19.71875 c 0,1.09931 0.20766,2.1345 0.5625,3.09375 -0.35494,1.10311 -0.5625,2.34254 -0.5625,3.65625 l 0,32.90625 c 0,4.61748 2.44759,8.34375 5.5,8.34375 3.05241,0 5.5,-3.72627 5.5,-8.34375 l 0,-24.71875 3.25,25.3125 c 0.58861,4.57981 3.50374,7.9516 6.53125,7.5625 3.0275,-0.38911 4.99487,-4.4202 4.40625,-9 l -4.1875,-32.625 c -0.20639,-1.60588 -0.6926,-3.05091 -1.375,-4.25 0.13547,-0.6204 0.21875,-1.27114 0.21875,-1.9375 l 0,-19.5625 6.1875,7.8125 c 2.86784,3.61507 6.54212,5.50785 8.25,4.25 1.70788,-1.25786 0.80534,-5.19743 -2.0625,-8.8125 l -10.875,-13.65625 c -0.77096,-0.97183 -1.60286,-1.83559 -2.4375,-2.53125 -1.3033,-2.59859 -3.84309,-4.34375 -6.78125,-4.34375 l -4.40625,0 z"
         style="fill:#225500;fill-opacity:1;fill-rule:nonzero;stroke:none" />
      <path
         sodipodi:nodetypes="cccccc"
         inkscape:connector-curvature="0"
         id="path3002"
         d="m 189.65125,529.0652 71.41189,-229.45461 74.92396,225.94255 -33.94992,19.90167 -58.53434,1.17069 z"
         style="fill:none;stroke:#000000;stroke-width:1.60000002;stroke-linecap:butt;stroke-linejoin:miter;stroke-miterlimit:4;stroke-opacity:1;stroke-dasharray:none" />
      <rect
         transform="matrix(1,0,0.65079135,0.75925662,0,0)"
         ry="0"
         rx="0"
         y="718.94891"
         x="-223.31462"
         height="44.996696"
         width="19.740341"
         id="rect3783"
         style="fill:#ffff00;fill-opacity:1;fill-rule:nonzero;stroke:none" />
      <rect
         transform="matrix(1,0,0.65079135,0.75925662,0,0)"
         style="fill:#0000ff;fill-opacity:1;fill-rule:nonzero;stroke:none"
         id="rect3785"
         width="19.740341"
         height="44.996696"
         x="-204.1725"
         y="718.94891"
         rx="0"
         ry="0" />
      <rect
         transform="matrix(1,0,0.65079135,0.75925662,0,0)"
         ry="0"
         rx="0"
         y="718.94891"
         x="-185.03035"
         height="44.996696"
         width="19.740341"
         id="rect3787"
         style="fill:#ff0000;fill-opacity:1;fill-rule:nonzero;stroke:none" />
      <path
         style="fill:#008000;fill-opacity:1;fill-rule:nonzero;stroke:none"
         d="m 305.48097,527.03404 c -5.77588,0 -10.46875,4.69287 -10.46875,10.46875 0,5.77587 4.69287,10.46875 10.46875,10.46875 5.77587,0 10.46875,-4.69288 10.46875,-10.46875 0,-5.77588 -4.69288,-10.46875 -10.46875,-10.46875 z m -2.5,25 c -3.47237,0 -6.39939,2.44569 -7.375,5.84375 -0.003,0.01 0.003,0.0217 0,0.0312 l -17.5625,19.5625 c -1.60448,1.78913 -1.69943,4.32296 -0.21875,5.6875 1.48069,1.36454 3.95802,1.03913 5.5625,-0.75 l 11.875,-13.25 0,19.71875 c 0,1.09931 0.20766,2.1345 0.5625,3.09375 -0.35494,1.10311 -0.5625,2.34254 -0.5625,3.65625 l 0,32.90625 c 0,4.61748 2.44759,8.34375 5.5,8.34375 3.05241,0 5.5,-3.72627 5.5,-8.34375 l 0,-24.71875 3.25,25.3125 c 0.58861,4.57981 3.50374,7.9516 6.53125,7.5625 3.0275,-0.38911 4.99487,-4.4202 4.40625,-9 l -4.1875,-32.625 c -0.20639,-1.60588 -0.6926,-3.05091 -1.375,-4.25 0.13547,-0.6204 0.21875,-1.27114 0.21875,-1.9375 l 0,-19.5625 6.1875,7.8125 c 2.86784,3.61507 6.54212,5.50785 8.25,4.25 1.70788,-1.25786 0.80534,-5.19743 -2.0625,-8.8125 l -10.875,-13.65625 c -0.77096,-0.97183 -1.60286,-1.83559 -2.4375,-2.53125 -1.3033,-2.59859 -3.84309,-4.34375 -6.78125,-4.34375 l -4.40625,0 z"
         id="path3791"
         inkscape:connector-curvature="0" />
      <path
         style="fill:#008000;fill-opacity:1;fill-rule:nonzero;stroke:none"
         d="m 220.33964,493.96552 c -5.77588,0 -10.45712,4.68123 -10.45712,10.45711 0,5.77587 4.68124,10.45711 10.45712,10.45711 5.77587,0 10.45711,-4.68124 10.45711,-10.45711 0,-5.77588 -4.68124,-10.45711 -10.45711,-10.45711 z m -2.5003,24.98822 c -4.27369,0 -7.72149,3.72174 -7.72149,8.33922 l 0,28.50335 c 0,1.09931 0.20405,2.14405 0.55889,3.1033 -0.35494,1.10311 -0.55889,2.33378 -0.55889,3.64749 l 0,32.91563 c 0,4.61748 2.46294,8.33921 5.51535,8.33921 3.05241,0 5.50065,-3.72173 5.50065,-8.33921 l 0,-24.7382 3.25038,25.3118 c 0.58861,4.57981 3.50267,7.94881 6.53018,7.55971 3.0275,-0.38911 4.98619,-4.39184 4.39757,-8.97164 l -4.19167,-32.6509 c -0.20639,-1.60588 -0.70011,-3.05141 -1.38251,-4.2505 0.13547,-0.6204 0.22061,-1.26033 0.22061,-1.92669 l 0,-19.56112 6.19191,7.80974 c 2.86784,3.61507 6.55779,5.50835 8.26567,4.2505 1.70788,-1.25786 0.77936,-5.18009 -2.08848,-8.79516 L 231.4733,525.8222 c -0.77096,-0.97183 -1.60683,-1.81934 -2.44147,-2.515 -1.3033,-2.59859 -3.85675,-4.35346 -6.79491,-4.35346 l -4.39758,0 z"
         id="path3793"
         inkscape:connector-curvature="0" />
      <path
         inkscape:connector-curvature="0"
         id="path3795"
         d="m 418.81346,439.96531 c -5.77587,0 -10.46875,4.69287 -10.46875,10.46875 0,5.77587 4.69288,10.4375 10.46875,10.4375 5.77588,0 10.46875,-4.66163 10.46875,-10.4375 0,-5.77588 -4.69287,-10.46875 -10.46875,-10.46875 z m 15.6875,9.8125 c -0.71222,-0.0578 -1.45269,0.0906 -2.125,0.46875 -1.79283,1.00847 -2.41472,3.26967 -1.40625,5.0625 l 6.34375,11.28125 -11.40625,0 c -1.28481,-1.03057 -2.86531,-1.625 -4.59375,-1.625 l -4.40625,0 c -2.93816,0 -5.47795,1.74516 -6.78125,4.34375 -0.83464,0.69566 -1.66654,1.52817 -2.4375,2.5 l -10.875,13.6875 c -2.86784,3.61507 -3.80163,7.52339 -2.09375,8.78125 1.70788,1.25785 5.41341,-0.63493 8.28125,-4.25 l 6.1875,-7.78125 0,19.5625 c 0,0.66636 0.0833,1.28585 0.21875,1.90625 -0.6824,1.19909 -1.16861,2.64412 -1.375,4.25 l -4.1875,32.65625 c -0.58862,4.5798 1.3475,8.57964 4.375,8.96875 3.02751,0.3891 5.94264,-2.98269 6.53125,-7.5625 l 3.25,-25.3125 0,24.75 c 0,4.61748 2.44759,8.34375 5.5,8.34375 3.05241,0 5.53125,-3.72627 5.53125,-8.34375 l 0,-32.90625 c 0,-1.31371 -0.20756,-2.55314 -0.5625,-3.65625 0.35484,-0.95925 0.5625,-1.99444 0.5625,-3.09375 l 0,-27.8125 14.875,0 c 2.057,0 3.71875,-1.6305 3.71875,-3.6875 0,-1.13612 -0.51361,-2.16374 -1.3125,-2.84375 l -8.875,-15.8125 c -0.63029,-1.12052 -1.75046,-1.77864 -2.9375,-1.875 z"
         style="fill:#225500;fill-opacity:1;fill-rule:nonzero;stroke:none" />
      <path
         inkscape:connector-curvature="0"
         id="rect3802"
         d="m 222.78861,378.70385 -8.88369,8.89689 2.94733,1.15709 -6.06603,15.69112 c -0.39222,1.01459 -0.11647,2.06333 0.61709,2.34692 l 0.83584,0.32312 c 0.73357,0.28359 1.64305,-0.30695 2.03528,-1.32153 l 6.06602,-15.69112 3.08106,1.20879 -0.63289,-12.61133 z"
         style="fill:#ff0000;fill-opacity:1;fill-rule:nonzero;stroke:none" />
      <path
         style="fill:#ff0000;fill-opacity:1;fill-rule:nonzero;stroke:none"
         d="m 309.05439,405.68973 -8.88369,-8.89689 2.94733,-1.15709 -6.06603,-15.69112 c -0.39222,-1.01459 -0.11647,-2.06333 0.61709,-2.34692 l 0.83584,-0.32312 c 0.73357,-0.28359 1.64305,0.30695 2.03528,1.32153 l 6.06602,15.69112 3.08106,-1.20879 -0.63289,12.61133 z"
         id="path3807"
         inkscape:connector-curvature="0" />
      <text
         sodipodi:linespacing="130%"
         id="text3809"
         y="594.77844"
         x="345.06317"
         style="font-size:10px;font-style:normal;font-variant:normal;font-weight:normal;font-stretch:normal;text-align:start;line-height:129.99999523%;letter-spacing:0px;word-spacing:0px;writing-mode:lr-tb;text-anchor:start;fill:#000000;fill-opacity:1;stroke:none;font-family:Arial;-inkscape-font-specification:Arial"
         xml:space="preserve"><tspan
           y="594.77844"
           x="345.06317"
           id="tspan3811"
           sodipodi:role="line">Hala para subir</tspan></text>
      <text
         sodipodi:linespacing="130%"
         id="text3813"
         y="489.00909"
         x="457.93848"
         style="font-size:10px;font-style:normal;font-variant:normal;font-weight:normal;font-stretch:normal;text-align:start;line-height:129.99999523%;letter-spacing:0px;word-spacing:0px;writing-mode:lr-tb;text-anchor:start;fill:#000000;fill-opacity:1;stroke:none;font-family:Arial;-inkscape-font-specification:Arial"
         xml:space="preserve"><tspan
           style="text-align:center;text-anchor:middle"
           y="489.00909"
           x="457.93848"
           id="tspan3815"
           sodipodi:role="line">Da la voces</tspan><tspan
           style="text-align:center;text-anchor:middle"
           id="tspan3817"
           y="502.00909"
           x="457.93848"
           sodipodi:role="line">y pita</tspan></text>
      <text
         xml:space="preserve"
         style="font-size:10px;font-style:normal;font-variant:normal;font-weight:normal;font-stretch:normal;text-align:start;line-height:129.99999523%;letter-spacing:0px;word-spacing:0px;writing-mode:lr-tb;text-anchor:start;fill:#000000;fill-opacity:1;stroke:none;font-family:Arial;-inkscape-font-specification:Arial"
         x="130.87862"
         y="508.51266"
         id="text3819"
         sodipodi:linespacing="130%"><tspan
           sodipodi:role="line"
           x="130.87862"
           y="508.51266"
           id="tspan3823"
           style="text-align:center;text-anchor:middle">Sujeta</tspan><tspan
           id="tspan3827"
           sodipodi:role="line"
           x="130.87862"
           y="521.51263"
           style="text-align:center;text-anchor:middle">la driza</tspan></text>
      <text
         sodipodi:linespacing="130%"
         id="text3829"
         y="612.78174"
         x="202.14166"
         style="font-size:10px;font-style:normal;font-variant:normal;font-weight:normal;font-stretch:normal;text-align:start;line-height:129.99999523%;letter-spacing:0px;word-spacing:0px;writing-mode:lr-tb;text-anchor:start;fill:#000000;fill-opacity:1;stroke:none;font-family:Arial;-inkscape-font-specification:Arial"
         xml:space="preserve"><tspan
           style="text-align:center;text-anchor:middle"
           y="612.78174"
           x="202.14166"
           sodipodi:role="line"
           id="tspan3833">Amarra la</tspan><tspan
           id="tspan3837"
           style="text-align:center;text-anchor:middle"
           y="625.78174"
           x="202.14166"
           sodipodi:role="line">Bandera</tspan></text>
    </g>
  </g>
</svg>
