<?xml version="1.0" encoding="UTF-8" standalone="no"?>
<!-- Created with Inkscape (http://www.inkscape.org/) -->

<svg
   xmlns:dc="http://purl.org/dc/elements/1.1/"
   xmlns:cc="http://creativecommons.org/ns#"
   xmlns:rdf="http://www.w3.org/1999/02/22-rdf-syntax-ns#"
   xmlns:svg="http://www.w3.org/2000/svg"
   xmlns="http://www.w3.org/2000/svg"
   xmlns:sodipodi="http://sodipodi.sourceforge.net/DTD/sodipodi-0.dtd"
   xmlns:inkscape="http://www.inkscape.org/namespaces/inkscape"
   width="365"
   height="310"
   id="svg2"
   version="1.1"
   inkscape:version="0.48.4 r9939"
   sodipodi:docname="bandera2.svg">
  <defs
     id="defs4" />
  <sodipodi:namedview
     id="base"
     pagecolor="#ffffff"
     bordercolor="#666666"
     borderopacity="1.0"
     inkscape:pageopacity="0.0"
     inkscape:pageshadow="2"
     inkscape:zoom="0.45648306"
     inkscape:cx="33.900287"
     inkscape:cy="271.09788"
     inkscape:document-units="px"
     inkscape:current-layer="layer1"
     showgrid="false"
     inkscape:window-width="1366"
     inkscape:window-height="702"
     inkscape:window-x="0"
     inkscape:window-y="27"
     inkscape:window-maximized="1" />
  <metadata
     id="metadata7">
    <rdf:RDF>
      <cc:Work
         rdf:about="">
        <dc:format>image/svg+xml</dc:format>
        <dc:type
           rdf:resource="http://purl.org/dc/dcmitype/StillImage" />
        <dc:title />
      </cc:Work>
    </rdf:RDF>
  </metadata>
  <g
     inkscape:label="Capa 1"
     inkscape:groupmode="layer"
     id="layer1"
     transform="translate(0,-742.36218)">
    <text
       xml:space="preserve"
       style="font-size:17.28077698px;font-style:normal;font-variant:normal;font-weight:normal;font-stretch:normal;text-align:start;line-height:129.99999523%;letter-spacing:0px;word-spacing:0px;writing-mode:lr-tb;text-anchor:start;fill:#000000;fill-opacity:1;stroke:none;font-family:Arial;-inkscape-font-specification:Arial"
       x="242.37701"
       y="646.79504"
       id="text3027"
       sodipodi:linespacing="130%"><tspan
         sodipodi:role="line"
         id="tspan3029"
         x="242.37701"
         y="646.79504" /></text>
    <g
       id="g3232"
       transform="matrix(0.75778782,0,0,0.75778782,-88.11296,466.74184)">
      <path
         transform="translate(44.396395,23.434784)"
         d="m 115.63996,477.90994 c 0,6.20922 -5.03356,11.24278 -11.24277,11.24278 -6.209217,0 -11.242779,-5.03356 -11.242779,-11.24278 0,-6.20921 5.033562,-11.24277 11.242779,-11.24277 6.20921,0 11.24277,5.03356 11.24277,11.24277 z"
         sodipodi:ry="11.242775"
         sodipodi:rx="11.242775"
         sodipodi:cy="477.90994"
         sodipodi:cx="104.39719"
         id="path2985"
         style="fill:#800080;fill-opacity:1;fill-rule:nonzero;stroke:#000000;stroke-width:0.30000001;stroke-linecap:round;stroke-linejoin:round;stroke-miterlimit:4;stroke-opacity:1;stroke-dasharray:none;stroke-dashoffset:0"
         sodipodi:type="arc" />
      <path
         sodipodi:type="arc"
         style="fill:#800080;fill-opacity:1;fill-rule:nonzero;stroke:#000000;stroke-width:0.30000001;stroke-linecap:round;stroke-linejoin:round;stroke-miterlimit:4;stroke-opacity:1;stroke-dasharray:none;stroke-dashoffset:0"
         id="path2987"
         sodipodi:cx="104.39719"
         sodipodi:cy="477.90994"
         sodipodi:rx="11.242775"
         sodipodi:ry="11.242775"
         d="m 115.63996,477.90994 c 0,6.20922 -5.03356,11.24278 -11.24277,11.24278 -6.209217,0 -11.242779,-5.03356 -11.242779,-11.24278 0,-6.20921 5.033562,-11.24277 11.242779,-11.24277 6.20921,0 11.24277,5.03356 11.24277,11.24277 z"
         transform="translate(44.396395,49.132554)" />
      <path
         inkscape:transform-center-y="-24.62703"
         transform="translate(44.396395,74.830324)"
         d="m 115.63996,477.90994 c 0,6.20922 -5.03356,11.24278 -11.24277,11.24278 -6.209217,0 -11.242779,-5.03356 -11.242779,-11.24278 0,-6.20921 5.033562,-11.24277 11.242779,-11.24277 6.20921,0 11.24277,5.03356 11.24277,11.24277 z"
         sodipodi:ry="11.242775"
         sodipodi:rx="11.242775"
         sodipodi:cy="477.90994"
         sodipodi:cx="104.39719"
         id="path2989"
         style="fill:#800080;fill-opacity:1;fill-rule:nonzero;stroke:#000000;stroke-width:0.30000001;stroke-linecap:round;stroke-linejoin:round;stroke-miterlimit:4;stroke-opacity:1;stroke-dasharray:none;stroke-dashoffset:0"
         sodipodi:type="arc" />
      <path
         sodipodi:type="arc"
         style="fill:#800080;fill-opacity:1;fill-rule:nonzero;stroke:#000000;stroke-width:0.30000001;stroke-linecap:round;stroke-linejoin:round;stroke-miterlimit:4;stroke-opacity:1;stroke-dasharray:none;stroke-dashoffset:0"
         id="path2991"
         sodipodi:cx="104.39719"
         sodipodi:cy="477.90994"
         sodipodi:rx="11.242775"
         sodipodi:ry="11.242775"
         d="m 115.63996,477.90994 c 0,6.20922 -5.03356,11.24278 -11.24277,11.24278 -6.209217,0 -11.242779,-5.03356 -11.242779,-11.24278 0,-6.20921 5.033562,-11.24277 11.242779,-11.24277 6.20921,0 11.24277,5.03356 11.24277,11.24277 z"
         transform="translate(44.396395,100.52809)"
         inkscape:transform-center-y="-24.62703" />
      <path
         inkscape:transform-center-y="-24.62703"
         transform="translate(44.396395,126.22586)"
         d="m 115.63996,477.90994 c 0,6.20922 -5.03356,11.24278 -11.24277,11.24278 -6.209217,0 -11.242779,-5.03356 -11.242779,-11.24278 0,-6.20921 5.033562,-11.24277 11.242779,-11.24277 6.20921,0 11.24277,5.03356 11.24277,11.24277 z"
         sodipodi:ry="11.242775"
         sodipodi:rx="11.242775"
         sodipodi:cy="477.90994"
         sodipodi:cx="104.39719"
         id="path2993"
         style="fill:#800080;fill-opacity:1;fill-rule:nonzero;stroke:#000000;stroke-width:0.30000001;stroke-linecap:round;stroke-linejoin:round;stroke-miterlimit:4;stroke-opacity:1;stroke-dasharray:none;stroke-dashoffset:0"
         sodipodi:type="arc" />
      <g
         transform="matrix(0,-1,1,0,-197.37288,572.71197)"
         id="g3086">
        <path
           id="path3005"
           d="m 115.63996,477.90994 c 0,6.20922 -5.03356,11.24278 -11.24277,11.24278 -6.209217,0 -11.242779,-5.03356 -11.242779,-11.24278 0,-6.20921 5.033562,-11.24277 11.242779,-11.24277 6.20921,0 11.24277,5.03356 11.24277,11.24277 z"
           style="fill:#00ff00;fill-opacity:1;fill-rule:nonzero;stroke:#000000;stroke-width:0.30000001;stroke-linecap:round;stroke-linejoin:round;stroke-miterlimit:4;stroke-opacity:1;stroke-dashoffset:0"
           transform="translate(86.606822,18.202587)"
           inkscape:connector-curvature="0" />
        <path
           id="path3007"
           d="m 115.63996,477.90994 c 0,6.20922 -5.03356,11.24278 -11.24277,11.24278 -6.209217,0 -11.242779,-5.03356 -11.242779,-11.24278 0,-6.20921 5.033562,-11.24277 11.242779,-11.24277 6.20921,0 11.24277,5.03356 11.24277,11.24277 z"
           style="fill:#00ff00;fill-opacity:1;fill-rule:nonzero;stroke:#000000;stroke-width:0.30000001;stroke-linecap:round;stroke-linejoin:round;stroke-miterlimit:4;stroke-opacity:1;stroke-dashoffset:0"
           transform="translate(86.606822,43.900358)"
           inkscape:connector-curvature="0" />
        <path
           id="path3009"
           d="m 115.63996,477.90994 c 0,6.20922 -5.03356,11.24278 -11.24277,11.24278 -6.209217,0 -11.242779,-5.03356 -11.242779,-11.24278 0,-6.20921 5.033562,-11.24277 11.242779,-11.24277 6.20921,0 11.24277,5.03356 11.24277,11.24277 z"
           inkscape:transform-center-y="-24.62703"
           style="fill:#00ff00;fill-opacity:1;fill-rule:nonzero;stroke:#000000;stroke-width:0.30000001;stroke-linecap:round;stroke-linejoin:round;stroke-miterlimit:4;stroke-opacity:1;stroke-dashoffset:0"
           transform="translate(86.606822,69.598128)"
           inkscape:connector-curvature="0" />
        <path
           id="path3011"
           d="m 115.63996,477.90994 c 0,6.20922 -5.03356,11.24278 -11.24277,11.24278 -6.209217,0 -11.242779,-5.03356 -11.242779,-11.24278 0,-6.20921 5.033562,-11.24277 11.242779,-11.24277 6.20921,0 11.24277,5.03356 11.24277,11.24277 z"
           inkscape:transform-center-y="-24.62703"
           style="fill:#00ff00;fill-opacity:1;fill-rule:nonzero;stroke:#000000;stroke-width:0.30000001;stroke-linecap:round;stroke-linejoin:round;stroke-miterlimit:4;stroke-opacity:1;stroke-dashoffset:0"
           transform="translate(86.606822,95.295898)"
           inkscape:connector-curvature="0" />
        <path
           id="path3013"
           d="m 115.63996,477.90994 c 0,6.20922 -5.03356,11.24278 -11.24277,11.24278 -6.209217,0 -11.242779,-5.03356 -11.242779,-11.24278 0,-6.20921 5.033562,-11.24277 11.242779,-11.24277 6.20921,0 11.24277,5.03356 11.24277,11.24277 z"
           inkscape:transform-center-y="-24.62703"
           style="fill:#00ff00;fill-opacity:1;fill-rule:nonzero;stroke:#000000;stroke-width:0.30000001;stroke-linecap:round;stroke-linejoin:round;stroke-miterlimit:4;stroke-opacity:1;stroke-dashoffset:0"
           transform="translate(86.606822,120.99367)"
           inkscape:connector-curvature="0" />
        <path
           id="path3015"
           d="m 115.63996,477.90994 c 0,6.20922 -5.03356,11.24278 -11.24277,11.24278 -6.209217,0 -11.242779,-5.03356 -11.242779,-11.24278 0,-6.20921 5.033562,-11.24277 11.242779,-11.24277 6.20921,0 11.24277,5.03356 11.24277,11.24277 z"
           inkscape:transform-center-y="-24.62703"
           style="fill:#00ff00;fill-opacity:1;fill-rule:nonzero;stroke:#000000;stroke-width:0.30000001;stroke-linecap:round;stroke-linejoin:round;stroke-miterlimit:4;stroke-opacity:1;stroke-dashoffset:0"
           transform="translate(86.606822,147.60745)"
           inkscape:connector-curvature="0" />
        <g
           id="text3019"
           style="font-size:17.28077698px;font-style:normal;font-variant:normal;font-weight:normal;font-stretch:normal;text-align:start;line-height:129.99999523%;letter-spacing:0px;word-spacing:0px;writing-mode:lr-tb;text-anchor:start;fill:#000000;fill-opacity:1;stroke:none;font-family:Arial;-inkscape-font-specification:Arial">
          <path
             id="path3203"
             d="m 187.78917,502.29749 0,-12.36994 1.63695,0 0,12.36994 -1.63695,0"
             inkscape:connector-curvature="0" />
          <path
             id="path3205"
             d="m 192.58189,502.29749 0,-12.36994 1.63695,0 0,12.36994 -1.63695,0"
             inkscape:connector-curvature="0" />
        </g>
        <g
           id="text3023"
           style="font-size:17.28077698px;font-style:normal;font-variant:normal;font-weight:normal;font-stretch:normal;text-align:start;line-height:129.99999523%;letter-spacing:0px;word-spacing:0px;writing-mode:lr-tb;text-anchor:start;fill:#000000;fill-opacity:1;stroke:none;font-family:Arial;-inkscape-font-specification:Arial">
          <path
             id="path3208"
             d="m 187.78917,502.29749 0,-12.36994 1.63695,0 0,12.36994 -1.63695,0"
             inkscape:connector-curvature="0" />
          <path
             id="path3210"
             d="m 192.58189,502.29749 0,-12.36994 1.63695,0 0,12.36994 -1.63695,0"
             inkscape:connector-curvature="0" />
        </g>
        <path
           id="path3076"
           d="m 115.63996,477.90994 c 0,6.20922 -5.03356,11.24278 -11.24277,11.24278 -6.209217,0 -11.242779,-5.03356 -11.242779,-11.24278 0,-6.20921 5.033562,-11.24277 11.242779,-11.24277 6.20921,0 11.24277,5.03356 11.24277,11.24277 z"
           style="fill:#00ff00;fill-opacity:1;fill-rule:nonzero;stroke:#000000;stroke-width:0.30000001;stroke-linecap:round;stroke-linejoin:round;stroke-miterlimit:4;stroke-opacity:1;stroke-dashoffset:0"
           transform="translate(86.606822,172.65924)"
           inkscape:connector-curvature="0" />
        <g
           id="text3082"
           style="font-size:17.28077698px;font-style:normal;font-variant:normal;font-weight:normal;font-stretch:normal;text-align:start;line-height:129.99999523%;letter-spacing:0px;word-spacing:0px;writing-mode:lr-tb;text-anchor:start;fill:#000000;fill-opacity:1;stroke:none;font-family:Arial;-inkscape-font-specification:Arial">
          <path
             id="path3214"
             d="m 190.18553,656.75415 0,-12.36993 1.63695,0 0,12.36993 -1.63695,0"
             inkscape:connector-curvature="0" />
        </g>
      </g>
      <g
         inkscape:transform-center-y="-101.84685"
         inkscape:transform-center-x="-84.425682"
         id="g3101"
         transform="translate(294.85136,-108.54731)">
        <path
           id="path3103"
           d="m 115.63996,477.90994 c 0,6.20922 -5.03356,11.24278 -11.24277,11.24278 -6.209217,0 -11.242779,-5.03356 -11.242779,-11.24278 0,-6.20921 5.033562,-11.24277 11.242779,-11.24277 6.20921,0 11.24277,5.03356 11.24277,11.24277 z"
           style="fill:#00ff00;fill-opacity:1;fill-rule:nonzero;stroke:#000000;stroke-width:0.30000001;stroke-linecap:round;stroke-linejoin:round;stroke-miterlimit:4;stroke-opacity:1;stroke-dashoffset:0"
           transform="translate(86.606822,18.202587)"
           inkscape:connector-curvature="0" />
        <path
           id="path3105"
           d="m 115.63996,477.90994 c 0,6.20922 -5.03356,11.24278 -11.24277,11.24278 -6.209217,0 -11.242779,-5.03356 -11.242779,-11.24278 0,-6.20921 5.033562,-11.24277 11.242779,-11.24277 6.20921,0 11.24277,5.03356 11.24277,11.24277 z"
           style="fill:#00ff00;fill-opacity:1;fill-rule:nonzero;stroke:#000000;stroke-width:0.30000001;stroke-linecap:round;stroke-linejoin:round;stroke-miterlimit:4;stroke-opacity:1;stroke-dashoffset:0"
           transform="translate(86.606822,43.900358)"
           inkscape:connector-curvature="0" />
        <path
           id="path3107"
           d="m 115.63996,477.90994 c 0,6.20922 -5.03356,11.24278 -11.24277,11.24278 -6.209217,0 -11.242779,-5.03356 -11.242779,-11.24278 0,-6.20921 5.033562,-11.24277 11.242779,-11.24277 6.20921,0 11.24277,5.03356 11.24277,11.24277 z"
           inkscape:transform-center-y="-24.62703"
           style="fill:#00ff00;fill-opacity:1;fill-rule:nonzero;stroke:#000000;stroke-width:0.30000001;stroke-linecap:round;stroke-linejoin:round;stroke-miterlimit:4;stroke-opacity:1;stroke-dashoffset:0"
           transform="translate(86.606822,69.598128)"
           inkscape:connector-curvature="0" />
        <path
           id="path3109"
           d="m 115.63996,477.90994 c 0,6.20922 -5.03356,11.24278 -11.24277,11.24278 -6.209217,0 -11.242779,-5.03356 -11.242779,-11.24278 0,-6.20921 5.033562,-11.24277 11.242779,-11.24277 6.20921,0 11.24277,5.03356 11.24277,11.24277 z"
           inkscape:transform-center-y="-24.62703"
           style="fill:#00ff00;fill-opacity:1;fill-rule:nonzero;stroke:#000000;stroke-width:0.30000001;stroke-linecap:round;stroke-linejoin:round;stroke-miterlimit:4;stroke-opacity:1;stroke-dashoffset:0"
           transform="translate(86.606822,95.295898)"
           inkscape:connector-curvature="0" />
        <path
           id="path3111"
           d="m 115.63996,477.90994 c 0,6.20922 -5.03356,11.24278 -11.24277,11.24278 -6.209217,0 -11.242779,-5.03356 -11.242779,-11.24278 0,-6.20921 5.033562,-11.24277 11.242779,-11.24277 6.20921,0 11.24277,5.03356 11.24277,11.24277 z"
           inkscape:transform-center-y="-24.62703"
           style="fill:#00ff00;fill-opacity:1;fill-rule:nonzero;stroke:#000000;stroke-width:0.30000001;stroke-linecap:round;stroke-linejoin:round;stroke-miterlimit:4;stroke-opacity:1;stroke-dashoffset:0"
           transform="translate(86.606822,120.99367)"
           inkscape:connector-curvature="0" />
        <path
           id="path3113"
           d="m 115.63996,477.90994 c 0,6.20922 -5.03356,11.24278 -11.24277,11.24278 -6.209217,0 -11.242779,-5.03356 -11.242779,-11.24278 0,-6.20921 5.033562,-11.24277 11.242779,-11.24277 6.20921,0 11.24277,5.03356 11.24277,11.24277 z"
           inkscape:transform-center-y="-24.62703"
           style="fill:#00ff00;fill-opacity:1;fill-rule:nonzero;stroke:#000000;stroke-width:0.30000001;stroke-linecap:round;stroke-linejoin:round;stroke-miterlimit:4;stroke-opacity:1;stroke-dashoffset:0"
           transform="translate(86.606822,147.60745)"
           inkscape:connector-curvature="0" />
        <g
           id="text3115"
           style="font-size:17.28077698px;font-style:normal;font-variant:normal;font-weight:normal;font-stretch:normal;text-align:start;line-height:129.99999523%;letter-spacing:0px;word-spacing:0px;writing-mode:lr-tb;text-anchor:start;fill:#000000;fill-opacity:1;stroke:none;font-family:Arial;-inkscape-font-specification:Arial">
          <path
             id="path3183"
             d="m 187.78917,502.29749 0,-12.36994 1.63695,0 0,12.36994 -1.63695,0"
             inkscape:connector-curvature="0" />
          <path
             id="path3185"
             d="m 192.58189,502.29749 0,-12.36994 1.63695,0 0,12.36994 -1.63695,0"
             inkscape:connector-curvature="0" />
        </g>
        <g
           id="text3119"
           style="font-size:17.28077698px;font-style:normal;font-variant:normal;font-weight:normal;font-stretch:normal;text-align:start;line-height:129.99999523%;letter-spacing:0px;word-spacing:0px;writing-mode:lr-tb;text-anchor:start;fill:#000000;fill-opacity:1;stroke:none;font-family:Arial;-inkscape-font-specification:Arial">
          <path
             id="path3188"
             d="m 187.78917,502.29749 0,-12.36994 1.63695,0 0,12.36994 -1.63695,0"
             inkscape:connector-curvature="0" />
          <path
             id="path3190"
             d="m 192.58189,502.29749 0,-12.36994 1.63695,0 0,12.36994 -1.63695,0"
             inkscape:connector-curvature="0" />
        </g>
        <path
           id="path3123"
           d="m 115.63996,477.90994 c 0,6.20922 -5.03356,11.24278 -11.24277,11.24278 -6.209217,0 -11.242779,-5.03356 -11.242779,-11.24278 0,-6.20921 5.033562,-11.24277 11.242779,-11.24277 6.20921,0 11.24277,5.03356 11.24277,11.24277 z"
           style="fill:#00ff00;fill-opacity:1;fill-rule:nonzero;stroke:#000000;stroke-width:0.30000001;stroke-linecap:round;stroke-linejoin:round;stroke-miterlimit:4;stroke-opacity:1;stroke-dashoffset:0"
           transform="translate(86.606822,172.65924)"
           inkscape:connector-curvature="0" />
        <g
           id="text3125"
           style="font-size:17.28077698px;font-style:normal;font-variant:normal;font-weight:normal;font-stretch:normal;text-align:start;line-height:129.99999523%;letter-spacing:0px;word-spacing:0px;writing-mode:lr-tb;text-anchor:start;fill:#000000;fill-opacity:1;stroke:none;font-family:Arial;-inkscape-font-specification:Arial">
          <path
             id="path3194"
             d="m 190.18553,656.75415 0,-12.36993 1.63695,0 0,12.36993 -1.63695,0"
             inkscape:connector-curvature="0" />
        </g>
      </g>
      <g
         transform="translate(294.85136,77.725217)"
         id="g3129"
         inkscape:transform-center-x="-84.425682"
         inkscape:transform-center-y="-101.84685">
        <path
           id="path3131"
           d="m 115.63996,477.90994 c 0,6.20922 -5.03356,11.24278 -11.24277,11.24278 -6.209217,0 -11.242779,-5.03356 -11.242779,-11.24278 0,-6.20921 5.033562,-11.24277 11.242779,-11.24277 6.20921,0 11.24277,5.03356 11.24277,11.24277 z"
           style="fill:#00ff00;fill-opacity:1;fill-rule:nonzero;stroke:#000000;stroke-width:0.30000001;stroke-linecap:round;stroke-linejoin:round;stroke-miterlimit:4;stroke-opacity:1;stroke-dashoffset:0"
           transform="translate(86.606822,18.202587)"
           inkscape:connector-curvature="0" />
        <path
           id="path3133"
           d="m 115.63996,477.90994 c 0,6.20922 -5.03356,11.24278 -11.24277,11.24278 -6.209217,0 -11.242779,-5.03356 -11.242779,-11.24278 0,-6.20921 5.033562,-11.24277 11.242779,-11.24277 6.20921,0 11.24277,5.03356 11.24277,11.24277 z"
           style="fill:#00ff00;fill-opacity:1;fill-rule:nonzero;stroke:#000000;stroke-width:0.30000001;stroke-linecap:round;stroke-linejoin:round;stroke-miterlimit:4;stroke-opacity:1;stroke-dashoffset:0"
           transform="translate(86.606822,43.900358)"
           inkscape:connector-curvature="0" />
        <path
           id="path3135"
           d="m 115.63996,477.90994 c 0,6.20922 -5.03356,11.24278 -11.24277,11.24278 -6.209217,0 -11.242779,-5.03356 -11.242779,-11.24278 0,-6.20921 5.033562,-11.24277 11.242779,-11.24277 6.20921,0 11.24277,5.03356 11.24277,11.24277 z"
           inkscape:transform-center-y="-24.62703"
           style="fill:#00ff00;fill-opacity:1;fill-rule:nonzero;stroke:#000000;stroke-width:0.30000001;stroke-linecap:round;stroke-linejoin:round;stroke-miterlimit:4;stroke-opacity:1;stroke-dashoffset:0"
           transform="translate(86.606822,69.598128)"
           inkscape:connector-curvature="0" />
        <path
           id="path3137"
           d="m 115.63996,477.90994 c 0,6.20922 -5.03356,11.24278 -11.24277,11.24278 -6.209217,0 -11.242779,-5.03356 -11.242779,-11.24278 0,-6.20921 5.033562,-11.24277 11.242779,-11.24277 6.20921,0 11.24277,5.03356 11.24277,11.24277 z"
           inkscape:transform-center-y="-24.62703"
           style="fill:#00ff00;fill-opacity:1;fill-rule:nonzero;stroke:#000000;stroke-width:0.30000001;stroke-linecap:round;stroke-linejoin:round;stroke-miterlimit:4;stroke-opacity:1;stroke-dashoffset:0"
           transform="translate(86.606822,95.295898)"
           inkscape:connector-curvature="0" />
        <path
           id="path3139"
           d="m 115.63996,477.90994 c 0,6.20922 -5.03356,11.24278 -11.24277,11.24278 -6.209217,0 -11.242779,-5.03356 -11.242779,-11.24278 0,-6.20921 5.033562,-11.24277 11.242779,-11.24277 6.20921,0 11.24277,5.03356 11.24277,11.24277 z"
           inkscape:transform-center-y="-24.62703"
           style="fill:#00ff00;fill-opacity:1;fill-rule:nonzero;stroke:#000000;stroke-width:0.30000001;stroke-linecap:round;stroke-linejoin:round;stroke-miterlimit:4;stroke-opacity:1;stroke-dashoffset:0"
           transform="translate(86.606822,120.99367)"
           inkscape:connector-curvature="0" />
        <path
           id="path3141"
           d="m 115.63996,477.90994 c 0,6.20922 -5.03356,11.24278 -11.24277,11.24278 -6.209217,0 -11.242779,-5.03356 -11.242779,-11.24278 0,-6.20921 5.033562,-11.24277 11.242779,-11.24277 6.20921,0 11.24277,5.03356 11.24277,11.24277 z"
           inkscape:transform-center-y="-24.62703"
           style="fill:#00ff00;fill-opacity:1;fill-rule:nonzero;stroke:#000000;stroke-width:0.30000001;stroke-linecap:round;stroke-linejoin:round;stroke-miterlimit:4;stroke-opacity:1;stroke-dashoffset:0"
           transform="translate(86.606822,147.60745)"
           inkscape:connector-curvature="0" />
        <g
           id="text3143"
           style="font-size:17.28077698px;font-style:normal;font-variant:normal;font-weight:normal;font-stretch:normal;text-align:start;line-height:129.99999523%;letter-spacing:0px;word-spacing:0px;writing-mode:lr-tb;text-anchor:start;fill:#000000;fill-opacity:1;stroke:none;font-family:Arial;-inkscape-font-specification:Arial">
          <path
             id="path3162"
             d="m 187.78917,502.29749 0,-12.36994 1.63695,0 0,12.36994 -1.63695,0"
             inkscape:connector-curvature="0" />
          <path
             id="path3164"
             d="m 192.58189,502.29749 0,-12.36994 1.63695,0 0,12.36994 -1.63695,0"
             inkscape:connector-curvature="0" />
        </g>
        <g
           id="text3147"
           style="font-size:17.28077698px;font-style:normal;font-variant:normal;font-weight:normal;font-stretch:normal;text-align:start;line-height:129.99999523%;letter-spacing:0px;word-spacing:0px;writing-mode:lr-tb;text-anchor:start;fill:#000000;fill-opacity:1;stroke:none;font-family:Arial;-inkscape-font-specification:Arial">
          <path
             id="path3168"
             d="m 187.78917,502.29749 0,-12.36994 1.63695,0 0,12.36994 -1.63695,0"
             inkscape:connector-curvature="0" />
          <path
             id="path3170"
             d="m 192.58189,502.29749 0,-12.36994 1.63695,0 0,12.36994 -1.63695,0"
             inkscape:connector-curvature="0" />
        </g>
        <path
           id="path3151"
           d="m 115.63996,477.90994 c 0,6.20922 -5.03356,11.24278 -11.24277,11.24278 -6.209217,0 -11.242779,-5.03356 -11.242779,-11.24278 0,-6.20921 5.033562,-11.24277 11.242779,-11.24277 6.20921,0 11.24277,5.03356 11.24277,11.24277 z"
           style="fill:#00ff00;fill-opacity:1;fill-rule:nonzero;stroke:#000000;stroke-width:0.30000001;stroke-linecap:round;stroke-linejoin:round;stroke-miterlimit:4;stroke-opacity:1;stroke-dashoffset:0"
           transform="translate(86.606822,172.65924)"
           inkscape:connector-curvature="0" />
        <g
           id="text3153"
           style="font-size:17.28077698px;font-style:normal;font-variant:normal;font-weight:normal;font-stretch:normal;text-align:start;line-height:129.99999523%;letter-spacing:0px;word-spacing:0px;writing-mode:lr-tb;text-anchor:start;fill:#000000;fill-opacity:1;stroke:none;font-family:Arial;-inkscape-font-specification:Arial">
          <path
             id="path3174"
             d="m 190.18553,656.75415 0,-12.36993 1.63695,0 0,12.36993 -1.63695,0"
             inkscape:connector-curvature="0" />
        </g>
      </g>
      <g
         inkscape:transform-center-y="84.425686"
         inkscape:transform-center-x="-101.84685"
         id="g3157"
         transform="matrix(0,1,-1,0,950.64892,537.7873)">
        <path
           id="path3159"
           d="m 115.63996,477.90994 c 0,6.20922 -5.03356,11.24278 -11.24277,11.24278 -6.209217,0 -11.242779,-5.03356 -11.242779,-11.24278 0,-6.20921 5.033562,-11.24277 11.242779,-11.24277 6.20921,0 11.24277,5.03356 11.24277,11.24277 z"
           style="fill:#00ff00;fill-opacity:1;fill-rule:nonzero;stroke:#000000;stroke-width:0.30000001;stroke-linecap:round;stroke-linejoin:round;stroke-miterlimit:4;stroke-opacity:1;stroke-dashoffset:0"
           transform="translate(86.606822,18.202587)"
           inkscape:connector-curvature="0" />
        <path
           id="path3161"
           d="m 115.63996,477.90994 c 0,6.20922 -5.03356,11.24278 -11.24277,11.24278 -6.209217,0 -11.242779,-5.03356 -11.242779,-11.24278 0,-6.20921 5.033562,-11.24277 11.242779,-11.24277 6.20921,0 11.24277,5.03356 11.24277,11.24277 z"
           style="fill:#00ff00;fill-opacity:1;fill-rule:nonzero;stroke:#000000;stroke-width:0.30000001;stroke-linecap:round;stroke-linejoin:round;stroke-miterlimit:4;stroke-opacity:1;stroke-dashoffset:0"
           transform="translate(86.606822,43.900358)"
           inkscape:connector-curvature="0" />
        <path
           id="path3163"
           d="m 115.63996,477.90994 c 0,6.20922 -5.03356,11.24278 -11.24277,11.24278 -6.209217,0 -11.242779,-5.03356 -11.242779,-11.24278 0,-6.20921 5.033562,-11.24277 11.242779,-11.24277 6.20921,0 11.24277,5.03356 11.24277,11.24277 z"
           inkscape:transform-center-y="-24.62703"
           style="fill:#00ff00;fill-opacity:1;fill-rule:nonzero;stroke:#000000;stroke-width:0.30000001;stroke-linecap:round;stroke-linejoin:round;stroke-miterlimit:4;stroke-opacity:1;stroke-dashoffset:0"
           transform="translate(86.606822,69.598128)"
           inkscape:connector-curvature="0" />
        <path
           id="path3165"
           d="m 115.63996,477.90994 c 0,6.20922 -5.03356,11.24278 -11.24277,11.24278 -6.209217,0 -11.242779,-5.03356 -11.242779,-11.24278 0,-6.20921 5.033562,-11.24277 11.242779,-11.24277 6.20921,0 11.24277,5.03356 11.24277,11.24277 z"
           inkscape:transform-center-y="-24.62703"
           style="fill:#00ff00;fill-opacity:1;fill-rule:nonzero;stroke:#000000;stroke-width:0.30000001;stroke-linecap:round;stroke-linejoin:round;stroke-miterlimit:4;stroke-opacity:1;stroke-dashoffset:0"
           transform="translate(86.606822,95.295898)"
           inkscape:connector-curvature="0" />
        <path
           id="path3167"
           d="m 115.63996,477.90994 c 0,6.20922 -5.03356,11.24278 -11.24277,11.24278 -6.209217,0 -11.242779,-5.03356 -11.242779,-11.24278 0,-6.20921 5.033562,-11.24277 11.242779,-11.24277 6.20921,0 11.24277,5.03356 11.24277,11.24277 z"
           inkscape:transform-center-y="-24.62703"
           style="fill:#00ff00;fill-opacity:1;fill-rule:nonzero;stroke:#000000;stroke-width:0.30000001;stroke-linecap:round;stroke-linejoin:round;stroke-miterlimit:4;stroke-opacity:1;stroke-dashoffset:0"
           transform="translate(86.606822,120.99367)"
           inkscape:connector-curvature="0" />
        <path
           id="path3169"
           d="m 115.63996,477.90994 c 0,6.20922 -5.03356,11.24278 -11.24277,11.24278 -6.209217,0 -11.242779,-5.03356 -11.242779,-11.24278 0,-6.20921 5.033562,-11.24277 11.242779,-11.24277 6.20921,0 11.24277,5.03356 11.24277,11.24277 z"
           inkscape:transform-center-y="-24.62703"
           style="fill:#00ff00;fill-opacity:1;fill-rule:nonzero;stroke:#000000;stroke-width:0.30000001;stroke-linecap:round;stroke-linejoin:round;stroke-miterlimit:4;stroke-opacity:1;stroke-dashoffset:0"
           transform="translate(86.606822,147.60745)"
           inkscape:connector-curvature="0" />
        <g
           id="text3171"
           style="font-size:17.28077698px;font-style:normal;font-variant:normal;font-weight:normal;font-stretch:normal;text-align:start;line-height:129.99999523%;letter-spacing:0px;word-spacing:0px;writing-mode:lr-tb;text-anchor:start;fill:#000000;fill-opacity:1;stroke:none;font-family:Arial;-inkscape-font-specification:Arial">
          <path
             id="path3140"
             d="m 187.78917,502.29749 0,-12.36994 1.63695,0 0,12.36994 -1.63695,0"
             inkscape:connector-curvature="0" />
          <path
             id="path3142"
             d="m 192.58189,502.29749 0,-12.36994 1.63695,0 0,12.36994 -1.63695,0"
             inkscape:connector-curvature="0" />
        </g>
        <g
           id="text3175"
           style="font-size:17.28077698px;font-style:normal;font-variant:normal;font-weight:normal;font-stretch:normal;text-align:start;line-height:129.99999523%;letter-spacing:0px;word-spacing:0px;writing-mode:lr-tb;text-anchor:start;fill:#000000;fill-opacity:1;stroke:none;font-family:Arial;-inkscape-font-specification:Arial">
          <path
             id="path3145"
             d="m 187.78917,502.29749 0,-12.36994 1.63695,0 0,12.36994 -1.63695,0"
             inkscape:connector-curvature="0" />
          <path
             id="path3147"
             d="m 192.58189,502.29749 0,-12.36994 1.63695,0 0,12.36994 -1.63695,0"
             inkscape:connector-curvature="0" />
        </g>
        <path
           id="path3179"
           d="m 115.63996,477.90994 c 0,6.20922 -5.03356,11.24278 -11.24277,11.24278 -6.209217,0 -11.242779,-5.03356 -11.242779,-11.24278 0,-6.20921 5.033562,-11.24277 11.242779,-11.24277 6.20921,0 11.24277,5.03356 11.24277,11.24277 z"
           style="fill:#00ff00;fill-opacity:1;fill-rule:nonzero;stroke:#000000;stroke-width:0.30000001;stroke-linecap:round;stroke-linejoin:round;stroke-miterlimit:4;stroke-opacity:1;stroke-dashoffset:0"
           transform="translate(86.606822,172.65924)"
           inkscape:connector-curvature="0" />
        <g
           id="text3181"
           style="font-size:17.28077698px;font-style:normal;font-variant:normal;font-weight:normal;font-stretch:normal;text-align:start;line-height:129.99999523%;letter-spacing:0px;word-spacing:0px;writing-mode:lr-tb;text-anchor:start;fill:#000000;fill-opacity:1;stroke:none;font-family:Arial;-inkscape-font-specification:Arial">
          <path
             id="path3152"
             d="m 190.18553,656.75415 0,-12.36993 1.63695,0 0,12.36993 -1.63695,0"
             inkscape:connector-curvature="0" />
        </g>
      </g>
      <path
         id="path3053"
         d="m 115.63996,477.90994 c 0,6.20922 -5.03356,11.24278 -11.24277,11.24278 -6.209217,0 -11.242779,-5.03356 -11.242779,-11.24278 0,-6.20921 5.033562,-11.24277 11.242779,-11.24277 6.20921,0 11.24277,5.03356 11.24277,11.24277 z"
         inkscape:transform-center-y="-58.437225"
         style="fill:#ffff00;fill-opacity:1;fill-rule:nonzero;stroke:#000000;stroke-width:0.30000001;stroke-linecap:round;stroke-linejoin:round;stroke-miterlimit:4;stroke-opacity:1;stroke-dashoffset:0"
         transform="translate(261.20697,21.434784)"
         inkscape:connector-curvature="0" />
      <path
         id="path3055"
         d="m 115.63996,477.90994 c 0,6.20922 -5.03356,11.24278 -11.24277,11.24278 -6.209217,0 -11.242779,-5.03356 -11.242779,-11.24278 0,-6.20921 5.033562,-11.24277 11.242779,-11.24277 6.20921,0 11.24277,5.03356 11.24277,11.24277 z"
         inkscape:transform-center-y="-50.608123"
         inkscape:transform-center-x="-29.218607"
         style="fill:#ffff00;fill-opacity:1;fill-rule:nonzero;stroke:#000000;stroke-width:0.30000001;stroke-linecap:round;stroke-linejoin:round;stroke-miterlimit:4;stroke-opacity:1;stroke-dashoffset:0"
         transform="matrix(0.8660254,0.5,-0.5,0.8660254,543.36712,41.093086)"
         inkscape:connector-curvature="0" />
      <path
         id="path3057"
         d="m 115.63996,477.90994 c 0,6.20922 -5.03356,11.24278 -11.24277,11.24278 -6.209217,0 -11.242779,-5.03356 -11.242779,-11.24278 0,-6.20921 5.033562,-11.24277 11.242779,-11.24277 6.20921,0 11.24277,5.03356 11.24277,11.24277 z"
         inkscape:transform-center-y="-29.218619"
         inkscape:transform-center-x="-50.608117"
         style="fill:#ffff00;fill-opacity:1;fill-rule:nonzero;stroke:#000000;stroke-width:0.30000001;stroke-linecap:round;stroke-linejoin:round;stroke-miterlimit:4;stroke-opacity:1;stroke-dashoffset:0"
         transform="matrix(0.5,0.8660254,-0.8660254,0.5,777.89583,199.19775)"
         inkscape:connector-curvature="0" />
      <path
         id="path3061"
         d="m 115.63996,477.90994 c 0,6.20922 -5.03356,11.24278 -11.24277,11.24278 -6.209217,0 -11.242779,-5.03356 -11.242779,-11.24278 0,-6.20921 5.033562,-11.24277 11.242779,-11.24277 6.20921,0 11.24277,5.03356 11.24277,11.24277 z"
         inkscape:transform-center-x="-58.43722"
         style="fill:#ffff00;fill-opacity:1;fill-rule:nonzero;stroke:#000000;stroke-width:0.30000001;stroke-linecap:round;stroke-linejoin:round;stroke-miterlimit:4;stroke-opacity:1;stroke-dashoffset:0"
         transform="matrix(0,1,-1,0,901.95132,453.38476)"
         inkscape:connector-curvature="0" />
      <path
         id="path3063"
         d="m 115.63996,477.90994 c 0,6.20922 -5.03356,11.24278 -11.24277,11.24278 -6.209217,0 -11.242779,-5.03356 -11.242779,-11.24278 0,-6.20921 5.033562,-11.24277 11.242779,-11.24277 6.20921,0 11.24277,5.03356 11.24277,11.24277 z"
         inkscape:transform-center-y="29.218608"
         inkscape:transform-center-x="-50.608121"
         style="fill:#ffff00;fill-opacity:1;fill-rule:nonzero;stroke:#000000;stroke-width:0.30000001;stroke-linecap:round;stroke-linejoin:round;stroke-miterlimit:4;stroke-opacity:1;stroke-dashoffset:0"
         transform="matrix(-0.5,0.8660254,-0.8660254,-0.5,882.29302,735.54492)"
         inkscape:connector-curvature="0" />
      <path
         id="path3065"
         d="m 115.63996,477.90994 c 0,6.20922 -5.03356,11.24278 -11.24277,11.24278 -6.209217,0 -11.242779,-5.03356 -11.242779,-11.24278 0,-6.20921 5.033562,-11.24277 11.242779,-11.24277 6.20921,0 11.24277,5.03356 11.24277,11.24277 z"
         inkscape:transform-center-y="50.608119"
         inkscape:transform-center-x="-29.218617"
         style="fill:#ffff00;fill-opacity:1;fill-rule:nonzero;stroke:#000000;stroke-width:0.30000001;stroke-linecap:round;stroke-linejoin:round;stroke-miterlimit:4;stroke-opacity:1;stroke-dashoffset:0"
         transform="matrix(-0.8660254,0.5,-0.5,-0.8660254,724.18836,970.07363)"
         inkscape:connector-curvature="0" />
      <path
         id="path3067"
         d="m 115.63996,477.90994 c 0,6.20922 -5.03356,11.24278 -11.24277,11.24278 -6.209217,0 -11.242779,-5.03356 -11.242779,-11.24278 0,-6.20921 5.033562,-11.24277 11.242779,-11.24277 6.20921,0 11.24277,5.03356 11.24277,11.24277 z"
         inkscape:transform-center-y="58.437222"
         style="fill:#ffff00;fill-opacity:1;fill-rule:nonzero;stroke:#000000;stroke-width:0.30000001;stroke-linecap:round;stroke-linejoin:round;stroke-miterlimit:4;stroke-opacity:1;stroke-dashoffset:0"
         transform="matrix(-1,0,0,-1,470.00135,1094.1291)"
         inkscape:connector-curvature="0" />
      <path
         id="path3069"
         d="m 115.63996,477.90994 c 0,6.20922 -5.03356,11.24278 -11.24277,11.24278 -6.209217,0 -11.242779,-5.03356 -11.242779,-11.24278 0,-6.20921 5.033562,-11.24277 11.242779,-11.24277 6.20921,0 11.24277,5.03356 11.24277,11.24277 z"
         inkscape:transform-center-y="50.608122"
         inkscape:transform-center-x="29.218601"
         style="fill:#ffff00;fill-opacity:1;fill-rule:nonzero;stroke:#000000;stroke-width:0.30000001;stroke-linecap:round;stroke-linejoin:round;stroke-miterlimit:4;stroke-opacity:1;stroke-dashoffset:0"
         transform="matrix(-0.8660254,-0.5,0.5,-0.8660254,187.8412,1074.4708)"
         inkscape:connector-curvature="0" />
      <path
         id="path3071"
         d="m 115.63996,477.90994 c 0,6.20922 -5.03356,11.24278 -11.24277,11.24278 -6.209217,0 -11.242779,-5.03356 -11.242779,-11.24278 0,-6.20921 5.033562,-11.24277 11.242779,-11.24277 6.20921,0 11.24277,5.03356 11.24277,11.24277 z"
         inkscape:transform-center-y="29.218618"
         inkscape:transform-center-x="50.608121"
         style="fill:#ffff00;fill-opacity:1;fill-rule:nonzero;stroke:#000000;stroke-width:0.30000001;stroke-linecap:round;stroke-linejoin:round;stroke-miterlimit:4;stroke-opacity:1;stroke-dashoffset:0"
         transform="matrix(-0.5,-0.8660254,0.8660254,-0.5,-46.687523,916.36616)"
         inkscape:connector-curvature="0" />
      <path
         id="path3073"
         d="m 115.63996,477.90994 c 0,6.20922 -5.03356,11.24278 -11.24277,11.24278 -6.209217,0 -11.242779,-5.03356 -11.242779,-11.24278 0,-6.20921 5.033562,-11.24277 11.242779,-11.24277 6.20921,0 11.24277,5.03356 11.24277,11.24277 z"
         inkscape:transform-center-x="58.437224"
         style="fill:#ffff00;fill-opacity:1;fill-rule:nonzero;stroke:#000000;stroke-width:0.30000001;stroke-linecap:round;stroke-linejoin:round;stroke-miterlimit:4;stroke-opacity:1;stroke-dashoffset:0"
         transform="matrix(0,-1,1,0,-170.74301,662.17915)"
         inkscape:connector-curvature="0" />
      <path
         id="path3075"
         d="m 115.63996,477.90994 c 0,6.20922 -5.03356,11.24278 -11.24277,11.24278 -6.209217,0 -11.242779,-5.03356 -11.242779,-11.24278 0,-6.20921 5.033562,-11.24277 11.242779,-11.24277 6.20921,0 11.24277,5.03356 11.24277,11.24277 z"
         inkscape:transform-center-y="-29.218599"
         inkscape:transform-center-x="50.608125"
         style="fill:#ffff00;fill-opacity:1;fill-rule:nonzero;stroke:#000000;stroke-width:0.30000001;stroke-linecap:round;stroke-linejoin:round;stroke-miterlimit:4;stroke-opacity:1;stroke-dashoffset:0"
         transform="matrix(0.5,-0.8660254,0.8660254,0.5,-151.08471,380.019)"
         inkscape:connector-curvature="0" />
      <path
         id="path3077"
         d="m 115.63996,477.90994 c 0,6.20922 -5.03356,11.24278 -11.24277,11.24278 -6.209217,0 -11.242779,-5.03356 -11.242779,-11.24278 0,-6.20921 5.033562,-11.24277 11.242779,-11.24277 6.20921,0 11.24277,5.03356 11.24277,11.24277 z"
         inkscape:transform-center-y="-50.608119"
         inkscape:transform-center-x="29.218619"
         style="fill:#ffff00;fill-opacity:1;fill-rule:nonzero;stroke:#000000;stroke-width:0.30000001;stroke-linecap:round;stroke-linejoin:round;stroke-miterlimit:4;stroke-opacity:1;stroke-dashoffset:0"
         transform="matrix(0.8660254,-0.5,0.5,0.8660254,7.0199486,145.49028)"
         inkscape:connector-curvature="0" />
      <path
         id="path3079"
         d="m 115.63996,477.90994 c 0,6.20922 -5.03356,11.24278 -11.24277,11.24278 -6.209217,0 -11.242779,-5.03356 -11.242779,-11.24278 0,-6.20921 5.033562,-11.24277 11.242779,-11.24277 6.20921,0 11.24277,5.03356 11.24277,11.24277 z"
         style="fill:#ff0000;fill-opacity:1;fill-rule:nonzero;stroke:#000000;stroke-width:0.30000001;stroke-linecap:round;stroke-linejoin:round;stroke-miterlimit:4;stroke-opacity:1;stroke-dashoffset:0"
         transform="translate(456.77304,-5.972705)"
         inkscape:connector-curvature="0" />
      <path
         id="path3081"
         d="m 115.63996,477.90994 c 0,6.20922 -5.03356,11.24278 -11.24277,11.24278 -6.209217,0 -11.242779,-5.03356 -11.242779,-11.24278 0,-6.20921 5.033562,-11.24277 11.242779,-11.24277 6.20921,0 11.24277,5.03356 11.24277,11.24277 z"
         style="fill:#ff0000;fill-opacity:1;fill-rule:nonzero;stroke:#000000;stroke-width:0.30000001;stroke-linecap:round;stroke-linejoin:round;stroke-miterlimit:4;stroke-opacity:1;stroke-dashoffset:0"
         transform="translate(456.77304,19.725065)"
         inkscape:connector-curvature="0" />
      <path
         id="path3083"
         d="m 115.63996,477.90994 c 0,6.20922 -5.03356,11.24278 -11.24277,11.24278 -6.209217,0 -11.242779,-5.03356 -11.242779,-11.24278 0,-6.20921 5.033562,-11.24277 11.242779,-11.24277 6.20921,0 11.24277,5.03356 11.24277,11.24277 z"
         inkscape:transform-center-y="-24.62703"
         style="fill:#ff0000;fill-opacity:1;fill-rule:nonzero;stroke:#000000;stroke-width:0.30000001;stroke-linecap:round;stroke-linejoin:round;stroke-miterlimit:4;stroke-opacity:1;stroke-dashoffset:0"
         transform="translate(456.77304,45.422835)"
         inkscape:connector-curvature="0" />
      <path
         id="path3085"
         d="m 115.63996,477.90994 c 0,6.20922 -5.03356,11.24278 -11.24277,11.24278 -6.209217,0 -11.242779,-5.03356 -11.242779,-11.24278 0,-6.20921 5.033562,-11.24277 11.242779,-11.24277 6.20921,0 11.24277,5.03356 11.24277,11.24277 z"
         inkscape:transform-center-y="-24.62703"
         style="fill:#ff0000;fill-opacity:1;fill-rule:nonzero;stroke:#000000;stroke-width:0.30000001;stroke-linecap:round;stroke-linejoin:round;stroke-miterlimit:4;stroke-opacity:1;stroke-dashoffset:0"
         transform="translate(456.77304,71.120605)"
         inkscape:connector-curvature="0" />
      <path
         id="path3087"
         d="m 115.63996,477.90994 c 0,6.20922 -5.03356,11.24278 -11.24277,11.24278 -6.209217,0 -11.242779,-5.03356 -11.242779,-11.24278 0,-6.20921 5.033562,-11.24277 11.242779,-11.24277 6.20921,0 11.24277,5.03356 11.24277,11.24277 z"
         inkscape:transform-center-y="-24.62703"
         style="fill:#ff0000;fill-opacity:1;fill-rule:nonzero;stroke:#000000;stroke-width:0.30000001;stroke-linecap:round;stroke-linejoin:round;stroke-miterlimit:4;stroke-opacity:1;stroke-dashoffset:0"
         transform="translate(456.77304,96.81837)"
         inkscape:connector-curvature="0" />
      <path
         id="path3089"
         d="m 115.63996,477.90994 c 0,6.20922 -5.03356,11.24278 -11.24277,11.24278 -6.209217,0 -11.242779,-5.03356 -11.242779,-11.24278 0,-6.20921 5.033562,-11.24277 11.242779,-11.24277 6.20921,0 11.24277,5.03356 11.24277,11.24277 z"
         inkscape:transform-center-y="-24.62703"
         style="fill:#ff0000;fill-opacity:1;fill-rule:nonzero;stroke:#000000;stroke-width:0.30000001;stroke-linecap:round;stroke-linejoin:round;stroke-miterlimit:4;stroke-opacity:1;stroke-dashoffset:0"
         transform="translate(456.77304,124.18605)"
         inkscape:connector-curvature="0" />
      <path
         id="path3091"
         d="m 115.63996,477.90994 c 0,6.20922 -5.03356,11.24278 -11.24277,11.24278 -6.209217,0 -11.242779,-5.03356 -11.242779,-11.24278 0,-6.20921 5.033562,-11.24277 11.242779,-11.24277 6.20921,0 11.24277,5.03356 11.24277,11.24277 z"
         inkscape:transform-center-y="-24.62703"
         style="fill:#ff0000;fill-opacity:1;fill-rule:nonzero;stroke:#000000;stroke-width:0.30000001;stroke-linecap:round;stroke-linejoin:round;stroke-miterlimit:4;stroke-opacity:1;stroke-dashoffset:0"
         transform="translate(456.77304,149.88382)"
         inkscape:connector-curvature="0" />
      <path
         id="path3093"
         d="m 115.63996,477.90994 c 0,6.20922 -5.03356,11.24278 -11.24277,11.24278 -6.209217,0 -11.242779,-5.03356 -11.242779,-11.24278 0,-6.20921 5.033562,-11.24277 11.242779,-11.24277 6.20921,0 11.24277,5.03356 11.24277,11.24277 z"
         inkscape:transform-center-y="-24.62703"
         style="fill:#ff0000;fill-opacity:1;fill-rule:nonzero;stroke:#000000;stroke-width:0.30000001;stroke-linecap:round;stroke-linejoin:round;stroke-miterlimit:4;stroke-opacity:1;stroke-dashoffset:0"
         transform="translate(456.77304,175.58159)"
         inkscape:connector-curvature="0" />
      <path
         inkscape:connector-curvature="0"
         id="path3102"
         d="m 188.75474,545.48772 c -4.67739,0 -8.46875,3.79136 -8.46875,8.46875 0,4.67739 3.79136,8.46875 8.46875,8.46875 3.4447,0 6.39553,-2.04772 7.71875,-5 l 36.03125,0 c 1.94635,0 3.53125,-1.33731 3.53125,-3 0,-1.66269 -1.5849,-3 -3.53125,-3 l -35.65625,0 c -1.08101,-3.433 -4.30372,-5.9375 -8.09375,-5.9375 z"
         style="fill:#0000ff;fill-opacity:1;fill-rule:nonzero;stroke:#000000;stroke-width:0.30000001;stroke-linecap:round;stroke-linejoin:round;stroke-miterlimit:4;stroke-opacity:1;stroke-dasharray:none;stroke-dashoffset:0" />
      <text
         sodipodi:linespacing="130%"
         id="text3109"
         y="584.12366"
         x="194.98036"
         style="font-size:17.8219986px;font-style:normal;font-variant:normal;font-weight:normal;font-stretch:normal;text-align:start;line-height:129.99999523%;letter-spacing:0px;word-spacing:0px;writing-mode:lr-tb;text-anchor:start;fill:#000000;fill-opacity:1;stroke:none;font-family:Arial;-inkscape-font-specification:Arial"
         xml:space="preserve"><tspan
           y="584.12366"
           x="194.98036"
           id="tspan3111"
           sodipodi:role="line">Asta</tspan></text>
      <text
         xml:space="preserve"
         style="font-size:17.8219986px;font-style:normal;font-variant:normal;font-weight:normal;font-stretch:normal;text-align:start;line-height:129.99999523%;letter-spacing:0px;word-spacing:0px;writing-mode:lr-tb;text-anchor:start;fill:#000000;fill-opacity:1;stroke:none;font-family:Arial;-inkscape-font-specification:Arial"
         x="326.42007"
         y="562.21704"
         id="text3216"
         sodipodi:linespacing="130%"><tspan
           sodipodi:role="line"
           id="tspan3218"
           x="326.42007"
           y="562.21704">Manadas</tspan></text>
      <text
         xml:space="preserve"
         style="font-size:17.8219986px;font-style:normal;font-variant:normal;font-weight:normal;font-stretch:normal;text-align:start;line-height:129.99999523%;letter-spacing:0px;word-spacing:0px;writing-mode:lr-tb;text-anchor:start;fill:#000000;fill-opacity:1;stroke:none;font-family:Arial;-inkscape-font-specification:Arial"
         x="536.72363"
         y="688.18005"
         id="text3220"
         sodipodi:linespacing="130%"><tspan
           sodipodi:role="line"
           id="tspan3222"
           x="536.72363"
           y="688.18005">Clanes</tspan></text>
      <text
         sodipodi:linespacing="130%"
         id="text3224"
         y="762.6626"
         x="359.28"
         style="font-size:17.8219986px;font-style:normal;font-variant:normal;font-weight:normal;font-stretch:normal;text-align:start;line-height:129.99999523%;letter-spacing:0px;word-spacing:0px;writing-mode:lr-tb;text-anchor:start;fill:#000000;fill-opacity:1;stroke:none;font-family:Arial;-inkscape-font-specification:Arial"
         xml:space="preserve"><tspan
           y="762.6626"
           x="359.28"
           id="tspan3226"
           sodipodi:role="line">Tropas</tspan></text>
      <text
         xml:space="preserve"
         style="font-size:17.8219986px;font-style:normal;font-variant:normal;font-weight:normal;font-stretch:normal;text-align:start;line-height:129.99999523%;letter-spacing:0px;word-spacing:0px;writing-mode:lr-tb;text-anchor:start;fill:#000000;fill-opacity:1;stroke:none;font-family:Arial;-inkscape-font-specification:Arial"
         x="122.68853"
         y="636.69952"
         id="text3228"
         sodipodi:linespacing="130%"><tspan
           sodipodi:role="line"
           id="tspan3230"
           x="122.68853"
           y="636.69952">Adultos</tspan></text>
    </g>
  </g>
</svg>
