<?xml version="1.0" encoding="UTF-8" standalone="no"?>
<!-- Created with Inkscape (http://www.inkscape.org/) -->

<svg
   xmlns:dc="http://purl.org/dc/elements/1.1/"
   xmlns:cc="http://creativecommons.org/ns#"
   xmlns:rdf="http://www.w3.org/1999/02/22-rdf-syntax-ns#"
   xmlns:svg="http://www.w3.org/2000/svg"
   xmlns="http://www.w3.org/2000/svg"
   xmlns:sodipodi="http://sodipodi.sourceforge.net/DTD/sodipodi-0.dtd"
   xmlns:inkscape="http://www.inkscape.org/namespaces/inkscape"
   width="200"
   height="134"
   viewBox="0 0 200 134"
   id="svg4572"
   version="1.1"
   inkscape:version="0.91 r13725"
   sodipodi:docname="feria.svg">
  <defs
     id="defs4574" />
  <sodipodi:namedview
     id="base"
     pagecolor="#ffffff"
     bordercolor="#666666"
     borderopacity="1.0"
     inkscape:pageopacity="0.0"
     inkscape:pageshadow="2"
     inkscape:zoom="1.75"
     inkscape:cx="205.71429"
     inkscape:cy="91.428571"
     inkscape:document-units="px"
     inkscape:current-layer="layer1"
     showgrid="false"
     units="px"
     inkscape:window-width="1280"
     inkscape:window-height="737"
     inkscape:window-x="-4"
     inkscape:window-y="-4"
     inkscape:window-maximized="1" />
  <metadata
     id="metadata4577">
    <rdf:RDF>
      <cc:Work
         rdf:about="">
        <dc:format>image/svg+xml</dc:format>
        <dc:type
           rdf:resource="http://purl.org/dc/dcmitype/StillImage" />
        <dc:title></dc:title>
      </cc:Work>
    </rdf:RDF>
  </metadata>
  <g
     inkscape:label="Layer 1"
     inkscape:groupmode="layer"
     id="layer1"
     transform="translate(0,-918.36216)">
    <g
       id="g5318"
       transform="translate(228.57143,690.14282)">
      <g
         transform="matrix(0.57876741,0,0,0.62878012,-243.70606,217.75446)"
         style="color:#000000;font-style:normal;font-variant:normal;font-weight:normal;font-stretch:normal;font-size:95.60136414px;line-height:120.00000477%;font-family:Arial;-inkscape-font-specification:Arial;text-indent:0;text-align:start;text-decoration:none;text-decoration-line:none;text-decoration-style:solid;text-decoration-color:#000000;letter-spacing:0px;word-spacing:0px;text-transform:none;direction:ltr;block-progression:tb;writing-mode:lr-tb;baseline-shift:baseline;text-anchor:start;white-space:normal;clip-rule:nonzero;display:inline;overflow:visible;visibility:visible;opacity:1;isolation:auto;mix-blend-mode:normal;color-interpolation:sRGB;color-interpolation-filters:linearRGB;solid-color:#000000;solid-opacity:1;fill:#ff6600;fill-opacity:1;fill-rule:nonzero;stroke:none;stroke-width:1px;stroke-linecap:butt;stroke-linejoin:miter;stroke-miterlimit:4;stroke-dasharray:none;stroke-dashoffset:0;stroke-opacity:1;color-rendering:auto;image-rendering:auto;shape-rendering:auto;text-rendering:auto;enable-background:accumulate"
         id="text3347">
        <path
           d="m 108.48339,42.478718 -19.932512,0 0,10.783162 18.158662,0 0,13.864065 -18.158662,0 0,25.207391 -16.571526,0 0,-63.718683 36.504038,0 0,13.864065 z"
           style="font-style:normal;font-variant:normal;font-weight:bold;font-stretch:normal;font-family:Aharoni;-inkscape-font-specification:'Aharoni Bold';fill:#ff6600;fill-opacity:1"
           id="path4267"
           inkscape:connector-curvature="0" />
        <path
           d="m 163.00604,73.474473 -32.20944,0 q 0,9.756194 9.42943,9.756194 4.80808,0 7.3755,-4.107871 l 14.79767,0 q -1.77385,5.881724 -5.2282,9.102669 -6.25517,5.835044 -16.75825,5.835044 -13.35058,0 -20.07255,-8.122382 -5.04148,-6.068446 -5.04148,-14.797672 0,-10.363038 6.30185,-16.851607 6.30185,-6.488569 17.78521,-6.488569 14.14415,0 20.2126,10.269677 3.40766,5.788364 3.40766,13.443942 l 0,1.960575 z m -14.28419,-8.775906 q -1.63381,-7.188775 -8.72922,-7.188775 -3.92115,0 -6.34853,2.287337 -1.91389,1.820534 -2.42738,4.901438 l 17.50513,0 z"
           style="font-style:normal;font-variant:normal;font-weight:bold;font-stretch:normal;font-family:Aharoni;-inkscape-font-specification:'Aharoni Bold';fill:#ff6600;fill-opacity:1"
           id="path4269"
           inkscape:connector-curvature="0" />
        <path
           d="m 204.22479,63.158115 q -3.22094,-1.540452 -6.53525,-1.540452 -7.56222,0 -9.80287,6.161807 -0.84025,2.240657 -0.84025,6.021766 l 0,18.5321 -15.31116,0 0,-43.319368 15.31116,0 0,7.095413 q 2.42738,-3.781108 5.2282,-5.461601 3.78111,-2.240657 8.96263,-2.240657 1.21369,0 2.98754,0.140041 l 0,14.610951 z"
           style="font-style:normal;font-variant:normal;font-weight:bold;font-stretch:normal;font-family:Aharoni;-inkscape-font-specification:'Aharoni Bold';fill:#ff6600;fill-opacity:1"
           id="path4271"
           inkscape:connector-curvature="0" />
        <path
           d="m 227.37825,32.349082 q 0,3.641067 -2.52074,6.161806 -2.47406,2.474059 -6.11512,2.474059 -3.59439,0 -6.11513,-2.520739 -2.47406,-2.520739 -2.47406,-6.115126 0,-3.594388 2.47406,-6.068446 2.52074,-2.52074 6.11513,-2.52074 3.59438,0 6.11512,2.52074 2.52074,2.474058 2.52074,6.068446 z m -0.98029,59.984254 -15.31115,0 0,-43.319368 15.31115,0 0,43.319368 z"
           style="font-style:normal;font-variant:normal;font-weight:bold;font-stretch:normal;font-family:Aharoni;-inkscape-font-specification:'Aharoni Bold';fill:#ff6600;fill-opacity:1"
           id="path4273"
           inkscape:connector-curvature="0" />
        <path
           d="m 285.72869,92.333336 -15.31116,0 0,-4.808077 q -2.19398,2.754141 -4.43463,4.014511 -3.92115,2.193976 -8.91595,2.193976 -8.0757,0 -14.37755,-5.554962 -7.51554,-6.62861 -7.51554,-17.551813 0,-11.109924 7.70226,-17.738534 6.11513,-5.27488 14.05079,-5.27488 4.62135,0 8.68254,1.960575 2.33402,1.120328 4.80808,3.687748 l 0,-4.247912 15.31116,0 0,43.319368 z M 270.88433,70.673652 q 0,-4.107871 -2.89418,-6.955373 -2.89418,-2.894182 -7.00205,-2.894182 -4.57468,0 -7.51554,3.454346 -2.3807,2.800822 -2.3807,6.395209 0,3.594387 2.3807,6.395208 2.89418,3.454346 7.51554,3.454346 4.15455,0 7.00205,-2.847501 2.89418,-2.847502 2.89418,-7.002053 z"
           style="font-style:normal;font-variant:normal;font-weight:bold;font-stretch:normal;font-family:Aharoni;-inkscape-font-specification:'Aharoni Bold';fill:#ff6600;fill-opacity:1"
           id="path4275"
           inkscape:connector-curvature="0" />
      </g>
      <g
         transform="matrix(0.53712038,0,0,0.65288869,-243.10219,217.75446)"
         style="color:#000000;font-style:normal;font-variant:normal;font-weight:normal;font-stretch:normal;font-size:92.07118988px;line-height:120.00000477%;font-family:Arial;-inkscape-font-specification:Arial;text-indent:0;text-align:start;text-decoration:none;text-decoration-line:none;text-decoration-style:solid;text-decoration-color:#000000;letter-spacing:0px;word-spacing:0px;text-transform:none;direction:ltr;block-progression:tb;writing-mode:lr-tb;baseline-shift:baseline;text-anchor:start;white-space:normal;clip-rule:nonzero;display:inline;overflow:visible;visibility:visible;opacity:1;isolation:auto;mix-blend-mode:normal;color-interpolation:sRGB;color-interpolation-filters:linearRGB;solid-color:#000000;solid-opacity:1;fill:#006200;fill-opacity:1;fill-rule:nonzero;stroke:none;stroke-width:1px;stroke-linecap:butt;stroke-linejoin:miter;stroke-miterlimit:4;stroke-dasharray:none;stroke-dashoffset:0;stroke-opacity:1;color-rendering:auto;image-rendering:auto;shape-rendering:auto;text-rendering:auto;enable-background:accumulate"
         id="text3351">
        <path
           d="m 75.054465,122.89754 q 0,15.555 -13.666817,20.27544 -4.765403,1.6634 -10.250113,1.6634 -11.508898,0 -21.354402,-6.96828 l 6.833409,-12.8576 q 7.193062,6.47376 14.071427,6.47376 3.102008,0 5.259926,-1.43861 2.517572,-1.61844 2.517572,-4.58558 0,-2.6974 -2.787311,-4.49566 -2.068006,-1.3487 -6.968279,-2.74236 -5.934276,-1.75331 -7.462802,-2.42766 -2.427658,-1.034 -4.13601,-2.42765 -4.900273,-4.0461 -4.900273,-12.22821 0,-8.54176 5.0801,-14.16134 5.934275,-6.608625 15.824735,-6.608625 9.935417,0 19.466224,4.990186 l -6.383843,12.408032 q -5.214969,-4.046098 -10.519852,-4.046098 -2.562529,0 -4.585577,1.303743 -2.292789,1.483569 -2.292789,3.956184 0,2.427658 3.012095,4.180968 1.348699,0.80922 8.092194,2.78731 8.451848,2.47262 12.048379,7.01324 3.102007,3.86627 3.102007,9.93541 z"
           style="font-style:normal;font-variant:normal;font-weight:bold;font-stretch:normal;font-family:Aharoni;-inkscape-font-specification:'Aharoni Bold';fill:#006200;fill-opacity:1"
           id="path4278"
           inkscape:connector-curvature="0" />
        <path
           d="m 128.1033,125.05546 -31.020082,0 q 0,9.39594 9.081242,9.39594 4.63053,0 7.10315,-3.95619 l 14.25125,0 q -1.70835,5.66454 -5.03514,8.76655 -6.02419,5.61958 -16.13943,5.61958 -12.857602,0 -19.331358,-7.82246 -4.855317,-5.84436 -4.855317,-14.25125 0,-9.98037 6.069146,-16.22935 6.069146,-6.24897 17.128479,-6.24897 13.62186,0 19.46622,9.89046 3.28184,5.57462 3.28184,12.94751 l 0,1.88818 z m -13.75673,-8.45185 q -1.57349,-6.92332 -8.40689,-6.92332 -3.77636,0 -6.114107,2.20288 -1.843222,1.75331 -2.337745,4.72044 l 16.858742,0 z"
           style="font-style:normal;font-variant:normal;font-weight:bold;font-stretch:normal;font-family:Aharoni;-inkscape-font-specification:'Aharoni Bold';fill:#006200;fill-opacity:1"
           id="path4280"
           inkscape:connector-curvature="0" />
        <path
           d="m 167.80001,115.12004 q -3.10201,-1.48356 -6.29393,-1.48356 -7.28298,0 -9.44089,5.93427 -0.80922,2.15792 -0.80922,5.79941 l 0,17.84778 -14.74578,0 0,-41.71976 14.74578,0 0,6.83341 q 2.33774,-3.64149 5.03514,-5.25992 3.64149,-2.15792 8.63167,-2.15792 1.16888,0 2.87723,0.13487 l 0,14.07142 z"
           style="font-style:normal;font-variant:normal;font-weight:bold;font-stretch:normal;font-family:Aharoni;-inkscape-font-specification:'Aharoni Bold';fill:#006200;fill-opacity:1"
           id="path4282"
           inkscape:connector-curvature="0" />
        <path
           d="m 222.51224,101.49818 -21.71406,41.71976 -9.8455,0 -21.53423,-41.71976 16.589,0 9.98037,21.39936 10.02533,-21.39936 16.49909,0 z"
           style="font-style:normal;font-variant:normal;font-weight:bold;font-stretch:normal;font-family:Aharoni;-inkscape-font-specification:'Aharoni Bold';fill:#006200;fill-opacity:1"
           id="path4284"
           inkscape:connector-curvature="0" />
        <path
           d="m 243.14733,85.448664 q 0,3.506618 -2.42766,5.934276 -2.3827,2.382702 -5.88932,2.382702 -3.46166,0 -5.88932,-2.427658 -2.3827,-2.427659 -2.3827,-5.88932 0,-3.461661 2.3827,-5.844362 2.42766,-2.427659 5.88932,-2.427659 3.46167,0 5.88932,2.427659 2.42766,2.382701 2.42766,5.844362 z m -0.94409,57.769276 -14.74577,0 0,-41.71976 14.74577,0 0,41.71976 z"
           style="font-style:normal;font-variant:normal;font-weight:bold;font-stretch:normal;font-family:Aharoni;-inkscape-font-specification:'Aharoni Bold';fill:#006200;fill-opacity:1"
           id="path4286"
           inkscape:connector-curvature="0" />
        <path
           d="m 283.78812,142.31881 q -4.58557,2.29279 -9.62072,2.29279 -11.41898,0 -18.11752,-7.73254 -5.3948,-6.24898 -5.3948,-14.47604 0,-8.27202 5.3948,-14.47604 6.69854,-7.73254 18.11752,-7.73254 5.12506,0 9.62072,2.33775 l 0,12.5429 q -3.91122,-2.74236 -7.64263,-2.74236 -4.40575,0 -7.28297,2.83227 -2.87722,2.83227 -2.87722,7.23802 0,4.40575 2.87722,7.23802 2.87722,2.83227 7.28297,2.83227 3.68645,0 7.64263,-2.6974 l 0,12.5429 z"
           style="font-style:normal;font-variant:normal;font-weight:bold;font-stretch:normal;font-family:Aharoni;-inkscape-font-specification:'Aharoni Bold';fill:#006200;fill-opacity:1"
           id="path4288"
           inkscape:connector-curvature="0" />
        <path
           d="m 307.8849,85.448664 q 0,3.506618 -2.42766,5.934276 -2.3827,2.382702 -5.88932,2.382702 -3.46166,0 -5.88932,-2.427658 -2.3827,-2.427659 -2.3827,-5.88932 0,-3.461661 2.3827,-5.844362 2.42766,-2.427659 5.88932,-2.427659 3.46166,0 5.88932,2.427659 2.42766,2.382701 2.42766,5.844362 z m -0.94409,57.769276 -14.74578,0 0,-41.71976 14.74578,0 0,41.71976 z"
           style="font-style:normal;font-variant:normal;font-weight:bold;font-stretch:normal;font-family:Aharoni;-inkscape-font-specification:'Aharoni Bold';fill:#006200;fill-opacity:1"
           id="path4290"
           inkscape:connector-curvature="0" />
      </g>
      <g
         transform="matrix(0.58111253,0,0,0.63209115,-243.97231,217.75446)"
         style="color:#000000;font-style:normal;font-variant:normal;font-weight:normal;font-stretch:normal;font-size:104.80834961px;line-height:120.00000477%;font-family:Arial;-inkscape-font-specification:Arial;text-indent:0;text-align:start;text-decoration:none;text-decoration-line:none;text-decoration-style:solid;text-decoration-color:#000000;letter-spacing:0px;word-spacing:0px;text-transform:none;direction:ltr;block-progression:tb;writing-mode:lr-tb;baseline-shift:baseline;text-anchor:start;white-space:normal;clip-rule:nonzero;display:inline;overflow:visible;visibility:visible;opacity:1;isolation:auto;mix-blend-mode:normal;color-interpolation:sRGB;color-interpolation-filters:linearRGB;solid-color:#000000;solid-opacity:1;fill:#622599;fill-opacity:1;fill-rule:nonzero;stroke:none;stroke-width:1px;stroke-linecap:butt;stroke-linejoin:miter;stroke-miterlimit:4;stroke-dasharray:none;stroke-dashoffset:0;stroke-opacity:1;color-rendering:auto;image-rendering:auto;shape-rendering:auto;text-rendering:auto;enable-background:accumulate"
         id="text3355">
        <path
           d="m 101.05157,196.29268 q 0,17.70688 -15.557491,23.08035 -5.42465,1.89351 -11.668117,1.89351 -13.101043,0 -24.308577,-7.93227 l 7.778745,-14.63632 q 8.188152,7.36934 16.018073,7.36934 3.531141,0 5.987586,-1.63763 2.865854,-1.84234 2.865854,-5.21995 0,-3.07056 -3.172909,-5.1176 -2.354094,-1.53528 -7.932273,-3.12173 -6.755226,-1.99586 -8.495208,-2.7635 -2.763501,-1.17705 -4.708188,-2.7635 -5.578178,-4.60584 -5.578178,-13.91986 0,-9.72343 5.782882,-16.12043 6.755226,-7.52286 18.013935,-7.52286 11.309886,0 22.159188,5.68053 l -7.266986,14.12456 q -5.93641,-4.60583 -11.975172,-4.60583 -2.91703,0 -5.219948,1.4841 -2.609973,1.68881 -2.609973,4.50348 0,2.7635 3.428789,4.75937 1.535278,0.92116 9.211671,3.17291 9.621079,2.81467 13.715155,7.98344 3.531142,4.40114 3.531142,11.30989 z"
           style="font-style:normal;font-variant:normal;font-weight:bold;font-stretch:normal;font-family:Aharoni;-inkscape-font-specification:'Aharoni Bold';fill:#622599;fill-opacity:1"
           id="path4256"
           inkscape:connector-curvature="0" />
        <path
           d="m 146.85404,218.40069 q -5.21994,2.60997 -10.95165,2.60997 -12.99869,0 -20.62391,-8.80226 -6.14111,-7.11346 -6.14111,-16.47866 0,-9.41637 6.14111,-16.47865 7.62522,-8.80227 20.62391,-8.80227 5.83406,0 10.95165,2.66115 l 0,14.27809 q -4.4523,-3.12173 -8.69991,-3.12173 -5.01524,0 -8.2905,3.22409 -3.27526,3.22408 -3.27526,8.23932 0,5.01525 3.27526,8.23933 3.27526,3.22409 8.2905,3.22409 4.19643,0 8.69991,-3.07056 l 0,14.27809 z"
           style="font-style:normal;font-variant:normal;font-weight:bold;font-stretch:normal;font-family:Aharoni;-inkscape-font-specification:'Aharoni Bold';fill:#622599;fill-opacity:1"
           id="path4258"
           inkscape:connector-curvature="0" />
        <path
           d="m 211.74515,195.67857 q 0,9.87696 -6.49935,16.93924 -7.8811,8.59756 -22.05683,8.59756 -14.22692,0 -22.10802,-8.59756 -6.49934,-7.06228 -6.49934,-17.34865 0,-9.26285 6.55052,-16.42748 7.93227,-8.64874 22.5686,-8.64874 13.45927,0 21.49389,8.64874 6.55053,7.06228 6.55053,16.83689 z m -17.451,0 q 0,-4.60584 -3.27526,-7.77875 -3.22409,-3.22408 -7.82992,-3.22408 -5.21995,0 -8.49521,3.88937 -2.66115,3.12173 -2.66115,7.11346 0,4.0429 2.66115,7.16463 3.27526,3.88937 8.49521,3.88937 4.65701,0 7.88109,-3.17291 3.22409,-3.22408 3.22409,-7.88109 z"
           style="font-style:normal;font-variant:normal;font-weight:bold;font-stretch:normal;font-family:Aharoni;-inkscape-font-specification:'Aharoni Bold';fill:#622599;fill-opacity:1"
           id="path4260"
           inkscape:connector-curvature="0" />
        <path
           d="m 271.97925,202.07556 q 0,13.25457 -12.53811,17.60453 -5.21995,1.79116 -12.74281,1.79116 -14.78985,0 -21.23802,-7.26699 -4.09408,-4.60583 -4.09408,-12.1287 l 0,-30.14263 16.78571,0 0,26.91855 q 0,4.4523 2.14939,6.55052 2.30292,2.25174 6.397,2.25174 4.0429,0 6.34582,-2.25174 2.14939,-2.09822 2.14939,-6.55052 l 0,-26.91855 16.78571,0 0,30.14263 z"
           style="font-style:normal;font-variant:normal;font-weight:bold;font-stretch:normal;font-family:Aharoni;-inkscape-font-specification:'Aharoni Bold';fill:#622599;fill-opacity:1"
           id="path4262"
           inkscape:connector-curvature="0" />
        <path
           d="m 311.69179,185.75043 -9.56991,0 0,33.67378 -16.78571,0 0,-33.67378 -5.527,0 0,-13.8175 5.527,0 0,-14.27809 16.78571,0 0,14.27809 9.56991,0 0,13.8175 z"
           style="font-style:normal;font-variant:normal;font-weight:bold;font-stretch:normal;font-family:Aharoni;-inkscape-font-specification:'Aharoni Bold';fill:#622599;fill-opacity:1"
           id="path4264"
           inkscape:connector-curvature="0" />
      </g>
      <g
         transform="matrix(0.06938259,0,0,0.06938259,-70.754206,269.36955)"
         id="g4446"
         style="fill-rule:evenodd">
        <g
           id="g3157"
           transform="translate(0,-49.89002)" />
        <path
           d="m 334.03137,409.27807 -0.1202,0"
           style="fill:#622599;fill-opacity:1;fill-rule:nonzero;stroke:none"
           id="path34"
           inkscape:connector-curvature="0" />
        <path
           d="m 335.56002,630.76459 c 0,0 -14.59654,-11.35163 -10.08002,-16.32847"
           style="fill:#622599;fill-opacity:1;fill-rule:nonzero;stroke:none"
           id="path38"
           inkscape:connector-curvature="0" />
        <path
           d="m 284.25047,663.19514 c -13.71053,-5.27017 -32.32873,-6.74307 -42.65623,-2.72141 l 2.60627,4.65464 6.9215,9.55075 7.98003,-0.81082 c 0.2357,0 6.24833,0.2192 10.64971,2.41642 0,0 13.11798,-13.60694 14.49872,-13.08911"
           style="fill:#622599;fill-opacity:1;fill-rule:nonzero;stroke:none"
           id="path42"
           inkscape:connector-curvature="0" />
        <path
           d="m 328.13235,85.07181 c 0,0 -2.73296,1.6743 -3.711,3.10113 -0.81671,1.15612 -1.80666,3.84335 -2.34748,5.50611 -0.49497,1.55351 -0.52915,3.59598 -1.8756,5.4255 0,0 -1.84118,2.21512 -4.06773,3.56722 9.17103,0.40305 18.22705,1.34633 27.19667,2.65235 l -0.26987,-0.0943 c 2.32437,-1.13372 4.32666,-3.13565 4.32666,-3.13565 1.58214,-1.70884 1.73747,-3.72822 2.43939,-5.20111 0.68471,-1.69729 1.89869,-4.20587 2.85376,-5.28173 1.15611,-1.34055 4.04475,-2.73296 4.04475,-2.73296 l 0.0353,0 c -9.36089,-1.82951 -18.85991,-3.08958 -28.43375,-3.94105 l -0.18974,0.13199"
           style="fill:#622599;fill-opacity:1;fill-rule:nonzero;stroke:none"
           id="path46"
           inkscape:connector-curvature="0" />
        <path
           d="m 364.78832,90.71309 c 0,0 -2.93436,1.30615 -4.11382,2.58342 -0.98994,1.08187 -2.28983,3.59586 -3.04349,5.21253 -0.73068,1.42117 -1.02413,3.45209 -2.61795,5.08044 0,0 -2.07122,2.00216 -4.43012,2.99176 8.98118,1.63978 17.88185,3.71678 26.58679,6.24833 l -0.26987,-0.17795 c 2.47404,-0.80021 4.7006,-2.50858 4.7006,-2.50858 1.82963,-1.5304 2.27841,-3.52692 3.11267,-4.8789 0.88624,-1.54773 2.45094,-3.90664 3.51537,-4.8848 1.31758,-1.15611 4.36108,-2.22656 4.36108,-2.22656 l 0.0353,0.0707 c -9.00416,-3.02629 -18.2155,-5.52909 -27.65689,-7.62907 l -0.17795,0.12139"
           style="fill:#622599;fill-opacity:1;fill-rule:nonzero;stroke:none"
           id="path50"
           inkscape:connector-curvature="0" />
        <path
           d="m 400.34251,101.08491 c 0,0 -3.04362,0.90863 -4.40715,2.0367 -1.11015,0.94398 -2.70421,3.24502 -3.70523,4.76388 -0.87445,1.34634 -1.42694,3.30254 -3.26223,4.74091 0,0 -2.26686,1.63978 -4.77544,2.3589 8.73381,2.75594 17.26044,5.98942 25.51094,9.65434 l -0.16735,-0.27105 c 2.52579,-0.40305 4.98828,-1.82952 4.98828,-1.82952 1.94466,-1.24851 2.6408,-3.17019 3.67647,-4.4418 1.08777,-1.39229 2.92847,-3.53835 4.11948,-4.38405 1.46134,-1.00055 4.597,-1.5937 4.597,-1.5937 l 0.0353,0.0353 c -8.51517,-4.14832 -17.3812,-7.84201 -26.40846,-11.16174 l -0.20152,0.0943"
           style="fill:#622599;fill-opacity:1;fill-rule:nonzero;stroke:none"
           id="path54"
           inkscape:connector-curvature="0" />
        <path
           d="m 434.26788,116.05315 c 0,0 -3.18174,0.4714 -4.65464,1.40384 -1.21964,0.80021 -3.11256,2.85375 -4.24605,4.1943 -1.09955,1.2543 -1.8756,3.11268 -3.87776,4.3381 0,0 -2.52578,1.30037 -5.05733,1.69151 8.33099,3.91241 16.31679,8.19299 24.03803,12.88216 l -0.15556,-0.24749 c 2.60627,-0.0943 5.17813,-1.17956 5.17813,-1.17956 2.12296,-0.98995 3.07815,-2.77893 4.22884,-3.93528 1.30025,-1.26007 3.3657,-3.12423 4.68328,-3.76286 1.57071,-0.78842 4.77543,-1.02412 4.77543,-1.02412 l 0.0353,0.0589 c -7.92253,-5.22409 -16.20178,-10.10312 -24.76871,-14.55046 l -0.17796,0.13199"
           style="fill:#622599;fill-opacity:1;fill-rule:nonzero;stroke:none"
           id="path58"
           inkscape:connector-curvature="0" />
        <path
           d="m 465.96834,135.28016 c 0,0 -3.21615,0.0825 -4.80985,0.8002 -1.33477,0.60458 -3.49239,2.41642 -4.82139,3.6304 -1.20256,1.0642 -2.25543,2.8078 -4.37274,3.75131 0,0 -2.64081,1.01234 -5.23564,1.01234 7.72123,4.97673 15.11437,10.28143 22.18542,15.91988 l -0.17207,-0.2357 c 2.57764,0.20153 5.33924,-0.54683 5.33924,-0.54683 2.18059,-0.73067 3.37159,-2.35312 4.7006,-3.33128 1.41539,-1.07598 3.75131,-2.68111 5.1436,-3.14144 1.63977,-0.55272 4.83294,-0.36298 4.83294,-0.36298 l 0,0.0472 c -7.15731,-6.21368 -14.71167,-12.10528 -22.57669,-17.62282 l -0.21331,0.0825"
           style="fill:#622599;fill-opacity:1;fill-rule:nonzero;stroke:none"
           id="path62"
           inkscape:connector-curvature="0" />
        <path
           d="m 494.84792,158.44021 c 0,0 -3.2046,-0.32763 -4.90188,0.17796 -1.38086,0.42544 -3.76287,1.9562 -5.22422,2.93425 -1.31179,0.94398 -2.54875,2.53732 -4.83294,3.15863 0,0 -2.73862,0.63875 -5.31048,0.37948 7.01932,5.8916 13.64159,12.15137 19.90136,18.65284 l -0.10606,-0.29934 c 2.54875,0.56922 5.29315,0.20152 5.29315,0.20152 2.30139,-0.41365 3.76274,-1.88714 5.12639,-2.67532 1.57071,-0.85206 4.09649,-2.16905 5.50611,-2.45107 1.69151,-0.35708 4.87313,0.28167 4.87313,0.28167 l 0,0.0353 c -6.28275,-7.11124 -13.00283,-13.92337 -20.12563,-20.43051 l -0.20152,0.0353"
           style="fill:#622599;fill-opacity:1;fill-rule:nonzero;stroke:none"
           id="path66"
           inkscape:connector-curvature="0" />
        <path
           d="m 520.44631,185.20708 c 0,0 -3.10113,-0.77664 -4.83295,-0.44901 -1.42682,0.21331 -4.01011,1.41539 -5.60381,2.22667 -1.44991,0.74836 -2.89983,2.17482 -5.21843,2.52578 0,0 -2.7847,0.29345 -5.25863,-0.35119 6.16195,6.78903 11.89234,13.82555 17.29485,21.08646 l -0.0825,-0.25928 c 2.41654,0.84028 5.20701,0.81671 5.20701,0.81671 2.34735,-0.12021 3.91807,-1.34632 5.4255,-1.9562 1.61668,-0.67293 4.36108,-1.60525 5.83397,-1.70295 1.74914,-0.16145 4.75246,0.90863 4.75246,0.90863 l 0,0.0115 c -5.31626,-7.87645 -11.09272,-15.47689 -17.27199,-22.85859 l -0.24748,0"
           style="fill:#622599;fill-opacity:1;fill-rule:nonzero;stroke:none"
           id="path70"
           inkscape:connector-curvature="0" />
        <path
           d="m 542.38141,215.05328 c 0,0 -3.00896,-1.13373 -4.72923,-1.0477 -1.496,0.0589 -4.20586,0.86856 -5.90316,1.49589 -1.50164,0.51736 -3.15286,1.76634 -5.46002,1.80087 0,0 -2.81923,-0.11785 -5.23564,-1.07008 5.23564,7.4853 10.02251,15.25827 14.36071,23.18078 l 0,-0.25927 c 2.31283,1.18523 5.13783,1.49588 5.13783,1.49588 2.28984,0.22392 4.04464,-0.82849 5.64988,-1.23696 1.65121,-0.44901 4.44746,-1.03001 5.88005,-0.98994 1.77213,0.13788 4.60278,1.55339 4.60278,1.55339 l 0.0353,0.0353 c -4.2345,-8.48644 -8.95242,-16.76558 -14.14776,-24.91261 l -0.18974,-0.0472"
           style="fill:#622599;fill-opacity:1;fill-rule:nonzero;stroke:none"
           id="path74"
           inkscape:connector-curvature="0" />
        <path
           d="m 560.17006,247.55124 c 0,0 -2.84221,-1.55917 -4.56248,-1.69729 -1.46135,-0.14378 -4.23462,0.33941 -5.96632,0.70711 -1.62834,0.36297 -3.37159,1.34055 -5.69596,1.10426 0,0 -2.80202,-0.46551 -5.05734,-1.74325 4.2576,8.14691 7.9686,16.43759 11.29412,24.80901 l 0,-0.22391 c 2.09998,1.46135 4.83283,2.16904 4.83283,2.16904 2.27841,0.49497 4.11959,-0.33352 5.74205,-0.51736 1.78355,-0.2357 4.61421,-0.40305 6.04115,-0.15556 1.67418,0.29344 4.32653,2.13451 4.32653,2.13451 l 0,0.0353 c -3.06659,-8.96963 -6.6509,-17.89907 -10.77616,-26.57536 l -0.17795,-0.0472"
           style="fill:#622599;fill-opacity:1;fill-rule:nonzero;stroke:none"
           id="path78"
           inkscape:connector-curvature="0" />
        <path
           d="m 573.5763,282.04971 c 0,0 -2.6064,-1.88714 -4.30368,-2.27263 -1.41539,-0.32173 -4.2345,-0.21331 -6.00085,-0.0353 -1.65121,0.10606 -3.51537,0.85088 -5.78801,0.29934 0,0 -2.68688,-0.82849 -4.78686,-2.40499 3.07814,8.65321 5.76503,17.35248 7.93407,26.13802 l 0,-0.28755 c 1.94466,1.74914 4.57403,2.81923 4.57403,2.81923 2.1575,0.77664 4.1137,0.18974 5.73037,0.18974 1.77791,0.0353 4.60856,0.20152 6.03539,0.63875 1.61679,0.55272 4.03321,2.72141 4.03321,2.72141 l 0,0.0472 c -1.91013,-9.32636 -4.32655,-18.578 -7.22638,-27.77779 l -0.20153,-0.0707"
           style="fill:#622599;fill-opacity:1;fill-rule:nonzero;stroke:none"
           id="path82"
           inkscape:connector-curvature="0" />
        <path
           d="m 582.35265,318.03135 c 0,0 -2.28996,-2.20358 -3.92396,-2.81924 -1.35776,-0.49497 -4.21152,-0.78842 -5.96632,-0.81081 -1.61667,-0.13199 -3.60741,0.38537 -5.77646,-0.4714 0,0 -2.58329,-1.15612 -4.43591,-2.95723 2.00218,8.96962 3.41756,17.93937 4.43591,26.88024 l 0.0472,-0.24748 c 1.67418,1.9562 4.15978,3.38302 4.15978,3.38302 2.04247,1.02413 4.03309,0.74246 5.66131,0.9546 1.75493,0.29344 4.55105,0.74246 5.89161,1.42682 1.57071,0.74246 3.68225,3.15875 3.68225,3.15875 l -0.0589,0.0472 c -0.65054,-9.48181 -1.85262,-18.98082 -3.4924,-28.48549 l -0.22391,-0.0589"
           style="fill:#622599;fill-opacity:1;fill-rule:nonzero;stroke:none"
           id="path86"
           inkscape:connector-curvature="0" />
        <path
           d="m 586.38692,354.81106 c 0,0 -2.01372,-2.47404 -3.56133,-3.29099 -1.27161,-0.67292 -4.05619,-1.30602 -5.75348,-1.61102 -1.67431,-0.29934 -3.66505,-0.0236 -5.68442,-1.1679 0,0 -2.39355,-1.4901 -4.02744,-3.53835 0.78842,9.13651 1.04652,18.19252 0.90392,27.23121 l 0.0589,-0.17325 c 1.40384,2.12297 3.65337,3.79728 3.65337,3.79728 1.91025,1.32912 3.94695,1.28304 5.51766,1.70883 1.74325,0.50677 4.38405,1.3923 5.64412,2.21501 1.42682,0.95459 3.19894,3.58443 3.19894,3.58443 l 0,0.0472 c 0.58689,-9.48746 0.65054,-19.0612 0.2357,-28.66957 l -0.18974,-0.13199"
           style="fill:#622599;fill-opacity:1;fill-rule:nonzero;stroke:none"
           id="path90"
           inkscape:connector-curvature="0" />
        <path
           d="m 585.54405,391.84899 c 0,0 -1.63977,-2.74439 -3.0666,-3.72821 -1.21398,-0.84617 -3.85478,-1.84684 -5.52909,-2.3417 -1.56494,-0.51736 -3.63039,-0.56921 -5.48301,-1.94466 0,0 -2.22667,-1.7951 -3.48662,-3.99867 -0.48319,9.1596 -1.33489,18.19251 -2.73873,27.12773 l 0.13199,-0.21331 c 1.13373,2.31282 3.10113,4.29201 3.10113,4.29201 1.7548,1.53041 3.78584,1.7951 5.27017,2.41653 1.65132,0.70711 4.20586,1.92167 5.31625,2.87674 1.28304,1.14433 2.73296,3.96415 2.73296,3.96415 l 0,0.0825 c 1.76058,-9.33791 3.12411,-18.79084 3.9526,-28.39922 l -0.20152,-0.132"
           style="fill:#622599;fill-opacity:1;fill-rule:nonzero;stroke:none"
           id="path94"
           inkscape:connector-curvature="0" />
        <path
           d="m 579.8918,428.41528 c 0,0 -1.27149,-2.91127 -2.56031,-4.06774 -1.08187,-1.02412 -3.58431,-2.31282 -5.21831,-3.0666 -1.43837,-0.7071 -3.50394,-1.01234 -5.13217,-2.62925 0,0 -1.94466,-2.01372 -2.93425,-4.4187 -1.65121,8.99261 -3.69368,17.84722 -6.22524,26.56382 l 0.16735,-0.21332 c 0.77664,2.45095 2.50845,4.66607 2.50845,4.66607 1.49601,1.77201 3.51538,2.23234 4.87903,3.05505 1.52464,0.95459 3.86056,2.45095 4.85016,3.59598 1.17945,1.24852 2.22655,4.30357 2.22655,4.30357 l -0.0353,0.0353 c 2.98032,-9.00416 5.56362,-18.2155 7.64062,-27.64546 l -0.16735,-0.17795"
           style="fill:#622599;fill-opacity:1;fill-rule:nonzero;stroke:none"
           id="path98"
           inkscape:connector-curvature="0" />
        <path
           d="m 570.22768,464.29568 c 0,0 -0.6965,-3.10113 -1.72026,-4.51652 -0.82849,-1.21398 -3.04363,-3.02629 -4.43591,-4.09072 -1.29448,-0.90863 -3.2277,-1.65121 -4.51652,-3.59586 0,0 -1.4729,-2.35891 -2.02515,-4.89046 -3.38302,8.48632 -7.2609,16.77713 -11.46099,24.72263 l 0.20153,-0.13199 c 0.31701,2.57186 1.54773,5.06888 1.54773,5.06888 1.11605,2.05402 2.93425,2.94002 4.13668,3.99868 1.32912,1.21398 3.34861,3.17018 4.07929,4.44745 0.88034,1.49589 1.25995,4.68905 1.25995,4.68905 4.72934,-8.21597 9.11352,-16.71961 13.02593,-25.48795 l -0.0943,-0.21332"
           style="fill:#622599;fill-opacity:1;fill-rule:nonzero;stroke:none"
           id="path102"
           inkscape:connector-curvature="0" />
        <path
           d="m 554.58522,497.90638 c 0,0 -0.51737,-3.19316 -1.42694,-4.68339 -0.78842,-1.22541 -2.88817,-3.17007 -4.22306,-4.28635 -1.23697,-1.08777 -3.13555,-1.85261 -4.33809,-3.84324 0,0 -1.29448,-2.52577 -1.70873,-5.05155 -3.87787,8.29068 -8.20453,16.32257 -12.87638,24.03226 l 0.20153,-0.14378 c 0.12021,2.52578 1.23708,5.17813 1.23708,5.17813 1.00645,2.04825 2.79613,3.06083 3.92962,4.21729 1.21398,1.27727 3.11255,3.36005 3.78572,4.67184 0.76485,1.53042 0.98995,4.72936 0.98995,4.72936 l -0.0236,0.0353 c 5.20689,-7.92252 10.04561,-16.20178 14.53337,-24.69977 l -0.0825,-0.15556"
           style="fill:#622599;fill-opacity:1;fill-rule:nonzero;stroke:none"
           id="path106"
           inkscape:connector-curvature="0" />
        <path
           d="m 535.29092,529.47167 c 0,0 -0.0472,-3.14709 -0.78842,-4.75233 -0.58101,-1.31758 -2.40499,-3.48662 -3.64773,-4.80996 -1.09365,-1.20244 -2.81345,-2.24954 -3.73398,-4.36108 0,0 -0.97816,-2.67545 -1.04652,-5.21266 -4.95374,7.69814 -10.26999,15.02233 -15.8969,22.12779 l 0.21331,-0.1261 c -0.17795,2.54888 0.56333,5.24719 0.56333,5.24719 0.68471,2.28419 2.33592,3.45209 3.29099,4.72936 1.07598,1.42693 2.70409,3.78006 3.15863,5.12639 0.55862,1.67431 0.3677,4.8214 0.3677,4.8214 l -0.0236,0.0707 c 6.25976,-7.20339 12.10528,-14.78073 17.63437,-22.62264 l -0.0943,-0.23571"
           style="fill:#622599;fill-opacity:1;fill-rule:nonzero;stroke:none"
           id="path110"
           inkscape:connector-curvature="0" />
        <path
           d="m 512.13087,558.3403 c 0,0 0.31584,-3.15864 -0.20153,-4.79842 -0.43723,-1.42682 -1.96775,-3.78572 -2.95734,-5.21266 -0.9546,-1.38074 -2.53722,-2.66378 -3.19317,-4.87891 0,0 -0.61519,-2.73284 -0.33352,-5.31624 -5.90881,6.99055 -12.18012,13.68754 -18.66428,19.85527 l 0.2357,-0.0825 c -0.51736,2.5028 -0.1261,5.31625 -0.1261,5.31625 0.37359,2.27841 1.86994,3.65915 2.64081,5.10907 0.90392,1.56495 2.16916,4.06775 2.47404,5.52909 0.37948,1.68574 -0.26988,4.85593 -0.26988,4.85593 l -0.0353,0.0353 c 7.10558,-6.35181 13.91194,-13.07189 20.43063,-20.1717 l 0,-0.2357"
           style="fill:#622599;fill-opacity:1;fill-rule:nonzero;stroke:none"
           id="path114"
           inkscape:connector-curvature="0" />
        <path
           d="m 485.31909,583.93868 c 0,0 0.76486,-3.08958 0.47141,-4.83294 -0.26988,-1.42683 -1.42694,-3.98714 -2.26121,-5.55207 -0.71889,-1.42683 -2.18625,-2.92283 -2.50268,-5.22422 0,0 -0.29345,-2.7616 0.33941,-5.3047 -6.78915,6.16772 -13.81412,11.91555 -21.12677,17.29497 l 0.31113,-0.0825 c -0.88624,2.41653 -0.88624,5.24142 -0.88624,5.24142 0.13199,2.32449 1.40384,3.91819 2.00217,5.41407 0.67293,1.63977 1.58226,4.3151 1.70884,5.79955 0.13199,1.67419 -0.93809,4.77532 -0.93809,4.77532 7.8478,-5.33923 15.48843,-11.10426 22.88168,-17.3295 l 0,-0.20152"
           style="fill:#622599;fill-opacity:1;fill-rule:nonzero;stroke:none"
           id="path118"
           inkscape:connector-curvature="0" />
        <path
           d="m 455.45039,605.84043 c 0,0 1.15612,-2.99176 1.01234,-4.69482 -0.0353,-1.49588 -0.84617,-4.19431 -1.44981,-5.90303 -0.56333,-1.49588 -1.76634,-3.11268 -1.80087,-5.4255 0,0 0.0707,-2.84233 1.01234,-5.27029 -7.51983,5.27029 -15.29269,10.05715 -23.20378,14.39525 l 0.31584,-0.0353 c -1.22552,2.31294 -1.57649,5.1033 -1.57649,5.1033 -0.16735,2.27841 0.88035,4.07929 1.27161,5.67298 0.43723,1.68574 1.0477,4.50497 0.97816,5.92036 -0.10606,1.70872 -1.53041,4.59701 -1.53041,4.59701 l -0.0472,0 c 8.49787,-4.26915 16.82309,-8.96975 24.95857,-14.14788 l 0.0589,-0.21331"
           style="fill:#622599;fill-opacity:1;fill-rule:nonzero;stroke:none"
           id="path122"
           inkscape:connector-curvature="0" />
        <path
           d="m 422.94099,623.62908 c 0,0 1.50743,-2.83066 1.68575,-4.52795 0.13199,-1.42694 -0.36299,-4.23462 -0.76486,-6.0124 -0.33351,-1.57072 -1.2887,-3.32552 -1.06419,-5.64423 0,0 0.4714,-2.83066 1.73759,-5.03423 -8.19876,4.21729 -16.44914,7.9455 -24.87808,11.24226 l 0.26988,0 c -1.46135,2.09998 -2.43939,4.76389 -2.43939,4.76389 -0.581,2.59484 -0.51736,3.87788 -0.28166,5.79955 0.22392,1.82952 -0.42545,4.60279 -0.68472,6.06414 -0.29344,1.74325 -1.86405,4.93641 -1.86405,4.93641 8.98696,-3.15863 19.44103,-7.2378 28.1805,-11.31709 l 0.10607,-0.26988"
           style="fill:#622599;fill-opacity:1;fill-rule:nonzero;stroke:none"
           id="path126"
           inkscape:connector-curvature="0" />
        <path
           d="m 386.24012,636.86667 c 0,0 0.73068,-1.8123 1.191,-3.51537 0.31702,-1.46135 0.80021,-3.37148 0.67293,-5.12639 -0.0825,-1.67419 -1.28881,-2.95724 -0.67293,-5.14938 0,0 1.66276,-4.97673 3.25646,-7.00765 -8.6935,2.88818 -21.27066,7.83049 -29.31399,12.15703 -1.88714,0.90863 -3.711,1.81808 -3.711,1.81808 -0.82849,2.15184 -1.17945,3.90087 -1.191,5.54064 -0.12021,1.74337 -0.36769,4.33809 -0.36769,6.16195 0.0472,3.82037 -3.55557,9.18836 -3.55557,9.18836 9.3378,-1.67431 21.19583,-7.06528 29.1068,-11.68527 l 4.58558,-2.382"
           style="fill:#622599;fill-opacity:1;fill-rule:nonzero;stroke:none"
           id="path130"
           inkscape:connector-curvature="0" />
        <path
           d="m 206.24146,632.96699 c 0,0 3.08957,-0.90863 4.38405,-2.04248 1.1679,-0.90274 2.8078,-3.18173 3.78584,-4.67761 0.86267,-1.34633 1.36931,-3.36005 3.21615,-4.78687 0,0 2.31294,-1.6512 4.78686,-2.3589 -8.74524,-2.79625 -17.24888,-6.0124 -25.49939,-9.59683 l 0.17796,0.17795 c -2.52578,0.40305 -5.01125,1.86405 -5.01125,1.86405 -1.93311,1.24851 -2.67534,3.19328 -3.66492,4.4187 -1.0642,1.41539 -2.94003,3.56145 -4.16556,4.37262 -1.43837,1.03001 -4.56248,1.60525 -4.56248,1.60525 l -0.0589,-0.0353 c 8.53817,4.13679 17.41576,7.87655 26.45445,11.15021 l 0.15556,-0.0943"
           style="fill:#622599;fill-opacity:1;fill-rule:nonzero;stroke:none"
           id="path134"
           inkscape:connector-curvature="0" />
        <path
           d="m 172.31597,618.06663 c 0,0 3.19329,-0.49497 4.68339,-1.3924 1.20244,-0.8226 3.13566,-2.87674 4.28636,-4.24605 1.0524,-1.21399 1.85261,-3.18162 3.82025,-4.30933 0,0 2.53733,-1.35788 5.04578,-1.7376 -8.26193,-3.86633 -16.30526,-8.19287 -24.06101,-12.87049 l 0.20152,0.23571 c -2.58329,0.10606 -5.21266,1.22552 -5.21266,1.22552 -2.07701,0.97816 -3.0666,2.75583 -4.2345,3.93528 -1.24851,1.24851 -3.36005,3.12423 -4.67762,3.76286 -1.54196,0.8226 -4.7409,0.96638 -4.7409,0.96638 7.92264,5.22409 16.21333,10.01107 24.69977,14.49872 l 0.18974,-0.0707"
           style="fill:#622599;fill-opacity:1;fill-rule:nonzero;stroke:none"
           id="path138"
           inkscape:connector-curvature="0" />
        <path
           d="m 140.661,598.79473 c 0,0 3.21615,-0.0114 4.75233,-0.76486 1.36931,-0.61518 3.51538,-2.4394 4.86748,-3.64194 1.19099,-1.09955 2.2381,-2.85365 4.31511,-3.7512 0,0 2.68688,-0.96638 5.24719,-1.0583 -7.70969,-4.96529 -15.05686,-10.29297 -22.11636,-15.83361 l 0.10606,0.18385 c -2.57186,-0.18385 -5.29327,0.56922 -5.29327,0.56922 -2.20357,0.6965 -3.38302,2.35312 -4.71781,3.29675 -1.43837,1.0642 -3.73398,2.65813 -5.12639,3.12411 -1.6512,0.56922 -4.82139,0.3453 -4.82139,0.3453 l -0.0707,-0.0236 c 7.21483,6.25976 14.73465,12.11683 22.65718,17.6689 l 0.20153,-0.11785"
           style="fill:#622599;fill-opacity:1;fill-rule:nonzero;stroke:none"
           id="path142"
           inkscape:connector-curvature="0" />
        <path
           d="m 111.73592,575.62324 c 0,0 3.2277,0.3677 4.89046,-0.17795 1.35788,-0.4608 3.76274,-1.92168 5.24719,-2.95735 1.33478,-0.90863 2.59484,-2.5028 4.79841,-3.14709 0,0 2.79613,-0.67293 5.33346,-0.36769 -6.98478,-5.91459 -13.64147,-12.16292 -19.90124,-18.65285 l 0.1261,0.25338 c -2.56031,-0.54682 -5.36233,-0.14378 -5.36233,-0.14378 -2.25531,0.37359 -3.65914,1.8987 -5.05721,2.65235 -1.57072,0.85089 -4.067738,2.13452 -5.540639,2.47405 -1.674307,0.29934 -4.827176,-0.33942 -4.827176,-0.33942 l -0.03533,0 c 6.3346,7.14577 13.043145,13.94636 20.125625,20.44206 l 0.20152,-0.0353"
           style="fill:#622599;fill-opacity:1;fill-rule:nonzero;stroke:none"
           id="path146"
           inkscape:connector-curvature="0" />
        <path
           d="m 86.159933,548.83386 c 0,0 3.135654,0.70828 4.867473,0.40305 1.438369,-0.15556 4.01023,-1.42682 5.603922,-2.24388 1.438369,-0.70711 2.899726,-2.16905 5.183902,-2.47393 0,0 2.79613,-0.31702 5.33346,0.30524 -6.16772,-6.72009 -11.955731,-13.82568 -17.300736,-21.05783 l 0.05891,0.27578 c -2.433734,-0.88624 -5.27017,-0.88624 -5.27017,-0.88624 -2.301391,0.14967 -3.883655,1.42694 -5.414068,2.03681 -1.63966,0.65054 -4.315108,1.5937 -5.741926,1.70295 -1.731819,0.13788 -4.79842,-0.9322 -4.79842,-0.9322 l -0.03533,-0.0236 c 5.385312,7.86501 11.138789,15.45967 17.294963,22.89889 l 0.213311,0"
           style="fill:#622599;fill-opacity:1;fill-rule:nonzero;stroke:none"
           id="path150"
           inkscape:connector-curvature="0" />
        <path
           d="m 64.30367,518.96527 c 0,0 2.968782,1.13372 4.694825,1.07008 1.438369,-0.0825 4.171329,-0.91452 5.891596,-1.54196 1.507433,-0.52914 3.170188,-1.74324 5.460028,-1.77777 0,0 2.830663,0.0943 5.224212,1.03591 -5.224212,-7.53138 -10.011073,-15.24673 -14.383693,-23.16924 l 0,0.29344 c -2.25543,-1.19677 -5.091869,-1.53053 -5.091869,-1.53053 -2.24388,-0.18974 -4.021659,0.88624 -5.557839,1.23709 -1.800883,0.50675 -4.562483,1.07597 -5.977872,0.96637 -1.731819,-0.1261 -4.620101,-1.53041 -4.620101,-1.53041 l -0.01144,-0.0589 c 4.246052,8.54383 8.969626,16.83464 14.101795,24.95856 l 0.269878,0.0472"
           style="fill:#622599;fill-opacity:1;fill-rule:nonzero;stroke:none"
           id="path154"
           inkscape:connector-curvature="0" />
        <path
           d="m 46.470241,486.47827 c 0,0 2.819111,1.53041 4.574026,1.70872 1.461357,0.14378 4.257481,-0.36299 5.943339,-0.74246 1.674192,-0.36299 3.406004,-1.35776 5.753478,-1.08777 0,0 2.744395,0.4773 4.999703,1.72605 -4.199969,-8.18145 -7.899537,-16.42617 -11.201961,-24.85498 l 0,0.28166 c -2.157612,-1.44992 -4.902,-2.16904 -4.902,-2.16904 -2.243879,-0.49498 -4.119477,0.32173 -5.753477,0.54093 -1.737595,0.17796 -4.539502,0.40305 -6.000851,0.14378 -1.714615,-0.36298 -4.378396,-2.12308 -4.378396,-2.12308 l 0,-0.0353 c 3.101125,8.92367 6.708542,17.82424 10.764732,26.57537 l 0.20153,0.0353"
           style="fill:#622599;fill-opacity:1;fill-rule:nonzero;stroke:none"
           id="path158"
           inkscape:connector-curvature="0" />
        <path
           d="m 33.064001,451.96824 c 0,0 2.594841,1.88715 4.315108,2.27841 1.392409,0.3512 4.223072,0.19564 6.012395,0.0472 1.605252,-0.1202 3.492394,-0.82849 5.788009,-0.28755 0,0 2.698436,0.77074 4.752337,2.33592 -3.112561,-8.6532 -5.730382,-17.36402 -7.910973,-26.11504 l 0,0.27106 c -1.898694,-1.70884 -4.481983,-2.79047 -4.481983,-2.79047 -2.261091,-0.78843 -4.171213,-0.15557 -5.833969,-0.2357 -1.766351,0 -4.574034,-0.16736 -6.035498,-0.63876 -1.605129,-0.51736 -4.021659,-2.68688 -4.021659,-2.68688 l 0,-0.0353 c 1.898694,9.32648 4.303672,18.61253 7.237922,27.78935 l 0.177958,0.0707"
           style="fill:#622599;fill-opacity:1;fill-rule:nonzero;stroke:none"
           id="path162"
           inkscape:connector-curvature="0" />
        <path
           d="m 24.276688,415.97565 c 0,0 2.335922,2.24965 3.952718,2.85376 1.42105,0.4608 4.240277,0.7071 5.960544,0.82259 1.628224,0.0589 3.60741,-0.43133 5.816765,0.42545 0,0 2.566084,1.13372 4.395715,2.98599 -1.944654,-8.99838 -3.44065,-18.00832 -4.395715,-26.89746 l -0.120208,0.23571 c -1.651212,-1.92168 -4.090722,-3.3485 -4.090722,-3.3485 -2.059677,-1.07009 -4.07917,-0.73068 -5.695965,-0.98995 -1.777779,-0.2357 -4.574026,-0.75424 -5.880052,-1.42693 -1.524637,-0.71889 -3.653378,-3.17019 -3.653378,-3.17019 l 0,-0.0115 c 0.69061,9.45872 1.881374,18.95773 3.521027,28.43942 l 0.189747,0.0825"
           style="fill:#622599;fill-opacity:1;fill-rule:nonzero;stroke:none"
           id="path166"
           inkscape:connector-curvature="0" />
        <path
           d="m 20.253378,379.22999 c 0,0 2.042473,2.43939 3.538354,3.23336 1.306027,0.70239 4.113702,1.34055 5.857072,1.64555 1.593693,0.27577 3.595866,0.0589 5.649883,1.191 0,0 2.370454,1.46135 3.981358,3.50383 -0.78842,-9.14806 -1.012338,-18.20396 -0.822599,-27.27152 l -0.09428,0.28166 c -1.467125,-2.16904 -3.682256,-3.87776 -3.682256,-3.87776 -1.910122,-1.31757 -3.958371,-1.26006 -5.54052,-1.74336 -1.708838,-0.4608 -4.384171,-1.34634 -5.586717,-2.16905 -1.48433,-0.90863 -3.244905,-3.63051 -3.244905,-3.63051 -0.563327,9.49901 -0.621077,19.01535 -0.177957,28.65814 l 0.120207,0.17795"
           style="fill:#622599;fill-opacity:1;fill-rule:nonzero;stroke:none"
           id="path170"
           inkscape:connector-curvature="0" />
        <path
           d="m 21.107683,342.158 c 0,0 1.662755,2.77316 3.112676,3.7512 1.1679,0.8226 3.808816,1.80087 5.552071,2.35324 1.507425,0.48319 3.584429,0.53505 5.379536,1.91013 0,0 2.226552,1.78356 3.54413,3.99868 0.460792,-9.17103 1.357877,-18.16954 2.715632,-27.11618 l -0.13199,0.24748 c -1.133722,-2.34735 -3.112677,-4.30356 -3.112677,-4.30356 -1.754799,-1.56494 -3.733984,-1.81231 -5.281601,-2.45094 -1.605252,-0.67293 -4.125253,-1.88714 -5.304705,-2.88829 -1.31757,-1.07597 -2.709979,-3.99868 -2.709979,-3.99868 l 0.02358,-0.0353 c -1.818086,9.37244 -3.112561,18.80239 -3.918071,28.38768 l 0.13199,0.14378"
           style="fill:#622599;fill-opacity:1;fill-rule:nonzero;stroke:none"
           id="path174"
           inkscape:connector-curvature="0" />
        <path
           d="m 26.759923,305.58087 c 0,0 1.306026,2.9227 2.57186,4.10215 1.116049,1.02413 3.549906,2.33593 5.218314,3.0897 1.444145,0.63875 3.446434,0.97817 5.143606,2.57175 0,0 1.910245,2.07122 2.957346,4.45322 1.628231,-9.01571 3.682248,-17.88186 6.202257,-26.54661 l -0.137888,0.17324 c -0.78253,-2.40486 -2.514226,-4.65451 -2.514226,-4.65451 -1.518984,-1.77213 -3.498169,-2.26686 -4.890456,-3.05517 -1.524759,-0.92042 -3.929737,-2.49691 -4.896231,-3.54979 -1.167907,-1.32912 -2.157619,-4.32665 -2.157619,-4.32665 l 0,-0.0353 c -3.014742,9.00993 -5.49456,18.22705 -7.629076,27.64545 l 0.131998,0.13199"
           style="fill:#622599;fill-opacity:1;fill-rule:nonzero;stroke:none"
           id="path178"
           inkscape:connector-curvature="0" />
        <path
           d="m 37.154131,270.0261 c 0,0 0.920418,3.10113 2.03682,4.44734 0.943982,1.15022 3.256456,2.72141 4.752337,3.69957 1.346326,0.88624 3.31396,1.42682 4.77531,3.23913 0,0 1.628347,2.31294 2.347474,4.76389 2.761715,-8.71071 6.012395,-17.22591 9.631364,-25.48784 l -0.16146,0.21331 c -0.512652,-2.52578 -1.92745,-4.96529 -1.92745,-4.96529 -1.225534,-1.96765 -3.193168,-2.75594 -4.430131,-3.69946 -1.380858,-1.06419 -3.607533,-2.95157 -4.430247,-4.16556 -0.9322,-1.40961 -1.547617,-4.58557 -1.547617,-4.58557 -4.125253,8.50364 -7.830482,17.30651 -11.127245,26.38551 l 0.0825,0.15556"
           style="fill:#622599;fill-opacity:1;fill-rule:nonzero;stroke:none"
           id="path182"
           inkscape:connector-curvature="0" />
        <path
           d="m 52.077588,236.21281 c 0,0 0.52915,3.15875 1.46135,4.6201 0.764849,1.21398 2.876738,3.13566 4.199969,4.26903 1.283039,1.06419 3.12422,1.86416 4.303672,3.86634 0,0 1.306026,2.47981 1.731819,4.99982 3.900866,-8.26205 8.192871,-16.2593 12.858941,-24.00351 l -0.195631,0.17796 c -0.106068,-2.5833 -1.265719,-5.23565 -1.265719,-5.23565 -0.97816,-2.04247 -2.744388,-3.02063 -3.900859,-4.21151 -1.213983,-1.26007 -3.124113,-3.32564 -3.76274,-4.62011 -0.788429,-1.58227 -1.012339,-4.78686 -1.012339,-4.78686 l 0.03533,-0.0472 c -5.218084,7.9455 -10.056804,16.18445 -14.475506,24.69965 l 0.02358,0.26988"
           style="fill:#622599;fill-opacity:1;fill-rule:nonzero;stroke:none"
           id="path186"
           inkscape:connector-curvature="0" />
        <path
           d="m 71.315439,204.54629 c 0,0 0.11785,3.21615 0.810817,4.7409 0.626961,1.36353 2.445286,3.49804 3.647717,4.8789 1.08187,1.15612 2.847983,2.24966 3.791496,4.38417 0,0 0.94399,2.62938 1.006448,5.16659 4.936539,-7.69814 10.264213,-15.10283 15.914103,-22.1278 l -0.247489,0.12611 c 0.213311,-2.59473 -0.540931,-5.28161 -0.540931,-5.28161 -0.742461,-2.19214 -2.324371,-3.41756 -3.302417,-4.70059 -1.075979,-1.42694 -2.698427,-3.76287 -3.170188,-5.15515 -0.569218,-1.62823 -0.31113,-4.8214 -0.31113,-4.8214 l 0.02358,-0.0353 c -6.219575,7.19184 -12.139811,14.71167 -17.680454,22.61122 l 0.05891,0.2133"
           style="fill:#622599;fill-opacity:1;fill-rule:nonzero;stroke:none"
           id="path190"
           inkscape:connector-curvature="0" />
        <path
           d="m 94.565875,175.67825 c 0,0 -0.391261,3.15864 0.177958,4.82139 0.38537,1.43837 1.921558,3.76275 2.93425,5.25863 0.943982,1.35788 2.560307,2.61782 3.147087,4.85593 0,0 0.6965,2.7042 0.35709,5.33357 5.92613,-6.99633 12.20322,-13.66457 18.65862,-19.8898 l -0.24749,0.0825 c 0.55743,-2.5603 0.21331,-5.31625 0.21331,-5.31625 -0.44901,-2.27841 -1.93323,-3.6707 -2.70998,-5.09186 -0.89802,-1.52464 -2.1575,-4.08495 -2.48547,-5.50599 -0.33352,-1.66276 0.29345,-4.86171 0.29345,-4.86171 l 0.0353,-0.0589 c -7.12279,6.36902 -13.91183,13.04881 -20.396098,20.13718 l 0.02358,0.2357"
           style="fill:#622599;fill-opacity:1;fill-rule:nonzero;stroke:none"
           id="path194"
           inkscape:connector-curvature="0" />
        <path
           d="m 121.3212,150.03438 c 0,0 -0.75306,3.17019 -0.4608,4.90201 0.25927,1.45557 1.46135,3.99867 2.27841,5.59237 0.73068,1.42682 2.14607,2.9227 2.45095,5.18391 0,0 0.33941,2.79612 -0.3453,5.31036 6.8179,-6.16773 13.91193,-11.94419 21.13254,-17.27765 l -0.25338,0.0589 c 0.87445,-2.41653 0.86267,-5.25873 0.86267,-5.25873 -0.11785,-2.30139 -1.43837,-3.90075 -2.01372,-5.39098 -0.66114,-1.6512 -1.5937,-4.30355 -1.70872,-5.7649 -0.12138,-1.70884 0.92631,-4.79842 0.92631,-4.79842 -7.80173,5.33346 -15.47688,11.08694 -22.87014,17.27187 l 0,0.16735"
           style="fill:#622599;fill-opacity:1;fill-rule:nonzero;stroke:none"
           id="path198"
           inkscape:connector-curvature="0" />
        <path
           d="m 151.19038,128.23444 c 0,0 -1.12194,2.96879 -1.08777,4.70638 0.12021,1.48433 0.90864,4.17121 1.52464,5.89148 0.54094,1.48445 1.81243,3.11268 1.82386,5.42562 0,0 -0.0943,2.79613 -1.03591,5.19534 7.51983,-5.19534 15.25827,-9.95923 23.14626,-14.3434 l -0.22392,0.0589 c 1.14434,-2.31294 1.53042,-5.1264 1.53042,-5.1264 0.17796,-2.28984 -0.88624,-4.05619 -1.30602,-5.61535 -0.43723,-1.70884 -0.96638,-4.50497 -0.92042,-5.94334 0.0943,-1.74336 1.56495,-4.60856 1.56495,-4.60856 l 0.0236,-0.0353 c -8.52084,4.29213 -16.85761,8.9582 -24.96999,14.15931 l -0.0707,0.2357"
           style="fill:#622599;fill-opacity:1;fill-rule:nonzero;stroke:none"
           id="path202"
           inkscape:connector-curvature="0" />
        <path
           d="m 183.74479,110.42341 c 0,0 -1.55351,2.83067 -1.72038,4.56248 -0.132,1.41539 0.37358,4.24605 0.75306,5.96643 0.36298,1.58215 1.34633,3.32552 1.0583,5.65567 0,0 -0.41955,2.81911 -1.72027,5.07454 8.14692,-4.21152 16.47225,-7.96283 24.86653,-11.22506 l -0.29345,0 c 1.48445,-2.13451 2.20358,-4.85593 2.20358,-4.85593 0.51736,-2.27841 -0.33941,-4.10792 -0.52915,-5.79378 -0.18975,-1.73181 -0.41366,-4.5395 -0.17796,-6.00085 0.3512,-1.70871 2.13452,-4.33808 2.13452,-4.33808 l 0.0353,0 c -8.94665,3.11255 -17.86454,6.67401 -26.55227,10.77627 l -0.0589,0.17796"
           style="fill:#622599;fill-opacity:1;fill-rule:nonzero;stroke:none"
           id="path206"
           inkscape:connector-curvature="0" />
        <path
           d="m 218.2765,97.05064 c 0,0 -1.88715,2.59472 -2.27263,4.26903 -0.32174,1.41539 -0.22392,4.26915 -0.0353,6.04693 0.10606,1.58214 0.87445,3.48084 0.31112,5.73049 0,0 -0.85089,2.69832 -2.37033,4.76389 8.61866,-3.07814 17.32937,-5.70752 26.10349,-7.92264 l -0.2357,0 c 1.72027,-1.89858 2.77892,-4.55093 2.77892,-4.55093 0.79431,-2.15761 0.22392,-4.1137 0.22392,-5.7305 0.0353,-1.74324 0.18974,-4.60855 0.66114,-5.97786 0.52915,-1.62823 2.62937,-4.04465 2.62937,-4.04465 l 0.0472,0 c -9.31494,1.89858 -18.56658,4.28059 -27.73184,7.20329 l -0.10607,0.21331"
           style="fill:#622599;fill-opacity:1;fill-rule:nonzero;stroke:none"
           id="path210"
           inkscape:connector-curvature="0" />
        <path
           d="m 254.25825,88.27487 c 0,0 -2.14606,2.31283 -2.7847,3.93528 -0.55272,1.35788 -0.75306,4.20009 -0.85677,5.94334 -0.0589,1.63978 0.39716,3.66504 -0.4608,5.76503 0,0 -1.12194,2.57186 -2.9458,4.40137 8.96963,-1.89857 17.96236,-3.37147 26.90323,-4.34386 l -0.22392,-0.13789 c 1.96776,-1.62822 3.3716,-4.12525 3.3716,-4.12525 1.04769,-2.04247 0.75424,-4.03309 0.96638,-5.67286 0.24748,-1.80089 0.78842,-4.51653 1.40384,-5.8341 0.77663,-1.59369 3.17018,-3.69367 3.17018,-3.69367 l 0.0707,0 c -9.48746,0.74246 -19.01523,1.84106 -28.48549,3.53835 l -0.1261,0.22391"
           style="fill:#622599;fill-opacity:1;fill-rule:nonzero;stroke:none"
           id="path214"
           inkscape:connector-curvature="0" />
        <path
           d="m 291.10515,84.26288 c 0,0 -2.46238,2.02527 -3.27944,3.49239 -0.7071,1.32912 -1.3521,4.1137 -1.65121,5.85707 -0.25927,1.58215 -0.0472,3.6304 -1.17379,5.60959 0,0 -1.49023,2.43373 -3.51537,4.01023 9.14805,-0.77664 18.23847,-1.02413 27.28294,-0.83439 l -0.25927,-0.0825 c 2.18059,-1.47289 3.88931,-3.66492 3.88931,-3.66492 1.29459,-1.92167 1.26006,-3.9757 1.70883,-5.52909 0.4608,-1.70884 1.36932,-4.42448 2.15762,-5.62125 0.94398,-1.45557 3.61885,-3.19894 3.61885,-3.19894 l 0.0589,0 c -9.53343,-0.57511 -19.07275,-0.66115 -28.70411,-0.21331 l -0.132,0.17795"
           style="fill:#622599;fill-opacity:1;fill-rule:nonzero;stroke:none"
           id="path218"
           inkscape:connector-curvature="0" />
        <path
           d="m 222.28838,631.88818 c 0,0 2.99188,15.23517 13.03749,15.71847 1.94465,-6.22523 10.52879,-13.66445 15.74145,-17.35825 l 1.91013,-2.2381 c -1.61668,-12.68641 4.12525,-19.58481 4.12525,-19.58481 l -5.6671,1.33478 c -12.15713,3.2508 -23.04278,11.61055 -29.30255,22.16244 l 0.15557,-0.0353"
           style="fill:#622599;fill-opacity:1;fill-rule:nonzero;stroke:none"
           id="path222"
           inkscape:connector-curvature="0" />
        <path
           d="m 240.44754,682.39965 c 2.05403,-0.59869 4.04477,-2.38189 4.75234,-3.15865 l 0.0943,0 C 238.30374,673.79253 233.84485,665.20827 234.04614,655.63454 221.26769,654.13866 218.3794,639.6859 218.3794,639.6859 l 0.0353,0.0589 c -1.7779,4.84438 -2.81923,10.11455 -2.93437,15.52862 -0.16734,9.94779 2.73296,19.30868 7.75577,27.02402 l 0.17795,0 c 0,0 9.87873,2.11731 17.03605,0.10607"
           style="fill:#622599;fill-opacity:1;fill-rule:nonzero;stroke:none"
           id="path226"
           inkscape:connector-curvature="0" />
        <path
           d="m 268.1253,684.89443 c -1.79512,0.30523 -3.67648,0.4608 -5.5291,0.39126 -3.573,-0.0471 -6.96746,-0.74246 -10.12621,-1.99651 l -0.10607,0 c -2.73285,8.7396 -22.53061,6.85242 -22.53061,6.85242 7.01354,6.76607 16.50678,11.80042 26.69616,13.2502 l -0.0943,-0.17796 c 0,0 11.22507,-2.33012 11.56448,-18.46283 l 0.13199,0.14377"
           style="fill:#622599;fill-opacity:1;fill-rule:nonzero;stroke:none"
           id="path230"
           inkscape:connector-curvature="0" />
        <path
           d="m 274.0922,683.86052 c 0.12021,-0.0707 0.21331,-0.15556 0.3677,-0.26988 l 8.46333,1.91013 c 15.81052,4.06774 18.7793,6.48415 18.7793,6.48415 0,0 -18.02564,16.94399 -33.85914,12.83607 0,0 11.84637,-8.60142 6.61651,-21.23035"
           style="fill:#622599;fill-opacity:1;fill-rule:nonzero;stroke:none"
           id="path234"
           inkscape:connector-curvature="0" />
        <path
           d="m 327.26697,679.86008 c -12.01325,-9.60827 -23.69863,-11.20197 -32.46685,-14.12478 l -17.53667,12.2262 20.88517,6.93293 c 6.32883,1.65121 7.9686,4.67184 15.92565,9.83267 0,0 18.47443,-10.62098 13.1927,-14.86702"
           style="fill:#622599;fill-opacity:1;fill-rule:nonzero;stroke:none"
           id="path238"
           inkscape:connector-curvature="0" />
        <path
           d="m 363.12497,697.51413 c -6.81212,6.8236 -18.0142,7.23781 -18.0142,7.23781 -7.93395,0.21329 -15.40782,-0.41367 -24.52123,-6.03535 0,0 15.44223,-10.30455 14.72311,-15.56317 3.48084,0.95459 14.26867,2.68688 17.04759,0.78842 0,0 3.76274,9.22281 10.76473,13.57244"
           style="fill:#622599;fill-opacity:1;fill-rule:nonzero;stroke:none"
           id="path242"
           inkscape:connector-curvature="0" />
        <path
           d="m 335.56002,630.76459 c 7.98015,-6.55321 14.94761,-9.06756 20.3156,-7.43933 18.53192,-8.00302 21.51791,-8.63022 21.51791,-8.63022 -7.26656,-8.14691 -14.75186,-9.8211 -27.35777,-9.38387 -5.6902,0.18974 -23.08286,6.6337 -25.81582,10.54034"
           style="fill:#622599;fill-opacity:1;fill-rule:nonzero;stroke:none"
           id="path246"
           inkscape:connector-curvature="0" />
        <path
           d="m 329.70531,634.73157 c 0,0 -12.14559,-10.2469 -9.82122,-17.48483 -13.54943,11.88668 -19.04977,17.84157 -30.22875,17.84157 -2.83077,0.49497 -0.3453,0.1261 -0.3453,0.1261 -1.40961,1.86404 -2.31872,4.03308 -2.83643,5.59803 -0.53505,1.70884 -1.12195,3.65926 -1.14433,5.15515 -0.14378,4.75245 0.2357,6.09301 0.2357,6.09301 12.23763,0.7071 11.46087,1.12194 22.66861,-1.94478 0,0 7.6867,-2.75583 15.21218,-10.01096 1.27161,-1.24851 4.99983,-4.09072 6.25989,-5.37376"
           style="fill:#622599;fill-opacity:1;fill-rule:nonzero;stroke:none"
           id="path250"
           inkscape:connector-curvature="0" />
        <path
           d="m 279.80078,652.76699 c 0,0 -1.34056,-0.0707 0.15556,-7.27246 0.44901,-2.13451 1.23696,-3.46929 1.85839,-5.1436 0.581,-1.49587 1.36931,-3.59586 2.84221,-5.37376 0,0 -2.29562,1.24851 0,0 l -3.42911,0.14967 c -9.15949,-0.78842 -13.87741,-1.56506 -22.70891,-3.23924 -2.37046,-0.10607 0,0 0,0 -2.85376,0.85677 -6.90995,3.48661 -7.60032,4.94219 -0.75896,1.59947 -2.33593,2.1173 -3.34862,3.20472 -0.75306,0.77663 -3.27943,3.98135 -3.27943,3.98135 l -0.0353,0 c 9.25164,4.08506 26.25316,9.05601 35.54499,8.75113"
           style="fill:#622599;fill-opacity:1;fill-rule:nonzero;stroke:none"
           id="path254"
           inkscape:connector-curvature="0" />
        <path
           d="m 268.70925,610.05431 c 1.44979,-2.27264 4.4359,-1.49589 6.58774,-1.74325 11.00067,-1.191 26.51774,6.12742 29.67637,13.23866 l -4.95951,3.72255 c -4.22295,3.62474 -10.16629,4.33231 -10.16629,4.33231 l -2.79625,-0.97226 c -3.45209,-1.49589 -8.57848,-2.01372 -12.57716,-2.10577 -3.90074,-0.0589 -8.27348,-1.03001 -11.70824,0.26988 -4.0793,-4.292 5.94334,-16.65055 5.94334,-16.65055 l 0,-0.0943"
           style="fill:#622599;fill-opacity:1;fill-rule:nonzero;stroke:none"
           id="path258"
           inkscape:connector-curvature="0" />
        <path
           d="m 223.52428,691.20996 c -3.92384,2.84233 -6.42664,5.18965 -6.42664,5.18965 l -3.99868,3.83181 0.20153,-0.13203 c 0,0 -12.80143,-14.97044 -22.80108,-6.32883 l -0.0943,0.0707 c 4.23462,-5.28159 8.00314,-10.13751 10.13765,-12.21452 2.23811,-2.28418 4.76388,-4.5626 8.73958,-6.65103 l -1.11016,0.74246 c 1.40385,-0.7071 2.79614,-1.24851 4.13669,-1.634 0,0 2.64092,12.46202 11.21362,17.12805"
           style="fill:#622599;fill-opacity:1;fill-rule:nonzero;stroke:none"
           id="path262"
           inkscape:connector-curvature="0" />
        <path
           d="m 183.80053,702.09901 c 13.06035,-10.73022 23.74459,3.42912 23.74459,3.42912 l -9.71762,9.42415 -14.02697,-12.85327"
           style="fill:#622599;fill-opacity:1;fill-rule:nonzero;stroke:none"
           id="path266"
           inkscape:connector-curvature="0" />
        <path
           d="m 191.88016,720.70753 1.80653,-1.97919 -12.84174,-12.41603 -1.81808,2.02528 12.85329,12.36994 z"
           style="fill:#622599;fill-opacity:1;fill-rule:nonzero;stroke:none"
           id="path270"
           inkscape:connector-curvature="0" />
        <path
           d="m 175.63123,710.83 c -4.459,2.88818 -7.29544,5.43704 -7.29544,5.43704 l 14.40668,16.80013 5.98942,-8.96401 L 175.63123,710.83"
           style="fill:#622599;fill-opacity:1;fill-rule:nonzero;stroke:none"
           id="path274"
           inkscape:connector-curvature="0" />
        <path
           d="m 414.18704,715.34752 c 4.33821,3.13573 7.07104,5.76508 7.07104,5.76508 l -15.005,16.28224 -5.70752,-9.21701 13.64148,-12.83031"
           style="fill:#622599;fill-opacity:1;fill-rule:nonzero;stroke:none"
           id="path278"
           inkscape:connector-curvature="0" />
        <path
           d="m 410.27639,713.24636 -1.88714,-1.95615 -13.38255,11.83492 1.89869,1.95622 13.371,-11.83499 z"
           style="fill:#622599;fill-opacity:1;fill-rule:nonzero;stroke:none"
           id="path282"
           inkscape:connector-curvature="0" />
        <path
           d="m 406.3549,706.31285 c -12.5656,-11.19051 -23.87693,2.61783 -23.87693,2.61783 l 9.38965,9.76371 14.48728,-12.38154"
           style="fill:#622599;fill-opacity:1;fill-rule:nonzero;stroke:none"
           id="path286"
           inkscape:connector-curvature="0" />
        <path
           d="m 381.96991,678.30951 c -17.17994,-9.21699 -26.28191,3.95272 -26.28191,3.95272 10.63816,5.13783 18.8427,16.73685 18.8427,16.73685 l 2.66378,4.38995 -0.21331,-0.17796 c 0,0 13.34814,-14.49309 23.00248,-5.41407 l 0.10607,0.0591 c -4.0965,-5.43704 -7.65217,-10.18939 -9.67167,-12.35844 -1.70872,-1.86416 -4.64308,-4.44745 -8.45179,-7.19185"
           style="fill:#622599;fill-opacity:1;fill-rule:nonzero;stroke:none"
           id="path290"
           inkscape:connector-curvature="0" />
        <path
           d="m 317.95098,650.68822 c -1.4729,0.61518 9.09042,4.37262 25.86755,1.97919 l 0.14968,-0.20153 c 0,0 2.26697,-2.27263 2.87674,-3.84323 0.60457,-1.41539 1.72604,-4.60856 1.87571,-6.42098 0.15556,-1.60513 0.63875,-2.62926 0.69649,-4.87314 0,0 0,-2.2381 0.76486,-4.15978 -1.91013,0.95459 -11.89245,4.30356 -11.89245,4.30356 -2.72718,0.63875 -4.597,1.03591 -4.597,1.03591 -1.55917,1.09954 -2.7272,2.54887 -3.98714,3.61896 -0.84027,0.62697 -2.75016,2.34747 -4.90201,4.05619 -1.07597,0.90863 -6.19069,4.01023 -6.85243,4.50497"
           style="fill:#622599;fill-opacity:1;fill-rule:nonzero;stroke:none"
           id="path294"
           inkscape:connector-curvature="0" />
        <path
           d="m 388.22909,674.33158 c 10.40812,-11.85792 5.95488,-25.84458 4.07929,-32.58765 l -20.41919,9.39543 c 0.32762,0.92041 3.3716,6.69699 -2.37034,13.27895 0,0 19.85516,8.5957 18.71024,9.91327"
           style="fill:#622599;fill-opacity:1;fill-rule:nonzero;stroke:none"
           id="path298"
           inkscape:connector-curvature="0" />
        <path
           d="m 348.37017,679.42167 c 0,0.13199 13.77959,-12.80143 22.57668,-8.83151 l -1.97918,-1.76635 c -7.91109,-5.86284 -17.47339,-9.31492 -26.91478,-9.5623 -8.49221,-0.28166 -23.34766,2.20358 -26.75367,7.74422 0,0 12.81875,2.53721 20.83331,10.64959 0.73068,0.74246 4.07918,-0.18974 12.23764,1.76635"
           style="fill:#622599;fill-opacity:1;fill-rule:nonzero;stroke:none"
           id="path302"
           inkscape:connector-curvature="0" />
        <path
           d="m 262.22567,410.35688 -0.44901,0.0825 c -9.45305,0.89803 -21.52958,1.92168 -32.62229,4.36685 -5.35066,-20.81034 -20.46504,-47.5065 -46.40754,-43.78972 -22.25449,3.26223 -31.59228,26.05753 -26.25304,46.32127 -31.72475,4.3956 -58.363394,-21.29364 -64.77271,-50.53279 -9.550755,-43.72644 22.36373,-87.77508 68.55843,-87.74055 64.8532,0.10607 99.77689,85.52542 101.94593,131.29433 m -124.43046,-48.45579 8.20442,-16.32835 18.07738,2.80768 -13.03159,-12.93378 8.24472,-16.3227 -16.30536,8.3944 -13.04315,-12.84751 2.98611,18.06017 -16.25941,8.42881 18.12923,2.73862 2.99765,18.00266"
           style="fill:#622599;fill-opacity:1;fill-rule:nonzero;stroke:none"
           id="path306"
           inkscape:connector-curvature="0" />
        <path
           d="m 344.39223,410.43572 c 2.16904,-45.76902 37.10416,-131.23116 101.99189,-131.25992 46.20614,-0.11785 78.07465,44.00256 68.53546,87.729 -6.39789,29.22772 -33.07108,54.89398 -64.80724,50.49826 5.3622,-20.26363 -3.96416,-43.11656 -26.21852,-46.29818 -25.93095,-3.77429 -41.0339,22.94486 -46.33859,43.55379 -11.16178,-2.19781 -23.27284,-3.24491 -32.64516,-4.15401 l -0.51737,-0.0707 z m 124.40748,-48.40983 3.01474,-18.04862 18.13501,-2.70421 -16.24787,-8.47488 2.96313,-18.01409 -13.02016,12.81297 -16.2824,-8.40583 8.19877,16.40319 -13.06612,12.82453 18.13488,-2.73296 8.17002,16.3399"
           style="fill:#622599;fill-opacity:1;fill-rule:nonzero;stroke:none"
           id="path310"
           inkscape:connector-curvature="0" />
        <path
           d="m 303.23011,449.21525 c -48.43281,0 -87.71756,-7.13434 -87.71756,-16.03491 0,-8.79709 39.28475,-15.96019 87.71756,-15.96019 48.44424,0 87.71756,7.1631 87.71756,15.96019 0,8.90057 -39.27332,16.03491 -87.71756,16.03491 m 0.24749,-9.48169 c 41.90257,0 75.60638,-3.91242 75.60638,-6.55322 0,-2.62937 -33.95118,-6.75462 -75.85375,-6.75462 -41.90269,0 -75.88263,4.12525 -75.88263,6.75462 0,2.6408 34.23885,6.55322 76.13,6.55322"
           style="fill:#622599;fill-opacity:1;fill-rule:nonzero;stroke:none"
           id="path314"
           inkscape:connector-curvature="0" />
        <path
           d="m 374.55309,452.15928 c -8.86616,1.87571 -19.19366,3.3716 -30.58547,4.4187 l 0.0825,-0.1261 c 2.1575,19.25117 18.08315,60.69342 45.35466,60.69342 19.9703,0 35.56797,-17.55389 37.16167,-36.64383 -23.42815,11.12146 -47.3223,-0.4608 -52.16102,-28.41066 l 0.14378,0.0707"
           style="fill:#622599;fill-opacity:1;fill-rule:nonzero;stroke:none"
           id="path318"
           inkscape:connector-curvature="0" />
        <path
           d="m 262.27046,456.57562 c -11.14445,-1.04769 -21.38557,-2.50845 -30.25172,-4.29201 l -0.0707,-0.2357 c -4.59702,28.39333 -28.65815,40.13623 -52.22431,28.95724 1.56494,19.13604 17.13952,36.65539 37.12136,36.65539 27.51888,0 43.4733,-42.10398 45.38343,-61.15375 l 0.0472,0.0707"
           style="fill:#622599;fill-opacity:1;fill-rule:nonzero;stroke:none"
           id="path322"
           inkscape:connector-curvature="0" />
        <path
           d="m 303.23011,145.69687 c 11.69682,12.56562 31.08022,27.32903 35.06169,30.32657 29.88933,22.39826 43.96803,53.20235 44.12913,80.03663 0.41366,49.73305 -41.48833,93.39043 -46.76993,153.45677 -8.52097,-0.98995 -17.58842,-1.39807 -27.03569,-1.46135 1.06419,-60.91793 -1.24851,-143.45725 -5.3852,-203.04605 -4.1368,59.5888 -6.48415,142.12812 -5.37376,203.04605 -9.41275,0.0589 -18.47442,0.4714 -27.0126,1.46135 -5.22409,-60.06634 -47.14976,-103.72372 -46.83911,-153.45677 0.24749,-26.83428 14.29743,-57.63837 44.18677,-80.03663 4.01022,-2.99754 23.38785,-17.76095 35.0387,-30.32657"
           style="fill:#622599;fill-opacity:1;fill-rule:evenodd;stroke:none"
           id="path326"
           inkscape:connector-curvature="0" />
        <path
           d="m 303.23011,572.63431 c 23.39363,-10.26999 47.42012,-32.02385 57.73619,-54.3877 -14.85557,-20.53987 -22.37528,-42.84608 -24.74573,-60.88328 -8.63022,0.60458 -17.68623,1.01234 -27.11618,1.01234 -1.20244,16.20179 -1.191,50.5328 -5.87428,69.12801 -4.70637,-18.59521 -4.65463,-52.92622 -5.81099,-69.12801 -9.45871,0 -18.57223,-0.40894 -27.15071,-1.01234 -2.33592,18.0372 -9.89594,40.34341 -24.70543,60.88328 10.25845,22.36385 34.32524,44.11771 57.66713,54.3877"
           style="fill:#622599;fill-opacity:1;fill-rule:evenodd;stroke:none"
           id="path330"
           inkscape:connector-curvature="0" />
      </g>
    </g>
  </g>
</svg>
