<?xml version="1.0" encoding="UTF-8" standalone="no"?>
<!-- Created with Inkscape (http://www.inkscape.org/) -->

<svg
   xmlns:dc="http://purl.org/dc/elements/1.1/"
   xmlns:cc="http://creativecommons.org/ns#"
   xmlns:rdf="http://www.w3.org/1999/02/22-rdf-syntax-ns#"
   xmlns:svg="http://www.w3.org/2000/svg"
   xmlns="http://www.w3.org/2000/svg"
   xmlns:sodipodi="http://sodipodi.sourceforge.net/DTD/sodipodi-0.dtd"
   xmlns:inkscape="http://www.inkscape.org/namespaces/inkscape"
   width="37"
   height="37"
   viewBox="0 0 37 37.000001"
   id="svg2"
   version="1.1"
   inkscape:version="0.91 r13725"
   sodipodi:docname="icono_omms.svg">
  <defs
     id="defs4">
    <clipPath
       id="clipPath16"
       clipPathUnits="userSpaceOnUse">
      <path
         id="path18"
         d="m 0,88.853 283.46,0 L 283.46,0 0,0 0,88.853 z" />
    </clipPath>
    <clipPath
       id="clipPath26"
       clipPathUnits="userSpaceOnUse">
      <path
         id="path28"
         d="m -290.285,90.9917 580.57,0 0,-181.9839 -580.57,0 0,181.9839 z" />
    </clipPath>
  </defs>
  <sodipodi:namedview
     id="base"
     pagecolor="#ffffff"
     bordercolor="#666666"
     borderopacity="1.0"
     inkscape:pageopacity="0.0"
     inkscape:pageshadow="2"
     inkscape:zoom="5.0152841"
     inkscape:cx="38.221096"
     inkscape:cy="-1.0519568"
     inkscape:document-units="px"
     inkscape:current-layer="layer1"
     showgrid="false"
     units="px"
     inkscape:window-width="1366"
     inkscape:window-height="702"
     inkscape:window-x="0"
     inkscape:window-y="27"
     inkscape:window-maximized="1" />
  <metadata
     id="metadata7">
    <rdf:RDF>
      <cc:Work
         rdf:about="">
        <dc:format>image/svg+xml</dc:format>
        <dc:type
           rdf:resource="http://purl.org/dc/dcmitype/StillImage" />
        <dc:title></dc:title>
      </cc:Work>
    </rdf:RDF>
  </metadata>
  <g
     inkscape:label="Capa 1"
     inkscape:groupmode="layer"
     id="layer1"
     transform="translate(0,-1015.3622)">
    <g
       id="g4565"
       transform="matrix(0.51680262,0,0,0.51680262,70.127518,496.29111)"
       style="fill:#f9f9f9">
      <path
         inkscape:connector-curvature="0"
         id="path34"
         style="fill:#f9f9f9;fill-opacity:1;fill-rule:nonzero;stroke:none"
         d="m -96.642574,1040.0467 -0.01281,0" />
      <path
         inkscape:connector-curvature="0"
         id="path38"
         style="fill:#f9f9f9;fill-opacity:1;fill-rule:nonzero;stroke:none"
         d="m -96.48043,1063.539 c 0,0 -1.548204,-1.204 -1.069157,-1.7319" />
      <path
         inkscape:connector-curvature="0"
         id="path42"
         style="fill:#f9f9f9;fill-opacity:1;fill-rule:nonzero;stroke:none"
         d="m -101.92264,1066.9788 c -1.45423,-0.559 -3.429,-0.7152 -4.52439,-0.2887 l 0.27644,0.4937 0.73413,1.013 0.84642,-0.086 c 0.025,0 0.66273,0.023 1.12957,0.2563 0,0 1.39137,-1.4432 1.53783,-1.3883" />
      <path
         inkscape:connector-curvature="0"
         id="path46"
         style="fill:#f9f9f9;fill-opacity:1;fill-rule:nonzero;stroke:none"
         d="m -97.268264,1005.6594 c 0,0 -0.289868,0.1776 -0.393611,0.3289 -0.08665,0.1227 -0.191619,0.4077 -0.248983,0.584 -0.05249,0.1648 -0.05614,0.3814 -0.198941,0.5755 0,0 -0.19528,0.235 -0.431446,0.3784 0.972739,0.043 1.933271,0.1428 2.884651,0.2813 l -0.02868,-0.01 c 0.246542,-0.1202 0.458908,-0.3326 0.458908,-0.3326 0.167818,-0.1812 0.184296,-0.3954 0.258746,-0.5516 0.07262,-0.18 0.201383,-0.4461 0.302684,-0.5602 0.122662,-0.1422 0.429006,-0.2899 0.429006,-0.2899 l 0.0036,0 c -0.992876,-0.1941 -2.0004,-0.3277 -3.015855,-0.418 l -0.02014,0.014" />
      <path
         inkscape:connector-curvature="0"
         id="path50"
         style="fill:#f9f9f9;fill-opacity:1;fill-rule:nonzero;stroke:none"
         d="m -93.3803,1006.2578 c 0,0 -0.311228,0.1385 -0.436329,0.274 -0.104962,0.1147 -0.24288,0.3814 -0.322822,0.5528 -0.0775,0.1508 -0.108625,0.3662 -0.277664,0.5389 0,0 -0.21969,0.2124 -0.469893,0.3173 0.9526,0.1739 1.896658,0.3942 2.819966,0.6628 l -0.02868,-0.019 c 0.262408,-0.085 0.498574,-0.266 0.498574,-0.266 0.19406,-0.1624 0.24166,-0.3741 0.330146,-0.5175 0.09398,-0.1642 0.259967,-0.4144 0.372863,-0.5181 0.139748,-0.1227 0.462569,-0.2362 0.462569,-0.2362 l 0.0036,0.01 c -0.955041,-0.321 -1.932053,-0.5865 -2.933473,-0.8092 l -0.01891,0.013" />
      <path
         inkscape:connector-curvature="0"
         id="path54"
         style="fill:#f9f9f9;fill-opacity:1;fill-rule:nonzero;stroke:none"
         d="m -89.609199,1007.3579 c 0,0 -0.322822,0.096 -0.467451,0.216 -0.117775,0.1001 -0.286818,0.3442 -0.393001,0.5053 -0.09276,0.1428 -0.151343,0.3503 -0.346012,0.5028 0,0 -0.240438,0.1739 -0.506507,0.2502 0.926359,0.2923 1.83075,0.6353 2.705848,1.024 l -0.0177,-0.029 c 0.267898,-0.043 0.529086,-0.194 0.529086,-0.194 0.206265,-0.1325 0.280105,-0.3363 0.38995,-0.4711 0.115337,-0.1477 0.310617,-0.3753 0.436939,-0.4651 0.155003,-0.1061 0.487589,-0.169 0.487589,-0.169 l 0.0036,0 c -0.903169,-0.44 -1.843564,-0.8317 -2.801047,-1.1839 l -0.02136,0.01" />
      <path
         inkscape:connector-curvature="0"
         id="path58"
         style="fill:#f9f9f9;fill-opacity:1;fill-rule:nonzero;stroke:none"
         d="m -86.01086,1008.9455 c 0,0 -0.337469,0.05 -0.493693,0.1489 -0.129372,0.085 -0.330145,0.3027 -0.450363,0.4449 -0.116563,0.133 -0.198943,0.3301 -0.411309,0.4601 0,0 -0.2679,0.1379 -0.53641,0.1794 0.883643,0.415 1.730669,0.869 2.549625,1.3663 l -0.01647,-0.026 c 0.276444,-0.01 0.549225,-0.1251 0.549225,-0.1251 0.225182,-0.105 0.326484,-0.2947 0.448534,-0.4174 0.137916,-0.1337 0.356996,-0.3314 0.496743,-0.3991 0.166599,-0.084 0.506508,-0.1086 0.506508,-0.1086 l 0.0036,0.01 c -0.840314,-0.5541 -1.718464,-1.0716 -2.627126,-1.5433 l -0.01891,0.014" />
      <path
         inkscape:connector-curvature="0"
         id="path62"
         style="fill:#f9f9f9;fill-opacity:1;fill-rule:nonzero;stroke:none"
         d="m -82.648504,1010.9848 c 0,0 -0.34113,0.01 -0.510169,0.085 -0.141578,0.064 -0.370422,0.2563 -0.511389,0.3851 -0.127543,0.1129 -0.239218,0.2978 -0.463791,0.3979 0,0 -0.280105,0.1074 -0.555327,0.1074 0.818956,0.5279 1.603127,1.0905 2.353124,1.6885 l -0.01831,-0.025 c 0.273393,0.021 0.566313,-0.058 0.566313,-0.058 0.231285,-0.077 0.357606,-0.2495 0.498573,-0.3533 0.150123,-0.1141 0.397884,-0.2844 0.545564,-0.3332 0.173921,-0.059 0.51261,-0.038 0.51261,-0.038 l 0,0 c -0.759151,-0.659 -1.560409,-1.2839 -2.394621,-1.8692 l -0.02258,0.01" />
      <path
         inkscape:connector-curvature="0"
         id="path66"
         style="fill:#f9f9f9;fill-opacity:1;fill-rule:nonzero;stroke:none"
         d="m -79.585354,1013.4413 c 0,0 -0.339909,-0.035 -0.519932,0.019 -0.14646,0.045 -0.399104,0.2075 -0.554108,0.3113 -0.139137,0.1 -0.270341,0.2691 -0.51261,0.335 0,0 -0.290478,0.068 -0.563261,0.04 0.744505,0.6249 1.446904,1.2888 2.110855,1.9784 l -0.011,-0.032 c 0.27034,0.061 0.56143,0.021 0.56143,0.021 0.2441,-0.044 0.399102,-0.2002 0.543732,-0.2838 0.166598,-0.09 0.434498,-0.23 0.584009,-0.2599 0.179414,-0.038 0.516883,0.03 0.516883,0.03 l 0,0 c -0.666394,-0.7543 -1.379165,-1.4768 -2.134655,-2.167 l -0.02136,0" />
      <path
         inkscape:connector-curvature="0"
         id="path70"
         style="fill:#f9f9f9;fill-opacity:1;fill-rule:nonzero;stroke:none"
         d="m -76.87023,1016.2804 c 0,0 -0.328925,-0.082 -0.51261,-0.048 -0.151343,0.023 -0.425344,0.1501 -0.594384,0.2361 -0.153782,0.079 -0.307566,0.2307 -0.553496,0.2679 0,0 -0.295361,0.031 -0.557769,-0.037 0.653578,0.7201 1.261386,1.4665 1.834411,2.2366 l -0.0085,-0.028 c 0.256305,0.089 0.552277,0.087 0.552277,0.087 0.248982,-0.013 0.415581,-0.1428 0.575466,-0.2075 0.17148,-0.071 0.46257,-0.1703 0.618794,-0.1806 0.185516,-0.017 0.504066,0.096 0.504066,0.096 l 0,0 c -0.563871,-0.8354 -1.176563,-1.6416 -1.83197,-2.4245 l -0.02624,0" />
      <path
         inkscape:connector-curvature="0"
         id="path74"
         style="fill:#f9f9f9;fill-opacity:1;fill-rule:nonzero;stroke:none"
         d="m -74.543651,1019.4461 c 0,0 -0.319162,-0.1203 -0.501625,-0.1111 -0.158665,0.01 -0.446094,0.092 -0.626118,0.1587 -0.159275,0.055 -0.334416,0.1873 -0.579126,0.191 0,0 -0.299022,-0.012 -0.555328,-0.1135 0.555328,0.7939 1.063055,1.6183 1.523184,2.4587 l 0,-0.028 c 0.24532,0.1257 0.544953,0.1587 0.544953,0.1587 0.24288,0.024 0.429006,-0.088 0.599266,-0.1312 0.175141,-0.048 0.471722,-0.1093 0.623675,-0.105 0.187957,0.015 0.4882,0.1648 0.4882,0.1648 l 0.0036,0 c -0.449144,-0.9001 -0.949549,-1.7783 -1.500604,-2.6424 l -0.02014,0" />
      <path
         inkscape:connector-curvature="0"
         id="path78"
         style="fill:#f9f9f9;fill-opacity:1;fill-rule:nonzero;stroke:none"
         d="m -72.656881,1022.893 c 0,0 -0.301464,-0.1654 -0.483929,-0.18 -0.155002,-0.015 -0.449144,0.036 -0.632829,0.075 -0.172701,0.038 -0.357606,0.1422 -0.604147,0.1172 0,0 -0.297191,-0.049 -0.53641,-0.1849 0.451585,0.8641 0.845196,1.7435 1.197921,2.6314 l 0,-0.024 c 0.222741,0.155 0.51261,0.23 0.51261,0.23 0.241659,0.053 0.436939,-0.035 0.609029,-0.055 0.189177,-0.025 0.489421,-0.043 0.640762,-0.016 0.177584,0.031 0.458909,0.2264 0.458909,0.2264 l 0,0 c -0.325264,-0.9514 -0.705449,-1.8985 -1.142999,-2.8188 l -0.01891,0" />
      <path
         inkscape:connector-curvature="0"
         id="path82"
         style="fill:#f9f9f9;fill-opacity:1;fill-rule:nonzero;stroke:none"
         d="m -71.234937,1026.5521 c 0,0 -0.276444,-0.2002 -0.456468,-0.241 -0.150121,-0.034 -0.449144,-0.023 -0.63649,0 -0.175143,0.012 -0.372863,0.09 -0.613911,0.032 0,0 -0.284988,-0.088 -0.507729,-0.255 0.326484,0.9178 0.611471,1.8405 0.841535,2.7723 l 0,-0.031 c 0.206265,0.1855 0.485149,0.299 0.485149,0.299 0.228844,0.082 0.436329,0.02 0.607809,0.02 0.188567,0 0.488809,0.021 0.640152,0.068 0.17148,0.059 0.427785,0.2887 0.427785,0.2887 l 0,0 c -0.202603,-0.9892 -0.458908,-1.9705 -0.766474,-2.9463 l -0.02136,-0.01" />
      <path
         inkscape:connector-curvature="0"
         id="path86"
         style="fill:#f9f9f9;fill-opacity:1;fill-rule:nonzero;stroke:none"
         d="m -70.304062,1030.3686 c 0,0 -0.24288,-0.2338 -0.41619,-0.2991 -0.14402,-0.052 -0.446704,-0.084 -0.63283,-0.086 -0.171481,-0.014 -0.382627,0.041 -0.612692,-0.05 0,0 -0.274001,-0.1226 -0.470502,-0.3136 0.212367,0.9514 0.362489,1.9027 0.470502,2.8511 l 0.0049,-0.026 c 0.177583,0.2075 0.441211,0.3588 0.441211,0.3588 0.216639,0.1087 0.427785,0.079 0.600486,0.1014 0.186126,0.031 0.482708,0.079 0.624896,0.1513 0.166599,0.079 0.39056,0.335 0.39056,0.335 l -0.0061,0 c -0.06896,-1.0057 -0.1965,-2.0132 -0.370422,-3.0214 l -0.0238,-0.01" />
      <path
         inkscape:connector-curvature="0"
         id="path90"
         style="fill:#f9f9f9;fill-opacity:1;fill-rule:nonzero;stroke:none"
         d="m -69.876155,1034.2696 c 0,0 -0.213587,-0.2624 -0.377745,-0.349 -0.134865,-0.071 -0.430226,-0.1386 -0.61025,-0.1709 -0.177582,-0.032 -0.388729,0 -0.602926,-0.1239 0,0 -0.253865,-0.158 -0.427175,-0.3753 0.0836,0.9691 0.111062,1.9296 0.09581,2.8883 l 0.0067,-0.018 c 0.148902,0.2252 0.387509,0.4028 0.387509,0.4028 0.202604,0.1409 0.418631,0.1361 0.58523,0.1812 0.184906,0.054 0.46501,0.1477 0.598655,0.235 0.151343,0.1013 0.339299,0.3802 0.339299,0.3802 l 0,0 c 0.06225,-1.0063 0.06896,-2.0217 0.02502,-3.0408 l -0.02014,-0.014" />
      <path
         inkscape:connector-curvature="0"
         id="path94"
         style="fill:#f9f9f9;fill-opacity:1;fill-rule:nonzero;stroke:none"
         d="m -69.965556,1038.1981 c 0,0 -0.173921,-0.2911 -0.325264,-0.3954 -0.128763,-0.09 -0.408868,-0.1959 -0.58645,-0.2484 -0.165988,-0.055 -0.385067,-0.06 -0.581568,-0.2063 0,0 -0.236167,-0.1904 -0.369812,-0.4241 -0.05126,0.9715 -0.141578,1.9296 -0.290479,2.8773 l 0.01404,-0.023 c 0.120212,0.2453 0.328925,0.4552 0.328925,0.4552 0.186126,0.1623 0.401543,0.1904 0.558988,0.2563 0.175142,0.075 0.446093,0.2038 0.563872,0.3051 0.136085,0.1215 0.289868,0.4205 0.289868,0.4205 l 0,0.01 c 0.186737,-0.9904 0.331365,-1.9931 0.419242,-3.0122 l -0.02136,-0.014" />
      <path
         inkscape:connector-curvature="0"
         id="path98"
         style="fill:#f9f9f9;fill-opacity:1;fill-rule:nonzero;stroke:none"
         d="m -70.565066,1042.0766 c 0,0 -0.134865,-0.3088 -0.271562,-0.4315 -0.114725,-0.1086 -0.380186,-0.2453 -0.553496,-0.3252 -0.152562,-0.075 -0.371642,-0.1074 -0.544343,-0.2789 0,0 -0.206264,-0.2136 -0.311228,-0.4687 -0.175141,0.9538 -0.39178,1.893 -0.66029,2.8175 l 0.0177,-0.023 c 0.08239,0.26 0.266069,0.495 0.266069,0.495 0.158665,0.1879 0.372862,0.2367 0.517491,0.324 0.161716,0.1013 0.409479,0.26 0.514441,0.3814 0.125101,0.1324 0.236166,0.4565 0.236166,0.4565 l -0.0036,0 c 0.31611,-0.955 0.590113,-1.9321 0.810413,-2.9323 l -0.0177,-0.019" />
      <path
         inkscape:connector-curvature="0"
         id="path102"
         style="fill:#f9f9f9;fill-opacity:1;fill-rule:nonzero;stroke:none"
         d="m -71.590102,1045.8823 c 0,0 -0.07384,-0.329 -0.182466,-0.4791 -0.08787,-0.1287 -0.322822,-0.321 -0.470502,-0.4339 -0.137306,-0.096 -0.34235,-0.1751 -0.479046,-0.3814 0,0 -0.156224,-0.2502 -0.214808,-0.5187 -0.358827,0.9001 -0.770136,1.7795 -1.215619,2.6223 l 0.02136,-0.014 c 0.03356,0.2728 0.164158,0.5376 0.164158,0.5376 0.118387,0.2179 0.311227,0.3119 0.438769,0.4242 0.140968,0.1287 0.355165,0.3362 0.432668,0.4717 0.09336,0.1587 0.133644,0.4973 0.133644,0.4973 0.501626,-0.8714 0.966636,-1.7733 1.381606,-2.7034 l -0.0097,-0.023" />
      <path
         inkscape:connector-curvature="0"
         id="path106"
         style="fill:#f9f9f9;fill-opacity:1;fill-rule:nonzero;stroke:none"
         d="m -73.24925,1049.4472 c 0,0 -0.05492,-0.3387 -0.151343,-0.4967 -0.0836,-0.13 -0.306344,-0.3363 -0.447922,-0.4547 -0.131204,-0.1153 -0.332586,-0.1965 -0.460129,-0.4076 0,0 -0.137306,-0.2679 -0.181245,-0.5358 -0.411307,0.8794 -0.870216,1.7313 -1.365738,2.549 l 0.02136,-0.015 c 0.01281,0.2679 0.131204,0.5493 0.131204,0.5493 0.1068,0.2172 0.296581,0.3246 0.4168,0.4473 0.128764,0.1355 0.330146,0.3564 0.401545,0.4955 0.08116,0.1623 0.104962,0.5016 0.104962,0.5016 l -0.0025,0 c 0.552276,-0.8404 1.065497,-1.7185 1.541491,-2.6198 l -0.0085,-0.016" />
      <path
         inkscape:connector-curvature="0"
         id="path110"
         style="fill:#f9f9f9;fill-opacity:1;fill-rule:nonzero;stroke:none"
         d="m -75.295724,1052.7952 c 0,0 -0.0049,-0.3338 -0.0836,-0.504 -0.06164,-0.1398 -0.255085,-0.3698 -0.386898,-0.5102 -0.11595,-0.1275 -0.298413,-0.2386 -0.396053,-0.4626 0,0 -0.103738,-0.2837 -0.111063,-0.5529 -0.525426,0.8166 -1.089296,1.5934 -1.686121,2.3471 l 0.02257,-0.014 c -0.01891,0.2704 0.0598,0.5566 0.0598,0.5566 0.07263,0.2423 0.247761,0.3661 0.349063,0.5016 0.114112,0.1514 0.286817,0.401 0.335027,0.5437 0.0592,0.1776 0.03905,0.5114 0.03905,0.5114 l -0.0025,0.01 c 0.663953,-0.764 1.283966,-1.5677 1.870416,-2.3995 l -0.0097,-0.025" />
      <path
         inkscape:connector-curvature="0"
         id="path114"
         style="fill:#f9f9f9;fill-opacity:1;fill-rule:nonzero;stroke:none"
         d="m -77.752224,1055.8572 c 0,0 0.03356,-0.335 -0.02136,-0.5089 -0.04638,-0.1514 -0.208705,-0.4016 -0.313669,-0.5529 -0.1013,-0.1465 -0.26912,-0.2826 -0.338689,-0.5175 0,0 -0.0653,-0.2899 -0.03539,-0.5639 -0.626728,0.7415 -1.2919,1.4518 -1.979652,2.106 l 0.02503,-0.01 c -0.05492,0.2654 -0.01342,0.5638 -0.01342,0.5638 0.03966,0.2417 0.198331,0.3882 0.280103,0.5419 0.09581,0.166 0.230065,0.4315 0.262408,0.5865 0.04027,0.1788 -0.02868,0.5151 -0.02868,0.5151 l -0.0036,0 c 0.753659,-0.6737 1.475584,-1.3865 2.166997,-2.1396 l 0,-0.025" />
      <path
         inkscape:connector-curvature="0"
         id="path118"
         style="fill:#f9f9f9;fill-opacity:1;fill-rule:nonzero;stroke:none"
         d="m -80.59605,1058.5724 c 0,0 0.08116,-0.3278 0.05004,-0.5127 -0.02867,-0.1513 -0.151341,-0.4229 -0.239827,-0.5888 -0.07629,-0.1514 -0.231895,-0.3101 -0.265459,-0.5542 0,0 -0.03113,-0.2929 0.036,-0.5626 -0.720095,0.6542 -1.465211,1.2638 -2.240838,1.8344 l 0.03295,-0.01 c -0.09398,0.2563 -0.09398,0.5559 -0.09398,0.5559 0.01404,0.2466 0.148902,0.4156 0.212368,0.5743 0.0714,0.1739 0.167819,0.4577 0.181244,0.6151 0.01404,0.1776 -0.09947,0.5065 -0.09947,0.5065 0.83238,-0.5663 1.642792,-1.1778 2.426963,-1.838 l 0,-0.021" />
      <path
         inkscape:connector-curvature="0"
         id="path122"
         style="fill:#f9f9f9;fill-opacity:1;fill-rule:nonzero;stroke:none"
         d="m -83.764103,1060.8954 c 0,0 0.122663,-0.3173 0.1074,-0.498 -0.0036,-0.1586 -0.0897,-0.4448 -0.153782,-0.6261 -0.0598,-0.1587 -0.187348,-0.3301 -0.191009,-0.5755 0,0 0.0074,-0.3014 0.1074,-0.5589 -0.797596,0.5589 -1.622044,1.0667 -2.461137,1.5268 l 0.03356,0 c -0.129983,0.2453 -0.167208,0.5413 -0.167208,0.5413 -0.0177,0.2416 0.09336,0.4326 0.134864,0.6017 0.04638,0.1788 0.111063,0.4778 0.103738,0.6279 -0.011,0.1813 -0.162326,0.4876 -0.162326,0.4876 l -0.0049,0 c 0.90134,-0.4528 1.784371,-0.9514 2.647265,-1.5006 l 0.0061,-0.023" />
      <path
         inkscape:connector-curvature="0"
         id="path126"
         style="fill:#f9f9f9;fill-opacity:1;fill-rule:nonzero;stroke:none"
         d="m -87.212259,1062.7822 c 0,0 0.159885,-0.3003 0.178804,-0.4803 0.01404,-0.1513 -0.03845,-0.4491 -0.08116,-0.6377 -0.0354,-0.1666 -0.136696,-0.3527 -0.1129,-0.5987 0,0 0.05004,-0.3002 0.184296,-0.5339 -0.869607,0.4473 -1.744704,0.8427 -2.638721,1.1924 l 0.02868,0 c -0.155004,0.2227 -0.258747,0.5053 -0.258747,0.5053 -0.06164,0.2752 -0.05492,0.4113 -0.0299,0.6151 0.0238,0.1941 -0.04516,0.4882 -0.07263,0.6432 -0.03113,0.1849 -0.197721,0.5236 -0.197721,0.5236 0.95321,-0.335 2.062035,-0.7677 2.989004,-1.2004 l 0.011,-0.029" />
      <path
         inkscape:connector-curvature="0"
         id="path130"
         style="fill:#f9f9f9;fill-opacity:1;fill-rule:nonzero;stroke:none"
         d="m -91.104983,1064.1862 c 0,0 0.0775,-0.1922 0.126322,-0.3728 0.03356,-0.155 0.08483,-0.3576 0.0714,-0.5438 -0.0091,-0.1776 -0.136697,-0.3136 -0.0714,-0.5461 0,0 0.176362,-0.5279 0.345402,-0.7433 -0.922089,0.3063 -2.256095,0.8305 -3.109224,1.2894 -0.200162,0.096 -0.393611,0.1929 -0.393611,0.1929 -0.08787,0.2282 -0.125101,0.4137 -0.126322,0.5876 -0.01281,0.1849 -0.03906,0.4602 -0.03906,0.6536 0.0055,0.4052 -0.377134,0.9746 -0.377134,0.9746 0.990435,-0.1776 2.248162,-0.7494 3.087256,-1.2394 l 0.486368,-0.2527" />
      <path
         inkscape:connector-curvature="0"
         id="path134"
         style="fill:#f9f9f9;fill-opacity:1;fill-rule:nonzero;stroke:none"
         d="m -110.19678,1063.7726 c 0,0 0.32771,-0.096 0.46501,-0.2166 0.12389,-0.096 0.29781,-0.3375 0.40155,-0.4962 0.0915,-0.1428 0.14524,-0.3564 0.34113,-0.5077 0,0 0.24532,-0.1751 0.50773,-0.2502 -0.92758,-0.2966 -1.82953,-0.6377 -2.70463,-1.0179 l 0.0189,0.019 c -0.2679,0.043 -0.53153,0.1977 -0.53153,0.1977 -0.20504,0.1325 -0.28376,0.3387 -0.38873,0.4687 -0.1129,0.1501 -0.31183,0.3777 -0.44182,0.4638 -0.15256,0.1092 -0.48393,0.1703 -0.48393,0.1703 l -0.006,0 c 0.90561,0.4388 1.84723,0.8355 2.80593,1.1827 l 0.0165,-0.01" />
      <path
         inkscape:connector-curvature="0"
         id="path138"
         style="fill:#f9f9f9;fill-opacity:1;fill-rule:nonzero;stroke:none"
         d="m -113.79512,1062.1922 c 0,0 0.33869,-0.053 0.49675,-0.1477 0.12754,-0.087 0.33258,-0.3051 0.45463,-0.4504 0.11168,-0.1287 0.1965,-0.3374 0.40521,-0.4571 0,0 0.26912,-0.144 0.53519,-0.1842 -0.87632,-0.4101 -1.72945,-0.869 -2.55207,-1.3652 l 0.0214,0.025 c -0.27401,0.011 -0.55289,0.13 -0.55289,0.13 -0.2203,0.1038 -0.32526,0.2923 -0.44914,0.4174 -0.13243,0.1325 -0.35639,0.3314 -0.49614,0.3991 -0.16354,0.087 -0.50284,0.1026 -0.50284,0.1026 0.84031,0.5541 1.71968,1.0618 2.6198,1.5378 l 0.0201,-0.01" />
      <path
         inkscape:connector-curvature="0"
         id="path142"
         style="fill:#f9f9f9;fill-opacity:1;fill-rule:nonzero;stroke:none"
         d="m -117.15265,1060.1481 c 0,0 0.34113,0 0.50407,-0.081 0.14524,-0.065 0.37286,-0.2587 0.51627,-0.3863 0.12632,-0.1165 0.23739,-0.3027 0.45769,-0.3979 0,0 0.28498,-0.1025 0.55654,-0.1122 -0.81773,-0.5267 -1.59702,-1.0918 -2.3458,-1.6795 l 0.011,0.02 c -0.27278,-0.02 -0.56143,0.06 -0.56143,0.06 -0.23372,0.074 -0.35882,0.2496 -0.5004,0.3497 -0.15256,0.1129 -0.39605,0.2819 -0.54374,0.3313 -0.17514,0.06 -0.51138,0.037 -0.51138,0.037 l -0.007,0 c 0.76526,0.664 1.56285,1.2852 2.40317,1.8741 l 0.0214,-0.012" />
      <path
         inkscape:connector-curvature="0"
         id="path146"
         style="fill:#f9f9f9;fill-opacity:1;fill-rule:nonzero;stroke:none"
         d="m -120.22062,1057.6904 c 0,0 0.34235,0.039 0.51871,-0.019 0.14402,-0.049 0.39911,-0.2038 0.55655,-0.3136 0.14158,-0.096 0.27522,-0.2655 0.50895,-0.3338 0,0 0.29658,-0.071 0.5657,-0.039 -0.74084,-0.6273 -1.4469,-1.2901 -2.11085,-1.9784 l 0.0134,0.027 c -0.27156,-0.058 -0.56875,-0.015 -0.56875,-0.015 -0.23922,0.04 -0.38812,0.2013 -0.53641,0.2813 -0.1666,0.09 -0.43145,0.2264 -0.58767,0.2624 -0.17759,0.032 -0.512,-0.036 -0.512,-0.036 l -0.004,0 c 0.67189,0.7579 1.38344,1.4792 2.13466,2.1682 l 0.0214,0" />
      <path
         inkscape:connector-curvature="0"
         id="path150"
         style="fill:#f9f9f9;fill-opacity:1;fill-rule:nonzero;stroke:none"
         d="m -122.93337,1054.8489 c 0,0 0.33259,0.075 0.51628,0.043 0.15256,-0.016 0.42534,-0.1513 0.59438,-0.238 0.15256,-0.075 0.30757,-0.23 0.54983,-0.2624 0,0 0.29659,-0.034 0.56571,0.032 -0.65419,-0.7128 -1.2681,-1.4665 -1.83502,-2.2336 l 0.007,0.029 c -0.25814,-0.094 -0.55899,-0.094 -0.55899,-0.094 -0.2441,0.016 -0.41192,0.1513 -0.57425,0.216 -0.17392,0.069 -0.45769,0.169 -0.60903,0.1806 -0.18368,0.015 -0.50895,-0.099 -0.50895,-0.099 l -0.004,0 c 0.57119,0.8342 1.18144,1.6397 1.83441,2.4287 l 0.0226,0" />
      <path
         inkscape:connector-curvature="0"
         id="path154"
         style="fill:#f9f9f9;fill-opacity:1;fill-rule:nonzero;stroke:none"
         d="m -125.25158,1051.6809 c 0,0 0.31489,0.1202 0.49796,0.1135 0.15256,-0.01 0.44243,-0.097 0.6249,-0.1636 0.15988,-0.056 0.33625,-0.1849 0.57912,-0.1885 0,0 0.30025,0.01 0.55411,0.1098 -0.55411,-0.7988 -1.06183,-1.6172 -1.52562,-2.4575 l 0,0.031 c -0.23922,-0.127 -0.54008,-0.1624 -0.54008,-0.1624 -0.23799,-0.02 -0.42656,0.094 -0.5895,0.1312 -0.191,0.054 -0.48392,0.1141 -0.63405,0.1026 -0.18368,-0.014 -0.49003,-0.1624 -0.49003,-0.1624 l -10e-4,-0.01 c 0.45037,0.9062 0.95138,1.7856 1.49573,2.6473 l 0.0287,0" />
      <path
         inkscape:connector-curvature="0"
         id="path158"
         style="fill:#f9f9f9;fill-opacity:1;fill-rule:nonzero;stroke:none"
         d="m -127.14311,1048.2351 c 0,0 0.29902,0.1623 0.48515,0.1812 0.155,0.015 0.45158,-0.038 0.63038,-0.079 0.17759,-0.038 0.36127,-0.144 0.61025,-0.1153 0,0 0.29109,0.051 0.53031,0.183 -0.44548,-0.8677 -0.83787,-1.7422 -1.18816,-2.6362 l 0,0.03 c -0.22884,-0.1538 -0.51993,-0.2301 -0.51993,-0.2301 -0.238,-0.053 -0.43694,0.034 -0.61025,0.057 -0.18429,0.019 -0.48149,0.043 -0.63649,0.015 -0.18185,-0.038 -0.4644,-0.2252 -0.4644,-0.2252 l 0,0 c 0.32893,0.9465 0.71155,1.8906 1.14178,2.8188 l 0.0214,0" />
      <path
         inkscape:connector-curvature="0"
         id="path162"
         style="fill:#f9f9f9;fill-opacity:1;fill-rule:nonzero;stroke:none"
         d="m -128.56506,1044.5747 c 0,0 0.27523,0.2002 0.45769,0.2417 0.14768,0.037 0.44792,0.021 0.63771,0 0.17026,-0.013 0.37042,-0.088 0.61391,-0.031 0,0 0.28621,0.082 0.50407,0.2477 -0.33015,-0.9178 -0.60781,-1.8417 -0.83909,-2.7699 l 0,0.029 c -0.20139,-0.1813 -0.47539,-0.296 -0.47539,-0.296 -0.23983,-0.084 -0.44243,-0.016 -0.61879,-0.025 -0.18735,0 -0.48515,-0.018 -0.64015,-0.068 -0.17026,-0.055 -0.42657,-0.285 -0.42657,-0.285 l 0,0 c 0.20138,0.9893 0.45647,1.9742 0.7677,2.9476 l 0.0189,0.01" />
      <path
         inkscape:connector-curvature="0"
         id="path166"
         style="fill:#f9f9f9;fill-opacity:1;fill-rule:nonzero;stroke:none"
         d="m -129.49709,1040.7571 c 0,0 0.24776,0.2386 0.41924,0.3027 0.15073,0.049 0.44976,0.075 0.63222,0.087 0.1727,0.01 0.38263,-0.046 0.61696,0.045 0,0 0.27217,0.1203 0.46623,0.3168 -0.20626,-0.9545 -0.36493,-1.9101 -0.46623,-2.853 l -0.0128,0.025 c -0.17514,-0.2038 -0.43389,-0.3552 -0.43389,-0.3552 -0.21847,-0.1135 -0.43266,-0.078 -0.60415,-0.105 -0.18856,-0.025 -0.48514,-0.08 -0.62367,-0.1513 -0.16172,-0.076 -0.38751,-0.3362 -0.38751,-0.3362 l 0,0 c 0.0732,1.0033 0.19955,2.0108 0.37347,3.0165 l 0.0201,0.01" />
      <path
         inkscape:connector-curvature="0"
         id="path170"
         style="fill:#f9f9f9;fill-opacity:1;fill-rule:nonzero;stroke:none"
         d="m -129.92384,1036.8597 c 0,0 0.21664,0.2587 0.3753,0.3429 0.13853,0.074 0.43633,0.1422 0.62124,0.1745 0.16904,0.029 0.38141,0.01 0.59927,0.1264 0,0 0.25142,0.155 0.42229,0.3716 -0.0836,-0.9703 -0.1074,-1.9308 -0.0873,-2.8926 l -0.01,0.03 c -0.15562,-0.23 -0.39056,-0.4113 -0.39056,-0.4113 -0.20261,-0.1397 -0.41986,-0.1336 -0.58768,-0.1849 -0.18124,-0.049 -0.46501,-0.1428 -0.59255,-0.2301 -0.15744,-0.096 -0.34418,-0.385 -0.34418,-0.385 -0.0598,1.0075 -0.0659,2.0169 -0.0189,3.0396 l 0.0128,0.019" />
      <path
         inkscape:connector-curvature="0"
         id="path174"
         style="fill:#f9f9f9;fill-opacity:1;fill-rule:nonzero;stroke:none"
         d="m -129.83322,1032.9276 c 0,0 0.17637,0.2941 0.33015,0.3979 0.12389,0.087 0.40398,0.191 0.58889,0.2495 0.15988,0.051 0.38019,0.057 0.57058,0.2027 0,0 0.23617,0.1891 0.37592,0.4241 0.0488,-0.9728 0.14402,-1.9272 0.28803,-2.8761 l -0.014,0.026 c -0.12022,-0.249 -0.33015,-0.4565 -0.33015,-0.4565 -0.18612,-0.166 -0.39605,-0.1922 -0.56021,-0.2599 -0.17026,-0.071 -0.43755,-0.2002 -0.56265,-0.3064 -0.13974,-0.1141 -0.28743,-0.4241 -0.28743,-0.4241 l 0.002,0 c -0.19283,0.9941 -0.33014,1.9943 -0.41558,3.0109 l 0.014,0.015" />
      <path
         inkscape:connector-curvature="0"
         id="path178"
         style="fill:#f9f9f9;fill-opacity:1;fill-rule:nonzero;stroke:none"
         d="m -129.23371,1029.048 c 0,0 0.13853,0.31 0.27278,0.4351 0.11839,0.1086 0.37653,0.2477 0.5535,0.3277 0.15317,0.068 0.36554,0.1037 0.54557,0.2728 0,0 0.2026,0.2197 0.31366,0.4723 0.1727,-0.9563 0.39056,-1.8967 0.65785,-2.8157 l -0.0147,0.018 c -0.083,-0.2551 -0.26668,-0.4937 -0.26668,-0.4937 -0.1611,-0.1879 -0.37103,-0.2404 -0.51871,-0.324 -0.16171,-0.098 -0.4168,-0.2649 -0.51932,-0.3765 -0.12388,-0.141 -0.22884,-0.459 -0.22884,-0.459 l 0,0 c -0.31978,0.9557 -0.58279,1.9333 -0.8092,2.9323 l 0.014,0.014" />
      <path
         inkscape:connector-curvature="0"
         id="path182"
         style="fill:#f9f9f9;fill-opacity:1;fill-rule:nonzero;stroke:none"
         d="m -128.13123,1025.2768 c 0,0 0.0976,0.3289 0.21603,0.4717 0.10009,0.1221 0.3454,0.2887 0.50406,0.3924 0.1428,0.094 0.35151,0.1514 0.50651,0.3436 0,0 0.1727,0.2453 0.24899,0.5053 0.29292,-0.9239 0.63771,-1.8271 1.02155,-2.7034 l -0.0171,0.023 c -0.0543,-0.2679 -0.20444,-0.5266 -0.20444,-0.5266 -0.12998,-0.2087 -0.33869,-0.2923 -0.46989,-0.3924 -0.14646,-0.1129 -0.38263,-0.3131 -0.46989,-0.4418 -0.0989,-0.1495 -0.16416,-0.4864 -0.16416,-0.4864 -0.43755,0.902 -0.83055,1.8356 -1.18023,2.7986 l 0.008,0.017" />
      <path
         inkscape:connector-curvature="0"
         id="path186"
         style="fill:#f9f9f9;fill-opacity:1;fill-rule:nonzero;stroke:none"
         d="m -126.54836,1021.6904 c 0,0 0.0561,0.335 0.155,0.49 0.0812,0.1288 0.30512,0.3326 0.44548,0.4528 0.13609,0.1129 0.33137,0.1977 0.45647,0.4101 0,0 0.13853,0.263 0.18368,0.5303 0.41375,-0.8763 0.869,-1.7246 1.36391,-2.546 l -0.0207,0.019 c -0.0116,-0.274 -0.13425,-0.5553 -0.13425,-0.5553 -0.10374,-0.2166 -0.29109,-0.3204 -0.41375,-0.4467 -0.12876,-0.1336 -0.33137,-0.3527 -0.39911,-0.49 -0.0836,-0.1678 -0.1074,-0.5077 -0.1074,-0.5077 l 0.004,0 c -0.55346,0.8427 -1.06668,1.7166 -1.53535,2.6198 l 0.002,0.029" />
      <path
         inkscape:connector-curvature="0"
         id="path190"
         style="fill:#f9f9f9;fill-opacity:1;fill-rule:nonzero;stroke:none"
         d="m -124.50787,1018.3316 c 0,0 0.0122,0.3411 0.0861,0.5029 0.0665,0.1446 0.25936,0.371 0.3869,0.5174 0.11472,0.1227 0.30207,0.2387 0.40215,0.4651 0,0 0.10009,0.2788 0.1068,0.548 0.5236,-0.8165 1.08869,-1.6019 1.68795,-2.3471 l -0.0262,0.013 c 0.0226,-0.2753 -0.0574,-0.5602 -0.0574,-0.5602 -0.0787,-0.2325 -0.24654,-0.3625 -0.35028,-0.4986 -0.11411,-0.1514 -0.28621,-0.3991 -0.33625,-0.5468 -0.0604,-0.1727 -0.0329,-0.5114 -0.0329,-0.5114 l 0.002,0 c -0.65968,0.7628 -1.28762,1.5604 -1.8753,2.3983 l 0.006,0.023" />
      <path
         inkscape:connector-curvature="0"
         id="path194"
         style="fill:#f9f9f9;fill-opacity:1;fill-rule:nonzero;stroke:none"
         d="m -122.04179,1015.2697 c 0,0 -0.0415,0.335 0.0189,0.5114 0.0409,0.1525 0.20383,0.3991 0.31123,0.5577 0.10008,0.1441 0.27156,0.2777 0.33381,0.5151 0,0 0.0738,0.2868 0.0378,0.5657 0.62855,-0.7421 1.29434,-1.4494 1.97904,-2.1096 l -0.0262,0.01 c 0.0592,-0.2716 0.0226,-0.5639 0.0226,-0.5639 -0.0476,-0.2417 -0.20504,-0.3894 -0.28742,-0.5401 -0.0952,-0.1617 -0.22885,-0.4333 -0.26363,-0.584 -0.0354,-0.1764 0.0311,-0.5157 0.0311,-0.5157 l 0.004,-0.01 c -0.75549,0.6756 -1.47558,1.3841 -2.16334,2.1359 l 0.002,0.025" />
      <path
         inkscape:connector-curvature="0"
         id="path198"
         style="fill:#f9f9f9;fill-opacity:1;fill-rule:nonzero;stroke:none"
         d="m -119.20394,1012.5497 c 0,0 -0.0799,0.3363 -0.0488,0.52 0.0275,0.1544 0.155,0.4241 0.24166,0.5931 0.0775,0.1514 0.22762,0.31 0.25997,0.5499 0,0 0.036,0.2965 -0.0366,0.5632 0.72315,-0.6542 1.47559,-1.2669 2.24145,-1.8326 l -0.0268,0.01 c 0.0928,-0.2563 0.0915,-0.5578 0.0915,-0.5578 -0.0122,-0.2441 -0.15256,-0.4137 -0.21359,-0.5718 -0.0702,-0.1751 -0.16904,-0.4564 -0.18124,-0.6114 -0.0128,-0.1813 0.0983,-0.509 0.0983,-0.509 -0.8275,0.5657 -1.64157,1.176 -2.42575,1.832 l 0,0.018" />
      <path
         inkscape:connector-curvature="0"
         id="path202"
         style="fill:#f9f9f9;fill-opacity:1;fill-rule:nonzero;stroke:none"
         d="m -116.03583,1010.2375 c 0,0 -0.119,0.3149 -0.11534,0.4992 0.0128,0.1574 0.0964,0.4424 0.16172,0.6249 0.0574,0.1574 0.19223,0.3301 0.19345,0.5754 0,0 -0.01,0.2966 -0.10985,0.5511 0.79759,-0.5511 1.61838,-1.0563 2.45503,-1.5214 l -0.0238,0.01 c 0.12144,-0.2453 0.16233,-0.5438 0.16233,-0.5438 0.0189,-0.2428 -0.094,-0.4302 -0.13853,-0.5956 -0.0464,-0.1812 -0.10252,-0.4778 -0.0976,-0.6304 0.01,-0.1849 0.16598,-0.4888 0.16598,-0.4888 l 0.002,0 c -0.90378,0.4553 -1.78803,0.9502 -2.64848,1.5018 l -0.007,0.025" />
      <path
         inkscape:connector-curvature="0"
         id="path206"
         style="fill:#f9f9f9;fill-opacity:1;fill-rule:nonzero;stroke:none"
         d="m -112.58291,1008.3483 c 0,0 -0.16477,0.3003 -0.18247,0.484 -0.014,0.1501 0.0397,0.4503 0.0799,0.6328 0.0384,0.1678 0.1428,0.3527 0.11229,0.5999 0,0 -0.0446,0.299 -0.18247,0.5382 0.86412,-0.4467 1.74715,-0.8446 2.6375,-1.1906 l -0.0311,0 c 0.15744,-0.2264 0.23372,-0.515 0.23372,-0.515 0.0549,-0.2417 -0.036,-0.4357 -0.0561,-0.6145 -0.0201,-0.1837 -0.0439,-0.4815 -0.0189,-0.6365 0.0372,-0.1813 0.2264,-0.4602 0.2264,-0.4602 l 0.004,0 c -0.94894,0.3302 -1.89483,0.7079 -2.8163,1.143 l -0.006,0.019" />
      <path
         inkscape:connector-curvature="0"
         id="path210"
         style="fill:#f9f9f9;fill-opacity:1;fill-rule:nonzero;stroke:none"
         d="m -108.92025,1006.9299 c 0,0 -0.20017,0.2753 -0.24105,0.4528 -0.0342,0.1502 -0.0238,0.4529 -0.004,0.6414 0.0116,0.1678 0.0928,0.3692 0.0329,0.6078 0,0 -0.0903,0.2862 -0.25143,0.5053 0.91416,-0.3265 1.83808,-0.6053 2.76871,-0.8403 l -0.025,0 c 0.18247,-0.2014 0.29475,-0.4827 0.29475,-0.4827 0.0842,-0.2288 0.0238,-0.4363 0.0238,-0.6078 0.004,-0.1849 0.0201,-0.4888 0.0702,-0.6341 0.0561,-0.1727 0.27888,-0.429 0.27888,-0.429 l 0.005,0 c -0.988,0.2014 -1.96928,0.4541 -2.94141,0.7641 l -0.011,0.022" />
      <path
         inkscape:connector-curvature="0"
         id="path214"
         style="fill:#f9f9f9;fill-opacity:1;fill-rule:nonzero;stroke:none"
         d="m -105.10381,1005.9991 c 0,0 -0.22763,0.2454 -0.29536,0.4174 -0.0586,0.1441 -0.0799,0.4455 -0.0909,0.6304 -0.007,0.174 0.0421,0.3888 -0.0488,0.6115 0,0 -0.119,0.2728 -0.31245,0.4668 0.95138,-0.2013 1.9052,-0.3576 2.85353,-0.4607 l -0.0238,-0.015 c 0.2087,-0.1727 0.3576,-0.4376 0.3576,-0.4376 0.11107,-0.2166 0.0799,-0.4278 0.10253,-0.6017 0.0262,-0.191 0.0836,-0.479 0.1489,-0.6188 0.0824,-0.169 0.33625,-0.3918 0.33625,-0.3918 l 0.007,0 c -1.0063,0.079 -2.01687,0.1953 -3.02135,0.3753 l -0.0134,0.024" />
      <path
         inkscape:connector-curvature="0"
         id="path218"
         style="fill:#f9f9f9;fill-opacity:1;fill-rule:nonzero;stroke:none"
         d="m -101.19559,1005.5736 c 0,0 -0.26119,0.2148 -0.34784,0.3704 -0.0751,0.141 -0.14341,0.4364 -0.17514,0.6213 -0.0275,0.1678 -0.005,0.385 -0.12449,0.595 0,0 -0.15806,0.2581 -0.37286,0.4253 0.97029,-0.082 1.93449,-0.1086 2.893802,-0.088 l -0.02746,-0.01 c 0.231285,-0.1562 0.412529,-0.3887 0.412529,-0.3887 0.137306,-0.2039 0.133645,-0.4217 0.181245,-0.5865 0.04883,-0.1812 0.145238,-0.4693 0.228843,-0.5962 0.100075,-0.1544 0.383847,-0.3393 0.383847,-0.3393 l 0.0061,0 c -1.011184,-0.061 -2.022976,-0.07 -3.044536,-0.023 l -0.014,0.019" />
      <path
         inkscape:connector-curvature="0"
         id="path222"
         style="fill:#f9f9f9;fill-opacity:1;fill-rule:nonzero;stroke:none"
         d="m -108.49473,1063.6582 c 0,0 0.31733,1.6159 1.38283,1.6672 0.20626,-0.6603 1.11676,-1.4494 1.66964,-1.8411 l 0.20261,-0.2374 c -0.17148,-1.3456 0.43755,-2.0773 0.43755,-2.0773 l -0.6011,0.1416 c -1.28946,0.3447 -2.44405,1.2314 -3.108,2.3506 l 0.0165,0" />
      <path
         inkscape:connector-curvature="0"
         id="path226"
         style="fill:#f9f9f9;fill-opacity:1;fill-rule:nonzero;stroke:none"
         d="m -106.56866,1069.0157 c 0.21786,-0.063 0.42901,-0.2526 0.50407,-0.335 l 0.01,0 c -0.74145,-0.5779 -1.2144,-1.4884 -1.19304,-2.5038 -1.35536,-0.1587 -1.66171,-1.6917 -1.66171,-1.6917 l 0.004,0.01 c -0.18857,0.5138 -0.29903,1.0728 -0.31123,1.647 -0.0177,1.0552 0.28987,2.048 0.82262,2.8664 l 0.0189,0 c 0,0 1.0478,0.2246 1.80695,0.011" />
      <path
         inkscape:connector-curvature="0"
         id="path230"
         style="fill:#f9f9f9;fill-opacity:1;fill-rule:nonzero;stroke:none"
         d="m -103.63299,1069.2803 c -0.1904,0.032 -0.38995,0.049 -0.58645,0.042 -0.37896,-0.01 -0.73901,-0.079 -1.07404,-0.2117 l -0.0116,0 c -0.28987,0.927 -2.38974,0.7268 -2.38974,0.7268 0.74389,0.7177 1.75081,1.2516 2.83156,1.4054 l -0.0104,-0.019 c 0,0 1.1906,-0.2472 1.22661,-1.9583 l 0.014,0.015" />
      <path
         inkscape:connector-curvature="0"
         id="path234"
         style="fill:#f9f9f9;fill-opacity:1;fill-rule:nonzero;stroke:none"
         d="m -103.0001,1069.1707 c 0.0128,-0.01 0.0226,-0.016 0.0391,-0.029 l 0.89768,0.2026 c 1.67697,0.4315 1.99186,0.6878 1.99186,0.6878 0,0 -1.91192,1.7972 -3.59132,1.3614 0,0 1.2565,-0.9123 0.70178,-2.2518" />
      <path
         inkscape:connector-curvature="0"
         id="path238"
         style="fill:#f9f9f9;fill-opacity:1;fill-rule:nonzero;stroke:none"
         d="m -97.360045,1068.7464 c -1.274203,-1.0191 -2.51362,-1.1882 -3.443645,-1.4982 l -1.86004,1.2968 2.21521,0.7353 c 0.671275,0.1752 0.845196,0.4956 1.689171,1.043 0,0 1.959514,-1.1266 1.399304,-1.5769" />
      <path
         inkscape:connector-curvature="0"
         id="path242"
         style="fill:#f9f9f9;fill-opacity:1;fill-rule:nonzero;stroke:none"
         d="m -93.556723,1070.6189 c -0.722536,0.7237 -1.910692,0.7677 -1.910692,0.7677 -0.841535,0.023 -1.63425,-0.044 -2.600886,-0.6402 0,0 1.637911,-1.0929 1.56163,-1.6507 0.369201,0.1013 1.51342,0.285 1.808171,0.084 0,0 0.399104,0.9782 1.141777,1.4396" />
      <path
         inkscape:connector-curvature="0"
         id="path246"
         style="fill:#f9f9f9;fill-opacity:1;fill-rule:nonzero;stroke:none"
         d="m -96.48043,1063.539 c 0.846416,-0.6951 1.58543,-0.9618 2.154793,-0.7891 1.965615,-0.8488 2.282335,-0.9153 2.282335,-0.9153 -0.770745,-0.8641 -1.564682,-1.0417 -2.901739,-0.9954 -0.603538,0.02 -2.448323,0.7037 -2.738192,1.118" />
      <path
         inkscape:connector-curvature="0"
         id="path250"
         style="fill:#f9f9f9;fill-opacity:1;fill-rule:nonzero;stroke:none"
         d="m -97.101421,1063.9598 c 0,0 -1.288238,-1.0869 -1.041697,-1.8546 -1.437138,1.2608 -2.020542,1.8924 -3.206252,1.8924 -0.30024,0.053 -0.0366,0.013 -0.0366,0.013 -0.14951,0.1977 -0.24594,0.4278 -0.30086,0.5938 -0.0567,0.1812 -0.119,0.3881 -0.12144,0.5468 -0.0153,0.504 0.025,0.6462 0.025,0.6462 1.298,0.075 1.21562,0.119 2.404385,-0.2062 0,0 0.815294,-0.2923 1.6135,-1.0619 0.134866,-0.1324 0.530307,-0.4339 0.663952,-0.5699" />
      <path
         inkscape:connector-curvature="0"
         id="path254"
         style="fill:#f9f9f9;fill-opacity:1;fill-rule:nonzero;stroke:none"
         d="m -102.39461,1065.8727 c 0,0 -0.14219,-0.01 0.0165,-0.7713 0.0476,-0.2264 0.1312,-0.368 0.19711,-0.5456 0.0616,-0.1587 0.14524,-0.3814 0.30146,-0.57 0,0 -0.24349,0.1324 0,0 l -0.36371,0.016 c -0.97152,-0.084 -1.47192,-0.166 -2.40865,-0.3436 -0.25143,-0.012 0,0 0,0 -0.30269,0.091 -0.73291,0.3698 -0.80614,0.5242 -0.0806,0.1697 -0.24777,0.2246 -0.35517,0.3399 -0.0799,0.082 -0.34784,0.4223 -0.34784,0.4223 l -0.004,0 c 0.98129,0.4333 2.78457,0.9606 3.77013,0.9282" />
      <path
         inkscape:connector-curvature="0"
         id="path258"
         style="fill:#f9f9f9;fill-opacity:1;fill-rule:nonzero;stroke:none"
         d="m -103.57105,1061.3423 c 0.15378,-0.241 0.4705,-0.1586 0.69874,-0.1849 1.1668,-0.1263 2.81264,0.6499 3.147669,1.4042 l -0.526039,0.3948 c -0.44792,0.3845 -1.07831,0.4596 -1.07831,0.4596 l -0.29658,-0.1032 c -0.36615,-0.1586 -0.90988,-0.2136 -1.33401,-0.2233 -0.41375,-0.01 -0.87754,-0.1093 -1.24186,0.029 -0.43266,-0.4553 0.63039,-1.7661 0.63039,-1.7661 l 0,-0.01" />
      <path
         inkscape:connector-curvature="0"
         id="path262"
         style="fill:#f9f9f9;fill-opacity:1;fill-rule:nonzero;stroke:none"
         d="m -108.36365,1069.9502 c -0.41619,0.3015 -0.68165,0.5505 -0.68165,0.5505 l -0.42412,0.4064 0.0214,-0.014 c 0,0 -1.3578,-1.5879 -2.41842,-0.6713 l -0.01,0.01 c 0.44915,-0.5603 0.84886,-1.0753 1.07526,-1.2956 0.23739,-0.2423 0.50529,-0.4839 0.92697,-0.7055 l -0.11777,0.079 c 0.1489,-0.075 0.29658,-0.1325 0.43877,-0.1733 0,0 0.2801,1.3218 1.18937,1.8167" />
      <path
         inkscape:connector-curvature="0"
         id="path266"
         style="fill:#f9f9f9;fill-opacity:1;fill-rule:nonzero;stroke:none"
         d="m -112.577,1071.1052 c 1.38527,-1.1381 2.51851,0.3637 2.51851,0.3637 l -1.03072,0.9996 -1.48779,-1.3633" />
      <path
         inkscape:connector-curvature="0"
         id="path270"
         style="fill:#f9f9f9;fill-opacity:1;fill-rule:nonzero;stroke:none"
         d="m -111.72002,1073.0789 0.19162,-0.2099 -1.36208,-1.3169 -0.19284,0.2148 1.3633,1.312 z" />
      <path
         inkscape:connector-curvature="0"
         id="path274"
         style="fill:#f9f9f9;fill-opacity:1;fill-rule:nonzero;stroke:none"
         d="m -113.44349,1072.0312 c -0.47294,0.3064 -0.7738,0.5767 -0.7738,0.5767 l 1.52807,1.7819 0.63527,-0.9507 -1.38954,-1.4079" />
      <path
         inkscape:connector-curvature="0"
         id="path278"
         style="fill:#f9f9f9;fill-opacity:1;fill-rule:nonzero;stroke:none"
         d="m -88.140754,1072.5104 c 0.460129,0.3326 0.749998,0.6115 0.749998,0.6115 l -1.591533,1.727 -0.605367,-0.9776 1.446902,-1.3609" />
      <path
         inkscape:connector-curvature="0"
         id="path282"
         style="fill:#f9f9f9;fill-opacity:1;fill-rule:nonzero;stroke:none"
         d="m -88.555541,1072.2875 -0.200163,-0.2074 -1.419441,1.2552 0.201382,0.2075 1.418222,-1.2553 z" />
      <path
         inkscape:connector-curvature="0"
         id="path286"
         style="fill:#f9f9f9;fill-opacity:1;fill-rule:nonzero;stroke:none"
         d="m -88.971487,1071.5521 c -1.332787,-1.1869 -2.532538,0.2777 -2.532538,0.2777 l 0.995928,1.0356 1.53661,-1.3133" />
      <path
         inkscape:connector-curvature="0"
         id="path290"
         style="fill:#f9f9f9;fill-opacity:1;fill-rule:nonzero;stroke:none"
         d="m -91.55791,1068.5819 c -1.822206,-0.9776 -2.787623,0.4193 -2.787623,0.4193 1.128353,0.5449 1.998569,1.7752 1.998569,1.7752 l 0.282546,0.4656 -0.02258,-0.019 c 0,0 1.415781,-1.5372 2.439779,-0.5743 l 0.01163,0.01 c -0.434497,-0.5767 -0.811632,-1.0808 -1.02583,-1.3108 -0.181245,-0.1978 -0.492472,-0.4718 -0.896457,-0.7628" />
      <path
         inkscape:connector-curvature="0"
         id="path294"
         style="fill:#f9f9f9;fill-opacity:1;fill-rule:nonzero;stroke:none"
         d="m -98.348161,1065.6522 c -0.156224,0.065 0.964195,0.4638 2.743683,0.21 l 0.01586,-0.021 c 0,0 0.240439,-0.2411 0.305125,-0.4077 0.06408,-0.1501 0.183075,-0.4888 0.198943,-0.681 0.01647,-0.1703 0.06774,-0.2789 0.07384,-0.5169 0,0 0,-0.2374 0.08116,-0.4412 -0.202602,0.1013 -1.261386,0.4565 -1.261386,0.4565 -0.289258,0.068 -0.48759,0.1098 -0.48759,0.1098 -0.165377,0.1166 -0.289258,0.2704 -0.422902,0.3839 -0.0891,0.066 -0.2917,0.249 -0.519934,0.4302 -0.114113,0.096 -0.656629,0.4253 -0.726808,0.4778" />
      <path
         inkscape:connector-curvature="0"
         id="path298"
         style="fill:#f9f9f9;fill-opacity:1;fill-rule:nonzero;stroke:none"
         d="m -90.894019,1068.16 c 1.103943,-1.2577 0.631609,-2.7413 0.432668,-3.4565 l -2.165778,0.9966 c 0.03479,0.098 0.357606,0.7103 -0.251422,1.4084 0,0 2.105972,0.9117 1.984532,1.0515" />
      <path
         inkscape:connector-curvature="0"
         id="path302"
         style="fill:#f9f9f9;fill-opacity:1;fill-rule:nonzero;stroke:none"
         d="m -95.121709,1068.6999 c 0,0.014 1.461549,-1.3578 2.394621,-0.9368 l -0.209926,-0.1873 c -0.839093,-0.6218 -1.853329,-0.988 -2.85475,-1.0142 -0.900728,-0.03 -2.476393,0.2337 -2.837662,0.8214 0,0 1.359637,0.2691 2.209716,1.1295 0.0775,0.079 0.432666,-0.02 1.298001,0.1874" />
      <path
         inkscape:connector-curvature="0"
         id="path306"
         style="fill:#f9f9f9;fill-opacity:1;fill-rule:nonzero;stroke:none"
         d="m -104.25874,1040.1612 -0.0476,0.01 c -1.00264,0.095 -2.28355,0.2038 -3.46012,0.4632 -0.56753,-2.2073 -2.17065,-5.0389 -4.92227,-4.6447 -2.36045,0.346 -3.35088,2.7639 -2.78457,4.9132 -3.36492,0.4662 -6.19038,-2.2586 -6.8702,-5.3599 -1.01301,-4.6379 2.37204,-9.3099 7.27174,-9.3063 6.87874,0.012 10.58296,9.0714 10.81302,13.9259 m -13.19787,-5.1395 0.87021,-1.7319 1.91741,0.2978 -1.38222,-1.3718 0.87449,-1.7313 -1.72945,0.8903 -1.38344,-1.3626 0.31672,1.9155 -1.72456,0.894 1.92289,0.2905 0.31795,1.9095" />
      <path
         inkscape:connector-curvature="0"
         id="path310"
         style="fill:#f9f9f9;fill-opacity:1;fill-rule:nonzero;stroke:none"
         d="m -95.543636,1040.1695 c 0.230063,-4.8545 3.935502,-13.9192 10.817901,-13.9222 4.900919,-0.012 8.281092,4.6672 7.269299,9.3051 -0.678599,3.1 -3.507718,5.8224 -6.873857,5.3561 0.568753,-2.1493 -0.420462,-4.5732 -2.780908,-4.9106 -2.750398,-0.4004 -4.352304,2.4336 -4.914954,4.6196 -1.183885,-0.2332 -2.468461,-0.3442 -3.462559,-0.4406 l -0.05492,-0.01 z m 13.195436,-5.1346 0.31977,-1.9144 1.923509,-0.2868 -1.723347,-0.8989 0.314279,-1.9107 -1.380996,1.3591 -1.727008,-0.8916 0.869607,1.7398 -1.385878,1.3602 1.923509,-0.2898 0.866555,1.7331" />
      <path
         inkscape:connector-curvature="0"
         id="path314"
         style="fill:#f9f9f9;fill-opacity:1;fill-rule:nonzero;stroke:none"
         d="m -99.909548,1044.2827 c -5.137082,0 -9.303872,-0.7567 -9.303872,-1.7007 0,-0.9331 4.16679,-1.6929 9.303872,-1.6929 5.138306,0 9.303872,0.7598 9.303872,1.6929 0,0.944 -4.165566,1.7007 -9.303872,1.7007 m 0.02624,-1.0057 c 4.44445,0 8.019295,-0.4149 8.019295,-0.695 0,-0.2789 -3.601085,-0.7165 -8.045536,-0.7165 -4.444451,0 -8.048591,0.4376 -8.048591,0.7165 0,0.2801 3.6316,0.695 8.074832,0.695" />
      <path
         inkscape:connector-curvature="0"
         id="path318"
         style="fill:#f9f9f9;fill-opacity:1;fill-rule:nonzero;stroke:none"
         d="m -92.344584,1044.595 c -0.940395,0.1989 -2.035794,0.3576 -3.244089,0.4687 l 0.0091,-0.013 c 0.228844,2.0418 1.918016,6.4375 4.810601,6.4375 2.118178,0 3.772566,-1.8619 3.941605,-3.8867 -2.484938,1.1796 -5.019307,-0.049 -5.532527,-3.0134 l 0.01526,0.01" />
      <path
         inkscape:connector-curvature="0"
         id="path322"
         style="fill:#f9f9f9;fill-opacity:1;fill-rule:nonzero;stroke:none"
         d="m -104.25398,1045.0634 c -1.18205,-0.111 -2.2683,-0.266 -3.20869,-0.4552 l -0.008,-0.025 c -0.48759,3.0115 -3.03965,4.2571 -5.53924,3.0713 0.16599,2.0297 1.81794,3.8879 3.93734,3.8879 2.91882,0 4.61104,-4.4658 4.81365,-6.4863 l 0.005,0.01" />
      <path
         inkscape:connector-curvature="0"
         id="path326"
         style="fill:#f9f9f9;fill-opacity:1;fill-rule:evenodd;stroke:none"
         d="m -99.909548,1012.0897 c 1.240639,1.3328 3.296571,2.8987 3.718864,3.2166 3.170249,2.3757 4.66353,5.643 4.680618,8.4892 0.04394,5.275 -4.400513,9.9056 -4.960723,16.2766 -0.90378,-0.105 -1.865534,-0.1483 -2.867565,-0.155 0.1129,-6.4614 -0.132423,-15.216 -0.571194,-21.5364 -0.438772,6.3204 -0.687752,15.075 -0.569972,21.5364 -0.99837,0.01 -1.95951,0.05 -2.86513,0.155 -0.5541,-6.371 -5.00099,-11.0016 -4.96804,-16.2766 0.0262,-2.8462 1.51647,-6.1135 4.68672,-8.4892 0.42534,-0.3179 2.48067,-1.8838 3.716422,-3.2166" />
      <path
         inkscape:connector-curvature="0"
         id="path330"
         style="fill:#f9f9f9;fill-opacity:1;fill-rule:evenodd;stroke:none"
         d="m -99.909548,1057.3733 c 2.481277,-1.0893 5.02968,-3.3966 6.123859,-5.7687 -1.575665,-2.1786 -2.373262,-4.5445 -2.624685,-6.4576 -0.915375,0.064 -1.875908,0.1074 -2.876109,0.1074 -0.127542,1.7184 -0.126321,5.3598 -0.623065,7.3321 -0.499182,-1.9723 -0.493692,-5.6137 -0.616352,-7.3321 -1.00325,0 -1.96989,-0.043 -2.87977,-0.1074 -0.24776,1.9131 -1.04963,4.279 -2.62041,6.4576 1.08807,2.3721 3.64075,4.6794 6.116532,5.7687" />
    </g>
  </g>
</svg>
