<?xml version="1.0" encoding="UTF-8" standalone="no"?>
<!-- Created with Inkscape (http://www.inkscape.org/) -->

<svg
   xmlns:dc="http://purl.org/dc/elements/1.1/"
   xmlns:cc="http://creativecommons.org/ns#"
   xmlns:rdf="http://www.w3.org/1999/02/22-rdf-syntax-ns#"
   xmlns:svg="http://www.w3.org/2000/svg"
   xmlns="http://www.w3.org/2000/svg"
   xmlns:sodipodi="http://sodipodi.sourceforge.net/DTD/sodipodi-0.dtd"
   xmlns:inkscape="http://www.inkscape.org/namespaces/inkscape"
   id="svg2"
   version="1.1"
   inkscape:version="0.48.4 r9939"
   width="354.325"
   height="111.06562"
   xml:space="preserve"
   sodipodi:docname="logo.svg"><metadata
     id="metadata8"><rdf:RDF><cc:Work
         rdf:about=""><dc:format>image/svg+xml</dc:format><dc:type
           rdf:resource="http://purl.org/dc/dcmitype/StillImage" /><dc:title></dc:title></cc:Work></rdf:RDF></metadata><defs
     id="defs6"><clipPath
       clipPathUnits="userSpaceOnUse"
       id="clipPath16"><path
         d="m 0,88.853 283.46,0 L 283.46,0 0,0 0,88.853 z"
         id="path18" /></clipPath><clipPath
       clipPathUnits="userSpaceOnUse"
       id="clipPath26"><path
         d="m -290.285,90.9917 580.57,0 0,-181.9839 -580.57,0 0,181.9839 z"
         id="path28" /></clipPath></defs><sodipodi:namedview
     pagecolor="#ffffff"
     bordercolor="#666666"
     borderopacity="1"
     objecttolerance="10"
     gridtolerance="10"
     guidetolerance="10"
     inkscape:pageopacity="0"
     inkscape:pageshadow="2"
     inkscape:window-width="1366"
     inkscape:window-height="702"
     id="namedview4"
     showgrid="false"
     inkscape:zoom="1.0291953"
     inkscape:cx="17.136679"
     inkscape:cy="20.915149"
     inkscape:window-x="0"
     inkscape:window-y="27"
     inkscape:window-maximized="1"
     inkscape:current-layer="g10" /><g
     id="g10"
     inkscape:groupmode="layer"
     inkscape:label="logo scoutsvzla(1)"
     transform="matrix(1.25,0,0,-1.25,0,111.06562)"><path
       d="m 42.701637,45.167161 -0.01025,0"
       style="fill:#ffffff;fill-opacity:1;fill-rule:nonzero;stroke:none"
       id="path34"
       inkscape:connector-curvature="0"
       inkscape:export-filename="/home/enrique/Dropbox/Diseños Scouts/Web Region/imagenes/logo_encabezado2.png"
       inkscape:export-xdpi="95.95771"
       inkscape:export-ydpi="95.95771" /><path
       d="m 42.831352,26.373365 c 0,0 -1.238563,0.963219 -0.855326,1.385512"
       style="fill:#ffffff;fill-opacity:1;fill-rule:nonzero;stroke:none"
       id="path38"
       inkscape:connector-curvature="0"
       inkscape:export-filename="/home/enrique/Dropbox/Diseños Scouts/Web Region/imagenes/logo_encabezado2.png"
       inkscape:export-xdpi="95.95771"
       inkscape:export-ydpi="95.95771" /><path
       d="m 38.477584,23.621528 c -1.163381,0.447191 -2.743196,0.57217 -3.619515,0.230919 l 0.221155,-0.394954 0.587304,-0.810412 0.677134,0.06884 c 0.02002,0 0.530185,-0.01855 0.903658,-0.205044 0,0 1.113096,1.154593 1.230264,1.110655"
       style="fill:#ffffff;fill-opacity:1;fill-rule:nonzero;stroke:none"
       id="path42"
       inkscape:connector-curvature="0"
       inkscape:export-filename="/home/enrique/Dropbox/Diseños Scouts/Web Region/imagenes/logo_encabezado2.png"
       inkscape:export-xdpi="95.95771"
       inkscape:export-ydpi="95.95771" /><path
       d="m 42.201085,72.677036 c 0,0 -0.231895,-0.142066 -0.314889,-0.26314 -0.06932,-0.09813 -0.153295,-0.326117 -0.199186,-0.467207 -0.04199,-0.131814 -0.04491,-0.305125 -0.159153,-0.460373 0,0 -0.156224,-0.187957 -0.345157,-0.302684 0.778191,-0.03417 1.546617,-0.114239 2.307721,-0.22506 l -0.02294,0.0078 c 0.197233,0.09618 0.367126,0.266069 0.367126,0.266069 0.134255,0.144996 0.147437,0.316354 0.206997,0.441333 0.0581,0.144019 0.161106,0.356874 0.242147,0.448168 0.09813,0.11375 0.343205,0.231895 0.343205,0.231895 l 0.0029,0 c -0.794301,0.155247 -1.60032,0.262163 -2.412684,0.334417 l -0.01611,-0.01123"
       style="fill:#ffffff;fill-opacity:1;fill-rule:nonzero;stroke:none"
       id="path46"
       inkscape:connector-curvature="0"
       inkscape:export-filename="/home/enrique/Dropbox/Diseños Scouts/Web Region/imagenes/logo_encabezado2.png"
       inkscape:export-xdpi="95.95771"
       inkscape:export-ydpi="95.95771" /><path
       d="m 45.311456,72.198356 c 0,0 -0.248982,-0.110821 -0.349063,-0.219202 -0.08397,-0.09178 -0.194304,-0.305125 -0.258258,-0.442309 -0.062,-0.120585 -0.0869,-0.29292 -0.222131,-0.431081 0,0 -0.175752,-0.169893 -0.375914,-0.253864 0.76208,-0.139137 1.517326,-0.315377 2.255972,-0.530185 l -0.02294,0.01513 c 0.209926,0.06786 0.398859,0.212856 0.398859,0.212856 0.155248,0.129861 0.193328,0.299266 0.264117,0.413993 0.07518,0.131326 0.207973,0.331488 0.29829,0.414482 0.111798,0.09813 0.370055,0.188933 0.370055,0.188933 l 0.0029,-0.0059 c -0.764033,0.256793 -1.545642,0.46916 -2.346778,0.647353 l -0.01513,-0.01025"
       style="fill:#ffffff;fill-opacity:1;fill-rule:nonzero;stroke:none"
       id="path50"
       inkscape:connector-curvature="0"
       inkscape:export-filename="/home/enrique/Dropbox/Diseños Scouts/Web Region/imagenes/logo_encabezado2.png"
       inkscape:export-xdpi="95.95771"
       inkscape:export-ydpi="95.95771" /><path
       d="m 48.328337,71.318278 c 0,0 -0.258258,-0.07714 -0.373961,-0.172823 -0.09422,-0.08007 -0.229454,-0.275345 -0.314401,-0.404229 -0.07421,-0.114239 -0.121074,-0.280227 -0.276809,-0.402277 0,0 -0.192351,-0.139137 -0.405206,-0.200162 0.741087,-0.233848 1.4646,-0.508216 2.164678,-0.8192 l -0.01416,0.02295 c 0.214319,0.03417 0.423269,0.155247 0.423269,0.155247 0.165012,0.10594 0.224084,0.268998 0.31196,0.376891 0.09227,0.118144 0.248494,0.300243 0.349551,0.372008 0.124003,0.08495 0.390072,0.135231 0.390072,0.135231 l 0.0029,-0.0029 c -0.722536,0.351992 -1.474852,0.665417 -2.240838,0.947108 l -0.01709,-0.0078"
       style="fill:#ffffff;fill-opacity:1;fill-rule:nonzero;stroke:none"
       id="path54"
       inkscape:connector-curvature="0"
       inkscape:export-filename="/home/enrique/Dropbox/Diseños Scouts/Web Region/imagenes/logo_encabezado2.png"
       inkscape:export-xdpi="95.95771"
       inkscape:export-ydpi="95.95771" /><path
       d="m 51.207008,70.048177 c 0,0 -0.269975,-0.04003 -0.394954,-0.119121 -0.103498,-0.06786 -0.264116,-0.242147 -0.360291,-0.355898 -0.09325,-0.106427 -0.159154,-0.264116 -0.329047,-0.368102 0,0 -0.21432,-0.110334 -0.429128,-0.143531 0.706914,-0.331976 1.384535,-0.695197 2.0397,-1.09308 l -0.01318,0.02099 c 0.221155,0.0078 0.43938,0.100081 0.43938,0.100081 0.180146,0.08397 0.261187,0.2358 0.358827,0.333928 0.110333,0.106916 0.285597,0.265093 0.397395,0.319283 0.133279,0.06688 0.405206,0.0869 0.405206,0.0869 l 0.0029,-0.0049 c -0.672251,0.443285 -1.374771,0.857279 -2.101701,1.234658 l -0.01513,-0.01123"
       style="fill:#ffffff;fill-opacity:1;fill-rule:nonzero;stroke:none"
       id="path58"
       inkscape:connector-curvature="0"
       inkscape:export-filename="/home/enrique/Dropbox/Diseños Scouts/Web Region/imagenes/logo_encabezado2.png"
       inkscape:export-xdpi="95.95771"
       inkscape:export-ydpi="95.95771" /><path
       d="m 53.896893,68.41671 c 0,0 -0.272904,-0.0068 -0.408135,-0.06786 -0.113263,-0.05126 -0.296338,-0.205044 -0.409112,-0.308054 -0.102034,-0.09032 -0.191374,-0.238242 -0.371032,-0.318306 0,0 -0.224084,-0.08592 -0.444262,-0.08592 0.655165,-0.422293 1.282502,-0.872413 1.882499,-1.350849 l -0.01465,0.02002 c 0.218714,-0.01709 0.45305,0.04638 0.45305,0.04638 0.185028,0.062 0.286085,0.199674 0.398859,0.282668 0.120098,0.09129 0.318307,0.227501 0.436451,0.266557 0.139137,0.04687 0.410088,0.03076 0.410088,0.03076 l 0,-0.0039 c -0.607321,0.527256 -1.248327,1.027173 -1.915697,1.495357 l -0.01806,-0.0068"
       style="fill:#ffffff;fill-opacity:1;fill-rule:nonzero;stroke:none"
       id="path62"
       inkscape:connector-curvature="0"
       inkscape:export-filename="/home/enrique/Dropbox/Diseños Scouts/Web Region/imagenes/logo_encabezado2.png"
       inkscape:export-xdpi="95.95771"
       inkscape:export-ydpi="95.95771" /><path
       d="m 56.347413,66.45151 c 0,0 -0.271927,0.02783 -0.415946,-0.01513 -0.117168,-0.03613 -0.319283,-0.165988 -0.443286,-0.248982 -0.11131,-0.08007 -0.216273,-0.215296 -0.410088,-0.268022 0,0 -0.232383,-0.05419 -0.450609,-0.03222 0.595604,-0.499917 1.157523,-1.031079 1.688684,-1.582745 l -0.0088,0.02539 c 0.216272,-0.04833 0.449144,-0.01709 0.449144,-0.01709 0.19528,0.03515 0.319282,0.160129 0.434986,0.227013 0.133278,0.07225 0.347598,0.184051 0.467207,0.207973 0.143531,0.03027 0.413506,-0.02392 0.413506,-0.02392 l 0,-0.0029 c -0.533115,0.603415 -1.103332,1.181444 -1.707724,1.733598 l -0.01709,-0.0029"
       style="fill:#ffffff;fill-opacity:1;fill-rule:nonzero;stroke:none"
       id="path66"
       inkscape:connector-curvature="0"
       inkscape:export-filename="/home/enrique/Dropbox/Diseños Scouts/Web Region/imagenes/logo_encabezado2.png"
       inkscape:export-xdpi="95.95771"
       inkscape:export-ydpi="95.95771" /><path
       d="m 58.519512,64.180257 c 0,0 -0.26314,0.06591 -0.410088,0.03808 -0.121074,-0.01806 -0.340275,-0.120098 -0.475507,-0.188934 -0.123026,-0.06347 -0.246053,-0.184539 -0.442797,-0.21432 0,0 -0.236289,-0.0249 -0.446215,0.02978 0.522862,-0.576076 1.009109,-1.173145 1.467529,-1.789253 l -0.0068,0.02197 c 0.205044,-0.07128 0.441821,-0.06932 0.441821,-0.06932 0.199186,0.01025 0.332465,0.114239 0.460373,0.165988 0.137184,0.05712 0.370056,0.136208 0.495035,0.144507 0.148413,0.01367 0.403253,-0.07713 0.403253,-0.07713 l 0,-9.77e-4 c -0.451097,0.668346 -0.94125,1.313258 -1.465576,1.939619 l -0.02099,0"
       style="fill:#ffffff;fill-opacity:1;fill-rule:nonzero;stroke:none"
       id="path70"
       inkscape:connector-curvature="0"
       inkscape:export-filename="/home/enrique/Dropbox/Diseños Scouts/Web Region/imagenes/logo_encabezado2.png"
       inkscape:export-xdpi="95.95771"
       inkscape:export-ydpi="95.95771" /><path
       d="m 60.380775,61.647719 c 0,0 -0.255329,0.09617 -0.4013,0.08885 -0.126932,-0.0049 -0.356875,-0.07372 -0.500894,-0.126932 -0.12742,-0.04394 -0.267533,-0.149877 -0.463301,-0.152806 0,0 -0.239218,0.0098 -0.444262,0.0908 0.444262,-0.635148 0.850444,-1.294706 1.218547,-1.966958 l 0,0.02197 c 0.196256,-0.100569 0.435962,-0.126932 0.435962,-0.126932 0.194304,-0.01904 0.343205,0.0703 0.479413,0.104963 0.140113,0.03808 0.377378,0.08739 0.49894,0.08397 0.150366,-0.01172 0.39056,-0.131814 0.39056,-0.131814 l 0.0029,-0.0029 c -0.359315,0.720095 -0.759639,1.422615 -1.200483,2.113906 l -0.01611,0.0039"
       style="fill:#ffffff;fill-opacity:1;fill-rule:nonzero;stroke:none"
       id="path74"
       inkscape:connector-curvature="0"
       inkscape:export-filename="/home/enrique/Dropbox/Diseños Scouts/Web Region/imagenes/logo_encabezado2.png"
       inkscape:export-xdpi="95.95771"
       inkscape:export-ydpi="95.95771" /><path
       d="m 61.890191,58.89017 c 0,0 -0.241171,0.132302 -0.387143,0.144019 -0.124002,0.01221 -0.359315,-0.0288 -0.506263,-0.06005 -0.138161,-0.03076 -0.286085,-0.11375 -0.483318,-0.09373 0,0 -0.237753,0.03954 -0.429128,0.147925 0.361268,-0.691292 0.676157,-1.394788 0.958337,-2.105119 l 0,0.01904 c 0.178193,-0.124003 0.410088,-0.184051 0.410088,-0.184051 0.193327,-0.04199 0.349551,0.02831 0.487223,0.04394 0.151342,0.02002 0.391537,0.03417 0.51261,0.01318 0.142067,-0.0249 0.367127,-0.181122 0.367127,-0.181122 l 0,-0.0029 c -0.260211,0.761103 -0.564359,1.51879 -0.914399,2.254995 l -0.01513,0.0039"
       style="fill:#ffffff;fill-opacity:1;fill-rule:nonzero;stroke:none"
       id="path78"
       inkscape:connector-curvature="0"
       inkscape:export-filename="/home/enrique/Dropbox/Diseños Scouts/Web Region/imagenes/logo_encabezado2.png"
       inkscape:export-xdpi="95.95771"
       inkscape:export-ydpi="95.95771" /><path
       d="m 63.027746,55.962874 c 0,0 -0.221155,0.16013 -0.365174,0.192839 -0.120097,0.02734 -0.359315,0.01806 -0.509192,0.0034 -0.140114,-0.0093 -0.29829,-0.07225 -0.491129,-0.02539 0,0 -0.22799,0.0703 -0.406183,0.204068 0.261187,-0.734253 0.489177,-1.472412 0.673228,-2.217893 l 0,0.02441 c 0.165012,-0.148413 0.388119,-0.239218 0.388119,-0.239218 0.183075,-0.06591 0.349063,-0.01611 0.486247,-0.01611 0.150854,-0.0029 0.391048,-0.01709 0.512122,-0.05419 0.137184,-0.04687 0.342228,-0.230918 0.342228,-0.230918 l 0,-0.0039 c -0.162082,0.791372 -0.367126,1.576398 -0.613179,2.35703 l -0.01709,0.0059"
       style="fill:#ffffff;fill-opacity:1;fill-rule:nonzero;stroke:none"
       id="path82"
       inkscape:connector-curvature="0"
       inkscape:export-filename="/home/enrique/Dropbox/Diseños Scouts/Web Region/imagenes/logo_encabezado2.png"
       inkscape:export-xdpi="95.95771"
       inkscape:export-ydpi="95.95771" /><path
       d="m 63.772446,52.90972 c 0,0 -0.194304,0.186981 -0.332952,0.239218 -0.115216,0.04198 -0.357363,0.06688 -0.506264,0.06884 -0.137184,0.01123 -0.306101,-0.03271 -0.490153,0.04003 0,0 -0.219201,0.09813 -0.376402,0.250934 0.169894,-0.761103 0.289991,-1.522207 0.376402,-2.28087 l 0.0039,0.02099 c 0.142066,-0.165988 0.352969,-0.287062 0.352969,-0.287062 0.173311,-0.0869 0.342228,-0.06298 0.480388,-0.08104 0.148901,-0.0249 0.386167,-0.06298 0.499917,-0.121074 0.133279,-0.06298 0.312448,-0.268022 0.312448,-0.268022 l -0.0049,-0.0039 c -0.05517,0.804553 -0.1572,1.610572 -0.296337,2.417078 l -0.01904,0.0049"
       style="fill:#ffffff;fill-opacity:1;fill-rule:nonzero;stroke:none"
       id="path86"
       inkscape:connector-curvature="0"
       inkscape:export-filename="/home/enrique/Dropbox/Diseños Scouts/Web Region/imagenes/logo_encabezado2.png"
       inkscape:export-xdpi="95.95771"
       inkscape:export-ydpi="95.95771" /><path
       d="m 64.114772,49.788853 c 0,0 -0.17087,0.209926 -0.302196,0.27925 -0.107892,0.05712 -0.344181,0.110822 -0.4882,0.136696 -0.142066,0.02539 -0.310983,0.0024 -0.482341,0.09911 0,0 -0.203092,0.126444 -0.34174,0.300243 0.06688,-0.775262 0.08885,-1.543688 0.07665,-2.310651 l 0.0054,0.01465 c 0.119121,-0.180145 0.310007,-0.322212 0.310007,-0.322212 0.162083,-0.112774 0.334905,-0.108868 0.468184,-0.144995 0.147925,-0.04296 0.372008,-0.118144 0.478924,-0.187957 0.121074,-0.08104 0.271439,-0.304149 0.271439,-0.304149 l 0,-0.0039 c 0.0498,0.805042 0.05517,1.617406 0.02002,2.4327 l -0.01611,0.01123"
       style="fill:#ffffff;fill-opacity:1;fill-rule:nonzero;stroke:none"
       id="path90"
       inkscape:connector-curvature="0"
       inkscape:export-filename="/home/enrique/Dropbox/Diseños Scouts/Web Region/imagenes/logo_encabezado2.png"
       inkscape:export-xdpi="95.95771"
       inkscape:export-ydpi="95.95771" /><path
       d="m 64.043251,46.646066 c 0,0 -0.139137,0.232871 -0.260211,0.316354 -0.10301,0.07176 -0.327094,0.156712 -0.46916,0.198697 -0.13279,0.04394 -0.308054,0.04833 -0.465254,0.165012 0,0 -0.188934,0.152318 -0.29585,0.339299 -0.04101,-0.777215 -0.113262,-1.543689 -0.232383,-2.301863 l 0.01123,0.01806 c 0.09617,-0.196256 0.26314,-0.364197 0.26314,-0.364197 0.148901,-0.129861 0.321235,-0.152319 0.447191,-0.205044 0.140113,-0.06005 0.356874,-0.163059 0.451097,-0.2441 0.108868,-0.09715 0.231895,-0.33637 0.231895,-0.33637 l 0,-0.0068 c 0.149389,0.792349 0.265092,1.594461 0.335393,2.409755 l -0.01709,0.01123"
       style="fill:#ffffff;fill-opacity:1;fill-rule:nonzero;stroke:none"
       id="path94"
       inkscape:connector-curvature="0"
       inkscape:export-filename="/home/enrique/Dropbox/Diseños Scouts/Web Region/imagenes/logo_encabezado2.png"
       inkscape:export-xdpi="95.95771"
       inkscape:export-ydpi="95.95771" /><path
       d="m 63.563643,43.54331 c 0,0 -0.107892,0.247029 -0.217249,0.345157 -0.09178,0.0869 -0.304149,0.196257 -0.442797,0.260211 -0.12205,0.06005 -0.297314,0.08592 -0.435475,0.223107 0,0 -0.165011,0.17087 -0.248982,0.374938 -0.140113,-0.763057 -0.313424,-1.514396 -0.528232,-2.254019 l 0.01416,0.01806 c 0.06591,-0.207973 0.212855,-0.39593 0.212855,-0.39593 0.126932,-0.150366 0.29829,-0.189422 0.413993,-0.259234 0.129373,-0.08104 0.327583,-0.207974 0.411553,-0.305125 0.100081,-0.10594 0.188933,-0.365174 0.188933,-0.365174 l -0.0029,-0.0029 c 0.252888,0.764033 0.47209,1.545641 0.64833,2.345801 l -0.01416,0.01513"
       style="fill:#ffffff;fill-opacity:1;fill-rule:nonzero;stroke:none"
       id="path98"
       inkscape:connector-curvature="0"
       inkscape:export-filename="/home/enrique/Dropbox/Diseños Scouts/Web Region/imagenes/logo_encabezado2.png"
       inkscape:export-xdpi="95.95771"
       inkscape:export-ydpi="95.95771" /><path
       d="m 62.743614,40.498749 c 0,0 -0.05907,0.26314 -0.145972,0.383237 -0.0703,0.10301 -0.258258,0.256793 -0.376402,0.34711 -0.109845,0.07714 -0.27388,0.140114 -0.383237,0.305125 0,0 -0.124979,0.200162 -0.171846,0.41497 -0.287062,-0.720095 -0.616109,-1.423591 -0.972495,-2.097795 l 0.01709,0.01123 c 0.02685,-0.218225 0.131326,-0.430104 0.131326,-0.430104 0.09471,-0.174287 0.248982,-0.24947 0.351016,-0.339299 0.112774,-0.10301 0.284132,-0.268998 0.346134,-0.377378 0.07469,-0.126932 0.106915,-0.397883 0.106915,-0.397883 0.401301,0.697149 0.773309,1.418709 1.105285,2.162726 l -0.0078,0.01806"
       style="fill:#ffffff;fill-opacity:1;fill-rule:nonzero;stroke:none"
       id="path102"
       inkscape:connector-curvature="0"
       inkscape:export-filename="/home/enrique/Dropbox/Diseños Scouts/Web Region/imagenes/logo_encabezado2.png"
       inkscape:export-xdpi="95.95771"
       inkscape:export-ydpi="95.95771" /><path
       d="m 61.416296,37.646782 c 0,0 -0.04394,0.270951 -0.121074,0.397395 -0.06688,0.103986 -0.245076,0.268998 -0.358338,0.363709 -0.104963,0.09227 -0.266069,0.1572 -0.368103,0.326117 0,0 -0.109845,0.21432 -0.144996,0.42864 -0.329046,-0.703496 -0.696173,-1.385023 -1.092591,-2.039211 l 0.01709,0.01221 c 0.01025,-0.21432 0.104963,-0.43938 0.104963,-0.43938 0.08544,-0.1738 0.237265,-0.259723 0.33344,-0.357851 0.103011,-0.10838 0.264117,-0.285109 0.321236,-0.396418 0.06493,-0.129862 0.08397,-0.401301 0.08397,-0.401301 l -0.002,-0.0029 c 0.441821,0.672251 0.852397,1.374771 1.233193,2.095843 l -0.0068,0.01318"
       style="fill:#ffffff;fill-opacity:1;fill-rule:nonzero;stroke:none"
       id="path106"
       inkscape:connector-curvature="0"
       inkscape:export-filename="/home/enrique/Dropbox/Diseños Scouts/Web Region/imagenes/logo_encabezado2.png"
       inkscape:export-xdpi="95.95771"
       inkscape:export-ydpi="95.95771" /><path
       d="m 59.779117,34.96837 c 0,0 -0.0039,0.267045 -0.06688,0.403253 -0.04931,0.111798 -0.204068,0.295849 -0.309519,0.408135 -0.09276,0.102034 -0.23873,0.190887 -0.316842,0.370056 0,0 -0.08299,0.227013 -0.08885,0.442309 -0.420341,-0.653211 -0.871437,-1.27469 -1.348897,-1.877617 l 0.01806,0.01074 c -0.01513,-0.216272 0.04784,-0.445238 0.04784,-0.445238 0.0581,-0.193815 0.198209,-0.29292 0.27925,-0.4013 0.09129,-0.121074 0.229454,-0.320748 0.268022,-0.434987 0.04736,-0.142066 0.03124,-0.409111 0.03124,-0.409111 l -0.002,-0.0059 c 0.531162,0.611227 1.027173,1.254186 1.496333,1.919603 l -0.0078,0.02002"
       style="fill:#ffffff;fill-opacity:1;fill-rule:nonzero;stroke:none"
       id="path110"
       inkscape:connector-curvature="0"
       inkscape:export-filename="/home/enrique/Dropbox/Diseños Scouts/Web Region/imagenes/logo_encabezado2.png"
       inkscape:export-xdpi="95.95771"
       inkscape:export-ydpi="95.95771" /><path
       d="m 57.813917,32.518778 c 0,0 0.02685,0.268022 -0.01709,0.407159 -0.0371,0.121073 -0.166964,0.321235 -0.250935,0.442309 -0.08104,0.117168 -0.215296,0.226037 -0.270951,0.413994 0,0 -0.05224,0.231895 -0.02831,0.451096 -0.501382,-0.593163 -1.03352,-1.161427 -1.583721,-1.684778 l 0.02002,0.0073 c -0.04394,-0.212367 -0.01074,-0.451097 -0.01074,-0.451097 0.03173,-0.193327 0.158665,-0.310495 0.224083,-0.433521 0.07665,-0.132791 0.184052,-0.345158 0.209926,-0.46916 0.03222,-0.143043 -0.02294,-0.412041 -0.02294,-0.412041 l -0.0029,-0.0029 c 0.602927,0.538972 1.180467,1.10919 1.733598,1.711629 l 0,0.02002"
       style="fill:#ffffff;fill-opacity:1;fill-rule:nonzero;stroke:none"
       id="path114"
       inkscape:connector-curvature="0"
       inkscape:export-filename="/home/enrique/Dropbox/Diseños Scouts/Web Region/imagenes/logo_encabezado2.png"
       inkscape:export-xdpi="95.95771"
       inkscape:export-ydpi="95.95771" /><path
       d="m 55.538856,30.346679 c 0,0 0.06493,0.262163 0.04003,0.410088 -0.02294,0.121074 -0.121073,0.338323 -0.191862,0.471113 -0.06103,0.121074 -0.185516,0.248006 -0.212367,0.443286 0,0 -0.0249,0.234336 0.0288,0.45012 -0.576076,-0.52335 -1.172169,-1.011062 -1.792671,-1.467529 l 0.02636,0.0068 c -0.07518,-0.205044 -0.07518,-0.444751 -0.07518,-0.444751 0.01123,-0.197232 0.119121,-0.332464 0.169894,-0.459396 0.05712,-0.139137 0.134255,-0.36615 0.144995,-0.492105 0.01123,-0.142067 -0.07958,-0.405206 -0.07958,-0.405206 0.665904,0.453049 1.314234,0.942226 1.941571,1.470458 l 0,0.01709"
       style="fill:#ffffff;fill-opacity:1;fill-rule:nonzero;stroke:none"
       id="path118"
       inkscape:connector-curvature="0"
       inkscape:export-filename="/home/enrique/Dropbox/Diseños Scouts/Web Region/imagenes/logo_encabezado2.png"
       inkscape:export-xdpi="95.95771"
       inkscape:export-ydpi="95.95771" /><path
       d="m 53.004414,28.488248 c 0,0 0.09813,0.253864 0.08592,0.398371 -0.0029,0.126932 -0.07176,0.355898 -0.123026,0.500893 -0.04784,0.126932 -0.149878,0.264117 -0.152807,0.460373 0,0 0.0059,0.241171 0.08592,0.447191 -0.638077,-0.447191 -1.297635,-0.853373 -1.96891,-1.221476 l 0.02685,0.0029 c -0.103987,-0.196256 -0.133767,-0.433033 -0.133767,-0.433033 -0.01416,-0.193328 0.07469,-0.346134 0.107892,-0.481366 0.0371,-0.143042 0.08885,-0.38226 0.08299,-0.502357 -0.0088,-0.144996 -0.129861,-0.390072 -0.129861,-0.390072 l -0.0039,0 c 0.721072,0.362244 1.427497,0.761104 2.117812,1.200484 l 0.0049,0.01806"
       style="fill:#ffffff;fill-opacity:1;fill-rule:nonzero;stroke:none"
       id="path122"
       inkscape:connector-curvature="0"
       inkscape:export-filename="/home/enrique/Dropbox/Diseños Scouts/Web Region/imagenes/logo_encabezado2.png"
       inkscape:export-xdpi="95.95771"
       inkscape:export-ydpi="95.95771" /><path
       d="m 50.245889,26.978831 c 0,0 0.127908,0.240194 0.143043,0.384213 0.01123,0.121074 -0.03076,0.359316 -0.06493,0.510169 -0.02832,0.133279 -0.109357,0.28218 -0.09032,0.478925 0,0 0.04003,0.240194 0.147436,0.427175 -0.695685,-0.357851 -1.395763,-0.674205 -2.110976,-0.953943 l 0.02294,0 c -0.124003,-0.178193 -0.206997,-0.40423 -0.206997,-0.40423 -0.04931,-0.220178 -0.04394,-0.329047 -0.02392,-0.492105 0.01904,-0.155248 -0.03613,-0.39056 -0.0581,-0.514563 -0.0249,-0.147925 -0.158177,-0.418876 -0.158177,-0.418876 0.762568,0.268022 1.649628,0.614156 2.391203,0.96029 l 0.0088,0.02294"
       style="fill:#ffffff;fill-opacity:1;fill-rule:nonzero;stroke:none"
       id="path126"
       inkscape:connector-curvature="0"
       inkscape:export-filename="/home/enrique/Dropbox/Diseños Scouts/Web Region/imagenes/logo_encabezado2.png"
       inkscape:export-xdpi="95.95771"
       inkscape:export-ydpi="95.95771" /><path
       d="m 47.13171,25.85558 c 0,0 0.062,0.153783 0.101057,0.29829 0.02685,0.124003 0.06786,0.286085 0.05712,0.434986 -0.0073,0.142067 -0.109357,0.250935 -0.05712,0.436939 0,0 0.14109,0.422293 0.276322,0.594628 -0.737671,-0.245076 -1.804876,-0.66444 -2.487379,-1.031567 -0.16013,-0.07713 -0.314889,-0.154271 -0.314889,-0.154271 -0.0703,-0.182587 -0.100081,-0.330999 -0.101058,-0.470136 -0.01025,-0.147925 -0.03125,-0.368103 -0.03125,-0.522863 0.0044,-0.324164 -0.301707,-0.779655 -0.301707,-0.779655 0.792348,0.142066 1.798529,0.59951 2.469804,0.991534 l 0.389095,0.202115"
       style="fill:#ffffff;fill-opacity:1;fill-rule:nonzero;stroke:none"
       id="path130"
       inkscape:connector-curvature="0"
       inkscape:export-filename="/home/enrique/Dropbox/Diseños Scouts/Web Region/imagenes/logo_encabezado2.png"
       inkscape:export-xdpi="95.95771"
       inkscape:export-ydpi="95.95771" /><path
       d="m 31.858275,26.186482 c 0,0 0.262163,0.07714 0.372008,0.173311 0.09911,0.07665 0.238242,0.269975 0.321236,0.396907 0.07323,0.114238 0.116192,0.285108 0.272904,0.406182 0,0 0.196256,0.140113 0.406182,0.200162 -0.742064,0.237265 -1.463623,0.510169 -2.163702,0.814318 l 0.01513,-0.01513 c -0.21432,-0.03417 -0.425222,-0.158176 -0.425222,-0.158176 -0.164035,-0.10594 -0.227013,-0.270951 -0.310984,-0.374938 -0.09032,-0.120097 -0.24947,-0.302196 -0.353456,-0.371032 -0.12205,-0.08739 -0.387143,-0.136208 -0.387143,-0.136208 l -0.0049,0.0029 c 0.724489,-0.351015 1.477781,-0.668345 2.244744,-0.946131 l 0.01318,0.0078"
       style="fill:#ffffff;fill-opacity:1;fill-rule:nonzero;stroke:none"
       id="path134"
       inkscape:connector-curvature="0"
       inkscape:export-filename="/home/enrique/Dropbox/Diseños Scouts/Web Region/imagenes/logo_encabezado2.png"
       inkscape:export-xdpi="95.95771"
       inkscape:export-ydpi="95.95771" /><path
       d="m 28.979604,27.450823 c 0,0 0.270951,0.04199 0.397395,0.118144 0.102034,0.06981 0.266069,0.2441 0.363709,0.360292 0.08934,0.10301 0.1572,0.269975 0.324165,0.365662 0,0 0.215296,0.115215 0.428151,0.147436 -0.701055,0.328071 -1.383559,0.695197 -2.041652,1.092104 l 0.01709,-0.02002 c -0.219202,-0.0088 -0.44231,-0.103986 -0.44231,-0.103986 -0.17624,-0.08299 -0.26021,-0.233848 -0.359315,-0.333929 -0.105939,-0.105939 -0.285109,-0.265093 -0.396906,-0.319283 -0.130838,-0.06981 -0.402277,-0.08202 -0.402277,-0.08202 0.672251,-0.443286 1.375747,-0.849468 2.095842,-1.230264 l 0.01611,0.0059"
       style="fill:#ffffff;fill-opacity:1;fill-rule:nonzero;stroke:none"
       id="path138"
       inkscape:connector-curvature="0"
       inkscape:export-filename="/home/enrique/Dropbox/Diseños Scouts/Web Region/imagenes/logo_encabezado2.png"
       inkscape:export-xdpi="95.95771"
       inkscape:export-ydpi="95.95771" /><path
       d="m 26.293577,29.086097 c 0,0 0.272904,9.76e-4 0.403253,0.06493 0.116192,0.05224 0.29829,0.206996 0.413017,0.30903 0.101058,0.09325 0.18991,0.242147 0.36615,0.318307 0,0 0.22799,0.08202 0.445239,0.08983 -0.654188,0.421317 -1.27762,0.87339 -1.876641,1.343527 l 0.0088,-0.01562 c -0.218226,0.01562 -0.449144,-0.04833 -0.449144,-0.04833 -0.186981,-0.05907 -0.287062,-0.199674 -0.400324,-0.279739 -0.12205,-0.09032 -0.316842,-0.225548 -0.434987,-0.265093 -0.140113,-0.04833 -0.409111,-0.02929 -0.409111,-0.02929 l -0.0059,0.002 c 0.612203,-0.531161 1.250281,-1.028149 1.922532,-1.499262 l 0.01709,0.0098"
       style="fill:#ffffff;fill-opacity:1;fill-rule:nonzero;stroke:none"
       id="path142"
       inkscape:connector-curvature="0"
       inkscape:export-filename="/home/enrique/Dropbox/Diseños Scouts/Web Region/imagenes/logo_encabezado2.png"
       inkscape:export-xdpi="95.95771"
       inkscape:export-ydpi="95.95771" /><path
       d="m 23.8392,31.052274 c 0,0 0.27388,-0.03125 0.41497,0.01513 0.115215,0.03906 0.319283,0.163059 0.445238,0.250935 0.113263,0.07714 0.220179,0.212367 0.407159,0.267045 0,0 0.237265,0.05712 0.452562,0.03125 -0.592675,0.50187 -1.157523,1.032055 -1.688684,1.582745 l 0.01074,-0.02148 c -0.217249,0.04638 -0.455002,0.01221 -0.455002,0.01221 -0.191375,-0.03173 -0.310495,-0.161106 -0.429128,-0.22506 -0.133279,-0.07225 -0.345157,-0.181123 -0.470137,-0.209926 -0.142066,-0.02539 -0.409599,0.0288 -0.409599,0.0288 l -0.0029,0 c 0.537509,-0.606344 1.10675,-1.183396 1.707724,-1.734574 l 0.01709,0.0029"
       style="fill:#ffffff;fill-opacity:1;fill-rule:nonzero;stroke:none"
       id="path146"
       inkscape:connector-curvature="0"
       inkscape:export-filename="/home/enrique/Dropbox/Diseños Scouts/Web Region/imagenes/logo_encabezado2.png"
       inkscape:export-xdpi="95.95771"
       inkscape:export-ydpi="95.95771" /><path
       d="m 21.669004,33.325431 c 0,0 0.266069,-0.06005 0.413017,-0.03417 0.12205,0.01318 0.340276,0.121074 0.475507,0.190398 0.12205,0.06005 0.246053,0.184051 0.439868,0.209926 0,0 0.237265,0.02685 0.452562,-0.02587 -0.523351,0.570218 -1.01448,1.173145 -1.468018,1.786812 l 0.0054,-0.02343 c -0.206508,0.07518 -0.447191,0.07518 -0.447191,0.07518 -0.19528,-0.01269 -0.329535,-0.121074 -0.459396,-0.172823 -0.139137,-0.05517 -0.36615,-0.135232 -0.487224,-0.144507 -0.146948,-0.01172 -0.407158,0.07909 -0.407158,0.07909 l -0.0029,0.0024 c 0.456956,-0.667369 0.945156,-1.311793 1.46753,-1.943036 l 0.01806,0"
       style="fill:#ffffff;fill-opacity:1;fill-rule:nonzero;stroke:none"
       id="path150"
       inkscape:connector-curvature="0"
       inkscape:export-filename="/home/enrique/Dropbox/Diseños Scouts/Web Region/imagenes/logo_encabezado2.png"
       inkscape:export-xdpi="95.95771"
       inkscape:export-ydpi="95.95771" /><path
       d="m 19.81443,35.859872 c 0,0 0.251911,-0.09618 0.398371,-0.09081 0.12205,0.0068 0.353945,0.07762 0.499917,0.130837 0.127908,0.04492 0.268998,0.147925 0.463302,0.150854 0,0 0.240194,-0.0078 0.443285,-0.08788 -0.443285,0.639054 -0.849468,1.29373 -1.2205,1.965982 l 0,-0.0249 c -0.191374,0.101546 -0.432057,0.129862 -0.432057,0.129862 -0.190398,0.01611 -0.341251,-0.07518 -0.471601,-0.104963 -0.152806,-0.04296 -0.387142,-0.09129 -0.50724,-0.08202 -0.146948,0.01074 -0.392024,0.129861 -0.392024,0.129861 l -9.77e-4,0.0049 c 0.360292,-0.724977 0.761104,-1.428473 1.196579,-2.117811 l 0.02294,-0.0039"
       style="fill:#ffffff;fill-opacity:1;fill-rule:nonzero;stroke:none"
       id="path154"
       inkscape:connector-curvature="0"
       inkscape:export-filename="/home/enrique/Dropbox/Diseños Scouts/Web Region/imagenes/logo_encabezado2.png"
       inkscape:export-xdpi="95.95771"
       inkscape:export-ydpi="95.95771" /><path
       d="m 18.301206,38.616494 c 0,0 0.239218,-0.129861 0.388119,-0.144995 0.124003,-0.01221 0.361268,0.03076 0.504311,0.06298 0.142066,0.03076 0.289014,0.115216 0.4882,0.09227 0,0 0.232871,-0.04052 0.424245,-0.14646 -0.356386,0.694221 -0.670298,1.393811 -0.950525,2.109024 l 0,-0.02392 c -0.183075,0.123027 -0.415946,0.184052 -0.415946,0.184052 -0.190398,0.04198 -0.349552,-0.02734 -0.4882,-0.04589 -0.147437,-0.01513 -0.38519,-0.03417 -0.509193,-0.01221 -0.145484,0.03076 -0.37152,0.180146 -0.37152,0.180146 l 0,0.0029 c 0.26314,-0.757198 0.569241,-1.512444 0.913422,-2.254996 l 0.01709,-0.0029"
       style="fill:#ffffff;fill-opacity:1;fill-rule:nonzero;stroke:none"
       id="path158"
       inkscape:connector-curvature="0"
       inkscape:export-filename="/home/enrique/Dropbox/Diseños Scouts/Web Region/imagenes/logo_encabezado2.png"
       inkscape:export-xdpi="95.95771"
       inkscape:export-ydpi="95.95771" /><path
       d="m 17.163651,41.544766 c 0,0 0.220178,-0.16013 0.36615,-0.193327 0.118144,-0.02978 0.358339,-0.0166 0.510169,-0.0039 0.136208,0.01025 0.296337,0.0703 0.491129,0.02441 0,0 0.228966,-0.06542 0.403253,-0.198209 -0.264116,0.734253 -0.486247,1.473388 -0.671275,2.21594 l 0,-0.02295 c -0.161106,0.144996 -0.380307,0.236777 -0.380307,0.236777 -0.191863,0.06688 -0.353945,0.01318 -0.495035,0.02002 -0.149878,0 -0.388119,0.01416 -0.512122,0.05419 -0.136208,0.04394 -0.341252,0.227989 -0.341252,0.227989 l 0,0.0029 c 0.161106,-0.791372 0.365174,-1.579327 0.614156,-2.358006 l 0.01513,-0.0059"
       style="fill:#ffffff;fill-opacity:1;fill-rule:nonzero;stroke:none"
       id="path162"
       inkscape:connector-curvature="0"
       inkscape:export-filename="/home/enrique/Dropbox/Diseños Scouts/Web Region/imagenes/logo_encabezado2.png"
       inkscape:export-xdpi="95.95771"
       inkscape:export-ydpi="95.95771" /><path
       d="m 16.418023,44.598848 c 0,0 0.198209,-0.190886 0.335393,-0.242147 0.120586,-0.03906 0.359804,-0.06005 0.505776,-0.06981 0.13816,-0.0054 0.306101,0.03662 0.49357,-0.03613 0,0 0.217737,-0.09617 0.372985,-0.253375 -0.165012,0.763544 -0.291944,1.528066 -0.372985,2.282335 l -0.01025,-0.02002 c -0.140114,0.163059 -0.347111,0.284133 -0.347111,0.284133 -0.174775,0.0908 -0.346133,0.062 -0.483318,0.08397 -0.150853,0.02002 -0.388119,0.06395 -0.49894,0.121074 -0.129373,0.06103 -0.310007,0.268998 -0.310007,0.268998 l 0,9.76e-4 c 0.05858,-0.8026 0.159641,-1.608619 0.298778,-2.413172 l 0.01611,-0.0068"
       style="fill:#ffffff;fill-opacity:1;fill-rule:nonzero;stroke:none"
       id="path166"
       inkscape:connector-curvature="0"
       inkscape:export-filename="/home/enrique/Dropbox/Diseños Scouts/Web Region/imagenes/logo_encabezado2.png"
       inkscape:export-xdpi="95.95771"
       inkscape:export-ydpi="95.95771" /><path
       d="m 16.076625,47.716835 c 0,0 0.173311,-0.206997 0.300243,-0.274368 0.110821,-0.05956 0.349063,-0.113751 0.496988,-0.139626 0.135231,-0.02343 0.305125,-0.0054 0.479412,-0.101057 0,0 0.201138,-0.124003 0.337834,-0.297314 -0.06688,0.776238 -0.08592,1.544665 -0.06981,2.314068 l -0.0078,-0.02392 c -0.124491,0.184052 -0.312448,0.329047 -0.312448,0.329047 -0.162083,0.111798 -0.335882,0.106916 -0.470137,0.147925 -0.144995,0.03906 -0.372008,0.114239 -0.474042,0.184051 -0.125956,0.07714 -0.275345,0.308054 -0.275345,0.308054 -0.04784,-0.806018 -0.05273,-1.613501 -0.01513,-2.431724 l 0.01025,-0.01513"
       style="fill:#ffffff;fill-opacity:1;fill-rule:nonzero;stroke:none"
       id="path170"
       inkscape:connector-curvature="0"
       inkscape:export-filename="/home/enrique/Dropbox/Diseños Scouts/Web Region/imagenes/logo_encabezado2.png"
       inkscape:export-xdpi="95.95771"
       inkscape:export-ydpi="95.95771" /><path
       d="m 16.149122,50.862503 c 0,0 0.14109,-0.235312 0.264116,-0.318306 0.09911,-0.06981 0.323189,-0.152807 0.471113,-0.199674 0.127909,-0.04101 0.304149,-0.0454 0.456467,-0.162083 0,0 0.188934,-0.151342 0.300731,-0.339299 0.03906,0.778191 0.115216,1.541736 0.230431,2.300887 l -0.01123,-0.02099 c -0.09617,0.199186 -0.264116,0.365174 -0.264116,0.365174 -0.148901,0.13279 -0.316842,0.153783 -0.448168,0.207973 -0.136207,0.05712 -0.350039,0.16013 -0.45012,0.245077 -0.111798,0.09129 -0.229942,0.339299 -0.229942,0.339299 l 0.002,0.0029 c -0.154272,-0.795278 -0.264117,-1.595438 -0.332465,-2.408779 l 0.01123,-0.01221"
       style="fill:#ffffff;fill-opacity:1;fill-rule:nonzero;stroke:none"
       id="path174"
       inkscape:connector-curvature="0"
       inkscape:export-filename="/home/enrique/Dropbox/Diseños Scouts/Web Region/imagenes/logo_encabezado2.png"
       inkscape:export-xdpi="95.95771"
       inkscape:export-ydpi="95.95771" /><path
       d="m 16.62873,53.966185 c 0,0 0.110821,-0.248006 0.218225,-0.348087 0.09471,-0.0869 0.30122,-0.198209 0.442798,-0.262163 0.122538,-0.05419 0.292432,-0.08299 0.436451,-0.218225 0,0 0.162082,-0.175752 0.250934,-0.377867 0.138161,0.765009 0.312448,1.517325 0.52628,2.252555 l -0.01172,-0.01465 c -0.06639,0.204067 -0.213343,0.394953 -0.213343,0.394953 -0.128885,0.150366 -0.296826,0.192351 -0.41497,0.259235 -0.129373,0.07811 -0.333441,0.211878 -0.415458,0.301219 -0.0991,0.112774 -0.183075,0.367126 -0.183075,0.367126 l 0,0.0029 c -0.255817,-0.764522 -0.466231,-1.546618 -0.647354,-2.345801 l 0.01123,-0.01123"
       style="fill:#ffffff;fill-opacity:1;fill-rule:nonzero;stroke:none"
       id="path178"
       inkscape:connector-curvature="0"
       inkscape:export-filename="/home/enrique/Dropbox/Diseños Scouts/Web Region/imagenes/logo_encabezado2.png"
       inkscape:export-xdpi="95.95771"
       inkscape:export-ydpi="95.95771" /><path
       d="m 17.510712,56.983115 c 0,0 0.07811,-0.26314 0.172823,-0.377379 0.08007,-0.09764 0.276321,-0.230918 0.403253,-0.313912 0.114239,-0.07518 0.281203,-0.121074 0.405206,-0.274857 0,0 0.138161,-0.196256 0.199186,-0.404229 0.234336,0.739134 0.510169,1.46167 0.817246,2.162726 l -0.01367,-0.01806 c -0.04345,0.21432 -0.163547,0.421317 -0.163547,0.421317 -0.103987,0.166964 -0.270951,0.233848 -0.375914,0.313912 -0.117168,0.09032 -0.306102,0.250447 -0.375914,0.353457 -0.07909,0.119609 -0.131326,0.389096 -0.131326,0.389096 -0.350039,-0.72156 -0.66444,-1.468506 -0.944179,-2.238886 l 0.0068,-0.01318"
       style="fill:#ffffff;fill-opacity:1;fill-rule:nonzero;stroke:none"
       id="path182"
       inkscape:connector-curvature="0"
       inkscape:export-filename="/home/enrique/Dropbox/Diseños Scouts/Web Region/imagenes/logo_encabezado2.png"
       inkscape:export-xdpi="95.95771"
       inkscape:export-ydpi="95.95771" /><path
       d="m 18.777005,59.852266 c 0,0 0.04491,-0.268022 0.124003,-0.392025 0.06493,-0.10301 0.2441,-0.266069 0.356386,-0.362244 0.108868,-0.09032 0.265092,-0.158177 0.365173,-0.32807 0,0 0.110822,-0.210415 0.146949,-0.424246 0.330999,0.701055 0.695196,1.379653 1.091127,2.03677 l -0.0166,-0.01513 c -0.0093,0.219202 -0.107404,0.444262 -0.107404,0.444262 -0.08299,0.173311 -0.232872,0.256305 -0.331,0.357362 -0.10301,0.106916 -0.265092,0.28218 -0.319283,0.392025 -0.06688,0.134255 -0.08592,0.406182 -0.08592,0.406182 l 0.0029,0.0039 C 19.560566,61.29685 19.14999,60.597747 18.775052,59.875211 l 0.002,-0.02294"
       style="fill:#ffffff;fill-opacity:1;fill-rule:nonzero;stroke:none"
       id="path186"
       inkscape:connector-curvature="0"
       inkscape:export-filename="/home/enrique/Dropbox/Diseños Scouts/Web Region/imagenes/logo_encabezado2.png"
       inkscape:export-xdpi="95.95771"
       inkscape:export-ydpi="95.95771" /><path
       d="m 20.4094,62.53927 c 0,0 0.0098,-0.272904 0.06884,-0.402277 0.05321,-0.115703 0.207485,-0.296825 0.309519,-0.413993 0.09178,-0.09813 0.241659,-0.190887 0.321724,-0.372009 0,0 0.08007,-0.223107 0.08544,-0.438403 0.418875,0.653211 0.870949,1.281525 1.350361,1.877617 l -0.02099,-0.01074 c 0.01806,0.220179 -0.04589,0.448168 -0.04589,0.448168 -0.06298,0.186004 -0.197233,0.289991 -0.280227,0.398859 -0.09129,0.121074 -0.228966,0.319283 -0.268998,0.437428 -0.04833,0.13816 -0.02636,0.409111 -0.02636,0.409111 l 0.002,0.0029 c -0.527745,-0.61025 -1.030102,-1.248327 -1.500239,-1.918626 l 0.0049,-0.01806"
       style="fill:#ffffff;fill-opacity:1;fill-rule:nonzero;stroke:none"
       id="path190"
       inkscape:connector-curvature="0"
       inkscape:export-filename="/home/enrique/Dropbox/Diseños Scouts/Web Region/imagenes/logo_encabezado2.png"
       inkscape:export-xdpi="95.95771"
       inkscape:export-ydpi="95.95771" /><path
       d="m 22.382265,64.988814 c 0,0 -0.0332,-0.268022 0.01513,-0.409112 0.03271,-0.12205 0.163059,-0.319282 0.248982,-0.446214 0.08006,-0.115216 0.217249,-0.222131 0.267046,-0.412041 0,0 0.05907,-0.229454 0.03027,-0.452562 0.502846,0.593652 1.035472,1.159475 1.583233,1.687708 l -0.02099,-0.0068 c 0.04735,0.217249 0.01806,0.451097 0.01806,0.451097 -0.03808,0.193327 -0.164035,0.311471 -0.229942,0.432057 -0.07616,0.129373 -0.183075,0.346622 -0.210902,0.467207 -0.02832,0.14109 0.0249,0.412529 0.0249,0.412529 l 0.0029,0.0049 c -0.604391,-0.540437 -1.180467,-1.107237 -1.730669,-1.7087 l 0.002,-0.02002"
       style="fill:#ffffff;fill-opacity:1;fill-rule:nonzero;stroke:none"
       id="path194"
       inkscape:connector-curvature="0"
       inkscape:export-filename="/home/enrique/Dropbox/Diseños Scouts/Web Region/imagenes/logo_encabezado2.png"
       inkscape:export-xdpi="95.95771"
       inkscape:export-ydpi="95.95771" /><path
       d="m 24.652541,67.16477 c 0,0 -0.06395,-0.268998 -0.03906,-0.415946 0.02197,-0.123515 0.124003,-0.339299 0.193327,-0.474531 0.062,-0.121073 0.182099,-0.248005 0.207973,-0.439868 0,0 0.0288,-0.237265 -0.02929,-0.450609 0.578517,0.523351 1.180468,1.013504 1.793159,1.466065 l -0.02148,-0.0054 c 0.07421,0.205044 0.07323,0.446215 0.07323,0.446215 -0.0098,0.19528 -0.12205,0.330999 -0.17087,0.457443 -0.05614,0.140113 -0.135231,0.365174 -0.144995,0.489176 -0.01025,0.144996 0.0786,0.407159 0.0786,0.407159 -0.661999,-0.452561 -1.313258,-0.940761 -1.940595,-1.465576 l 0,-0.01416"
       style="fill:#ffffff;fill-opacity:1;fill-rule:nonzero;stroke:none"
       id="path198"
       inkscape:connector-curvature="0"
       inkscape:export-filename="/home/enrique/Dropbox/Diseños Scouts/Web Region/imagenes/logo_encabezado2.png"
       inkscape:export-xdpi="95.95771"
       inkscape:export-ydpi="95.95771" /><path
       d="m 27.187031,69.01456 c 0,0 -0.0952,-0.251911 -0.09227,-0.399348 0.01025,-0.125955 0.07714,-0.353945 0.129373,-0.499916 0.04589,-0.125956 0.153783,-0.264117 0.15476,-0.460373 0,0 -0.0078,-0.237265 -0.08788,-0.440845 0.638077,0.440845 1.294706,0.845075 1.964028,1.217083 l -0.01904,-0.0049 c 0.09715,0.196256 0.129862,0.434986 0.129862,0.434986 0.01513,0.194304 -0.07518,0.344181 -0.110822,0.476483 -0.0371,0.144996 -0.08202,0.382261 -0.07811,0.504311 0.0078,0.147925 0.132791,0.391048 0.132791,0.391048 l 0.002,0.0029 c -0.723024,-0.364197 -1.430426,-0.760127 -2.118788,-1.20146 l -0.0059,-0.02002"
       style="fill:#ffffff;fill-opacity:1;fill-rule:nonzero;stroke:none"
       id="path202"
       inkscape:connector-curvature="0"
       inkscape:export-filename="/home/enrique/Dropbox/Diseños Scouts/Web Region/imagenes/logo_encabezado2.png"
       inkscape:export-xdpi="95.95771"
       inkscape:export-ydpi="95.95771" /><path
       d="m 29.949365,70.52588 c 0,0 -0.131814,-0.240194 -0.145972,-0.387143 -0.01123,-0.120097 0.03173,-0.360291 0.06395,-0.506263 0.03076,-0.134255 0.114239,-0.28218 0.08983,-0.479901 0,0 -0.03564,-0.239218 -0.145972,-0.430592 0.691292,0.357362 1.397717,0.675669 2.110001,0.952478 l -0.0249,0 c 0.125955,0.181122 0.18698,0.412041 0.18698,0.412041 0.04394,0.193327 -0.0288,0.348575 -0.04491,0.491617 -0.01611,0.146949 -0.03515,0.38519 -0.01513,0.509193 0.02978,0.144995 0.181122,0.368103 0.181122,0.368103 l 0.0029,0 c -0.759151,-0.264116 -1.515861,-0.566312 -2.253043,-0.914399 l -0.0049,-0.01513"
       style="fill:#ffffff;fill-opacity:1;fill-rule:nonzero;stroke:none"
       id="path206"
       inkscape:connector-curvature="0"
       inkscape:export-filename="/home/enrique/Dropbox/Diseños Scouts/Web Region/imagenes/logo_encabezado2.png"
       inkscape:export-xdpi="95.95771"
       inkscape:export-ydpi="95.95771" /><path
       d="m 32.879492,71.660604 c 0,0 -0.16013,-0.220178 -0.192839,-0.362244 -0.02734,-0.120098 -0.01904,-0.362245 -0.0034,-0.513099 0.0093,-0.134255 0.07421,-0.295361 0.02636,-0.486247 0,0 -0.07225,-0.228966 -0.201138,-0.404229 0.731324,0.261187 1.470458,0.484294 2.214963,0.672251 l -0.02002,0 c 0.145972,0.161106 0.235801,0.386166 0.235801,0.386166 0.06737,0.183075 0.01904,0.349063 0.01904,0.486247 0.0029,0.147925 0.01611,0.391049 0.05614,0.50724 0.04491,0.138161 0.223107,0.343205 0.223107,0.343205 l 0.0039,0 C 34.451008,72.128788 33.665982,71.926673 32.88828,71.678667 l -0.0088,-0.01806"
       style="fill:#ffffff;fill-opacity:1;fill-rule:nonzero;stroke:none"
       id="path210"
       inkscape:connector-curvature="0"
       inkscape:export-filename="/home/enrique/Dropbox/Diseños Scouts/Web Region/imagenes/logo_encabezado2.png"
       inkscape:export-xdpi="95.95771"
       inkscape:export-ydpi="95.95771" /><path
       d="m 35.932646,72.405255 c 0,0 -0.182099,-0.196256 -0.236289,-0.333929 -0.04687,-0.115215 -0.06395,-0.356386 -0.07274,-0.50431 -0.0054,-0.139137 0.03369,-0.310984 -0.03906,-0.489177 0,0 -0.0952,-0.218225 -0.249958,-0.373473 0.761104,0.161106 1.52416,0.286085 2.282823,0.368591 l -0.01904,0.01172 c 0.166965,0.138161 0.286086,0.350039 0.286086,0.350039 0.08885,0.173311 0.06395,0.342229 0.08202,0.481366 0.02099,0.152806 0.06688,0.383237 0.119121,0.495034 0.06591,0.135232 0.268998,0.313425 0.268998,0.313425 l 0.0059,0 c -0.805042,-0.06298 -1.613501,-0.156224 -2.417079,-0.300243 l -0.01074,-0.01904"
       style="fill:#ffffff;fill-opacity:1;fill-rule:nonzero;stroke:none"
       id="path214"
       inkscape:connector-curvature="0"
       inkscape:export-filename="/home/enrique/Dropbox/Diseños Scouts/Web Region/imagenes/logo_encabezado2.png"
       inkscape:export-xdpi="95.95771"
       inkscape:export-ydpi="95.95771" /><path
       d="m 39.059225,72.745677 c 0,0 -0.20895,-0.171846 -0.278274,-0.296337 -0.06005,-0.112775 -0.114727,-0.349063 -0.140113,-0.496988 -0.02197,-0.134255 -0.0039,-0.308054 -0.09959,-0.475995 0,0 -0.126444,-0.206509 -0.29829,-0.340275 0.776238,0.06591 1.547594,0.0869 2.315044,0.07079 l -0.02197,0.0073 c 0.185028,0.124979 0.330023,0.310983 0.330023,0.310983 0.109845,0.163059 0.106916,0.337346 0.144996,0.46916 0.03906,0.144996 0.116191,0.375426 0.183075,0.476972 0.08006,0.123514 0.307077,0.271439 0.307077,0.271439 l 0.0049,0 c -0.808947,0.04882 -1.618383,0.05614 -2.435629,0.01806 l -0.01123,-0.01513"
       style="fill:#ffffff;fill-opacity:1;fill-rule:nonzero;stroke:none"
       id="path218"
       inkscape:connector-curvature="0"
       inkscape:export-filename="/home/enrique/Dropbox/Diseños Scouts/Web Region/imagenes/logo_encabezado2.png"
       inkscape:export-xdpi="95.95771"
       inkscape:export-ydpi="95.95771" /><path
       d="m 33.219914,26.27802 c 0,0 0.253864,-1.292754 1.106261,-1.333762 0.165012,0.528232 0.893406,1.159475 1.335715,1.472899 l 0.162083,0.18991 c -0.137184,1.076481 0.350039,1.661833 0.350039,1.661833 L 35.693135,28.155637 C 34.661569,27.879804 33.737894,27.17045 33.206733,26.275091 l 0.01318,0.0029"
       style="fill:#ffffff;fill-opacity:1;fill-rule:nonzero;stroke:none"
       id="path222"
       inkscape:connector-curvature="0"
       inkscape:export-filename="/home/enrique/Dropbox/Diseños Scouts/Web Region/imagenes/logo_encabezado2.png"
       inkscape:export-xdpi="95.95771"
       inkscape:export-ydpi="95.95771" /><path
       d="m 34.760771,21.991966 c 0.174287,0.05077 0.343205,0.202115 0.403253,0.268022 l 0.0078,0 c -0.593163,0.462325 -0.971518,1.19072 -0.954431,2.003084 -1.084292,0.126932 -1.329368,1.353291 -1.329368,1.353291 l 0.0029,-0.0049 c -0.150854,-0.411065 -0.239218,-0.858256 -0.248982,-1.317652 -0.01416,-0.844098 0.231895,-1.638399 0.658094,-2.293075 l 0.01513,0 c 0,0 0.838239,-0.179658 1.44556,-0.0088"
       style="fill:#ffffff;fill-opacity:1;fill-rule:nonzero;stroke:none"
       id="path226"
       inkscape:connector-curvature="0"
       inkscape:export-filename="/home/enrique/Dropbox/Diseños Scouts/Web Region/imagenes/logo_encabezado2.png"
       inkscape:export-xdpi="95.95771"
       inkscape:export-ydpi="95.95771" /><path
       d="m 37.109306,21.780282 c -0.152318,-0.02587 -0.31196,-0.03906 -0.46916,-0.0332 -0.303172,0.0044 -0.59121,0.06298 -0.859232,0.169406 l -0.0093,0 c -0.231895,-0.741576 -1.911791,-0.581446 -1.911791,-0.581446 0.595116,-0.574124 1.400646,-1.001299 2.265248,-1.124325 l -0.0083,0.01513 c 0,0 0.952479,0.197721 0.981282,1.566634 l 0.01123,-0.01221"
       style="fill:#ffffff;fill-opacity:1;fill-rule:nonzero;stroke:none"
       id="path230"
       inkscape:connector-curvature="0"
       inkscape:export-filename="/home/enrique/Dropbox/Diseños Scouts/Web Region/imagenes/logo_encabezado2.png"
       inkscape:export-xdpi="95.95771"
       inkscape:export-ydpi="95.95771" /><path
       d="m 37.615618,21.868012 c 0.01025,0.0059 0.01806,0.01318 0.03125,0.02294 l 0.718142,-0.162082 c 1.341574,-0.345157 1.593485,-0.550201 1.593485,-0.550201 0,0 -1.529531,-1.437749 -2.873057,-1.089175 0,0 1.005204,0.729859 0.56143,1.801458"
       style="fill:#ffffff;fill-opacity:1;fill-rule:nonzero;stroke:none"
       id="path234"
       inkscape:connector-curvature="0"
       inkscape:export-filename="/home/enrique/Dropbox/Diseños Scouts/Web Region/imagenes/logo_encabezado2.png"
       inkscape:export-xdpi="95.95771"
       inkscape:export-ydpi="95.95771" /><path
       d="m 42.12766,22.207457 c -1.019362,0.815294 -2.010896,0.950525 -2.754913,1.198531 l -1.488033,-1.037425 1.772166,-0.588281 c 0.53702,-0.140113 0.676157,-0.396418 1.351337,-0.834334 0,0 1.567611,0.901217 1.119443,1.261509"
       style="fill:#ffffff;fill-opacity:1;fill-rule:nonzero;stroke:none"
       id="path238"
       inkscape:connector-curvature="0"
       inkscape:export-filename="/home/enrique/Dropbox/Diseños Scouts/Web Region/imagenes/logo_encabezado2.png"
       inkscape:export-xdpi="95.95771"
       inkscape:export-ydpi="95.95771" /><path
       d="m 45.170318,20.709464 c -0.578029,-0.579005 -1.528554,-0.614156 -1.528554,-0.614156 -0.673228,-0.01806 -1.3074,0.03515 -2.080709,0.512122 0,0 1.310329,0.874366 1.249304,1.320581 0.295361,-0.08104 1.210736,-0.227989 1.446537,-0.06688 0,0 0.319283,-0.782585 0.913422,-1.151664"
       style="fill:#ffffff;fill-opacity:1;fill-rule:nonzero;stroke:none"
       id="path242"
       inkscape:connector-curvature="0"
       inkscape:export-filename="/home/enrique/Dropbox/Diseños Scouts/Web Region/imagenes/logo_encabezado2.png"
       inkscape:export-xdpi="95.95771"
       inkscape:export-ydpi="95.95771" /><path
       d="m 42.831352,26.373365 c 0.677133,0.55606 1.268344,0.769403 1.723834,0.631243 1.572492,0.679086 1.825868,0.7323 1.825868,0.7323 -0.616596,0.691291 -1.251745,0.833357 -2.321391,0.796254 -0.48283,-0.01611 -1.958658,-0.562895 -2.190553,-0.894383"
       style="fill:#ffffff;fill-opacity:1;fill-rule:nonzero;stroke:none"
       id="path246"
       inkscape:connector-curvature="0"
       inkscape:export-filename="/home/enrique/Dropbox/Diseños Scouts/Web Region/imagenes/logo_encabezado2.png"
       inkscape:export-xdpi="95.95771"
       inkscape:export-ydpi="95.95771" /><path
       d="m 42.334559,26.036751 c 0,0 -1.03059,0.869484 -0.833357,1.48364 -1.149711,-1.008621 -1.616431,-1.513908 -2.565003,-1.513908 -0.240195,-0.04199 -0.02929,-0.01074 -0.02929,-0.01074 -0.119609,-0.158177 -0.196745,-0.342228 -0.240683,-0.475018 -0.0454,-0.144996 -0.0952,-0.310496 -0.09715,-0.437428 -0.01221,-0.403253 0.02002,-0.517003 0.02002,-0.517003 1.038401,-0.06005 0.972494,-0.0952 1.923508,0.165011 0,0 0.652235,0.233848 1.2908,0.849468 0.107893,0.10594 0.424246,0.34711 0.531162,0.455979"
       style="fill:#ffffff;fill-opacity:1;fill-rule:nonzero;stroke:none"
       id="path250"
       inkscape:connector-curvature="0"
       inkscape:export-filename="/home/enrique/Dropbox/Diseños Scouts/Web Region/imagenes/logo_encabezado2.png"
       inkscape:export-xdpi="95.95771"
       inkscape:export-ydpi="95.95771" /><path
       d="m 38.10001,24.506391 c 0,0 -0.113751,0.0059 0.01318,0.617085 0.03808,0.181122 0.104963,0.294384 0.157689,0.436451 0.04931,0.126932 0.116192,0.305125 0.241171,0.455978 0,0 -0.194792,-0.105939 0,0 l -0.290967,-0.01269 c -0.777215,0.06688 -1.177539,0.132791 -1.926926,0.274857 -0.201138,0.0093 0,0 0,0 -0.242147,-0.07274 -0.586328,-0.295849 -0.644912,-0.419364 -0.06444,-0.13572 -0.198209,-0.179658 -0.284132,-0.271927 -0.06395,-0.06591 -0.278274,-0.337835 -0.278274,-0.337835 l -0.0029,0 c 0.785026,-0.346622 2.227657,-0.768427 3.0161,-0.742552"
       style="fill:#ffffff;fill-opacity:1;fill-rule:nonzero;stroke:none"
       id="path254"
       inkscape:connector-curvature="0"
       inkscape:export-filename="/home/enrique/Dropbox/Diseños Scouts/Web Region/imagenes/logo_encabezado2.png"
       inkscape:export-xdpi="95.95771"
       inkscape:export-ydpi="95.95771" /><path
       d="m 37.158858,28.13069 c 0.123026,0.192839 0.376402,0.126932 0.558989,0.147925 0.933438,0.101057 2.250114,-0.519933 2.518136,-1.123349 l -0.420829,-0.315865 c -0.358339,-0.307566 -0.862649,-0.367615 -0.862649,-0.367615 l -0.237265,0.08251 c -0.29292,0.126932 -0.727907,0.17087 -1.067206,0.178681 -0.330999,0.0054 -0.702031,0.08739 -0.993487,-0.02294 -0.346133,0.364197 0.504311,1.412851 0.504311,1.412851 l 0,0.0078"
       style="fill:#ffffff;fill-opacity:1;fill-rule:nonzero;stroke:none"
       id="path258"
       inkscape:connector-curvature="0"
       inkscape:export-filename="/home/enrique/Dropbox/Diseños Scouts/Web Region/imagenes/logo_encabezado2.png"
       inkscape:export-xdpi="95.95771"
       inkscape:export-ydpi="95.95771" /><path
       d="M 33.324779,21.244385 C 32.991827,21.003214 32.77946,20.804029 32.77946,20.804029 l -0.339299,-0.325142 0.01709,0.01123 c 0,0 -1.086245,1.270296 -1.934737,0.53702 l -0.0078,-0.0059 c 0.359315,0.448167 0.679086,0.860208 0.860208,1.036448 0.18991,0.193816 0.40423,0.387143 0.741576,0.564359 l -0.09422,-0.06298 c 0.119121,0.06005 0.237266,0.105939 0.351016,0.138648 0,0 0.224084,-1.057441 0.951502,-1.453371"
       style="fill:#ffffff;fill-opacity:1;fill-rule:nonzero;stroke:none"
       id="path262"
       inkscape:connector-curvature="0"
       inkscape:export-filename="/home/enrique/Dropbox/Diseños Scouts/Web Region/imagenes/logo_encabezado2.png"
       inkscape:export-xdpi="95.95771"
       inkscape:export-ydpi="95.95771" /><path
       d="m 29.9541,20.320418 c 1.108214,0.910493 2.014801,-0.290967 2.014801,-0.290967 L 31.144332,19.229779 29.9541,20.320418"
       style="fill:#ffffff;fill-opacity:1;fill-rule:nonzero;stroke:none"
       id="path266"
       inkscape:connector-curvature="0"
       inkscape:export-filename="/home/enrique/Dropbox/Diseños Scouts/Web Region/imagenes/logo_encabezado2.png"
       inkscape:export-xdpi="95.95771"
       inkscape:export-ydpi="95.95771" /><path
       d="m 30.639679,18.741432 0.153295,0.167941 -1.089663,1.053535 -0.154271,-0.171846 1.090639,-1.04963 z"
       style="fill:#ffffff;fill-opacity:1;fill-rule:nonzero;stroke:none"
       id="path270"
       inkscape:connector-curvature="0"
       inkscape:export-filename="/home/enrique/Dropbox/Diseños Scouts/Web Region/imagenes/logo_encabezado2.png"
       inkscape:export-xdpi="95.95771"
       inkscape:export-ydpi="95.95771" /><path
       d="M 29.260905,19.579574 C 28.88255,19.334498 28.641867,19.118225 28.641867,19.118225 l 1.222453,-1.425544 0.508216,0.760616 -1.111631,1.126277"
       style="fill:#ffffff;fill-opacity:1;fill-rule:nonzero;stroke:none"
       id="path274"
       inkscape:connector-curvature="0"
       inkscape:export-filename="/home/enrique/Dropbox/Diseños Scouts/Web Region/imagenes/logo_encabezado2.png"
       inkscape:export-xdpi="95.95771"
       inkscape:export-ydpi="95.95771" /><path
       d="m 49.503093,19.196239 c 0.368103,-0.266069 0.599998,-0.489176 0.599998,-0.489176 l -1.273226,-1.381606 -0.484294,0.782096 1.157522,1.088686"
       style="fill:#ffffff;fill-opacity:1;fill-rule:nonzero;stroke:none"
       id="path278"
       inkscape:connector-curvature="0"
       inkscape:export-filename="/home/enrique/Dropbox/Diseños Scouts/Web Region/imagenes/logo_encabezado2.png"
       inkscape:export-xdpi="95.95771"
       inkscape:export-ydpi="95.95771" /><path
       d="m 49.171263,19.37453 -0.16013,0.165988 -1.135553,-1.004227 0.161106,-0.165988 1.134577,1.004227 z"
       style="fill:#ffffff;fill-opacity:1;fill-rule:nonzero;stroke:none"
       id="path282"
       inkscape:connector-curvature="0"
       inkscape:export-filename="/home/enrique/Dropbox/Diseños Scouts/Web Region/imagenes/logo_encabezado2.png"
       inkscape:export-xdpi="95.95771"
       inkscape:export-ydpi="95.95771" /><path
       d="m 48.838506,19.96286 c -1.066229,0.949549 -2.02603,-0.222131 -2.02603,-0.222131 l 0.796742,-0.828475 1.229288,1.050606"
       style="fill:#ffffff;fill-opacity:1;fill-rule:nonzero;stroke:none"
       id="path286"
       inkscape:connector-curvature="0"
       inkscape:export-filename="/home/enrique/Dropbox/Diseños Scouts/Web Region/imagenes/logo_encabezado2.png"
       inkscape:export-xdpi="95.95771"
       inkscape:export-ydpi="95.95771" /><path
       d="m 46.769368,22.339027 c -1.457765,0.782096 -2.230098,-0.335393 -2.230098,-0.335393 0.902682,-0.435963 1.598855,-1.420174 1.598855,-1.420174 l 0.226037,-0.372497 -0.01806,0.01513 c 0,0 1.132624,1.229776 1.951823,0.459397 l 0.0093,-0.0054 c -0.347598,0.461349 -0.649306,0.864603 -0.820664,1.048654 -0.144996,0.158177 -0.393978,0.377379 -0.717166,0.61025"
       style="fill:#ffffff;fill-opacity:1;fill-rule:nonzero;stroke:none"
       id="path290"
       inkscape:connector-curvature="0"
       inkscape:export-filename="/home/enrique/Dropbox/Diseños Scouts/Web Region/imagenes/logo_encabezado2.png"
       inkscape:export-xdpi="95.95771"
       inkscape:export-ydpi="95.95771" /><path
       d="m 41.337167,24.682778 c -0.124979,-0.05224 0.771356,-0.371032 2.194947,-0.167941 l 0.01269,0.01709 c 0,0 0.192351,0.192839 0.2441,0.326118 0.05126,0.120097 0.14646,0.391048 0.159154,0.544831 0.01318,0.136208 0.05419,0.223107 0.05907,0.413505 0,0 0,0.18991 0.06493,0.352969 -0.162082,-0.08104 -1.009109,-0.365174 -1.009109,-0.365174 -0.231407,-0.05419 -0.390072,-0.08788 -0.390072,-0.08788 -0.132302,-0.09325 -0.231407,-0.216272 -0.338322,-0.307077 -0.07128,-0.05321 -0.23336,-0.199186 -0.415947,-0.344181 -0.09129,-0.07714 -0.525303,-0.340276 -0.581446,-0.382261"
       style="fill:#ffffff;fill-opacity:1;fill-rule:nonzero;stroke:none"
       id="path294"
       inkscape:connector-curvature="0"
       inkscape:export-filename="/home/enrique/Dropbox/Diseños Scouts/Web Region/imagenes/logo_encabezado2.png"
       inkscape:export-xdpi="95.95771"
       inkscape:export-ydpi="95.95771" /><path
       d="m 47.300481,22.676568 c 0.883154,1.00618 0.505287,2.192994 0.346134,2.765165 l -1.732622,-0.797231 c 0.02783,-0.07811 0.286085,-0.568265 -0.201138,-1.126765 0,0 1.684778,-0.729371 1.587626,-0.841169"
       style="fill:#ffffff;fill-opacity:1;fill-rule:nonzero;stroke:none"
       id="path298"
       inkscape:connector-curvature="0"
       inkscape:export-filename="/home/enrique/Dropbox/Diseños Scouts/Web Region/imagenes/logo_encabezado2.png"
       inkscape:export-xdpi="95.95771"
       inkscape:export-ydpi="95.95771" /><path
       d="m 43.918329,22.244658 c 0,-0.01123 1.169239,1.086245 1.915697,0.749387 l -0.167941,0.149877 c -0.671275,0.497476 -1.482663,0.790396 -2.2838,0.811389 -0.720583,0.02392 -1.981115,-0.186981 -2.27013,-0.657117 0,0 1.08771,-0.215297 1.767773,-0.903659 0.062,-0.06298 0.346133,0.01611 1.038401,-0.149877"
       style="fill:#ffffff;fill-opacity:1;fill-rule:nonzero;stroke:none"
       id="path302"
       inkscape:connector-curvature="0"
       inkscape:export-filename="/home/enrique/Dropbox/Diseños Scouts/Web Region/imagenes/logo_encabezado2.png"
       inkscape:export-xdpi="95.95771"
       inkscape:export-ydpi="95.95771" /><path
       d="m 36.608706,45.075624 -0.03808,-0.0068 c -0.802112,-0.07616 -1.826844,-0.163059 -2.768094,-0.370544 -0.454026,1.76582 -1.736527,4.031068 -3.937821,3.715691 -1.888357,-0.27681 -2.680706,-2.211058 -2.227656,-3.930499 -2.691935,-0.372984 -4.952301,1.806829 -5.496156,4.287861 -0.810412,3.71032 1.897633,7.447979 5.817391,7.44505 5.502991,-0.0093 8.466365,-7.257093 8.650416,-11.140724 m -10.558301,4.11162 0.696173,1.385512 1.533924,-0.238242 -1.105773,1.097474 0.699591,1.385023 -1.383559,-0.712283 -1.106749,1.09015 0.253375,-1.53246 -1.379653,-0.715213 1.538318,-0.232383 0.254353,-1.527578"
       style="fill:#ffffff;fill-opacity:1;fill-rule:nonzero;stroke:none"
       id="path306"
       inkscape:connector-curvature="0"
       inkscape:export-filename="/home/enrique/Dropbox/Diseños Scouts/Web Region/imagenes/logo_encabezado2.png"
       inkscape:export-xdpi="95.95771"
       inkscape:export-ydpi="95.95771" /><path
       d="m 43.580787,45.068935 c 0.184051,3.883631 3.148402,11.135354 8.654321,11.137795 3.920735,0.0098 6.624874,-3.733754 5.815439,-7.444074 -0.542879,-2.480056 -2.806174,-4.657916 -5.499085,-4.284931 0.455002,1.71944 -0.33637,3.658571 -2.224727,3.928545 -2.200318,0.320259 -3.481843,-1.946941 -3.931963,-3.695674 -0.947108,0.186493 -1.974769,0.275345 -2.770047,0.352481 l -0.04394,0.0059 z m 10.556349,4.107715 0.255816,1.531483 1.538807,0.229454 -1.378677,0.719119 0.251423,1.528554 -1.104797,-1.087221 -1.381606,0.71326 0.695685,-1.391858 -1.108702,-1.088198 1.538807,0.231895 0.693244,-1.386488"
       style="fill:#ffffff;fill-opacity:1;fill-rule:nonzero;stroke:none"
       id="path310"
       inkscape:connector-curvature="0"
       inkscape:export-filename="/home/enrique/Dropbox/Diseños Scouts/Web Region/imagenes/logo_encabezado2.png"
       inkscape:export-xdpi="95.95771"
       inkscape:export-ydpi="95.95771" /><path
       d="m 40.088058,41.77837 c -4.109668,0 -7.443097,0.605368 -7.443097,1.360613 0,0.746458 3.333429,1.354267 7.443097,1.354267 4.110644,0 7.443097,-0.607809 7.443097,-1.354267 0,-0.755245 -3.332453,-1.360613 -7.443097,-1.360613 m 0.02099,0.804554 c 3.55556,0 6.415436,0.331976 6.415436,0.556059 0,0.223108 -2.880868,0.573147 -6.436429,0.573147 -3.555561,0 -6.43887,-0.350039 -6.43887,-0.573147 0,-0.224083 2.905278,-0.556059 6.459863,-0.556059"
       style="fill:#ffffff;fill-opacity:1;fill-rule:nonzero;stroke:none"
       id="path314"
       inkscape:connector-curvature="0"
       inkscape:export-filename="/home/enrique/Dropbox/Diseños Scouts/Web Region/imagenes/logo_encabezado2.png"
       inkscape:export-xdpi="95.95771"
       inkscape:export-ydpi="95.95771" /><path
       d="M 46.140029,41.528558 C 45.387713,41.369405 44.511394,41.242473 43.544758,41.15362 l 0.0073,0.01074 c 0.183075,-1.633517 1.534412,-5.150022 3.84848,-5.150022 1.694543,0 3.018053,1.489498 3.153284,3.109346 -1.98795,-0.943691 -4.015445,0.03906 -4.426021,2.410731 l 0.01221,-0.0059"
       style="fill:#ffffff;fill-opacity:1;fill-rule:nonzero;stroke:none"
       id="path318"
       inkscape:connector-curvature="0"
       inkscape:export-filename="/home/enrique/Dropbox/Diseños Scouts/Web Region/imagenes/logo_encabezado2.png"
       inkscape:export-xdpi="95.95771"
       inkscape:export-ydpi="95.95771" /><path
       d="m 36.612514,41.153816 c -0.945643,0.08885 -1.814639,0.212855 -2.566956,0.364197 l -0.0063,0.02002 c -0.390072,-2.409267 -2.431724,-3.405683 -4.431392,-2.45711 0.132791,-1.623753 1.454348,-3.110322 3.149867,-3.110322 2.33506,0 3.688839,3.572647 3.850921,5.189077 l 0.0039,-0.0059"
       style="fill:#ffffff;fill-opacity:1;fill-rule:nonzero;stroke:none"
       id="path322"
       inkscape:connector-curvature="0"
       inkscape:export-filename="/home/enrique/Dropbox/Diseños Scouts/Web Region/imagenes/logo_encabezado2.png"
       inkscape:export-xdpi="95.95771"
       inkscape:export-ydpi="95.95771" /><path
       d="m 40.088058,67.532824 c 0.992511,-1.066229 2.637256,-2.31895 2.975091,-2.573302 2.536199,-1.900563 3.730824,-4.514386 3.744494,-6.79135 0.03515,-4.220001 -3.52041,-7.924463 -3.968578,-13.021271 -0.723024,0.08397 -1.492427,0.118633 -2.294052,0.124003 0.09032,5.169062 -0.105939,12.172779 -0.456955,17.229066 -0.351016,-5.056287 -0.550201,-12.060004 -0.455979,-17.229066 -0.798695,-0.0054 -1.56761,-0.04003 -2.292099,-0.124003 -0.443285,5.096808 -4.000799,8.80127 -3.974436,13.021271 0.02099,2.276964 1.213177,4.890787 3.749376,6.79135 0.340275,0.254352 1.984533,1.507073 2.973138,2.573302"
       style="fill:#ffffff;fill-opacity:1;fill-rule:evenodd;stroke:none"
       id="path326"
       inkscape:connector-curvature="0"
       inkscape:export-filename="/home/enrique/Dropbox/Diseños Scouts/Web Region/imagenes/logo_encabezado2.png"
       inkscape:export-xdpi="95.95771"
       inkscape:export-ydpi="95.95771" /><path
       d="m 40.088058,31.305894 c 1.985021,0.871437 4.023744,2.717321 4.899087,4.614955 -1.260532,1.742874 -1.89861,3.635625 -2.099748,5.166132 -0.7323,-0.05126 -1.500727,-0.08592 -2.300887,-0.08592 -0.102034,-1.374771 -0.101057,-4.287861 -0.498452,-5.865723 -0.399348,1.577862 -0.394954,4.490952 -0.493082,5.865723 -0.802601,0 -1.57591,0.03466 -2.303816,0.08592 -0.198209,-1.530507 -0.839704,-3.423258 -2.096331,-5.166132 0.870461,-1.897634 2.912602,-3.743518 4.893229,-4.614955"
       style="fill:#ffffff;fill-opacity:1;fill-rule:evenodd;stroke:none"
       id="path330"
       inkscape:connector-curvature="0"
       inkscape:export-filename="/home/enrique/Dropbox/Diseños Scouts/Web Region/imagenes/logo_encabezado2.png"
       inkscape:export-xdpi="95.95771"
       inkscape:export-ydpi="95.95771" /><path
       d="m 261.26175,62.344722 0.51115,0 c 0.41399,0 0.8026,0.02002 0.8026,0.489176 0,0.41497 -0.35541,0.463302 -0.67323,0.463302 l -0.64052,0 0,-0.952478 z m -0.41302,1.32351 1.09015,0 c 0.71424,0 1.05061,-0.261187 1.05061,-0.85435 0,-0.533114 -0.34418,-0.761104 -0.78649,-0.807483 l 0.8563,-1.316187 -0.45012,0 -0.81822,1.280549 -0.52921,0 0,-1.280549 -0.41302,0 0,2.97802 z m 0.95736,-3.669311 c 1.21025,0 2.17786,0.953455 2.17786,2.213499 0,1.237587 -0.96761,2.181277 -2.17786,2.181277 -1.20683,0 -2.17493,-0.94369 -2.17493,-2.211057 0,-1.230264 0.9681,-2.183719 2.17493,-2.183719 m 0,4.768738 c 1.41139,0 2.59479,-1.107238 2.59479,-2.555239 0,-1.47827 -1.1834,-2.585019 -2.59479,-2.585019 -1.40748,0 -2.59332,1.106749 -2.59332,2.555239 0,1.477781 1.18584,2.585019 2.59332,2.585019"
       style="fill:#ffffff;fill-opacity:1;fill-rule:nonzero;stroke:none"
       id="path334"
       inkscape:connector-curvature="0"
       inkscape:export-filename="/home/enrique/Dropbox/Diseños Scouts/Web Region/imagenes/logo_encabezado2.png"
       inkscape:export-xdpi="95.95771"
       inkscape:export-ydpi="95.95771" /><path
       d="m 150.91424,64.65508 c -4.39575,0 -8.19248,-1.368425 -11.01477,-3.884607 -3.18697,-2.830096 -4.98061,-7.09794 -4.98061,-12.128841 0,-5.171015 1.90153,-9.458875 5.32821,-12.331932 2.75198,-2.314068 6.41641,-3.629767 10.62616,-3.580459 4.37183,0.04882 8.14122,1.375259 10.93763,3.815283 3.30609,2.887215 5.11878,7.101845 5.11878,12.16985 0,4.785336 -1.62473,8.907697 -4.59787,11.766108 -2.87501,2.757842 -6.8099,4.209748 -11.41753,4.174598 m -0.0181,-27.033099 c -5.93749,0 -9.82991,4.484606 -9.82991,11.360903 0,6.747412 3.9344,11.224206 9.82991,11.224206 5.88427,0 9.80501,-4.476794 9.80501,-11.224206 0,-6.876297 -3.88071,-11.360903 -9.80501,-11.360903"
       style="fill:#ffffff;fill-opacity:1;fill-rule:nonzero;stroke:none"
       id="path338"
       inkscape:connector-curvature="0"
       inkscape:export-filename="/home/enrique/Dropbox/Diseños Scouts/Web Region/imagenes/logo_encabezado2.png"
       inkscape:export-xdpi="95.95771"
       inkscape:export-ydpi="95.95771" /><path
       d="m 173.4744,64.024814 5.88525,9.76e-4 0,-18.667791 c 0,-0.159153 0.009,-1.097474 0.0352,-1.263462 0.0859,-1.997714 0.72254,-3.6532 1.95573,-4.753603 1.22441,-1.097474 2.97411,-1.731157 5.17736,-1.731157 2.48885,0 4.36256,0.68055 5.61918,1.895192 1.10529,1.069158 1.66477,2.625051 1.73751,4.535866 0.0181,0.143043 0.0181,0.994952 0.0181,1.136042 l 0,18.848913 5.87061,-9.76e-4 0,-19.231663 c 0,-3.538473 -1.03841,-6.350017 -3.05809,-8.422914 -2.32432,-2.384857 -5.77345,-3.640996 -10.26733,-3.640996 -4.28103,0 -7.68329,1.160452 -9.80208,3.24116 -2.05093,1.999667 -3.17135,4.885906 -3.17135,8.350173 l 0,19.70424"
       style="fill:#ffffff;fill-opacity:1;fill-rule:nonzero;stroke:none"
       id="path342"
       inkscape:connector-curvature="0"
       inkscape:export-filename="/home/enrique/Dropbox/Diseños Scouts/Web Region/imagenes/logo_encabezado2.png"
       inkscape:export-xdpi="95.95771"
       inkscape:export-ydpi="95.95771" /><path
       d="m 230.17332,59.377394 -8.9077,-0.002 0,-25.954665 -5.84619,0 -0.005,25.956618 -9.52478,0 0,4.647664 26.93838,0 -2.65434,-4.647664 z"
       style="fill:#ffffff;fill-opacity:1;fill-rule:nonzero;stroke:none"
       id="path346"
       inkscape:connector-curvature="0"
       inkscape:export-filename="/home/enrique/Dropbox/Diseños Scouts/Web Region/imagenes/logo_encabezado2.png"
       inkscape:export-xdpi="95.95771"
       inkscape:export-ydpi="95.95771" /><path
       d="m 110.30972,60.320401 c 2.75296,2.681194 6.60583,4.284931 11.20565,4.462636 0.51798,0.02099 1.03645,0.02197 1.55443,9.77e-4 2.38925,-0.09666 5.03335,-1.000322 7.15409,-2.136852 0.31635,-0.175752 0.62245,-0.39593 0.62245,-0.418875 -0.25142,-0.416435 -2.17298,-3.815772 -2.17298,-3.815772 0,0 -0.37347,0.191375 -0.54922,0.318307 -1.4646,0.818223 -3.07224,1.245398 -4.9484,1.301541 -0.3227,0.0059 -0.65223,0.0059 -0.97835,-0.0068 -3.02684,-0.103498 -5.61088,-1.279572 -7.44261,-3.301696 -1.6467,-1.821475 -2.62749,-4.27468 -2.76614,-7.064743 -0.0234,-0.461349 -0.0234,-0.922209 -0.005,-1.385511 0.25533,-6.164502 4.17899,-10.401589 9.94805,-10.703297 0.38617,-0.02099 0.77673,-0.02099 1.1668,0.0029 2.13783,0.124003 4.04669,0.786979 5.85401,1.963541 0.0215,0.02587 0.0283,0.02587 0.0503,0.05419 0.16403,-0.264116 2.2257,-4.179969 2.33994,-4.364996 -2.27013,-1.401623 -6.05758,-2.496655 -9.68979,-2.496655 -4.78729,0 -8.77686,1.576398 -11.57083,4.343515 -2.7925,2.762236 -4.38794,6.711774 -4.38794,11.448778 0,4.872236 1.6799,8.942848 4.61593,11.798818"
       style="fill:#ffffff;fill-opacity:1;fill-rule:nonzero;stroke:none"
       id="path350"
       inkscape:connector-curvature="0"
       inkscape:export-filename="/home/enrique/Dropbox/Diseños Scouts/Web Region/imagenes/logo_encabezado2.png"
       inkscape:export-xdpi="95.95771"
       inkscape:export-ydpi="95.95771" /><path
       d="m 93.985533,41.825091 c 0,2.91016 -2.941405,4.281514 -5.939441,5.589402 -2.000644,0.869484 -3.749376,1.553452 -5.363365,3.016099 -1.69259,1.490475 -2.550845,3.544332 -2.550845,6.10543 0,5.162226 4.032532,8.264249 10.296138,8.264249 4.51292,0 7.577352,-1.546617 9.151797,-2.639697 -0.06981,-0.142066 -2.124647,-3.760605 -2.184695,-3.887537 -1.834168,1.178027 -4.107715,2.176884 -6.05368,2.122694 -3.223097,-0.09422 -5.158321,-1.628635 -5.158321,-3.770369 0,-2.641162 2.70951,-3.732777 5.574267,-4.885417 l 0.0024,-0.0039 c 4.014469,-1.619359 8.562051,-3.586317 8.562051,-9.771811 0,-5.436107 -4.720893,-9.234791 -11.476605,-9.234791 -3.845551,0 -7.077923,0.913422 -10.333241,2.61724 0.06395,0.13279 2.31895,4.251246 2.380951,4.383548 2.6065,-1.406504 5.062146,-2.338966 7.289315,-2.338966 3.511134,0 5.803233,1.898609 5.803233,4.433832"
       style="fill:#ffffff;fill-opacity:1;fill-rule:nonzero;stroke:none"
       id="path354"
       inkscape:connector-curvature="0"
       inkscape:export-filename="/home/enrique/Dropbox/Diseños Scouts/Web Region/imagenes/logo_encabezado2.png"
       inkscape:export-xdpi="95.95771"
       inkscape:export-ydpi="95.95771" /><path
       d="m 250.11897,41.825091 c 0,2.91016 -2.94043,4.281514 -5.93944,5.589402 -2.00064,0.869484 -3.75133,1.553452 -5.36532,3.016099 -1.69161,1.490475 -2.54889,3.544332 -2.54889,6.10543 0,5.162226 4.0296,8.264249 10.29711,8.264249 4.51488,0 7.57736,-1.546617 9.14887,-2.639697 -0.0688,-0.142066 -2.12416,-3.760605 -2.18469,-3.887537 -1.83612,1.178027 -4.10674,2.176884 -6.05271,2.122694 -3.22212,-0.09422 -5.15539,-1.628635 -5.15539,-3.770369 0,-2.641162 2.70756,-3.732777 5.57232,-4.885417 l 0,-0.0039 c 4.01495,-1.619359 8.56253,-3.586317 8.56253,-9.771811 0,-5.436107 -4.71796,-9.234791 -11.47758,-9.234791 -3.8475,0 -7.07402,0.913422 -10.33031,2.61724 0.064,0.13279 2.31895,4.251246 2.38193,4.383548 2.60845,-1.406504 5.05629,-2.338966 7.28736,-2.338966 3.51309,0 5.80421,1.898609 5.80421,4.433832"
       style="fill:#ffffff;fill-opacity:1;fill-rule:nonzero;stroke:none"
       id="path358"
       inkscape:connector-curvature="0"
       inkscape:export-filename="/home/enrique/Dropbox/Diseños Scouts/Web Region/imagenes/logo_encabezado2.png"
       inkscape:export-xdpi="95.95771"
       inkscape:export-ydpi="95.95771" /><path
       d="m 191.24889,16.406274 -4.80096,11.184662 1.81659,0 2.41122,-5.73635 c 0.14305,-0.332952 0.26021,-0.64003 0.35297,-0.92221 0.0937,-0.283156 0.16697,-0.550689 0.22018,-0.806018 0.0654,0.269975 0.145,0.549713 0.24361,0.838728 0.0976,0.288526 0.21383,0.58584 0.34565,0.8895 l 2.40389,5.73635 1.80927,0 -4.80242,-11.184662 z"
       style="fill:#ffffff;fill-opacity:1;fill-rule:nonzero;stroke:none"
       id="path362"
       inkscape:connector-curvature="0"
       inkscape:export-filename="/home/enrique/Dropbox/Diseños Scouts/Web Region/imagenes/logo_encabezado2.png"
       inkscape:export-xdpi="95.95771"
       inkscape:export-ydpi="95.95771" /><path
       d="m 201.24224,21.149284 c -0.0625,0.499917 -0.25435,0.880713 -0.57315,1.142388 -0.31879,0.262163 -0.75524,0.393489 -1.30837,0.393489 -0.52579,0 -0.94662,-0.12742 -1.26542,-0.381772 -0.31782,-0.254841 -0.5419,-0.64003 -0.66932,-1.154105 l 3.81626,0 z m 1.65549,-1.07404 -5.57378,0 c 0.0395,-0.651747 0.23189,-1.159963 0.57998,-1.525625 0.34906,-0.365174 0.81188,-0.547272 1.39088,-0.547272 0.51359,0 0.94271,0.106427 1.28641,0.323676 0.3432,0.214808 0.64247,0.562407 0.89633,1.043772 l 1.34548,-0.750363 c -0.39153,-0.700567 -0.87681,-1.222453 -1.45532,-1.566146 -0.57803,-0.343205 -1.25761,-0.514563 -2.03726,-0.514563 -1.117,0 -2.0065,0.340764 -2.66899,1.021803 -0.66102,0.681039 -0.993,1.591532 -0.993,2.728061 0,1.09308 0.34223,1.991856 1.02669,2.694864 0.68299,0.70252 1.56272,1.055489 2.6353,1.055489 1.12286,0 1.99771,-0.321236 2.62505,-0.964195 0.62783,-0.641495 0.94223,-1.541248 0.94223,-2.697793 l 0,-0.301708 z"
       style="fill:#ffffff;fill-opacity:1;fill-rule:nonzero;stroke:none"
       id="path366"
       inkscape:connector-curvature="0"
       inkscape:export-filename="/home/enrique/Dropbox/Diseños Scouts/Web Region/imagenes/logo_encabezado2.png"
       inkscape:export-xdpi="95.95771"
       inkscape:export-ydpi="95.95771" /><path
       d="m 204.55854,16.825101 0,6.971496 1.49975,0 0,-1.140435 c 0.31928,0.480389 0.69373,0.830428 1.1253,1.051094 0.43157,0.221155 0.9559,0.331488 1.57445,0.331488 0.51798,0 0.96126,-0.08251 1.32644,-0.246053 0.36468,-0.164523 0.65077,-0.408135 0.8563,-0.731811 0.12302,-0.191375 0.2109,-0.413994 0.26558,-0.669323 0.0537,-0.255328 0.0801,-0.701543 0.0801,-1.338156 l 0,-4.2283 -1.61008,0 0,3.580459 c 0,0.916351 -0.11131,1.526601 -0.33393,1.828309 -0.22408,0.300243 -0.61952,0.451097 -1.18828,0.451097 -0.37298,0 -0.70496,-0.06835 -0.99641,-0.205044 -0.29195,-0.136696 -0.52042,-0.330512 -0.68739,-0.580958 -0.11717,-0.167453 -0.19967,-0.380796 -0.24605,-0.643936 -0.0464,-0.261187 -0.0693,-0.679575 -0.0693,-1.252721 l 0,-3.177206 -1.59641,0 z"
       style="fill:#ffffff;fill-opacity:1;fill-rule:nonzero;stroke:none"
       id="path370"
       inkscape:connector-curvature="0"
       inkscape:export-filename="/home/enrique/Dropbox/Diseños Scouts/Web Region/imagenes/logo_encabezado2.png"
       inkscape:export-xdpi="95.95771"
       inkscape:export-ydpi="95.95771" /><path
       d="m 218.47131,21.149284 c -0.0639,0.499917 -0.25533,0.880713 -0.57461,1.142388 -0.3188,0.262163 -0.75525,0.393489 -1.30838,0.393489 -0.5253,0 -0.94613,-0.12742 -1.26492,-0.381772 -0.31831,-0.254841 -0.54093,-0.64003 -0.66835,-1.154105 l 3.81626,0 z m 1.65402,-1.07404 -5.57329,0 c 0.0391,-0.651747 0.23287,-1.159963 0.58047,-1.525625 0.34809,-0.365174 0.8109,-0.547272 1.38991,-0.547272 0.51505,0 0.94271,0.106427 1.2864,0.323676 0.3437,0.214808 0.64247,0.562407 0.89634,1.043772 l 1.34694,-0.750363 c -0.393,-0.700567 -0.87827,-1.222453 -1.45679,-1.566146 -0.57754,-0.343205 -1.25711,-0.514563 -2.03579,-0.514563 -1.11798,0 -2.00748,0.340764 -2.67046,1.021803 -0.66053,0.681039 -0.99153,1.591532 -0.99153,2.728061 0,1.09308 0.34076,1.991856 1.02571,2.694864 0.68397,0.70252 1.56224,1.055489 2.63628,1.055489 1.12188,0 1.99771,-0.321236 2.62505,-0.964195 0.62636,-0.641495 0.94076,-1.541248 0.94076,-2.697793 l 0,-0.301708 z"
       style="fill:#ffffff;fill-opacity:1;fill-rule:nonzero;stroke:none"
       id="path374"
       inkscape:connector-curvature="0"
       inkscape:export-filename="/home/enrique/Dropbox/Diseños Scouts/Web Region/imagenes/logo_encabezado2.png"
       inkscape:export-xdpi="95.95771"
       inkscape:export-ydpi="95.95771" /><path
       d="m 227.1478,16.825101 -6.4789,0 3.88314,5.573291 -3.49307,0 0,1.398205 6.08883,0 -3.80113,-5.573779 3.80113,0 0,-1.397717 z"
       style="fill:#ffffff;fill-opacity:1;fill-rule:nonzero;stroke:none"
       id="path378"
       inkscape:connector-curvature="0"
       inkscape:export-filename="/home/enrique/Dropbox/Diseños Scouts/Web Region/imagenes/logo_encabezado2.png"
       inkscape:export-xdpi="95.95771"
       inkscape:export-ydpi="95.95771" /><path
       d="m 230.09516,23.796499 0,-3.927569 c 0,-0.676645 0.1406,-1.161428 0.41985,-1.454836 0.27974,-0.294385 0.73181,-0.441821 1.36062,-0.441821 0.62684,0 1.07989,0.147436 1.35963,0.441821 0.27974,0.293408 0.41888,0.778191 0.41888,1.454836 l 0,3.927569 1.59592,0 0,-3.448645 c 0,-1.333762 -0.26655,-2.301375 -0.80162,-2.90479 -0.53458,-0.602927 -1.38698,-0.904634 -2.55866,-0.904634 -1.19169,0 -2.05434,0.299266 -2.58795,0.896823 -0.53506,0.598533 -0.80162,1.569563 -0.80162,2.912601 l 0,3.448645 1.59495,0 z"
       style="fill:#ffffff;fill-opacity:1;fill-rule:nonzero;stroke:none"
       id="path382"
       inkscape:connector-curvature="0"
       inkscape:export-filename="/home/enrique/Dropbox/Diseños Scouts/Web Region/imagenes/logo_encabezado2.png"
       inkscape:export-xdpi="95.95771"
       inkscape:export-ydpi="95.95771" /><path
       d="m 242.46414,21.149284 c -0.0639,0.499917 -0.25533,0.880713 -0.57461,1.142388 -0.31733,0.262163 -0.75378,0.393489 -1.30789,0.393489 -0.52481,0 -0.94662,-0.12742 -1.26444,-0.381772 -0.31928,-0.254841 -0.5419,-0.64003 -0.66932,-1.154105 l 3.81626,0 z m 1.65402,-1.07404 -5.57378,0 c 0.0396,-0.651747 0.23336,-1.159963 0.58096,-1.525625 0.34809,-0.365174 0.8109,-0.547272 1.38991,-0.547272 0.51456,0 0.94271,0.106427 1.2864,0.323676 0.34321,0.214808 0.64247,0.562407 0.8978,1.043772 l 1.34548,-0.750363 c -0.393,-0.700567 -0.87827,-1.222453 -1.45581,-1.566146 -0.57901,-0.343205 -1.25809,-0.514563 -2.03677,-0.514563 -1.11847,0 -2.00797,0.340764 -2.67046,1.021803 -0.66102,0.681039 -0.99153,1.591532 -0.99153,2.728061 0,1.09308 0.34223,1.991856 1.02571,2.694864 0.68397,0.70252 1.56224,1.055489 2.63628,1.055489 1.12188,0 1.99771,-0.321236 2.62505,-0.964195 0.62734,-0.641495 0.94076,-1.541248 0.94076,-2.697793 l 0,-0.301708 z"
       style="fill:#ffffff;fill-opacity:1;fill-rule:nonzero;stroke:none"
       id="path386"
       inkscape:connector-curvature="0"
       inkscape:export-filename="/home/enrique/Dropbox/Diseños Scouts/Web Region/imagenes/logo_encabezado2.png"
       inkscape:export-xdpi="95.95771"
       inkscape:export-ydpi="95.95771" /><path
       inkscape:connector-curvature="0"
       id="path388"
       style="fill:#ffffff;fill-opacity:1;fill-rule:nonzero;stroke:none"
       d="m 245.85328,28.222911 1.59641,0 0,-11.398005 -1.59641,0 0,11.398005 z"
       inkscape:export-filename="/home/enrique/Dropbox/Diseños Scouts/Web Region/imagenes/logo_encabezado2.png"
       inkscape:export-xdpi="95.95771"
       inkscape:export-ydpi="95.95771" /><path
       d="m 254.73539,20.332818 c 0,0.720583 -0.16745,1.281525 -0.50333,1.68429 -0.3354,0.4013 -0.80553,0.601951 -1.40846,0.601951 -0.60195,0 -1.07746,-0.206509 -1.42213,-0.620503 -0.34564,-0.414481 -0.51847,-0.989581 -0.51847,-1.72481 0,-0.740111 0.1655,-1.310817 0.49992,-1.713582 0.33344,-0.401301 0.80358,-0.601951 1.41139,-0.601951 0.57314,0 1.04084,0.217249 1.40162,0.654188 0.3598,0.436451 0.53946,1.00911 0.53946,1.720417 m 1.55199,-3.507717 -1.59642,0 0,0.904635 c -0.28413,-0.402277 -0.61562,-0.700567 -0.99495,-0.8978 -0.38031,-0.194792 -0.81578,-0.293408 -1.30642,-0.293408 -0.98421,0 -1.76045,0.337346 -2.32676,1.01155 -0.56583,0.673716 -0.84849,1.595926 -0.84849,2.767606 0,1.113584 0.28803,2.011384 0.86704,2.69584 0.579,0.682992 1.33279,1.02522 2.26476,1.02522 0.56924,0 1.05549,-0.119121 1.46021,-0.355898 0.40325,-0.239218 0.6991,-0.579981 0.88461,-1.026684 l 0,1.140435 1.59642,0 0,-6.971496 z"
       style="fill:#ffffff;fill-opacity:1;fill-rule:nonzero;stroke:none"
       id="path392"
       inkscape:connector-curvature="0"
       inkscape:export-filename="/home/enrique/Dropbox/Diseños Scouts/Web Region/imagenes/logo_encabezado2.png"
       inkscape:export-xdpi="95.95771"
       inkscape:export-ydpi="95.95771" /></g></svg>