<?xml version="1.0" encoding="UTF-8" standalone="no"?>
<!-- Created with Inkscape (http://www.inkscape.org/) -->

<svg
   xmlns:dc="http://purl.org/dc/elements/1.1/"
   xmlns:cc="http://creativecommons.org/ns#"
   xmlns:rdf="http://www.w3.org/1999/02/22-rdf-syntax-ns#"
   xmlns:svg="http://www.w3.org/2000/svg"
   xmlns="http://www.w3.org/2000/svg"
   xmlns:sodipodi="http://sodipodi.sourceforge.net/DTD/sodipodi-0.dtd"
   xmlns:inkscape="http://www.inkscape.org/namespaces/inkscape"
   width="27"
   height="17"
   id="svg3882"
   version="1.1"
   inkscape:version="0.91 r13725"
   sodipodi:docname="turco.svg">
  <defs
     id="defs3884" />
  <sodipodi:namedview
     id="base"
     pagecolor="#ffffff"
     bordercolor="#666666"
     borderopacity="1.0"
     inkscape:pageopacity="0.0"
     inkscape:pageshadow="2"
     inkscape:zoom="14.000969"
     inkscape:cx="18.480863"
     inkscape:cy="5.396412"
     inkscape:current-layer="layer1"
     showgrid="true"
     inkscape:document-units="px"
     inkscape:grid-bbox="true"
     inkscape:window-width="1366"
     inkscape:window-height="702"
     inkscape:window-x="0"
     inkscape:window-y="27"
     inkscape:window-maximized="1" />
  <metadata
     id="metadata3887">
    <rdf:RDF>
      <cc:Work
         rdf:about="">
        <dc:format>image/svg+xml</dc:format>
        <dc:type
           rdf:resource="http://purl.org/dc/dcmitype/StillImage" />
        <dc:title />
      </cc:Work>
    </rdf:RDF>
  </metadata>
  <g
     id="layer1"
     inkscape:label="Layer 1"
     inkscape:groupmode="layer"
     transform="translate(0,-47)">
    <g
       transform="matrix(0.06102234,0,0,0.05094948,-7.5700428,31.414814)"
       id="g4806"
       style="fill:#ffffff;stroke:none">
      <path
         sodipodi:nodetypes="ccsc"
         inkscape:connector-curvature="0"
         id="path4147"
         d="m 377.29972,573.22495 c 134.01914,-91.96914 31.71746,-241.57687 -89.31653,-184.47619 65.42146,-74.43358 140.00184,-35.1745 165.95837,15.94608 33.11703,65.22297 7.95961,185.95295 -76.64184,168.53011 z"
         style="fill:#ffffff;fill-rule:evenodd;stroke:none;stroke-width:1px;stroke-linecap:butt;stroke-linejoin:miter;stroke-opacity:1" />
      <path
         sodipodi:nodetypes="cccc"
         inkscape:connector-curvature="0"
         id="path4149"
         d="m 234.56022,414.62551 c 0,0 -17.88959,-17.00564 -15.85994,-30.05042 89.95783,-95.9856 127.6373,-71.30211 155.26051,-45.07563 -50.81636,-3.85854 -80.73605,9.06244 -139.40057,75.12605 z"
         style="fill:#ffffff;fill-rule:evenodd;stroke:none;stroke-width:1px;stroke-linecap:butt;stroke-linejoin:miter;stroke-opacity:1" />
      <path
         sodipodi:nodetypes="ccc"
         inkscape:connector-curvature="0"
         id="path4151"
         d="m 312.19047,396.26137 c 29.51878,-0.87951 72.85221,12.30874 100.16807,40.06722 -8.27827,-46.96725 -66.54824,-67.67107 -100.16807,-40.06722 z"
         style="fill:#ffffff;fill-rule:evenodd;stroke:none;stroke-width:1px;stroke-linecap:butt;stroke-linejoin:miter;stroke-opacity:1" />
      <path
         sodipodi:nodetypes="ccccc"
         inkscape:connector-curvature="0"
         id="path4153"
         d="m 273.79272,392.92243 c -7.05614,5.52124 -13.67022,13.69486 -20.03362,23.37255 29.59014,22.42377 78.48192,23.54921 123.54062,20.86835 -16.34078,-16.68825 -44.32231,-27.38712 -68.75755,-26.02172 -13.5631,-4.45239 -24.7915,-11.80947 -34.74945,-18.21918 z"
         style="fill:#ffffff;fill-rule:evenodd;stroke:none;stroke-width:1px;stroke-linecap:butt;stroke-linejoin:miter;stroke-opacity:1" />
      <path
         sodipodi:nodetypes="cccc"
         inkscape:connector-curvature="0"
         id="path4157"
         d="m 210.70361,573.53245 c 73.98824,4.80828 156.00889,-24.8121 219.96531,-93.54314 -7.53729,35.81565 -34.10149,79.4093 -115.77121,112.06654 -60.87583,16.70194 -92.67784,7.96428 -104.1941,-18.5234 z"
         style="fill:#ffffff;fill-rule:evenodd;stroke:none;stroke-width:1px;stroke-linecap:butt;stroke-linejoin:miter;stroke-opacity:1" />
      <path
         sodipodi:nodetypes="ccccc"
         inkscape:connector-curvature="0"
         id="path4159"
         d="m 193.56947,518.42536 c -4.80333,14.72356 -4.16519,46.19361 26.85893,46.77157 72.12935,0.46099 143.81718,-33.69929 209.77744,-91.22772 1.57526,-14.76613 -0.46676,-28.51123 -9.2617,-36.12062 -84.18228,69.33694 -162.86037,110.80897 -227.37467,80.57677 z"
         style="fill:#ffffff;fill-rule:evenodd;stroke:none;stroke-width:1px;stroke-linecap:butt;stroke-linejoin:miter;stroke-opacity:1" />
      <path
         sodipodi:nodetypes="ccccc"
         inkscape:connector-curvature="0"
         id="path4180"
         d="m 160.91862,467.49733 c 8.25088,8.57552 17.17064,21.16432 27.1429,40.06809 -24.53439,53.83051 28.41195,118.9362 98.87771,104.04779 -10.98641,7.83705 -69.79603,20.24994 -104.69404,-6.4626 C 132.80656,545.15643 150.07118,498.277 160.91862,467.49733 Z"
         style="fill:#ffffff;fill-rule:evenodd;stroke:none;stroke-width:1px;stroke-linecap:butt;stroke-linejoin:miter;stroke-opacity:1" />
      <path
         sodipodi:nodetypes="cccc"
         inkscape:connector-curvature="0"
         id="path4182"
         d="m 388.40198,451.9871 c 1.6138,-10.81969 0.29541,-16.36419 -2.61799,-23.13482 5.70119,0.62725 13.95529,3.74461 16.35417,9.73825 -4.84463,11.72272 -7.40721,10.82785 -13.73618,13.39657 z"
         style="fill:#ffffff;fill-rule:evenodd;stroke:none;stroke-width:1px;stroke-linecap:butt;stroke-linejoin:miter;stroke-opacity:1" />
      <path
         sodipodi:nodetypes="cccsccccc"
         inkscape:connector-curvature="0"
         id="path4184"
         d="m 291.72511,504.49965 c -10.90773,9.91631 -19.12645,9.07656 -27.62726,9.36517 -17.04492,-12.27507 -74.72865,-84.0794 -83.35003,-112.85032 -1.24502,-6.61985 -0.362,-14.26758 1.10353,-21.03547 1.1286,-5.21191 3.4586,-10.15683 8.26164,-14.55219 7.37452,-3.01371 14.41785,-6.41594 29.03203,-0.93651 -3.46599,5.3464 -7.38941,10.08288 -9.76693,16.88056 -2.76202,11.62129 5.12122,26.58784 9.42499,34.08703 13.14294,19.63507 38.611,56.39809 72.92203,89.04173 z"
         style="fill:#ffffff;fill-rule:evenodd;stroke:none;stroke-width:1px;stroke-linecap:butt;stroke-linejoin:miter;stroke-opacity:1" />
      <path
         sodipodi:nodetypes="cccccc"
         inkscape:connector-curvature="0"
         id="path4186"
         d="m 333.8996,596.75761 c 11.94644,-3.70898 22.15598,-10.02333 32.2676,-16.48454 11.29302,6.72527 23.33963,12.84767 52.96097,4.91029 -6.96772,18.96536 -12.43365,28.23436 -42.43893,35.42422 -16.22957,-1.56089 -34.22237,-10.15541 -42.08817,-21.74556 z"
         style="fill:#ffffff;fill-rule:evenodd;stroke:none;stroke-width:1px;stroke-linecap:butt;stroke-linejoin:miter;stroke-opacity:1" />
      <path
         sodipodi:nodetypes="cccc"
         inkscape:connector-curvature="0"
         id="path4188"
         d="m 302.33346,612.18994 c 7.97055,-2.25163 15.28256,-5.59127 23.49923,-9.82057 5.80384,14.77261 19.24126,23.66531 34.37202,27.35732 -21.26807,0.74658 -42.11818,0.1 -57.87125,-17.53675 z"
         style="fill:#ffffff;fill-rule:evenodd;stroke:none;stroke-width:1px;stroke-linecap:butt;stroke-linejoin:miter;stroke-opacity:1" />
      <path
         sodipodi:nodetypes="cccccc"
         inkscape:connector-curvature="0"
         id="path4190"
         d="m 252.34701,515.81042 c -7.75431,5.10276 -21.50702,6.62186 -31.43858,2.09591 l -16.76724,-11.31789 c -17.59874,-22.38107 -40.80554,-47.37923 -42.75647,-62.45798 -7.73636,-39.20308 0.9713,-39.19348 7.12607,-45.27156 13.49979,43.16873 58.23056,91.64613 83.83622,116.95152 z"
         style="fill:#ffffff;fill-rule:evenodd;stroke:none;stroke-width:1px;stroke-linecap:butt;stroke-linejoin:miter;stroke-opacity:1" />
    </g>
  </g>
</svg>
