<?xml version="1.0" encoding="UTF-8" standalone="no"?>
<!-- Created with sK1/UniConvertor (http://sk1project.org/) -->

<svg
   xmlns:dc="http://purl.org/dc/elements/1.1/"
   xmlns:cc="http://creativecommons.org/ns#"
   xmlns:rdf="http://www.w3.org/1999/02/22-rdf-syntax-ns#"
   xmlns:svg="http://www.w3.org/2000/svg"
   xmlns="http://www.w3.org/2000/svg"
   xmlns:sodipodi="http://sodipodi.sourceforge.net/DTD/sodipodi-0.dtd"
   xmlns:inkscape="http://www.inkscape.org/namespaces/inkscape"
   width="302"
   height="346"
   viewBox="0 0 241.60002 276.79998"
   id="svg2"
   version="1.1"
   inkscape:version="0.48.4 r9939"
   sodipodi:docname="Clan Color.eps"
   style="fill-rule:evenodd"
   inkscape:export-filename="/home/enrique/Dropbox/Artes y Diseños/Logos - No publicos/Clan BN.png"
   inkscape:export-xdpi="90"
   inkscape:export-ydpi="90">
  <metadata
     id="metadata28">
    <rdf:RDF>
      <cc:Work
         rdf:about="">
        <dc:format>image/svg+xml</dc:format>
        <dc:type
           rdf:resource="http://purl.org/dc/dcmitype/StillImage" />
        <dc:title></dc:title>
      </cc:Work>
    </rdf:RDF>
  </metadata>
  <sodipodi:namedview
     pagecolor="#ffffff"
     bordercolor="#666666"
     borderopacity="1"
     objecttolerance="10"
     gridtolerance="10"
     guidetolerance="10"
     inkscape:pageopacity="0"
     inkscape:pageshadow="2"
     inkscape:window-width="1366"
     inkscape:window-height="702"
     id="namedview26"
     showgrid="false"
     inkscape:zoom="0.73952573"
     inkscape:cx="-31.267721"
     inkscape:cy="109.54744"
     inkscape:window-x="0"
     inkscape:window-y="27"
     inkscape:window-maximized="1"
     inkscape:current-layer="svg2" />
  <defs
     id="defs4">
    <marker
       id="ArrowEnd"
       viewBox="0 0 10 10"
       refX="0"
       refY="5"
       markerUnits="strokeWidth"
       markerWidth="4"
       markerHeight="3"
       orient="auto">
      <path
         d="M 0,0 10,5 0,10 z"
         id="path7"
         inkscape:connector-curvature="0" />
    </marker>
    <marker
       id="ArrowStart"
       viewBox="0 0 10 10"
       refX="10"
       refY="5"
       markerUnits="strokeWidth"
       markerWidth="4"
       markerHeight="3"
       orient="auto">
      <path
         d="M 10,0 0,5 10,10 z"
         id="path10"
         inkscape:connector-curvature="0" />
    </marker>
    <marker
       orient="auto"
       markerHeight="3"
       markerWidth="4"
       markerUnits="strokeWidth"
       refY="5"
       refX="10"
       viewBox="0 0 10 10"
       id="ArrowStart-7">
      <path
         id="path3096"
         d="M 10,0 0,5 10,10 z"
         inkscape:connector-curvature="0" />
    </marker>
    <marker
       orient="auto"
       markerHeight="3"
       markerWidth="4"
       markerUnits="strokeWidth"
       refY="5"
       refX="0"
       viewBox="0 0 10 10"
       id="ArrowEnd-3">
      <path
         id="path3093"
         d="M 0,0 10,5 0,10 z"
         inkscape:connector-curvature="0" />
    </marker>
  </defs>
  <path
     sodipodi:type="arc"
     style="fill:#ffcc00;fill-opacity:1;fill-rule:nonzero;stroke:#000080;stroke-opacity:0"
     id="path3979"
     sodipodi:cx="151.94183"
     sodipodi:cy="164.14836"
     sodipodi:rx="104.08614"
     sodipodi:ry="104.08614"
     d="m 256.02798,164.14836 a 104.08614,104.08614 0 1 1 -208.17229,0 104.08614,104.08614 0 1 1 208.17229,0 z"
     transform="matrix(0.82196969,0,0,0.82930954,-5.059195,-9.0220448)" />
  <path
     style="fill:#ff0000;stroke:none"
     d="m 120.454,41.113925 c 9.124,0 17.921,1.437 26.182,4.092 -0.571,3.146 -0.262,7.847 -0.398,9.387 -0.117,1.336 -4.049,4.767 -5.25,6.254 -3.006,3.792 -4.723,9.393 -8.346,12.569 -5.294,4.6 -2.165,5.137 -8.796,17.435 -0.127,0.601 0.063,1.201 -0.025,1.809 -0.885,6.129 -5.035,10.034005 -8.343,14.813005 l 0.126,-0.092 c -1.766,1.607 -4.069,4.336 -5.201,6.42 l 0.085,-0.029 -2.18,2.617 c -1.899,4.81 -1.446,8.734 -1.457,13.608 -0.003,5.781 2.364,6.503 5.912,10.05499 1.35,1.299 2.424,2.832 4.225,3.394 2.877,3.665 8.373,8.438 10.256,12.783 2.213,4.055 1.07,7.455 5.103,9.863 1.347,0.932 2.871,1.502 4.03,2.654 2.79,2.783 7.479,5.615 10.582,8.086 3.805,6.458 10.016,13.493 15.575,18.475 0.149,0.147 -0.974,-0.158 -0.879,0.029 0.969,1.902 2.194,3.557 3.482,5.187 -3.514,2.15 -7.193,4.054 -11.013,5.689 -0.148,-0.213 -0.294,-0.424 -0.439,-0.636 -6.161,-9.008 -12.88,-17.565 -19.19,-26.457 -2.284,-3.217 -5.79,-7.41 -7.765,-10.995 -2.358,-4.283 -1.345,-3.316 -4.611,-6.975 -2.812,-3.15 -7.393,-7.249 -11.352,-11.481 -5.787,-6.184 -11.2068,-12.651 -15.7707,-16.85399 -4.7856,-4.407 -6.3979,-3.377 -12.6274,-5.172 -4.8353,-1.393 -9.7634,-1.677 -14.8082,-1.791 -9.4928,-0.216 -18.9931,-1.268 -28.4913,-1.272 -1.0749,0 -2.7499,-0.343 -4.5405,-0.717 1.7164,-45.869005 39.6483,-82.748005 85.9251,-82.748005 z m 35.997,7.927 c 29.469,13.666 49.995,43.544 49.995,78.066005 0,29.14099 -14.627,54.97099 -36.912,70.53599 -2.937,-2.695 -6.926,-6.094 -7.894,-7.784 -2.614,-4.561 -3.298,-4.845 -6.509,-9.127 -3.49,-4.653 -4.044,-6.284 -9.324,-8.983 l -4.053,-3.588 c -5.297,-3.825 -5.133,-4.517 -7.348,-7.392 l -0.004,0.052 -0.958,-0.958 0.052,-0.004 c -1.516,-3.07 -3.575,-5.962 -5.144,-9.102 -1.906,-4.216 -5.031,-10.547 -9.358,-12.565 -2.056,-2.14799 -6.052,-3.46099 -7.664,-5.82799 -0.145,-4.027 -1.005,-8.606 -0.858,-12.62 1.569,-1.283 4.293,-2.137 5.301,-4.006 l -0.094,0.043 c 1.71,-1.627 4.074,-4.389 5.178,-6.398 l -0.102,0.054 c 4.316,-4.176 4.368,-6.57 4.469,-12.727005 l 2.485,-5.393 c 1.471,-3.17 2.328,-5.524 4.37,-8.249 0.791,-0.991 2.564,-4.112 3.205,-4.598 5.244,-3.979 6.971,-10.153 10.962,-15.083 3.196,-3.543 5.236,-4.853 5.592,-9.296 0.875,-0.668 2.944,-3.109 4.613,-5.05 z M 147.41,208.75392 c -8.485,2.815 -17.547,4.345 -26.956,4.345 -45.9588,0 -83.6913,-36.373 -85.8892,-81.80299 1.8192,-0.522 3.6195,-0.975 4.5046,-0.957 l 34.2765,0.717 4.2137,2.244 c 5.6307,2.997 3.8455,-1.716 9.2325,0.976 l 5.4527,2.72599 c 3.2784,1.638 2.1162,2.281 4.9577,4.657 4.1185,3.444 4.6665,5.092 8.3365,9 1.331,1.417 8.169,6.066 10.864,10.212 4.188,6.443 4.874,5.267 8.422,11.997 2.149,4.075 3.312,9.691 5.983,13.537 5.233,7.536 11.285,14.802 16.602,22.349 z"
     id="path20"
     inkscape:connector-curvature="0" />
  <path
     inkscape:connector-curvature="0"
     id="path22"
     d="m 107.223,28.272927 c 2.088,-0.279 4.195,-0.488 6.32,-0.635 2.388,-1.983 3.167,-3.941 3.681,-6.047 -2.879,0.088 -5.73,0.292 -8.549,0.607 -0.35,1.891 -0.486,4.058 -1.452,6.075 z m -10.3371,1.936 c 2.0524,-0.498 4.1291,-0.935 6.2271,-1.304 2.163,-2.219 2.731,-4.247 3.023,-6.393 -2.85,0.388 -5.665,0.889 -8.4395,1.499 -0.1507,1.918 -0.059,4.089 -0.8106,6.198 z m -10.0798,3.014999 c 1.9915,-0.713 4.01,-1.369 6.0568,-1.955999 1.9208,-2.434 2.2751,-4.511 2.3406,-6.677 -2.7896,0.684 -5.5371,1.477 -8.2362,2.379 0.0513,1.925 0.3696,4.077 -0.1612,6.253999 z m -9.7091,4.056 c 1.9013,-0.916 3.8378,-1.77 5.8037,-2.566 1.671,-2.631 1.8102,-4.738999 1.6492,-6.903999 -2.6988,0.973 -5.3482,2.051 -7.9411,3.234 0.2539,1.908999 0.7928,4.015999 0.4882,6.235999 z m -9.2296,5.064999 c 1.7924,-1.108 3.6226,-2.159999 5.4862,-3.157999 1.4004,-2.799 1.3244,-4.915 0.9397,-7.054 -2.5783,1.253 -5.0975,2.609 -7.5557,4.058 0.4554,1.873 1.209,3.914 1.1298,6.153999 z m -8.6474,5.992 c 1.6656,-1.287 3.3687,-2.527 5.1144,-3.71 1.1066,-2.931 0.8172,-5.026999 0.2149,-7.110999 -2.4304,1.511 -4.7964,3.116999 -7.0913,4.814999 0.6511,1.816 1.6119,3.768 1.762,6.006 z m -7.975,6.843 c 1.5168,-1.446 3.0822,-2.842 4.688,-4.191 0.8056,-3.042 0.3036,-5.102 -0.5121,-7.114 -2.2579,1.754 -4.4448,3.595 -6.5524,5.521 0.8373,1.737 1.9945,3.576 2.3765,5.784 z m -7.2156,7.64 c 1.3595,-1.596 2.7685,-3.148 4.2223,-4.657 0.4843,-3.109 -0.2283,-5.106 -1.2488,-7.021 -2.0611,1.978 -4.0416,4.038 -5.9403,6.174 1.0148,1.639 2.3571,3.347 2.9668,5.504 z m -6.3854,8.331 c 1.189,-1.731 2.4283,-3.425 3.7206,-5.075 0.1517,-3.131 -0.7646,-5.038 -1.9767,-6.831 -1.8454,2.175 -3.6057,4.425 -5.2736,6.746 1.1789,1.524 2.6941,3.081 3.5297,5.16 z m -5.4885,8.941 c 1.0038,-1.847 2.0688,-3.657 3.1843,-5.431 -0.1811,-3.124 -1.2957,-4.921 -2.6913,-6.579 -1.6081,2.354 -3.1245,4.775 -4.5432,7.259 1.3276,1.392 2.9967,2.779 4.0502,4.751 z m -4.5191,9.479 c 0.8088,-1.952 1.6785,-3.872 2.6033,-5.761 -0.5135,-3.073 -1.8132,-4.736 -3.3754,-6.236 -1.3522,2.507 -2.6051,5.075 -3.7577,7.697 1.4647,1.247 3.2714,2.45 4.5298,4.3 z m -3.5045,9.901 c 0.6022,-2.036 1.2618,-4.049 1.9873,-6.029 -0.8364,-2.985 -2.3039,-4.495 -4.013,-5.82 -1.0826,2.632 -2.063,5.316 -2.9345,8.048 1.5858,1.089 3.5115,2.095 4.9602,3.801 z M 21.686,109.69193 c 0.3848,-2.093 0.8359,-4.162 1.3495,-6.208 -1.1469,-2.881 -2.7684,-4.227005 -4.6113,-5.367005 -0.7995,2.728005 -1.495,5.500005 -2.0743,8.313005 1.6913,0.919 3.714,1.718 5.3361,3.262 z m -1.3578,10.426 c 0.163,-2.124 0.3991,-4.229 0.6943,-6.314 -1.4445,-2.75 -3.2013,-3.919 -5.1571,-4.86 -0.5037,2.794 -0.8974,5.627 -1.1781,8.491 1.7763,0.736 3.8684,1.319 5.6409,2.683 z m -0.2552,10.515 c -0.0255,-0.926 -0.0405,-1.853 -0.0405,-2.785 0,-1.194 0.0285,-2.381 0.0704,-3.565 -1.7237,-2.586 -3.5925,-3.566 -5.6356,-4.298 -0.1926,2.597 -0.2923,5.219 -0.2923,7.863 0,0.236 0.0075,0.47 0.0091,0.705 1.8436,0.546 3.9844,0.907 5.8889,2.08 z m 0.8396,10.47999 c -0.2783,-2.088 -0.4879,-4.196 -0.6349,-6.32099 -1.9824,-2.387 -3.9414,-3.166 -6.0475,-3.681 0.0875,2.88 0.2916,5.73099 0.6069,8.54899 1.8907,0.351 4.0584,0.486 6.0755,1.453 z m 1.9362,10.337 c -0.498,-2.053 -0.9346,-4.129 -1.3036,-6.228 -2.2192,-2.162 -4.2474,-2.731 -6.3944,-3.022 0.3878,2.85 0.8888,5.665 1.4996,8.439 1.9184,0.151 4.09,0.06 6.1984,0.811 z m 3.0146,10.08 c -0.7126,-1.992 -1.3684,-4.01 -1.9557,-6.057 -2.4342,-1.921 -4.5114,-2.275 -6.6774,-2.341 0.6842,2.79 1.4775,5.537 2.3788,8.236 1.9254,-0.051 4.0773,-0.369 6.2543,0.162 z m 4.0568,9.709 c -0.9165,-1.902 -1.7709,-3.838 -2.5667,-5.804 -2.631,-1.671 -4.7389,-1.81 -6.9042,-1.649 0.9737,2.699 2.052,5.348 3.2343,7.941 1.9099,-0.254 4.0165,-0.793 6.2366,-0.488 z m 5.065,9.229 c -1.1088,-1.792 -2.1606,-3.622 -3.1584,-5.486 -2.8,-1.401 -4.9149,-1.324 -7.0539,-0.939 1.2528,2.578 2.6086,5.097 4.0577,7.555 1.8739,-0.456 3.9138,-1.209 6.1546,-1.13 z m 5.9922,8.648 c -1.2874,-1.666 -2.5283,-3.369 -3.7113,-5.115 -2.9308,-1.107 -5.0268,-0.817 -7.1103,-0.215 1.5118,2.431 3.1173,4.797 4.8147,7.091 1.8169,-0.65 3.7682,-1.612 6.0069,-1.761 z m 6.8426,7.975 c -1.4464,-1.517 -2.8422,-3.083 -4.1912,-4.689 -3.0418,-0.805 -5.1015,-0.303 -7.1134,0.513 1.7534,2.258 3.5942,4.444 5.5208,6.552 1.7368,-0.837 3.5755,-1.995 5.7838,-2.376 z m 7.6398,7.215 c -1.5962,-1.36 -3.1487,-2.769 -4.6578,-4.223 -3.1088,-0.484 -5.1051,0.229 -7.0198,1.25 1.9775,2.061 4.0381,4.041 6.1733,5.94 1.6398,-1.015 3.3477,-2.357 5.5043,-2.967 z m 8.3306,6.385 c -1.7307,-1.189 -3.4248,-2.428 -5.0754,-3.72 -3.1305,-0.152 -5.0367,0.764 -6.8306,1.977 2.1759,1.845 4.4254,3.605 6.7461,5.273 1.5249,-1.179 3.0815,-2.694 5.1599,-3.53 z m 8.9415,5.489 c -1.8476,-1.004 -3.6575,-2.069 -5.4321,-3.185 -3.1242,0.182 -4.9205,1.296 -6.5776,2.692 2.3538,1.60801 4.7747,3.12401 7.2583,4.54301 1.3925,-1.328 2.7789,-2.996 4.7514,-4.05001 z m 9.4782,4.51901 c -1.9518,-0.809 -3.8723,-1.679 -5.761,-2.603 -3.073,0.513 -4.7352,1.813 -6.2349,3.375 2.5068,1.353 5.0746,2.606 7.6962,3.758 1.2474,-1.465 2.4504,-3.271 4.2997,-4.53 z m 8.5014,2.882 c -2.0367,-0.602 -2.6491,-0.639 -4.6303,-1.365 -2.9836,0.837 -4.493,2.305 -5.818,4.014 2.6318,1.082 3.9155,1.44 6.6474,2.312 1.089,-1.586 2.0953,-3.512 3.8009,-4.961 z m 8.8338,-4.659 c -3.71,0.525 -8.789,6.813 -9.0995,9.278 2.728,0.8 2.0771,2.273 4.8905,2.852 0.4697,-4.51 2.0801,-8.45 4.209,-12.13 z m 14.4567,1.151 c -1.195,-0.091 -8.378,-2.674 -9.905,-0.613 -0.594,0.802 -2.424,3.419 -1.575,5.198 0.849,1.779 4.377,2.72 3.921,2.655 -1.375,0.722 -4.922,-0.733 -6.5302,-0.102 -1.609,0.63 -1.2808,3.348 -1.7515,4.326 2.7947,0.504 7.3377,0.586 10.2027,0.867 0.736,-1.777 4.274,-10.558 5.638,-12.331 z m 10.358,3.834 c -6.89,0.191 -3.873,-0.684 -6.971,-1.43 -0.883,1.723 -4.072,7.792 -6.009,9.836 4.362,-0.604 11.669,1.705 12.98,-8.406 z m 9.391,3.205 c -2.607,1.035 -5.007,2.484 -7.201,4.349 2.88,-0.088 2.931,0.019 5.749,-0.296 0.35,-1.891 0.486,-2.036 1.452,-4.053 z m 16.249,-5.203 c -0.36,0.12 -4.518,-3.46 -6.199,-3.559 -1.888,0.78 -3.78,1.684 -4.243,3.932 0.33,0.884 1.758,1.147 3.195,2.306 -0.672,1.953 -3.975,2.143 -4.893,2.203 -2.162,2.219 -2.886,3.314 -3.177,5.461 2.85,-0.388 5.82,0.044 8.595,-0.567 -0.782,-2.644 2.548,-10.26 6.722,-9.776 z m 4.168,0.563 c -1.991,0.713 -4.01,1.369 -6.057,1.956 -1.92,2.434 -2.275,4.511 -2.34,6.677 1.395,-0.342 6.046,5.823 7.419,5.426 1.373,-0.396 -0.532,-7.354 0.817,-7.804 -0.051,-1.926 -0.369,-4.078 0.161,-6.255 z m 9.709,-4.056 c -1.902,0.916 -3.838,1.771 -5.804,2.567 -1.67,2.63 -1.809,4.738 -1.648,6.903 2.699,-0.973 5.348,-2.051 7.941,-3.234 -0.254,-1.91 -0.793,-4.016 -0.489,-6.236 z m 9.23,-5.06601 c -1.793,1.109 -3.623,2.162 -5.487,3.159 -1.4,2.80001 -1.323,4.91501 -0.938,7.05401 2.578,-1.253 5.097,-2.609 7.555,-4.058 -0.455,-1.873 -1.209,-3.91401 -1.13,-6.15501 z m 8.647,-5.991 c -1.665,1.287 -3.369,2.528 -5.115,3.711 -1.106,2.931 -0.816,5.027 -0.214,7.11001 2.431,-1.51101 4.797,-3.11701 7.092,-4.81501 -0.651,-1.817 -1.613,-3.768 -1.763,-6.006 z m 7.976,-6.843 c -1.518,1.446 -3.083,2.843 -4.689,4.192 -0.805,3.041 -0.303,5.101 0.513,7.113 2.258,-1.754 4.445,-3.595 6.552,-5.521 -0.837,-1.737 -1.994,-3.576 -2.376,-5.784 z m 7.215,-7.64 c -1.36,1.596 -2.769,3.149 -4.223,4.658 -0.484,3.109 0.229,5.105 1.25,7.02 2.061,-1.978 4.042,-4.039 5.94,-6.174 -1.014,-1.639 -2.357,-3.347 -2.967,-5.504 z m 6.386,-8.331 c -1.19,1.731 -2.429,3.426 -3.722,5.077 -0.151,3.129 0.765,5.036 1.978,6.83 1.845,-2.176 3.605,-4.426 5.273,-6.747 -1.178,-1.524 -2.693,-3.081 -3.529,-5.16 z m 5.488,-8.941 c -1.004,1.848 -2.069,3.658 -3.185,5.433 0.182,3.123 1.297,4.92 2.692,6.577 1.608,-2.354 3.125,-4.775 4.543,-7.259 -1.327,-1.392 -2.996,-2.779 -4.05,-4.751 z m 4.52,-9.478 c -0.81,1.952 -1.679,3.872 -2.605,5.762 0.514,3.072 1.814,4.734 3.376,6.234 1.353,-2.507 2.606,-5.075 3.758,-7.696 -1.464,-1.248 -3.271,-2.451 -4.529,-4.3 z m 3.504,-9.902 c -0.602,2.037 -1.262,4.05 -1.988,6.031 0.837,2.983 2.305,4.493 4.014,5.818 1.083,-2.632 2.063,-5.316 2.934,-8.048 -1.586,-1.089 -3.511,-2.095 -4.96,-3.801 z m 2.446,-10.22 c -0.385,2.094 -0.836,4.164 -1.35,6.21 1.147,2.88 2.769,4.225 4.612,5.365 0.799,-2.728 1.495,-5.5 2.074,-8.313 -1.691,-0.919 -3.714,-1.718 -5.336,-3.262 z m 1.358,-10.42599 c -0.163,2.12499 -0.399,4.22999 -0.695,6.31599 1.445,2.749 3.202,3.917 5.158,4.858 0.504,-2.795 0.897,-5.627 1.178,-8.491 -1.776,-0.737 -3.869,-1.319 -5.641,-2.68299 z m 0.255,-10.514 c 0.026,0.925 0.041,1.853 0.041,2.784 0,1.195 -0.029,2.382 -0.071,3.567 1.724,2.585 3.593,3.564 5.636,4.296 0.192,-2.596 0.292,-5.218 0.292,-7.863 0,-0.235 -0.007,-0.47 -0.009,-0.705 -1.843,-0.546 -3.984,-0.907 -5.889,-2.079 z m -0.84,-10.48 c 0.279,2.087 0.489,4.196 0.636,6.321 1.982,2.387 3.941,3.165 6.047,3.68 -0.088,-2.88 -0.292,-5.731 -0.607,-8.55 -1.891,-0.35 -4.058,-0.485 -6.076,-1.451 z m -1.936,-10.338 c 0.498,2.053 0.935,4.13 1.304,6.229 2.219,2.162 4.247,2.73 6.394,3.021 -0.387,-2.85 -0.888,-5.665 -1.499,-8.439 -1.918,-0.152 -4.09,-0.059 -6.199,-0.811 z m -3.014,-10.079005 c 0.712,1.992 1.368,4.01 1.956,6.058005 2.433,1.92 4.51,2.273 6.677,2.339 -0.685,-2.790005 -1.478,-5.538005 -2.379,-8.237005 -1.926,0.052 -4.077,0.37 -6.254,-0.16 z m -4.057,-9.709 c 0.917,1.901 1.771,3.838 2.567,5.804 2.63,1.67 4.738,1.808 6.904,1.648 -0.974,-2.699 -2.052,-5.348 -3.235,-7.941 -1.909,0.253 -4.016,0.793 -6.236,0.489 z m -5.065,-9.23 c 1.109,1.792 2.161,3.623 3.159,5.488 2.799,1.399 4.914,1.322 7.053,0.937 -1.252,-2.578 -2.608,-5.097 -4.058,-7.555 -1.873,0.454 -3.913,1.208 -6.154,1.13 z m -5.992,-8.648 c 1.287,1.666 2.528,3.37 3.711,5.115 2.931,1.106 5.027,0.817 7.111,0.215 -1.512,-2.431 -3.118,-4.797 -4.816,-7.092 -1.816,0.651 -3.768,1.612 -6.006,1.762 z m -6.843,-7.975 c 1.447,1.517 2.843,3.083 4.192,4.689 3.041,0.805 5.101,0.302 7.113,-0.513 -1.753,-2.258 -3.595,-4.445 -5.521,-6.552 -1.737,0.837 -3.576,1.994 -5.784,2.376 z m -7.64,-7.215 c 1.597,1.36 3.149,2.769 4.659,4.223 3.108,0.484 5.104,-0.23 7.019,-1.25 -1.978,-2.061 -4.039,-4.042 -6.174,-5.94 -1.64,1.014 -3.347,2.357 -5.504,2.967 z m -8.331,-6.386 c 1.732,1.19 3.426,2.429 5.077,3.722 3.13,0.151 5.036,-0.766 6.829,-1.978 -2.175,-1.845 -4.425,-3.606 -6.746,-5.274 -1.525,1.179 -3.081,2.694 -5.16,3.53 z m -8.941,-5.487999 c 1.848,1.003999 3.658,2.068999 5.433,3.184999 3.123,-0.182 4.92,-1.297 6.577,-2.691999 -2.354,-1.609 -4.775,-3.125 -7.259,-4.544 -1.392,1.328 -2.779,2.997 -4.751,4.051 z m -9.479,-4.519 c 1.953,0.809 3.873,1.678 5.762,2.604 3.073,-0.514 4.735,-1.815 6.235,-3.376 -2.507,-1.353 -5.075,-2.606 -7.697,-3.757999 -1.247,1.463999 -2.45,3.270999 -4.3,4.529999 z m -9.9,-3.504999 c 2.036,0.601999 4.049,1.261999 6.03,1.987999 2.983,-0.837 4.493,-2.304999 5.818,-4.013999 -2.632,-1.082 -5.316,-2.062 -8.048,-2.934 -1.089,1.586 -2.095,3.511 -3.8,4.96 z m -10.221,-2.446 c 2.094,0.385 4.164,0.836 6.209,1.35 2.881,-1.147 4.226,-2.769 5.366,-4.611 -2.728,-0.8 -5.5,-1.495 -8.313,-2.074 -0.919,1.69 -1.718,3.713 -3.262,5.335 z m -10.426,-1.358 c 2.125,0.163 4.23,0.399 6.316,0.695 2.749,-1.445 3.916,-3.201 4.858,-5.157 -2.794,-0.504 -5.627,-0.897 -8.492,-1.178 -0.736,1.776 -1.318,3.868 -2.682,5.64 z m -7.729,-0.295 c 1.194,0 2.381,0.029 3.565,0.07 2.585,-1.723 3.564,-3.592 4.297,-5.635 -2.597,-0.192 -5.218,-0.292 -7.862,-0.292 -0.236,0 -0.47,0.007 -0.705,0.009 -0.546,1.844 -0.908,3.984 -2.08,5.889 0.926,-0.026 1.853,-0.041 2.785,-0.041 z m 5.73,202.241003 c 4.769,-4.566 9.694,-8.923 15.713,-11.823 -3.112,-1.34801 -7.053,-0.829 -11.823,1.556 -3.294,3.241 -5.161,6.612 -3.89,10.267 z m -36.4022,0 c -0.784,4.667 -1.0472,9.334 2.3336,14.001 1.9186,0.052 3.8373,0.104 5.756,0.156 0.9851,-0.934 0.933,-1.867 -0.1556,-2.8 -2.1782,-4.914 -4.9268,-8.518 -7.934,-11.357 z m 8.7118,7.156 c 2.1784,-0.259 4.3564,-0.518 6.5344,-0.778 -0.675,1.815 -1.349,3.63 -2.023,5.445 -2.491,0.417 -3.6827,-1.761 -4.5114,-4.667 z m 7.0004,4.356 c 0.361,-1.554 1.451,-3.473 2.645,-5.445 4.104,-0.492 8.209,-0.129 12.314,0.622 -2.653,1.608 -4.476,3.63 -5.469,6.068 -3.864,0.285 -6.872,-0.286 -9.49,-1.245 z m 21.468,-3.889 c 3.163,-1.244 6.534,-1.659 10.112,-1.245 -1.296,1.919 -2.593,3.422 -3.889,4.512 -2.595,0.472 -4.461,-1.241 -6.223,-3.267 z m -9.178,6.067 c 1.823,-1.659 3.646,-3.319 5.469,-4.978 2.378,0.882 4.547,2.178 6.51,3.889 2.955,1.245 1.347,2.489 -4.823,3.734 -2.764,0.233 -9.306,-2.619 -7.156,-2.645 z m -23.8018,2.178 c 2.5933,0.314 5.1346,0.419 7.3118,-0.933 0.052,-0.312 0.104,-0.623 0.155,-0.934 1.868,-0.416 3.683,-0.677 5.134,0.156 0.63,3.116 0.634,5.815 -3.733,5.6 -4.5901,-0.363 -7.183,-1.867 -8.8678,-3.889 z m 15.0898,3.422 c 0.568,-2.231 1.293,-4.357 3.111,-5.756 1.823,1.868 4.787,2.594 8.27,2.801 0,1.037 -11.692,3.992 -11.381,2.955 z m 18.885,-0.947 c 2.602,-0.898 5.725,-2.175 6.955,-4.259 1.987,0.142 3.88,0.994 5.11,2.271 -1.42,5.394 -6.482,5.867 -12.065,1.988 z m 13.342,3.122 c 1.042,-0.945 1.989,-1.984 2.272,-3.69 1.23,0.52 1.892,1.041 1.987,1.561 0.189,0.568 -4.353,2.697 -4.259,2.129 z m -5.677,-8.658 c -0.426,-0.615 -0.284,-1.23 0.426,-1.846 1.227,-1.326 2.361,-2.51 4.4,-3.406 3.489,0.225 6.541,1.81 9.652,4.684 -3.998,1.349 -8.587,1.869 -14.478,0.568 z m 12.775,-6.53 c -0.074,0.695 -0.376,2.771 0,2.839 0.361,-0.352 1.857,0.562 2.697,0.994 0.432,-0.505 -0.985,-2.587 -0.994,-2.839 -0.378,-0.538 -1.257,-1.477 -1.703,-0.994 z m -2.981,9.936 c 2.557,1.56 4.64,2.552 6.387,5.394 2.697,-0.709 5.252,-0.426 7.949,0 -1.608,-3.075 -4.163,-5.583 -7.665,-7.523 -1.916,0.355 -4.377,1.018 -6.671,2.129 z m 9.794,7.807 c 1.277,-0.615 2.555,-0.662 3.833,-0.142 -0.852,0.379 -1.515,0.947 -1.988,1.704 -0.615,-0.521 -1.23,-1.041 -1.845,-1.562 z m 5.678,7.665 c 0.946,-1.608 2.46,-3.028 4.542,-4.258 0.095,0.71 0.189,1.419 0.284,2.129 -1.231,0.756 -2.368,1.653 -2.839,3.549 -0.662,-0.473 -1.325,-0.947 -1.987,-1.42 z m -70.8293,-10.418 c -0.7579,-1.986 -0.5392,-3.647 -0.1814,-5.262 0.7218,0.972 1.6287,1.758 2.7213,2.359 -0.2909,1.802 -1.1376,2.77 -2.5399,2.903 z m -8.7232,-0.425 c -0.1274,3.185 0.7291,5.386 3.7526,5.42 1.6095,-0.475 2.5593,-2.93 3.0576,-6.74 -0.5562,-1.9 -1.4828,-2.595 -2.7796,-2.085 -1.3437,1.135 -2.6871,2.27 -4.0306,3.405 z m -6.6017,6.81 c 0.9786,2.166 2.3333,3.88 4.239,4.934 0.417,-0.741 0.8338,-1.482 1.2509,-2.224 -1.6678,-1.019 -3.0345,-2.339 -3.9612,-4.1 -0.5097,0.464 -1.0191,0.927 -1.5287,1.39 z"
     style="fill:#000055;stroke:none" />
  <g
     id="g24"
     transform="translate(0,-565.09007)" />
  <g
     style="fill-rule:evenodd"
     id="g3106"
     transform="translate(-385.41741,-311.79775)" />
  <path
     sodipodi:type="arc"
     style="fill:#ffffff;fill-opacity:1;fill-rule:nonzero;stroke:#000080;stroke-opacity:0"
     id="path3128"
     sodipodi:cx="83.747467"
     sodipodi:cy="801.12012"
     sodipodi:rx="38.284557"
     sodipodi:ry="38.284557"
     d="m 122.03202,801.12012 a 38.284557,38.284557 0 1 1 -76.56911,0 38.284557,38.284557 0 1 1 76.56911,0 z"
     transform="matrix(0.68895035,0,0,0.68895035,26.049624,-461.29071)" />
</svg>
