<?xml version="1.0" encoding="UTF-8" standalone="no"?>
<!-- Created with Inkscape (http://www.inkscape.org/) -->

<svg
   xmlns:dc="http://purl.org/dc/elements/1.1/"
   xmlns:cc="http://creativecommons.org/ns#"
   xmlns:rdf="http://www.w3.org/1999/02/22-rdf-syntax-ns#"
   xmlns:svg="http://www.w3.org/2000/svg"
   xmlns="http://www.w3.org/2000/svg"
   xmlns:sodipodi="http://sodipodi.sourceforge.net/DTD/sodipodi-0.dtd"
   xmlns:inkscape="http://www.inkscape.org/namespaces/inkscape"
   width="300"
   height="70"
   viewBox="0 0 300 70.000001"
   id="svg2"
   version="1.1"
   inkscape:version="0.91 r"
   sodipodi:docname="logo1.svg">
  <defs
     id="defs4">
    <filter
       style="color-interpolation-filters:sRGB;"
       inkscape:label="Drop Shadow"
       id="filter5279">
      <feFlood
         flood-opacity="0.564706"
         flood-color="rgb(0,0,0)"
         result="flood"
         id="feFlood5281" />
      <feComposite
         in="flood"
         in2="SourceGraphic"
         operator="in"
         result="composite1"
         id="feComposite5283" />
      <feGaussianBlur
         in="composite1"
         stdDeviation="1"
         result="blur"
         id="feGaussianBlur5285" />
      <feOffset
         dx="1"
         dy="2"
         result="offset"
         id="feOffset5287" />
      <feComposite
         in="SourceGraphic"
         in2="offset"
         operator="over"
         result="fbSourceGraphic"
         id="feComposite5289" />
      <feColorMatrix
         result="fbSourceGraphicAlpha"
         in="fbSourceGraphic"
         values="0 0 0 -1 0 0 0 0 -1 0 0 0 0 -1 0 0 0 0 1 0"
         id="feColorMatrix5315" />
      <feFlood
         id="feFlood5317"
         flood-opacity="0.564706"
         flood-color="rgb(0,0,0)"
         result="flood"
         in="fbSourceGraphic" />
      <feComposite
         id="feComposite5319"
         in2="fbSourceGraphic"
         in="flood"
         operator="in"
         result="composite1" />
      <feGaussianBlur
         id="feGaussianBlur5321"
         in="composite1"
         stdDeviation="1"
         result="blur" />
      <feOffset
         id="feOffset5323"
         dx="1"
         dy="2"
         result="offset" />
      <feComposite
         id="feComposite5325"
         in2="offset"
         in="fbSourceGraphic"
         operator="over"
         result="composite2" />
    </filter>
    <filter
       style="color-interpolation-filters:sRGB;"
       inkscape:label="Drop Shadow"
       id="filter5291">
      <feFlood
         flood-opacity="0.564706"
         flood-color="rgb(0,0,0)"
         result="flood"
         id="feFlood5293" />
      <feComposite
         in="flood"
         in2="SourceGraphic"
         operator="in"
         result="composite1"
         id="feComposite5295" />
      <feGaussianBlur
         in="composite1"
         stdDeviation="1"
         result="blur"
         id="feGaussianBlur5297" />
      <feOffset
         dx="1"
         dy="2"
         result="offset"
         id="feOffset5299" />
      <feComposite
         in="SourceGraphic"
         in2="offset"
         operator="over"
         result="fbSourceGraphic"
         id="feComposite5301" />
      <feColorMatrix
         result="fbSourceGraphicAlpha"
         in="fbSourceGraphic"
         values="0 0 0 -1 0 0 0 0 -1 0 0 0 0 -1 0 0 0 0 1 0"
         id="feColorMatrix5327" />
      <feFlood
         id="feFlood5329"
         flood-opacity="0.564706"
         flood-color="rgb(0,0,0)"
         result="flood"
         in="fbSourceGraphic" />
      <feComposite
         id="feComposite5331"
         in2="fbSourceGraphic"
         in="flood"
         operator="in"
         result="composite1" />
      <feGaussianBlur
         id="feGaussianBlur5333"
         in="composite1"
         stdDeviation="1"
         result="blur" />
      <feOffset
         id="feOffset5335"
         dx="1"
         dy="2"
         result="offset" />
      <feComposite
         id="feComposite5337"
         in2="offset"
         in="fbSourceGraphic"
         operator="over"
         result="composite2" />
    </filter>
    <filter
       style="color-interpolation-filters:sRGB;"
       inkscape:label="Drop Shadow"
       id="filter5303">
      <feFlood
         flood-opacity="0.564706"
         flood-color="rgb(0,0,0)"
         result="flood"
         id="feFlood5305" />
      <feComposite
         in="flood"
         in2="SourceGraphic"
         operator="in"
         result="composite1"
         id="feComposite5307" />
      <feGaussianBlur
         in="composite1"
         stdDeviation="1"
         result="blur"
         id="feGaussianBlur5309" />
      <feOffset
         dx="1"
         dy="2"
         result="offset"
         id="feOffset5311" />
      <feComposite
         in="SourceGraphic"
         in2="offset"
         operator="over"
         result="fbSourceGraphic"
         id="feComposite5313" />
      <feColorMatrix
         result="fbSourceGraphicAlpha"
         in="fbSourceGraphic"
         values="0 0 0 -1 0 0 0 0 -1 0 0 0 0 -1 0 0 0 0 1 0"
         id="feColorMatrix5339" />
      <feFlood
         id="feFlood5341"
         flood-opacity="0.564706"
         flood-color="rgb(0,0,0)"
         result="flood"
         in="fbSourceGraphic" />
      <feComposite
         id="feComposite5343"
         in2="fbSourceGraphic"
         in="flood"
         operator="in"
         result="composite1" />
      <feGaussianBlur
         id="feGaussianBlur5345"
         in="composite1"
         stdDeviation="1"
         result="blur" />
      <feOffset
         id="feOffset5347"
         dx="1"
         dy="2"
         result="offset" />
      <feComposite
         id="feComposite5349"
         in2="offset"
         in="fbSourceGraphic"
         operator="over"
         result="composite2" />
    </filter>
    <filter
       style="color-interpolation-filters:sRGB;"
       inkscape:label="Drop Shadow"
       id="filter5591">
      <feFlood
         flood-opacity="0.690196"
         flood-color="rgb(0,0,0)"
         result="flood"
         id="feFlood5593" />
      <feComposite
         in="flood"
         in2="SourceGraphic"
         operator="in"
         result="composite1"
         id="feComposite5595" />
      <feGaussianBlur
         in="composite1"
         stdDeviation="1.2"
         result="blur"
         id="feGaussianBlur5597" />
      <feOffset
         dx="1"
         dy="2"
         result="offset"
         id="feOffset5599" />
      <feComposite
         in="SourceGraphic"
         in2="offset"
         operator="over"
         result="fbSourceGraphic"
         id="feComposite5601" />
      <feColorMatrix
         result="fbSourceGraphicAlpha"
         in="fbSourceGraphic"
         values="0 0 0 -1 0 0 0 0 -1 0 0 0 0 -1 0 0 0 0 1 0"
         id="feColorMatrix5615" />
      <feFlood
         id="feFlood5617"
         flood-opacity="0.690196"
         flood-color="rgb(0,0,0)"
         result="flood"
         in="fbSourceGraphic" />
      <feComposite
         id="feComposite5619"
         in2="fbSourceGraphic"
         in="flood"
         operator="in"
         result="composite1" />
      <feGaussianBlur
         id="feGaussianBlur5621"
         in="composite1"
         stdDeviation="1.2"
         result="blur" />
      <feOffset
         id="feOffset5623"
         dx="1"
         dy="2"
         result="offset" />
      <feComposite
         id="feComposite5625"
         in2="offset"
         in="fbSourceGraphic"
         operator="over"
         result="composite2" />
    </filter>
    <filter
       style="color-interpolation-filters:sRGB;"
       inkscape:label="Drop Shadow"
       id="filter5603">
      <feFlood
         flood-opacity="0.690196"
         flood-color="rgb(0,0,0)"
         result="flood"
         id="feFlood5605" />
      <feComposite
         in="flood"
         in2="SourceGraphic"
         operator="in"
         result="composite1"
         id="feComposite5607" />
      <feGaussianBlur
         in="composite1"
         stdDeviation="1.2"
         result="blur"
         id="feGaussianBlur5609" />
      <feOffset
         dx="1"
         dy="2"
         result="offset"
         id="feOffset5611" />
      <feComposite
         in="SourceGraphic"
         in2="offset"
         operator="over"
         result="fbSourceGraphic"
         id="feComposite5613" />
      <feColorMatrix
         result="fbSourceGraphicAlpha"
         in="fbSourceGraphic"
         values="0 0 0 -1 0 0 0 0 -1 0 0 0 0 -1 0 0 0 0 1 0"
         id="feColorMatrix5627" />
      <feFlood
         id="feFlood5629"
         flood-opacity="0.690196"
         flood-color="rgb(0,0,0)"
         result="flood"
         in="fbSourceGraphic" />
      <feComposite
         id="feComposite5631"
         in2="fbSourceGraphic"
         in="flood"
         operator="in"
         result="composite1" />
      <feGaussianBlur
         id="feGaussianBlur5633"
         in="composite1"
         stdDeviation="1.2"
         result="blur" />
      <feOffset
         id="feOffset5635"
         dx="1"
         dy="2"
         result="offset" />
      <feComposite
         id="feComposite5637"
         in2="offset"
         in="fbSourceGraphic"
         operator="over"
         result="composite2" />
    </filter>
  </defs>
  <sodipodi:namedview
     id="base"
     pagecolor="#ffffff"
     bordercolor="#666666"
     borderopacity="1.0"
     inkscape:pageopacity="0.0"
     inkscape:pageshadow="2"
     inkscape:zoom="2.5488975"
     inkscape:cx="272.65153"
     inkscape:cy="-6.1041386"
     inkscape:document-units="px"
     inkscape:current-layer="layer1"
     showgrid="false"
     units="px"
     inkscape:window-width="1366"
     inkscape:window-height="710"
     inkscape:window-x="0"
     inkscape:window-y="0"
     inkscape:window-maximized="1" />
  <metadata
     id="metadata7">
    <rdf:RDF>
      <cc:Work
         rdf:about="">
        <dc:format>image/svg+xml</dc:format>
        <dc:type
           rdf:resource="http://purl.org/dc/dcmitype/StillImage" />
        <dc:title></dc:title>
      </cc:Work>
    </rdf:RDF>
  </metadata>
  <g
     inkscape:label="Capa 1"
     inkscape:groupmode="layer"
     id="layer1"
     transform="translate(0,-982.36216)">
    <path
       id="path4161"
       style="font-style:normal;font-variant:normal;font-weight:normal;font-stretch:normal;font-size:medium;line-height:100%;font-family:'Born Addict';-inkscape-font-specification:'Born Addict';text-align:justify;letter-spacing:0px;word-spacing:0px;writing-mode:lr-tb;text-anchor:start;fill:#d4aa00;fill-opacity:1;stroke:none;stroke-width:1px;stroke-linecap:butt;stroke-linejoin:miter;stroke-opacity:1;filter:url(#filter5303)"
       d="m 195.91354,990.79163 q 1.0088,2.31636 1.30873,4.38155 0.29991,2.03728 -0.0273,3.71176 -0.29992,1.64656 -1.1724,2.84666 -0.84521,1.1721 -2.18121,1.7302 -1.30873,0.5582 -3.05368,0.3908 -1.71771,-0.1396 -3.73532,-1.1722 -1.28146,-0.6419 -2.29027,-1.3117 -0.98154,-0.6976 -1.71771,-1.75815 -0.73615,-1.08841 -1.25418,-2.76289 -0.49077,-1.67448 -0.7907,-4.29783 0.2454,-2.87452 1.09061,-4.93971 0.84522,-2.09309 2.07215,-3.26523 1.22692,-1.20005 2.72651,-1.45122 1.49958,-0.25117 3.08095,0.53026 1.58138,0.75351 3.10822,2.59543 1.55411,1.81402 2.83557,4.77227 z m -9.73364,5.63741 q 1.39053,1.92565 2.56292,2.70707 1.19966,0.78143 2.12668,0.75352 0.92701,-0.0279 1.60864,-0.6698 0.68162,-0.66979 1.06334,-1.61866 0.38171,-0.94886 0.49077,-2.03728 0.10906,-1.08841 -0.10906,-1.98147 -0.0273,0 -0.21813,-0.44652 -0.16358,-0.47444 -0.49077,-1.14423 -0.32718,-0.66978 -0.79068,-1.45121 -0.43624,-0.78142 -0.98154,-1.45122 -0.5453,-0.66979 -1.19967,-1.11631 -0.62709,-0.44654 -1.33598,-0.47444 -0.54531,-0.0838 -1.11788,0.16745 -0.57256,0.25117 -1.0906,0.80933 -0.51804,0.55815 -0.89975,1.39539 -0.35445,0.80934 -0.49077,1.84193 -0.10906,1.00469 0.0818,2.20473 0.19086,1.20005 0.79069,2.51172 z m -8.65325,-4.43737 0,0.0279 0.0273,-0.0279 -0.0273,0 z m -8.88841,-3.99084 q 0.0818,1.42331 0.0818,2.84662 0,0.55816 -0.0273,1.14422 0,0.55816 -0.0273,1.14423 0.95427,-0.0838 2.15394,-0.0558 1.19966,0.0279 2.39933,-0.0279 1.22693,-0.0838 2.3448,-0.27907 1.11786,-0.22327 1.93582,-0.75352 -0.10906,-0.86515 -0.6271,-1.47912 -0.51804,-0.64188 -1.28146,-1.0605 -0.76342,-0.44654 -1.69043,-0.69771 -0.92701,-0.25117 -1.8813,-0.3907 -0.95427,-0.16745 -1.85402,-0.25117 -0.87248,-0.0838 -1.52684,-0.13955 z m -2.20848,-3.37686 q 0.19086,0 0.35445,0.0279 0.16359,0.0279 0.32718,0.0838 0.62709,-0.0558 1.22693,-0.0838 0.62709,-0.0279 1.25419,-0.0279 1.14513,0 2.42659,0.13954 1.30873,0.11163 2.59019,0.44653 1.28145,0.30699 2.45386,0.86514 1.1724,0.53025 2.07214,1.36749 0.89975,0.80933 1.41779,1.95357 0.54529,1.11631 0.54529,2.62334 0,1.42331 -0.87247,2.34427 -0.84522,0.92097 -2.09941,1.47912 -1.22693,0.53026 -2.61745,0.78143 -1.36326,0.25117 -2.39933,0.30698 0.35444,0.3628 1.0088,1.08841 0.65436,0.72561 1.44506,1.64658 0.79068,0.89303 1.60863,1.89773 0.84523,0.9768 1.49959,1.8977 0.68163,0.8931 1.11786,1.6187 0.43625,0.7256 0.43625,1.0605 0,0.2512 -0.19086,0.3349 -0.1636,0.084 -0.38171,0.084 -0.43625,0 -0.84522,-0.1954 -0.40898,-0.1953 -0.76342,-0.4186 -0.81796,-0.5302 -1.60864,-1.2 -0.76342,-0.6698 -1.52684,-1.2559 -1.69044,-1.3675 -3.35362,-2.7071 -1.66316,-1.33956 -3.32633,-2.70705 -0.0273,0.25117 -0.10906,1.11632 -0.0818,0.83723 -0.24538,1.78613 -0.1636,0.9489 -0.40898,1.7024 -0.21812,0.7256 -0.54531,0.7256 -0.27264,0 -0.46351,-0.2233 -0.19085,-0.2233 -0.35444,-0.5302 -0.13632,-0.307 -0.21812,-0.614 -0.0818,-0.3349 -0.13633,-0.5303 -0.13632,-0.5302 -0.16359,-1.1163 -0.0273,-0.58606 -0.0818,-1.14421 -0.10906,-1.17214 -0.21812,-2.31637 -0.10906,-1.14422 -0.21812,-2.31635 l -0.43624,-4.85599 -0.21813,-2.428 q 0,-0.44652 0.13633,-0.92096 0.13633,-0.47443 0.38171,-0.86515 0.27265,-0.39071 0.6271,-0.64188 0.38172,-0.27908 0.87248,-0.27908 z m -9.03923,4.10247 q 0.16359,1.84193 0.16359,3.68385 0,2.12101 -0.21812,4.24202 -0.19085,2.121 -0.40898,4.21409 -0.0273,0.1675 -0.10906,0.8372 -0.0818,0.6698 -0.24538,1.3954 -0.13632,0.6977 -0.35445,1.2559 -0.21812,0.5861 -0.49077,0.5861 -0.27265,0 -0.4635,-0.2233 -0.19086,-0.2233 -0.32719,-0.5302 -0.13632,-0.2791 -0.24538,-0.5861 -0.0817,-0.307 -0.10906,-0.5024 -0.10907,-0.4186 -0.19086,-1.0605 -0.0546,-0.6418 -0.10906,-1.3116 -0.0546,-0.6698 -0.10906,-1.3117 -0.0546,-0.64189 -0.0818,-1.08842 -0.21812,-2.37217 -0.46351,-4.71644 -0.21812,-2.34427 -0.40897,-4.71645 0,-0.0279 0,-0.0279 0.0273,-0.0279 0.0273,-0.0558 -1.74496,-0.0279 -3.54446,-0.13955 -1.77223,-0.11162 -3.46266,-0.50234 -0.59983,-0.13954 -0.87249,-0.55816 -0.27265,-0.44653 -0.27265,-1.0605 0,-0.64189 0.35444,-1.20005 0.35445,-0.58607 1.06334,-0.58607 0.38172,0 0.76342,-0.0279 0.40898,-0.0559 0.79069,-0.0559 1.41779,-0.0838 2.86284,-0.0838 1.7177,0 3.38087,0.0558 1.66317,0.0279 3.38087,0.0279 1.14513,0 2.23573,-0.0279 1.11788,-0.0558 2.26301,-0.0558 0.27265,0 0.84522,0.0279 0.59983,0 1.1724,0.11163 0.59983,0.0838 1.03606,0.30699 0.46351,0.22326 0.46351,0.66979 0,0.66979 -0.49077,1.14422 -0.49077,0.47444 -1.28146,0.80934 -0.76342,0.30699 -1.71769,0.53024 -0.95429,0.19537 -1.8813,0.307 -0.92701,0.11162 -1.7177,0.16744 -0.79068,0.0279 -1.22693,0.0559 z m -23.7449,6.00021 q 0.49077,0.19536 0.73615,0.41862 0.24539,0.19536 0.35445,0.44653 0.10906,0.22327 0.10906,0.44653 0,0.22326 0,0.47443 0,0.25117 -0.0273,0.39072 -0.0273,0.13954 -0.0273,0.50234 0,0.3349 0.0273,1.03259 0.0546,0.6698 0.19085,1.95359 0.0546,0.4465 0.5453,0.7535 0.49078,0.2791 1.19967,0.4186 0.73615,0.1395 1.63591,0.1395 0.89974,0 1.74495,-0.1116 0.87249,-0.1116 1.60865,-0.3349 0.76342,-0.2512 1.22693,-0.586 0.57257,-0.4187 0.32717,-1.03265 -0.21811,-0.64187 -0.927,-1.33958 -0.7089,-0.6977 -1.71771,-1.4233 -0.98154,-0.72561 -1.96308,-1.33958 -0.95428,-0.64189 -1.71771,-1.08841 -0.76342,-0.47444 -0.98153,-0.64189 -2.4266,-1.59075 -3.54447,-3.09779 -1.11786,-1.50703 -1.28146,-2.79079 -0.13632,-1.31168 0.51804,-2.28845 0.68163,-1.00469 1.85403,-1.56285 1.1724,-0.55816 2.64471,-0.61398 1.49958,-0.0558 2.99916,0.53025 1.22693,0.47444 2.07214,1.11633 0.84523,0.61397 1.47233,1.39539 0.62709,0.75352 1.09059,1.70238 0.49078,0.94888 0.98155,2.0931 0.29991,0.6698 0.0546,1.36749 -0.21813,0.69771 -0.87249,1.00469 -0.40897,0.19536 -0.84521,0.16745 -0.43625,-0.0558 -0.81795,-0.27908 -0.40898,-0.25117 -0.65437,-0.72561 -0.21812,-0.30698 -0.65436,-0.94887 -0.40898,-0.64188 -0.95428,-1.39539 -0.5453,-0.75352 -1.19967,-1.45122 -0.62709,-0.7256 -1.28145,-1.14422 -0.6271,-0.44654 -1.2542,-0.44654 -0.59983,0 -1.09059,0.64189 -0.38172,0.50234 -0.10907,1.08841 0.27265,0.55816 1.11787,1.28376 0.87249,0.69771 2.31753,1.61867 1.44505,0.92096 3.38087,2.12101 0.46351,0.30698 0.95428,0.61397 0.51804,0.30699 1.06334,0.66979 2.01762,1.33959 2.91736,2.62335 0.89975,1.28376 0.92701,2.428 0.0273,1.14427 -0.70889,2.14887 -0.70889,0.9768 -1.88129,1.7303 -1.17239,0.7536 -2.69924,1.228 -1.52684,0.4744 -3.10822,0.614 -1.58137,0.1674 -3.10822,-0.056 -1.49958,-0.1953 -2.69924,-0.8372 -1.1724,-0.6419 -1.90856,-1.7303 -0.70889,-1.1163 -0.68163,-2.76291 0,-0.33489 0.0546,-0.92096 0.0546,-0.58607 0.16359,-1.20004 0.10906,-0.61399 0.24539,-1.14423 0.16359,-0.53025 0.32718,-0.75352 0.19086,-0.64188 0.49077,-0.86514 0.32719,-0.25118 0.6271,-0.307 0.35445,-0.0558 0.73616,0.0558 z m -10.69772,-3.79548 q -0.29992,0.94887 -0.65436,1.89774 -0.32718,0.92096 -0.65436,1.86984 0.70889,0.3907 1.44505,0.6977 0.73615,0.30699 1.49957,0.61397 -0.43623,-1.25586 -0.84521,-2.51172 -0.40898,-1.28376 -0.79069,-2.56753 z m -2.3448,6.69791 q -0.43624,1.20005 -0.81795,2.45592 -0.38171,1.2279 -0.92701,2.3722 -0.13633,0.307 -0.32718,0.6418 -0.16359,0.3349 -0.40898,0.614 -0.24538,0.2791 -0.5453,0.4745 -0.29991,0.1953 -0.65437,0.1953 -0.35444,0 -0.59983,-0.1953 -0.24538,-0.1675 -0.40897,-0.4745 -0.13632,-0.2791 -0.21812,-0.586 -0.0546,-0.3349 -0.0546,-0.6419 0,-0.3349 0.21812,-1.2001 0.21812,-0.8651 0.57257,-2.06517 0.35444,-1.20004 0.81795,-2.65125 0.46351,-1.47913 0.95427,-2.95824 0.51804,-1.50703 1.03608,-2.95825 0.51804,-1.45122 0.95428,-2.62335 0.43624,-1.20004 0.79069,-2.03728 0.35444,-0.83724 0.51804,-1.14422 0.29991,-0.53026 0.81795,-1.00469 0.5453,-0.50235 1.19966,-0.50235 0.35444,0 0.59983,0.19536 0.24539,0.16745 0.40897,0.47444 0.1636,0.27907 0.21813,0.61397 0.0818,0.33489 0.0818,0.64189 0,0.19535 -0.0273,0.3628 -0.0273,0.16744 -0.0818,0.3628 0.0546,0.0838 0.29991,0.80933 0.27265,0.6977 0.65436,1.81401 0.38171,1.11633 0.84522,2.53964 0.49077,1.4233 0.95428,2.90242 0.49077,1.47913 0.92701,2.90244 0.4635,1.42329 0.81795,2.59543 0.35444,1.14427 0.57257,1.92567 0.21812,0.7535 0.21812,0.893 0,0.5303 -0.32718,0.8931 -0.29992,0.3628 -0.81796,0.3628 -0.62709,0 -1.11787,-0.4186 -0.4635,-0.4186 -0.84521,-1.0326 -0.35444,-0.614 -0.6271,-1.2838 -0.27265,-0.6698 -0.43624,-1.14421 -0.5453,-0.0279 -1.2542,-0.25117 -0.70889,-0.22327 -1.44504,-0.55816 -0.70889,-0.3349 -1.39052,-0.66979 -0.68163,-0.3628 -1.14514,-0.64189 z m -8.78958,-5.63741 0,0.0279 0.0273,-0.0279 -0.0273,0 z m -8.88841,-3.99084 q 0.0818,1.42331 0.0818,2.84662 0,0.55816 -0.0273,1.14422 0,0.55816 -0.0273,1.14423 0.95428,-0.0838 2.15395,-0.0558 1.19966,0.0279 2.39933,-0.0279 1.22692,-0.0838 2.34479,-0.27907 1.11787,-0.22327 1.93582,-0.75352 -0.10906,-0.86515 -0.6271,-1.47912 -0.51804,-0.64188 -1.28146,-1.0605 -0.76342,-0.44654 -1.69042,-0.69771 -0.92702,-0.25117 -1.8813,-0.3907 -0.95428,-0.16745 -1.85402,-0.25117 -0.87249,-0.0838 -1.52685,-0.13955 z m -2.20847,-3.37686 q 0.19085,0 0.35444,0.0279 0.1636,0.0279 0.32719,0.0838 0.62709,-0.0558 1.22693,-0.0838 0.62709,-0.0279 1.25419,-0.0279 1.14514,0 2.42659,0.13954 1.30873,0.11163 2.59019,0.44653 1.28146,0.30699 2.45386,0.86514 1.17239,0.53025 2.07214,1.36749 0.89974,0.80933 1.41778,1.95357 0.5453,1.11631 0.5453,2.62334 0,1.42331 -0.87247,2.34427 -0.84523,0.92097 -2.09942,1.47912 -1.22693,0.53026 -2.61745,0.78143 -1.36325,0.25117 -2.39933,0.30698 0.35445,0.3628 1.00881,1.08841 0.65436,0.72561 1.44505,1.64658 0.79068,0.89303 1.60864,1.89773 0.84522,0.9768 1.49958,1.8977 0.68163,0.8931 1.11787,1.6187 0.43625,0.7256 0.43625,1.0605 0,0.2512 -0.19087,0.3349 -0.16359,0.084 -0.3817,0.084 -0.43625,0 -0.84523,-0.1954 -0.40897,-0.1953 -0.76342,-0.4186 -0.81795,-0.5302 -1.60863,-1.2 -0.76343,-0.6698 -1.52685,-1.2559 -1.69043,-1.3675 -3.35361,-2.7071 -1.66317,-1.33956 -3.32633,-2.70705 -0.0273,0.25117 -0.10906,1.11632 -0.0819,0.83723 -0.24539,1.78613 -0.16359,0.9489 -0.40898,1.7024 -0.21812,0.7256 -0.5453,0.7256 -0.27265,0 -0.46351,-0.2233 -0.19085,-0.2233 -0.35445,-0.5302 -0.13632,-0.307 -0.21811,-0.614 -0.0818,-0.3349 -0.13633,-0.5303 -0.13632,-0.5302 -0.16358,-1.1163 -0.0273,-0.58606 -0.0819,-1.14421 -0.10906,-1.17214 -0.21812,-2.31637 -0.10905,-1.14422 -0.21811,-2.31635 l -0.43625,-4.85599 -0.21811,-2.428 q 0,-0.44652 0.13632,-0.92096 0.13632,-0.47443 0.38171,-0.86515 0.27265,-0.39071 0.6271,-0.64188 0.38171,-0.27908 0.87248,-0.27908 z m -10.25167,2.67917 q 0.10906,1.22794 0.19085,2.8187 0.10906,1.56285 0.0546,3.29314 -0.0546,1.70239 -0.29991,3.43268 -0.24539,1.70238 -0.7907,3.15364 -0.51803,1.4512 -1.41778,2.5396 -0.89974,1.0605 -2.23573,1.507 -1.36326,0.4465 -2.399332,0.1117 -1.008809,-0.307 -1.772231,-1.1722 -0.736157,-0.893 -1.254195,-2.1768 -0.49077,-1.31168 -0.817951,-2.81871 -0.327182,-1.50703 -0.518038,-3.09779 -0.16359,-1.61866 -0.245385,-3.06988 -0.05453,-1.45121 -0.05453,-2.62335 0,-1.20004 0.02727,-1.89773 0.02726,-0.72562 0.518036,-1.22796 0.490772,-0.50234 1.199664,-0.47443 0.708892,0 1.172399,0.53025 0.463506,0.50234 0.518037,1.22795 0.02726,0.75351 0.109059,2.00937 0.08179,1.22796 0.218122,2.65126 0.16359,1.3954 0.381706,2.8187 0.218123,1.42331 0.490768,2.56754 0.299924,1.14422 0.654371,1.86983 0.35444,0.72565 0.79068,0.72565 0.43625,0 0.73616,-0.72565 0.29992,-0.72561 0.49077,-1.84192 0.21812,-1.14422 0.32718,-2.53963 0.10907,-1.3954 0.16359,-2.76289 0.0546,-1.36749 0.0273,-2.56753 0,-1.20005 -0.0273,-1.92565 -0.0546,-1.3675 0.0546,-2.14892 0.10906,-0.78142 0.29992,-1.20004 0.19086,-0.41862 0.40897,-0.55816 0.24539,-0.13953 0.43625,-0.19535 0.19085,-0.0559 0.54529,-0.0838 0.35445,-0.0558 0.73617,0.25118 0.40897,0.27907 0.76342,1.11631 0.35444,0.80934 0.51804,2.48382 z m -19.236376,1.4233 q 0.163591,1.84193 0.163591,3.68385 0,2.12101 -0.218121,4.24202 -0.190856,2.121 -0.408976,4.21409 -0.02727,0.1675 -0.109061,0.8372 -0.08179,0.6698 -0.245385,1.3954 -0.136326,0.6977 -0.354446,1.2559 -0.218121,0.5861 -0.490772,0.5861 -0.27265,0 -0.463506,-0.2233 -0.190856,-0.2233 -0.327181,-0.5302 -0.136326,-0.2791 -0.245386,-0.5861 -0.08179,-0.307 -0.10906,-0.5024 -0.109061,-0.4186 -0.190856,-1.0605 -0.05453,-0.6418 -0.109061,-1.3116 -0.05453,-0.6698 -0.109059,-1.3117 -0.05453,-0.64189 -0.08179,-1.08842 -0.21812,-2.37217 -0.463506,-4.71644 -0.218121,-2.34427 -0.408977,-4.71645 0,-0.0279 0,-0.0279 0.02727,-0.0279 0.02727,-0.0558 -1.744966,-0.0279 -3.544462,-0.13955 -1.77223,-0.11162 -3.462665,-0.50234 -0.599832,-0.13954 -0.872483,-0.55816 -0.272651,-0.44653 -0.272651,-1.0605 0,-0.64189 0.354446,-1.20005 0.354446,-0.58607 1.063339,-0.58607 0.381711,0 0.763422,-0.0279 0.408976,-0.0559 0.790687,-0.0559 1.417785,-0.0838 2.862834,-0.0838 1.7177,0 3.380871,0.0558 1.66317,0.0279 3.38087,0.0279 1.145134,0 2.235737,-0.0279 1.117869,-0.0558 2.263003,-0.0558 0.27265,0 0.845217,0.0279 0.599831,0 1.172398,0.11163 0.599833,0.0838 1.036074,0.30699 0.463506,0.22326 0.463506,0.66979 0,0.66979 -0.490772,1.14422 -0.49077,0.47444 -1.281458,0.80934 -0.763423,0.30699 -1.717701,0.53024 -0.954278,0.19537 -1.881291,0.307 -0.927012,0.11162 -1.7177,0.16744 -0.790687,0.0279 -1.226929,0.0559 z"
       inkscape:connector-curvature="0" />
    <path
       id="path4171"
       style="font-style:normal;font-variant:normal;font-weight:normal;font-stretch:normal;font-size:medium;line-height:100%;font-family:'Born Addict';-inkscape-font-specification:'Born Addict';text-align:justify;letter-spacing:0px;word-spacing:0px;writing-mode:lr-tb;text-anchor:start;fill:#aa4400;fill-opacity:1;stroke:none;stroke-width:1px;stroke-linecap:butt;stroke-linejoin:miter;stroke-opacity:1;filter:url(#filter5291)"
       d="m 152.25103,1011.1695 q 0.79236,1.455 1.09722,2.7817 0.30344,1.3086 0.16855,2.4124 -0.11796,1.0843 -0.64211,1.9067 -0.50723,0.803 -1.37411,1.2313 -0.84863,0.427 -2.02597,0.4042 -1.15772,-0.01 -2.56128,-0.5775 -0.89073,-0.3539 -1.60025,-0.7393 -0.69266,-0.4048 -1.23917,-1.0574 -0.5479,-0.671 -0.97923,-1.733 -0.41302,-1.0635 -0.74595,-2.7529 0.0197,-1.8792 0.48197,-3.2622 0.46091,-1.4013 1.22378,-2.2229 0.76155,-0.84 1.75344,-1.0769 0.99193,-0.237 2.09063,0.1926 1.09729,0.4115 2.21279,1.5329 1.13241,1.1016 2.13973,2.9601 z m -6.2368,4.1411 q 1.02842,1.1823 1.85312,1.6322 0.84299,0.4485 1.46262,0.3846 0.61959,-0.064 1.04391,-0.5142 0.42293,-0.4687 0.63086,-1.1038 0.20793,-0.6351 0.22627,-1.3476 0.0183,-0.7123 -0.17281,-1.2816 -0.0191,0.01 -0.16857,-0.2793 -0.13345,-0.3002 -0.38635,-0.7191 -0.2529,-0.4189 -0.6027,-0.9038 -0.33157,-0.486 -0.7306,-0.8942 -0.399,-0.4082 -0.85981,-0.6661 -0.44258,-0.2592 -0.91886,-0.2424 -0.36948,-0.028 -0.74042,0.1638 -0.37091,0.1913 -0.68986,0.5794 -0.31894,0.388 -0.53251,0.9506 -0.19674,0.5433 -0.23607,1.2206 -0.0224,0.6581 0.1658,1.4281 0.18824,0.7701 0.65607,1.5926 z m -8.54342,-4.404 q 0.20228,1.1884 0.29498,2.3849 0.10675,1.3776 0.0674,2.7661 -0.0211,1.3871 -0.0619,2.7574 -0.01,0.1101 -0.0309,0.5492 -0.021,0.4391 -0.0942,0.9184 -0.0565,0.4598 -0.17425,0.8332 -0.11646,0.3915 -0.29926,0.4049 -0.18272,0.014 -0.32179,-0.122 -0.13912,-0.1355 -0.24586,-0.3282 -0.10538,-0.1746 -0.1939,-0.3686 -0.0703,-0.1953 -0.0983,-0.321 -0.0941,-0.2664 -0.18123,-0.6794 -0.0689,-0.4143 -0.13904,-0.8467 -0.0703,-0.4324 -0.13909,-0.8466 -0.0689,-0.4143 -0.10962,-0.7029 -0.26549,-1.5302 -0.54785,-3.0408 -0.2641,-1.5121 -0.51134,-3.0436 -0.002,-0.018 -0.002,-0.018 0.0169,-0.02 0.0152,-0.037 -1.17033,0.068 -2.3814,0.084 -1.19284,0.015 -2.34492,-0.1559 -0.40876,-0.061 -0.61256,-0.3196 -0.20512,-0.2765 -0.23603,-0.6754 -0.0323,-0.417 0.17709,-0.797 0.20794,-0.3981 0.68283,-0.433 0.25567,-0.019 0.51,-0.056 0.27111,-0.056 0.52686,-0.075 0.94553,-0.1243 1.9136,-0.1954 1.15066,-0.085 2.26761,-0.1302 1.11555,-0.064 2.26624,-0.1483 0.76711,-0.056 1.49629,-0.1282 0.74605,-0.091 1.51316,-0.1476 0.18273,-0.014 0.56763,-0.024 0.40187,-0.03 0.79106,0.014 0.40615,0.024 0.70945,0.1489 0.32176,0.1219 0.34422,0.4122 0.0337,0.435 -0.2712,0.7674 -0.30487,0.3323 -0.81771,0.5888 -0.49596,0.237 -1.12399,0.4291 -0.62943,0.1738 -1.24482,0.2919 -0.61537,0.1181 -1.14225,0.1934 -0.52826,0.057 -0.8191,0.097 z m -14.43144,4.3238 q 0.0576,0.7432 0.11515,1.4865 0.0745,0.7238 0.13204,1.467 0.0196,0.2537 0.0182,0.7097 0.0154,0.4364 -0.0604,0.8795 -0.0773,0.4249 -0.27117,0.7674 -0.1953,0.3243 -0.57886,0.3525 -0.27402,0.02 -0.52272,-0.1071 -0.23044,-0.1288 -0.41303,-0.3526 -0.18264,-0.2237 -0.29362,-0.4707 -0.1124,-0.2652 -0.13206,-0.519 -0.14183,-1.12 -0.24582,-2.2244 -0.10392,-1.1045 -0.19241,-2.2465 -0.0955,-1.2327 -0.17135,-2.4487 -0.0759,-1.2159 -0.17138,-2.4485 -0.0294,-0.3808 0.22339,-0.6727 0.25289,-0.2921 0.65475,-0.3217 0.2922,-0.021 0.54212,0.1254 0.25002,0.146 0.38074,0.4097 0.63363,0.5915 1.30236,1.3993 0.68703,0.8063 1.34314,1.6878 0.65611,0.8815 1.2574,1.7673 0.61816,0.8661 1.11552,1.5952 -0.10809,-1.8699 0.15886,-3.6397 0.26557,-1.788 0.99479,-3.5187 0.1391,-0.3384 0.43416,-0.5606 0.29507,-0.2223 0.66035,-0.2491 0.47495,-0.036 0.86686,0.2827 0.39059,0.2994 0.42849,0.7889 0.01,0.1269 -0.0186,0.2383 -0.0112,0.092 -0.038,0.2216 -0.22203,0.9279 -0.4974,1.8779 -0.25853,0.9306 -0.47773,1.8946 -0.21924,0.9643 -0.34568,1.9398 -0.1091,0.9561 -0.0352,1.9168 0.0435,0.5619 0.17278,1.0447 0.14611,0.4632 0.2894,0.8903 0.16157,0.4256 0.2852,0.8358 0.14188,0.4091 0.1756,0.8441 0.0211,0.2719 -0.0682,0.5518 -0.0882,0.28 -0.45381,0.3067 -0.62099,0.046 -1.20273,-0.1115 -1.04808,-0.9622 -1.92194,-2.0466 -0.87526,-1.1026 -1.75195,-2.2231 -0.40887,-0.5349 -0.8528,-1.0494 -0.42712,-0.5338 -0.83594,-1.0689 z m -4.39608,-3.8701 q 0.13485,0.7922 0.26972,1.8214 0.15171,1.0099 0.20232,2.1364 0.0491,1.1085 -0.0282,2.2446 -0.0787,1.1179 -0.37097,2.0874 -0.27398,0.9682 -0.82194,1.7194 -0.54938,0.7331 -1.42188,1.089 -0.89076,0.357 -1.60166,0.1906 -0.6912,-0.1498 -1.2462,-0.6742 -0.53811,-0.5437 -0.94974,-1.3522 -0.39479,-0.8279 -0.68979,-1.7907 -0.29504,-0.9628 -0.50294,-1.9867 -0.19103,-1.0434 -0.31888,-1.982 -0.10962,-0.9399 -0.16861,-1.7013 -0.0604,-0.7795 -0.0773,-1.234 -0.0182,-0.4727 0.28525,-0.8231 0.30349,-0.3505 0.77978,-0.3673 0.47484,-0.034 0.81206,0.2868 0.33578,0.3035 0.40882,0.7721 0.0562,0.4881 0.17419,1.2998 0.11663,0.7937 0.27955,1.7114 0.1798,0.8985 0.39757,1.8121 0.21775,0.9139 0.45798,1.6437 0.25852,0.7284 0.53245,1.1824 0.27398,0.4537 0.56621,0.4323 0.29223,-0.021 0.45663,-0.5075 0.16437,-0.4861 0.23607,-1.2206 0.0885,-0.754 0.0913,-1.6657 0.003,-0.9118 -0.0295,-1.8027 -0.0322,-0.8911 -0.11096,-1.6692 -0.0604,-0.7795 -0.11517,-1.2494 -0.10539,-0.8856 -0.0716,-1.3985 0.0337,-0.513 0.14052,-0.7943 0.10678,-0.2813 0.24588,-0.3827 0.15737,-0.1028 0.28241,-0.1484 0.12505,-0.046 0.36107,-0.081 0.2346,-0.053 0.50573,0.1273 0.288,0.1612 0.56759,0.6875 0.27816,0.5083 0.47202,1.5879 z m -10.35018,-1.0444 q 0.51982,1.0193 0.8584,1.833 0.33859,0.8137 0.53104,1.6382 0.21073,0.8232 0.28376,1.7659 0.0717,0.9243 0.0379,2.1484 -0.0225,1.369 -0.46792,2.4956 -0.42853,1.1071 -1.12403,1.851 -0.67861,0.7244 -1.55532,1.0258 -0.8767,0.3016 -1.79698,0.041 -0.90227,-0.2608 -1.77866,-1.1454 -0.87808,-0.9018 -1.55525,-2.5292 -0.24867,-0.6015 -0.1784,-1.1173 0.0703,-0.5156 0.32315,-0.8076 0.26976,-0.3115 0.63507,-0.3384 0.38214,-0.046 0.72214,0.3116 0.16018,0.1704 0.37935,0.6284 0.21774,0.4398 0.49733,0.9661 0.29644,0.507 0.64768,1.0099 0.36806,0.4835 0.82891,0.7412 0.40323,0.2257 0.71934,0.038 0.33298,-0.2068 0.58026,-0.5713 0.2459,-0.3827 0.39625,-0.8132 0.15028,-0.4304 0.22197,-0.6907 0.20936,-0.8542 0.22395,-1.8578 0.0141,-1.0038 -0.11935,-2.0148 -0.13487,-1.0294 -0.42986,-1.9922 -0.27676,-0.9641 -0.66592,-1.7194 -0.19386,-0.3687 -0.0758,-0.7419 0.13484,-0.3928 0.5058,-0.5842 0.37234,-0.1732 0.76852,-0.038 0.39473,0.1173 0.58727,0.4673 z"
       inkscape:connector-curvature="0" />
    <path
       id="path4189"
       style="font-style:normal;font-variant:normal;font-weight:normal;font-stretch:normal;font-size:medium;line-height:100%;font-family:'Born Addict';-inkscape-font-specification:'Born Addict';text-align:justify;letter-spacing:0px;word-spacing:0px;writing-mode:lr-tb;text-anchor:start;fill:#d4aa00;fill-opacity:1;stroke:none;stroke-width:1px;stroke-linecap:butt;stroke-linejoin:miter;stroke-opacity:1;filter:url(#filter5279)"
       d="m 211.58369,1033.4469 q 1.0088,2.3164 1.30873,4.3815 0.29991,2.0373 -0.0273,3.7118 -0.29992,1.6466 -1.1724,2.8466 -0.84521,1.1722 -2.18121,1.7303 -1.30873,0.5582 -3.05368,0.3908 -1.71771,-0.1397 -3.73532,-1.1722 -1.28146,-0.6419 -2.29027,-1.3117 -0.98154,-0.6977 -1.71771,-1.7582 -0.73615,-1.0884 -1.25419,-2.7629 -0.49076,-1.6745 -0.79068,-4.2978 0.24539,-2.8745 1.0906,-4.9397 0.84522,-2.0931 2.07215,-3.2652 1.22692,-1.2001 2.72651,-1.4512 1.49958,-0.2512 3.08095,0.5302 1.58138,0.7535 3.10822,2.5955 1.55411,1.814 2.83557,4.7722 z m -9.73364,5.6375 q 1.39053,1.9256 2.56292,2.707 1.19966,0.7814 2.12668,0.7536 0.92701,-0.028 1.60864,-0.6699 0.68162,-0.6698 1.06334,-1.6187 0.38171,-0.9489 0.49077,-2.0373 0.10906,-1.0884 -0.10906,-1.9814 -0.0273,0 -0.21813,-0.4465 -0.16358,-0.4745 -0.49077,-1.1442 -0.32717,-0.6698 -0.79068,-1.4513 -0.43624,-0.7814 -0.98154,-1.4512 -0.5453,-0.6697 -1.19967,-1.1163 -0.62709,-0.4466 -1.33598,-0.4744 -0.54531,-0.084 -1.11788,0.1674 -0.57256,0.2511 -1.0906,0.8093 -0.51804,0.5582 -0.89975,1.3955 -0.35445,0.8093 -0.49077,1.8418 -0.10906,1.0048 0.0818,2.2048 0.19086,1.2001 0.79069,2.5118 z m -8.65325,-4.4374 0,0.028 0.0273,-0.028 -0.0273,0 z m -8.88841,-3.9909 q 0.0818,1.4233 0.0818,2.8466 0,0.5582 -0.0273,1.1443 0,0.5581 -0.0273,1.1442 0.95427,-0.084 2.15394,-0.056 1.19966,0.028 2.39933,-0.028 1.22693,-0.084 2.3448,-0.279 1.11786,-0.2233 1.93582,-0.7535 -0.10906,-0.8651 -0.6271,-1.4792 -0.51804,-0.6419 -1.28146,-1.0604 -0.76343,-0.4466 -1.69043,-0.6977 -0.92701,-0.2512 -1.8813,-0.3908 -0.95427,-0.1674 -1.85402,-0.2512 -0.87248,-0.084 -1.52684,-0.1395 z m -2.20848,-3.3769 q 0.19086,0 0.35445,0.028 0.16359,0.028 0.32718,0.084 0.62709,-0.056 1.22693,-0.084 0.62709,-0.028 1.25419,-0.028 1.14514,0 2.42659,0.1396 1.30873,0.1116 2.59019,0.4465 1.28146,0.307 2.45386,0.8651 1.1724,0.5304 2.07214,1.3676 0.89975,0.8092 1.41779,1.9535 0.54529,1.1163 0.54529,2.6234 0,1.4233 -0.87247,2.3442 -0.84522,0.921 -2.09941,1.4792 -1.22693,0.5302 -2.61745,0.7813 -1.36326,0.2512 -2.39933,0.3071 0.35444,0.3628 1.0088,1.0884 0.65436,0.7256 1.44506,1.6466 0.79068,0.893 1.60863,1.8976 0.84523,0.9769 1.49959,1.8978 0.68163,0.8931 1.11786,1.6187 0.43625,0.7256 0.43625,1.0605 0,0.2512 -0.19086,0.3349 -0.1636,0.084 -0.38171,0.084 -0.43625,0 -0.84522,-0.1953 -0.40898,-0.1954 -0.76342,-0.4187 -0.81796,-0.5302 -1.60864,-1.2 -0.76342,-0.6699 -1.52684,-1.2558 -1.69044,-1.3676 -3.35362,-2.7071 -1.66316,-1.3396 -3.32633,-2.7072 -0.0273,0.2512 -0.10906,1.1164 -0.0818,0.8373 -0.24538,1.7862 -0.1636,0.9488 -0.40898,1.7023 -0.21812,0.7256 -0.54531,0.7256 -0.27264,0 -0.46351,-0.2233 -0.19085,-0.2232 -0.35444,-0.5302 -0.13632,-0.307 -0.21812,-0.614 -0.0818,-0.3348 -0.13633,-0.5302 -0.13632,-0.5302 -0.16358,-1.1163 -0.0273,-0.5861 -0.0818,-1.1443 -0.10906,-1.1722 -0.21812,-2.3163 -0.10906,-1.1443 -0.21812,-2.3164 l -0.43624,-4.856 -0.21812,-2.4279 q 0,-0.4466 0.13632,-0.921 0.13633,-0.4745 0.38171,-0.8652 0.27265,-0.3907 0.6271,-0.6419 0.38172,-0.2791 0.87248,-0.2791 z m -9.03923,4.1025 q 0.16359,1.842 0.16359,3.6839 0,2.121 -0.21812,4.2419 -0.19085,2.1211 -0.40898,4.2142 -0.0273,0.1674 -0.10906,0.8373 -0.0818,0.6697 -0.24538,1.3953 -0.13632,0.6977 -0.35445,1.2559 -0.21812,0.5861 -0.49077,0.5861 -0.27265,0 -0.4635,-0.2233 -0.19086,-0.2233 -0.32719,-0.5303 -0.13632,-0.2791 -0.24538,-0.586 -0.0818,-0.307 -0.10906,-0.5024 -0.10907,-0.4186 -0.19086,-1.0605 -0.0546,-0.6419 -0.10906,-1.3116 -0.0546,-0.6698 -0.10906,-1.3117 -0.0546,-0.6419 -0.0818,-1.0885 -0.21812,-2.3721 -0.46351,-4.7164 -0.21812,-2.3443 -0.40897,-4.7164 0,-0.028 0,-0.028 0.0273,-0.028 0.0273,-0.056 -1.74496,-0.028 -3.54446,-0.1395 -1.77223,-0.1116 -3.46266,-0.5023 -0.59983,-0.1396 -0.87249,-0.5582 -0.27265,-0.4466 -0.27265,-1.0605 0,-0.6419 0.35444,-1.2001 0.35445,-0.586 1.06334,-0.586 0.38172,0 0.76342,-0.028 0.40898,-0.056 0.79069,-0.056 1.41779,-0.084 2.86284,-0.084 1.7177,0 3.38087,0.056 1.66317,0.028 3.38087,0.028 1.14513,0 2.23573,-0.028 1.11788,-0.056 2.26301,-0.056 0.27265,0 0.84522,0.028 0.59983,0 1.1724,0.1117 0.59983,0.084 1.03606,0.3069 0.46351,0.2233 0.46351,0.6698 0,0.6699 -0.49077,1.1443 -0.49077,0.4745 -1.28146,0.8093 -0.76342,0.307 -1.71769,0.5303 -0.95429,0.1953 -1.8813,0.3069 -0.92701,0.1117 -1.7177,0.1675 -0.79068,0.028 -1.22693,0.056 z m -23.7449,6.0002 q 0.49077,0.1954 0.73615,0.4187 0.24539,0.1954 0.35445,0.4465 0.10906,0.2232 0.10906,0.4465 0,0.2232 0,0.4744 0,0.2512 -0.0273,0.3908 -0.0273,0.1395 -0.0273,0.5023 0,0.3349 0.0273,1.0325 0.0546,0.6699 0.19085,1.9537 0.0546,0.4464 0.5453,0.7535 0.49078,0.279 1.19967,0.4185 0.73615,0.1397 1.63591,0.1397 0.89974,0 1.74495,-0.1117 0.87249,-0.1116 1.60865,-0.3349 0.76342,-0.2512 1.22693,-0.5861 0.57257,-0.4185 0.32717,-1.0326 -0.21811,-0.6419 -0.927,-1.3396 -0.7089,-0.6977 -1.71771,-1.4233 -0.98154,-0.7256 -1.96308,-1.3396 -0.95428,-0.6418 -1.71771,-1.0884 -0.76342,-0.4744 -0.98153,-0.6418 -2.4266,-1.5908 -3.54447,-3.0978 -1.11786,-1.5071 -1.28146,-2.7909 -0.13632,-1.3115 0.51804,-2.2884 0.68163,-1.0047 1.85403,-1.5628 1.1724,-0.5582 2.64471,-0.614 1.49958,-0.056 2.99916,0.5303 1.22693,0.4744 2.07214,1.1163 0.84522,0.6139 1.47232,1.3954 0.62709,0.7535 1.0906,1.7024 0.49078,0.9489 0.98155,2.093 0.29991,0.6699 0.0546,1.3676 -0.21813,0.6977 -0.87249,1.0046 -0.40897,0.1954 -0.84521,0.1675 -0.43625,-0.056 -0.81795,-0.2791 -0.40898,-0.2512 -0.65437,-0.7256 -0.21812,-0.3069 -0.65436,-0.9489 -0.40898,-0.6418 -0.95428,-1.3953 -0.5453,-0.7536 -1.19967,-1.4513 -0.62709,-0.7256 -1.28145,-1.1442 -0.6271,-0.4466 -1.2542,-0.4466 -0.59983,0 -1.09059,0.6419 -0.38172,0.5024 -0.10907,1.0885 0.27265,0.5581 1.11787,1.2837 0.87249,0.6977 2.31753,1.6187 1.44505,0.921 3.38087,2.121 0.46351,0.307 0.95428,0.614 0.51804,0.3069 1.06334,0.6697 2.01762,1.3396 2.91736,2.6234 0.89975,1.2838 0.92701,2.428 0.0273,1.1442 -0.70889,2.1489 -0.70889,0.9768 -1.88129,1.7303 -1.17239,0.7535 -2.69924,1.2279 -1.52684,0.4745 -3.10822,0.614 -1.58137,0.1675 -3.10822,-0.056 -1.49958,-0.1954 -2.69924,-0.8372 -1.1724,-0.642 -1.90856,-1.7304 -0.70889,-1.1162 -0.68163,-2.7628 0,-0.3348 0.0546,-0.9209 0.0546,-0.5861 0.16359,-1.2001 0.10906,-0.614 0.24539,-1.1442 0.16359,-0.5302 0.32718,-0.7535 0.19086,-0.642 0.49077,-0.8652 0.32718,-0.2512 0.6271,-0.307 0.35445,-0.056 0.73616,0.056 z m -10.69772,-3.7954 q -0.29992,0.9489 -0.65436,1.8977 -0.32718,0.9209 -0.65436,1.8698 0.70889,0.3907 1.44505,0.6977 0.73615,0.3071 1.49957,0.614 -0.43623,-1.2558 -0.84521,-2.5117 -0.40898,-1.2838 -0.79069,-2.5675 z m -2.3448,6.6979 q -0.43624,1.2 -0.81795,2.4558 -0.38171,1.228 -0.92701,2.3722 -0.13633,0.3071 -0.32718,0.6419 -0.16359,0.3349 -0.40898,0.6139 -0.24538,0.2792 -0.5453,0.4745 -0.29991,0.1954 -0.65437,0.1954 -0.35444,0 -0.59983,-0.1954 -0.24538,-0.1674 -0.40897,-0.4745 -0.13632,-0.279 -0.21812,-0.5859 -0.0546,-0.3349 -0.0546,-0.642 0,-0.3349 0.21812,-1.2 0.21812,-0.8651 0.57257,-2.0652 0.35444,-1.2 0.81795,-2.6512 0.46351,-1.4792 0.95427,-2.9583 0.51804,-1.5071 1.03608,-2.9583 0.51804,-1.4512 0.95428,-2.6233 0.43624,-1.2001 0.79069,-2.0373 0.35444,-0.8372 0.51804,-1.1442 0.29991,-0.5303 0.81795,-1.0047 0.5453,-0.5023 1.19966,-0.5023 0.35444,0 0.59983,0.1953 0.24539,0.1675 0.40897,0.4745 0.1636,0.279 0.21813,0.6139 0.0818,0.335 0.0818,0.6419 0,0.1954 -0.0273,0.3628 -0.0273,0.1675 -0.0818,0.3628 0.0546,0.084 0.29991,0.8093 0.27265,0.6978 0.65436,1.8141 0.38171,1.1163 0.84522,2.5397 0.49077,1.4232 0.95428,2.9024 0.49077,1.479 0.927,2.9024 0.46351,1.4233 0.81796,2.5954 0.35445,1.1442 0.57257,1.9257 0.21812,0.7535 0.21812,0.893 0,0.5303 -0.32719,0.8931 -0.29991,0.3628 -0.81795,0.3628 -0.62709,0 -1.11787,-0.4187 -0.4635,-0.4185 -0.84521,-1.0325 -0.35444,-0.6141 -0.6271,-1.2838 -0.27264,-0.6698 -0.43624,-1.1443 -0.5453,-0.028 -1.2542,-0.2511 -0.70889,-0.2233 -1.44504,-0.5581 -0.70889,-0.3349 -1.39052,-0.6699 -0.68163,-0.3628 -1.14514,-0.6418 z m -8.78958,-5.6374 0,0.028 0.0273,-0.028 -0.0273,0 z m -8.88842,-3.9909 q 0.0818,1.4233 0.0818,2.8466 0,0.5582 -0.0273,1.1443 0,0.5581 -0.0273,1.1442 0.95428,-0.084 2.15395,-0.056 1.19966,0.028 2.39932,-0.028 1.22692,-0.084 2.3448,-0.279 1.11787,-0.2233 1.93582,-0.7535 -0.10906,-0.8651 -0.6271,-1.4792 -0.51804,-0.6419 -1.28146,-1.0604 -0.76342,-0.4466 -1.69043,-0.6977 -0.92702,-0.2512 -1.88129,-0.3908 -0.95428,-0.1674 -1.85403,-0.2512 -0.87249,-0.084 -1.52685,-0.1395 z m -2.20846,-3.3769 q 0.19085,0 0.35444,0.028 0.16359,0.028 0.32718,0.084 0.6271,-0.056 1.22693,-0.084 0.6271,-0.028 1.2542,-0.028 1.14513,0 2.42659,0.1396 1.30872,0.1116 2.59018,0.4465 1.28146,0.307 2.45386,0.8651 1.17239,0.5304 2.07215,1.3676 0.89974,0.8092 1.41778,1.9535 0.5453,1.1163 0.5453,2.6234 0,1.4233 -0.87248,2.3442 -0.84522,0.921 -2.09942,1.4792 -1.22693,0.5302 -2.61744,0.7813 -1.36326,0.2512 -2.39933,0.3071 0.35445,0.3628 1.00881,1.0884 0.65436,0.7256 1.44505,1.6466 0.79068,0.893 1.60864,1.8976 0.84521,0.9769 1.49958,1.8978 0.68162,0.8931 1.11787,1.6187 0.43624,0.7256 0.43624,1.0605 0,0.2512 -0.19086,0.3349 -0.16359,0.084 -0.38171,0.084 -0.43624,0 -0.84522,-0.1953 -0.40897,-0.1954 -0.76342,-0.4187 -0.81795,-0.5302 -1.60864,-1.2 -0.76343,-0.6699 -1.52685,-1.2558 -1.69042,-1.3676 -3.3536,-2.7071 -1.66317,-1.3396 -3.32634,-2.7072 -0.0273,0.2512 -0.10907,1.1164 -0.0818,0.8373 -0.24538,1.7862 -0.16359,0.9488 -0.40898,1.7023 -0.21811,0.7256 -0.54529,0.7256 -0.27266,0 -0.46351,-0.2233 -0.19085,-0.2232 -0.35445,-0.5302 -0.13632,-0.307 -0.21812,-0.614 -0.0818,-0.3348 -0.13632,-0.5302 -0.13632,-0.5302 -0.1636,-1.1163 -0.0273,-0.5861 -0.0817,-1.1443 -0.10906,-1.1722 -0.21812,-2.3163 -0.10906,-1.1443 -0.21812,-2.3164 l -0.43624,-4.856 -0.21812,-2.4279 q 0,-0.4466 0.13632,-0.921 0.13633,-0.4745 0.38171,-0.8652 0.27266,-0.3907 0.6271,-0.6419 0.38171,-0.2791 0.87249,-0.2791 z m -10.23974,0.8373 q 0.19085,2.0651 0.21811,3.628 0.0273,1.5349 -0.0546,2.9861 -0.0546,1.4512 -0.21811,2.9862 -0.13634,1.535 -0.32719,3.5722 -0.21812,2.2327 -0.57257,3.1536 -0.32717,0.921 -0.62709,0.921 -0.29991,0.028 -0.6271,-0.4186 -0.32718,-0.4744 -0.51804,-1.4513 -0.0817,-0.4185 -0.24538,-2.0651 -0.0817,-0.6978 -0.19085,-1.7303 -0.0818,-1.0605 -0.21813,-2.5117 -0.13632,-1.4792 -0.32718,-3.4048 -0.16358,-1.9536 -0.38171,-4.4653 0.10906,-0.8651 0.35445,-1.3674 0.24538,-0.5303 0.49077,-0.8094 0.29991,-0.307 0.59984,-0.4465 0.84521,-0.2512 1.60863,0.1674 0.79069,0.4186 1.03608,1.2559 z m -19.67901,-0.3349 q 0.70889,0 1.03608,0.3628 0.32717,0.3628 0.59983,0.9488 0.13632,0.3071 0.51804,0.8094 0.3817,0.5023 0.84521,1.0605 0.46351,0.5302 0.89975,1.0605 0.4635,0.5302 0.70889,0.8652 0.38171,0.5023 0.7089,1.0325 0.35444,0.5024 0.70889,1.0047 0.19085,-0.3628 0.51804,-1.0884 0.32717,-0.7256 0.73615,-1.6187 0.40897,-0.893 0.84522,-1.8419 0.43624,-0.9767 0.81795,-1.814 0.38171,-0.8372 0.68162,-1.4233 0.32719,-0.6139 0.46351,-0.7814 0.16359,-0.6419 0.59983,-1.0326 0.46351,-0.4186 1.14514,-0.4186 0.76342,0 1.14514,0.4186 0.3817,0.3907 0.51802,1.0047 0.1636,0.586 0.13634,1.2838 0,0.6697 0,1.2 0,1.5907 -0.10906,3.1815 -0.10907,1.5628 -0.27266,3.1536 -0.13632,1.5907 -0.24538,3.1815 -0.10906,1.5628 -0.10906,3.1536 0,1.2558 0.21812,2.4001 0.21812,1.1163 0.40898,2.3442 0.0273,0.084 0.0273,0.3628 0,0.5861 -0.27265,1.0327 -0.24538,0.4744 -0.92701,0.4744 -0.10907,0 -0.29992,-0.028 -0.16359,0 -0.24538,-0.028 -0.16359,-0.084 -0.40898,-0.279 -0.24539,-0.1954 -0.38171,-0.307 -0.7089,-0.6698 -1.11787,-1.6187 -0.40898,-0.9488 -0.6271,-2.0094 -0.21812,-1.0884 -0.29992,-2.1489 -0.0546,-1.0884 -0.0546,-2.0094 0,-0.7256 0.0273,-1.3953 0.0273,-0.6977 0.0818,-1.4233 -0.19085,0.3628 -0.4635,0.9489 -0.24539,0.586 -0.59983,1.1721 -0.32719,0.5581 -0.76343,0.9768 -0.43624,0.3907 -0.95427,0.3907 -0.57257,0 -1.14514,-0.5024 -0.5453,-0.5303 -1.06333,-1.2279 -0.49078,-0.7257 -0.92702,-1.4513 -0.40898,-0.7256 -0.70889,-1.1442 0.0546,1.4791 0.10906,2.9583 0.0818,1.4512 0.0818,2.9024 0,0.3907 -0.0546,1.1163 -0.0273,0.6977 -0.21811,1.4233 -0.16359,0.7256 -0.49078,1.2559 -0.32718,0.5302 -0.89974,0.5302 -0.49078,0 -0.84523,-0.3349 -0.35444,-0.3628 -0.59983,-0.8651 -0.24538,-0.5023 -0.3817,-1.0326 -0.10906,-0.5581 -0.13633,-0.9489 -0.1636,-3.3769 -0.40898,-6.7537 -0.21812,-3.3768 -0.21812,-6.7817 0,-0.6977 0.49077,-1.2 0.49077,-0.5023 1.1724,-0.5023 z m -17.077741,5.8049 q -0.299915,0.9489 -0.654362,1.8977 -0.327181,0.9209 -0.654361,1.8698 0.708892,0.3907 1.445048,0.6977 0.736158,0.3071 1.49958,0.614 -0.436241,-1.2558 -0.845217,-2.5117 -0.408977,-1.2838 -0.790688,-2.5675 z m -2.344797,6.6979 q -0.436241,1.2 -0.817953,2.4558 -0.381711,1.228 -0.927012,2.3722 -0.136326,0.3071 -0.327181,0.6419 -0.163591,0.3349 -0.408977,0.6139 -0.245386,0.2792 -0.545301,0.4745 -0.299916,0.1954 -0.654363,0.1954 -0.354445,0 -0.599831,-0.1954 -0.245386,-0.1674 -0.408976,-0.4745 -0.136326,-0.279 -0.218121,-0.5859 -0.05453,-0.3349 -0.05453,-0.642 0,-0.3349 0.218122,-1.2 0.21812,-0.8651 0.572566,-2.0652 0.354446,-1.2 0.817953,-2.6512 0.463506,-1.4792 0.954278,-2.9583 0.518036,-1.5071 1.036073,-2.9583 0.518036,-1.4512 0.954278,-2.6233 0.436241,-1.2001 0.790687,-2.0373 0.354446,-0.8372 0.518037,-1.1442 0.299915,-0.5303 0.817952,-1.0047 0.545302,-0.5023 1.199664,-0.5023 0.354446,0 0.599832,0.1953 0.245386,0.1675 0.408976,0.4745 0.163591,0.279 0.218121,0.6139 0.08179,0.335 0.08179,0.6419 0,0.1954 -0.02726,0.3628 -0.02727,0.1675 -0.08179,0.3628 0.05453,0.084 0.299916,0.8093 0.27265,0.6978 0.654362,1.8141 0.381711,1.1163 0.845217,2.5397 0.490772,1.4232 0.954279,2.9024 0.490771,1.479 0.927012,2.9024 0.463506,1.4233 0.817953,2.5954 0.354446,1.1442 0.572567,1.9257 0.21812,0.7535 0.21812,0.893 0,0.5303 -0.327181,0.8931 -0.299915,0.3628 -0.817953,0.3628 -0.627096,0 -1.117868,-0.4187 -0.463507,-0.4185 -0.845218,-1.0325 -0.354445,-0.6141 -0.627096,-1.2838 -0.272652,-0.6698 -0.436241,-1.1443 -0.545303,-0.028 -1.254195,-0.2511 -0.708892,-0.2233 -1.445049,-0.5581 -0.708892,-0.3349 -1.39052,-0.6699 -0.681626,-0.3628 -1.145133,-0.6418 z"
       inkscape:connector-curvature="0" />
    <g
       id="g5356"
       transform="translate(-18.091606,1049.7372)" />
    <g
       id="g5358"
       transform="translate(-18.091606,1049.7372)" />
    <g
       id="g5360"
       transform="translate(-18.091606,1049.7372)" />
    <g
       id="g5362"
       transform="translate(-18.091606,1049.7372)" />
    <g
       id="g5364"
       transform="translate(-18.091606,1049.7372)" />
    <g
       id="g5366"
       transform="translate(-18.091606,1049.7372)" />
    <g
       id="g5368"
       transform="translate(-18.091606,1049.7372)" />
    <g
       id="g5370"
       transform="translate(-18.091606,1049.7372)" />
    <g
       id="g5372"
       transform="translate(-18.091606,1049.7372)" />
    <g
       id="g5374"
       transform="translate(-18.091606,1049.7372)" />
    <g
       id="g5376"
       transform="translate(-18.091606,1049.7372)" />
    <g
       id="g5378"
       transform="translate(-18.091606,1049.7372)" />
    <g
       id="g5380"
       transform="translate(-18.091606,1049.7372)" />
    <g
       id="g5382"
       transform="translate(-18.091606,1049.7372)" />
    <g
       id="g5384"
       transform="translate(-18.091606,1049.7372)" />
    <path
       sodipodi:nodetypes="cccccccsccsccccccccccccccccccccccccscccccccccc"
       inkscape:connector-curvature="0"
       d="m -32.495991,64.85326 c -1.678,2.867 -3.386,2.645 -5.78,0.905 -2.401,-1.739 -6.424,-5.787 -4.742,-8.657 0.737,-1.26 3.361,-1.56 5.472,-3.547 2.706,-2.548 5.121,-6.546 7.337,-4.924 3.954,2.892 -0.602,13.357 -2.287,16.223 z m -6.646,8.167 c -3.761,7.737 -6.728,3.926 -15.031,3.926 -8.296,0 -11.066,3.89 -15.028,-3.926 -2.069,-4.098 4.781,-7.294 6.989,-9.699 2.752,-3.006 3.429,-8.471 8.038,-8.471 4.398,0 5.34,5.375 8.092,8.178 2.445,2.484 9.166,5.411 6.94,9.992 z m -35.624,-8.092 c -1.886,-2.72 -6.71,-13.367 -3.547,-16.559 3.164,-3.182 9.946,4.162 11.828,6.875 1.89,2.716 1.517,5.447 -0.73,7.423 -2.247,1.972 -5.658,4.974 -7.551,2.261 z m -0.789585,-23.334007 0.506585,3.199007 -2.577,0.848 c 0,-5.049 2.070415,-4.047007 2.070415,-4.047007 z m 10.441585,-6.140993 c 1.535,-1.997 2.545,-5.068 4.978,-5.093 6.61,-0.05 3.711,12.218 3.443,15.604 -0.265,3.371 -3.157,3.139 -6.302,2.852 -3.157,-0.286 -5.111,-0.82 -6.148,-4.019 -0.802,-2.465 1.391,-5.919 4.029,-9.344 z m 5.187194,-12.253838 -0.06919,4.694838 -2.577,0.583 c 0,-5.053 2.646194,-5.277838 2.646194,-5.277838 z m 13.247806,7.439838 c 2.967,0.333 3.811,4.284 5.196,7.405 1.435,3.232 3.346,5.658 2.831,7.455 -0.934,3.232 -4.044,4.413 -7.179,4.008 -3.135,-0.405 -6.725,-0.902 -6.342,-4.262 0.372,-3.368 -0.547,-15.289 5.494,-14.606 z m 0.481129,-6.84162 c 0,0 2.105871,0.16762 2.105871,5.22162 l -2.58,-0.68 z m 14.684081,17.107898 c 0,0 1.94179,-0.310278 1.94179,4.739722 l -2.57,-0.848 z"
       style="fill:#cc00ff;filter:url(#filter5603)"
       id="path5354"
       transform="matrix(0.93002206,0.30039593,-0.2955217,1.0172236,98.222299,982.65883)" />
    <path
       id="path5453"
       style="fill:#8800aa;filter:url(#filter5591)"
       d="m 143.62957,10.720081 c 3.05582,1.469059 4.34179,0.362911 5.31411,-2.3711948 0.9787,-2.7370562 1.95958,-8.26275154 -1.10129,-9.7321355 -1.34261,-0.6458724 -3.6907,0.52243342 -6.59394,0.016189 -3.7221,-0.64972 -8.04558,-2.6577838 -8.93899,-0.1175434 -1.59536,4.530778 8.25908,10.7402355 11.32011,12.2046847 z m 10.25072,3.177237 c 7.61088,4.378774 7.85465,-0.380395 14.73307,-4.8636152 6.87262,-4.479439 11.42744,-2.752528 10.16859,-11.3667958 -0.66691,-4.5120507 -8.19849,-3.4610304 -11.42495,-4.2611816 -4.02631,-1.0043014 -7.7623,-5.1661044 -11.58051,-2.6774647 -3.64342,2.3747083 -1.30094,7.3361332 -1.95224,11.1441592 -0.5823,3.3779928 -4.44958,9.4318101 0.056,12.0248981 z m 24.81043,-25.938869 c -0.0179,-3.271669 -2.20744,-14.696649 -6.68229,-15.633118 -4.46987,-0.927644 -5.82142,8.818271 -5.80428,12.08198 0.0123,3.270515 1.90797,5.331546 4.91749,5.7552446 3.0072,0.4203845 7.57711,1.065544 7.56908,-2.2041066 z m -12.90286,-19.756842 1.43894,2.923675 2.62754,-0.68895 c -2.93345,-4.182724 -4.06648,-2.234725 -4.06648,-2.234725 z m -12.21798,0.550597 c -2.43188,-0.825541 -5.05284,-2.824286 -7.08292,-1.531294 -5.50495,3.52766 4.02433,12.125472 6.2136,14.785816 2.17807,2.649537 4.43909,0.895801 6.87774,-1.040106 2.44918,-1.941558 3.75767,-3.439003 2.75814,-6.649068 -0.76776,-2.475112 -4.59126,-4.152382 -8.76656,-5.565348 z m -11.41664,-7.350567 2.78501,3.851962 2.47357,-0.908483 c -2.93577,-4.186038 -5.25858,-2.943479 -5.25858,-2.943479 z m -6.65231,13.316536 c -2.26447,1.877903 -0.66815,5.606734 -0.002,8.940085 0.68899,3.452305 0.51537,6.4939162 1.98606,7.7045227 2.65153,2.1731582 5.91409,1.4722792 8.2759,-0.5559824 2.36182,-2.0282623 5.04711,-4.3784183 2.77767,-6.9551283 -2.26497,-2.589278 -8.4297,-12.961161 -13.0374,-9.133497 z m -4.37354,-5.40799 c 0,0 -1.64717,1.27593 1.28918,5.462795 l 1.74227,-1.956405 z m -2.22505,22.1013281 c 0,0 -1.7889,0.7914307 1.14513,4.9749826 l 1.63637,-2.0901815 z"
       inkscape:connector-curvature="0"
       sodipodi:nodetypes="cccccccsccsccccccccccccccccccccccccscccccccccc"
       transform="matrix(0.93002206,0.30039593,-0.2955217,1.0172236,98.222299,982.65883)" />
  </g>
</svg>
